<svg width="32" height="32" viewBox="0 0 32 32" fill="none" xmlns="http://www.w3.org/2000/svg">
<path d="M17.6401 0.0338274C17.768 0.0338274 17.8943 0.0140381 18.0221 0.0140381C22.5307 0.0140381 27.0404 0.0140381 31.551 0.0140381C31.8463 0.0140381 31.9711 0.059703 31.9711 0.400676C31.9599 7.40888 31.9569 14.4171 31.9619 21.4253C31.9619 21.4953 31.9513 21.5653 31.9467 21.6369H31.1371C30.4219 21.6369 30.4219 21.6369 30.3534 22.3325C30.1898 23.9605 29.4065 25.4632 28.1658 26.5294C26.925 27.5957 25.3218 28.1438 23.6882 28.0602C22.0545 27.9767 20.5156 27.2679 19.39 26.0807C18.2644 24.8935 17.6384 23.3187 17.6417 21.6825C17.6406 14.4633 17.6401 7.24702 17.6401 0.0338274Z" fill="#FAD605"/>
<path d="M17.6402 0.0337619C17.6402 7.24797 17.6402 14.4612 17.6402 21.6733C17.6341 23.3118 18.2591 24.8897 19.3855 26.0794C20.5118 27.2691 22.053 27.9792 23.689 28.0622C25.325 28.1453 26.9301 27.5949 28.1711 26.5254C29.4121 25.4559 30.1936 23.9494 30.3534 22.3188C30.4219 21.6231 30.4219 21.6231 31.1371 21.6231H31.9467C31.9467 22.5577 31.9635 23.4939 31.9635 24.43C31.9635 26.8275 31.9635 29.225 31.9635 31.6209C31.9635 31.8705 31.9391 32.0015 31.6287 31.9999C27.0348 31.9888 22.44 31.9857 17.8441 31.9908C17.7605 31.9827 17.6779 31.9663 17.5976 31.9421C17.5892 30.4921 17.1874 29.0716 16.4349 27.8322C14.837 25.182 11.524 23.6233 8.50928 24.121C4.55257 24.7741 1.827 27.9265 1.7159 31.9604C1.22284 32.0349 0.725202 31.971 0.232134 31.9954C-0.0554889 32.0106 0.00538397 31.8112 0.00538397 31.6514C0.00538397 30.048 0.00538397 28.4446 0.00538397 26.8412C0.00538397 24.8258 0.00994885 22.8109 0.0190797 20.7966C1.7646 20.7966 3.51012 20.7874 5.25412 20.7966C6.24823 20.8134 7.23807 20.6626 8.18209 20.3505C11.7873 19.1221 14.0669 16.6303 14.7107 12.8918C15.3711 9.0467 14.0411 5.85922 10.9061 3.49372C9.41385 2.36418 7.60297 1.73501 5.73197 1.696C5.42761 1.68687 5.25869 1.62903 5.2876 1.26522C5.31956 0.855749 5.2876 0.443233 5.2876 0.0307168C5.79741 0.0307168 6.30569 0.0139734 6.80942 0.0124512H17.173C17.3252 0.0154956 17.4849 0.0276731 17.6402 0.0337619Z" fill="#25185A"/>
<path d="M5.28905 0.0338138C5.28905 0.44633 5.32406 0.858846 5.28905 1.26832C5.26014 1.63212 5.42754 1.68996 5.73342 1.6991C7.60443 1.7381 9.4153 2.36727 10.9076 3.49682C14.041 5.86231 15.3711 9.0498 14.7121 12.8949C14.0684 16.6395 11.7887 19.1359 8.18355 20.3536C7.23952 20.6657 6.24968 20.8165 5.25557 20.7996C3.51158 20.7875 1.76605 20.7996 0.0205329 20.7996C0.0205329 20.6581 0.00683594 20.5165 0.00683594 20.375C0.00683594 13.7483 0.00683594 7.12219 0.00683594 0.496561C0.00683594 0.117534 0.087493 -0.00728577 0.489252 0.000325228C2.08411 0.0353358 3.68811 0.027725 5.28905 0.0338138Z" fill="#FAD605"/>
<path d="M1.72046 31.9664C1.83155 27.9296 4.56017 24.7801 8.51384 24.1271C11.5286 23.6294 14.8415 25.1927 16.4394 27.8382C17.1919 29.0776 17.5938 30.4982 17.6021 31.9482C17.4912 31.9649 17.3794 31.9755 17.2673 31.9801H1.93199C1.86047 31.9832 1.79046 31.9725 1.72046 31.9664Z" fill="#FAD605"/>
</svg>
