<svg width="21" height="20" viewBox="0 0 21 20" fill="none" xmlns="http://www.w3.org/2000/svg">
<path d="M10.5 1.875C6.01992 1.875 2.375 5.51992 2.375 10C2.375 14.4801 6.01992 18.125 10.5 18.125C14.9801 18.125 18.625 14.4801 18.625 10C18.625 5.51992 14.9801 1.875 10.5 1.875ZM13.625 10.625H11.125V13.125C11.125 13.2908 11.0592 13.4497 10.9419 13.5669C10.8247 13.6842 10.6658 13.75 10.5 13.75C10.3342 13.75 10.1753 13.6842 10.0581 13.5669C9.94085 13.4497 9.875 13.2908 9.875 13.125V10.625H7.375C7.20924 10.625 7.05027 10.5592 6.93306 10.4419C6.81585 10.3247 6.75 10.1658 6.75 10C6.75 9.83424 6.81585 9.67527 6.93306 9.55806C7.05027 9.44085 7.20924 9.375 7.375 9.375H9.875V6.875C9.875 6.70924 9.94085 6.55027 10.0581 6.43306C10.1753 6.31585 10.3342 6.25 10.5 6.25C10.6658 6.25 10.8247 6.31585 10.9419 6.43306C11.0592 6.55027 11.125 6.70924 11.125 6.875V9.375H13.625C13.7908 9.375 13.9497 9.44085 14.0669 9.55806C14.1842 9.67527 14.25 9.83424 14.25 10C14.25 10.1658 14.1842 10.3247 14.0669 10.4419C13.9497 10.5592 13.7908 10.625 13.625 10.625Z" fill="white"/>
</svg>
