<svg width="24" height="24" viewBox="0 0 24 24" fill="none" xmlns="http://www.w3.org/2000/svg">
<g clip-path="url(#clip0_292_5694)">
<path d="M16.5577 19.5H7.44234C5.81748 19.5 4.5 18.1829 4.5 16.5576V7.44242C4.5 5.81751 5.81706 4.5 7.44234 4.5H16.5577C18.1825 4.5 19.5 5.8171 19.5 7.44242V16.558C19.4996 18.1829 18.1825 19.5 16.5577 19.5Z" fill="white"/>
<path d="M7.55469 2.15967H7.08594V3.87436H7.55469V2.15967Z" fill="#FAD605"/>
<path d="M7.31883 2.66744C7.65564 2.66744 7.92867 2.39441 7.92867 2.0576C7.92867 1.72079 7.65564 1.44775 7.31883 1.44775C6.98202 1.44775 6.70898 1.72079 6.70898 2.0576C6.70898 2.39441 6.98202 2.66744 7.31883 2.66744Z" fill="#FAD605"/>
<path d="M10.6738 0.710938H10.2051V4.54063H10.6738V0.710938Z" fill="#FAD605"/>
<path d="M10.4399 1.21969C10.7767 1.21969 11.0498 0.946651 11.0498 0.609844C11.0498 0.273036 10.7767 0 10.4399 0C10.1031 0 9.83008 0.273036 9.83008 0.609844C9.83008 0.946651 10.1031 1.21969 10.4399 1.21969Z" fill="#FAD605"/>
<path d="M13.7949 0.710938H13.3262V4.54063H13.7949V0.710938Z" fill="#FAD605"/>
<path d="M13.5591 1.21969C13.8959 1.21969 14.1689 0.946651 14.1689 0.609844C14.1689 0.273036 13.8959 0 13.5591 0C13.2223 0 12.9492 0.273036 12.9492 0.609844C12.9492 0.946651 13.2223 1.21969 13.5591 1.21969Z" fill="#FAD605"/>
<path d="M16.9141 2.15967H16.4453V3.87436H16.9141V2.15967Z" fill="#FAD605"/>
<path d="M16.6802 2.66744C17.017 2.66744 17.29 2.39441 17.29 2.0576C17.29 1.72079 17.017 1.44775 16.6802 1.44775C16.3433 1.44775 16.0703 1.72079 16.0703 2.0576C16.0703 2.39441 16.3433 2.66744 16.6802 2.66744Z" fill="#FAD605"/>
<path d="M7.55469 20.126H7.08594V21.8407H7.55469V20.126Z" fill="#FAD605"/>
<path d="M7.31883 22.5522C7.65564 22.5522 7.92867 22.2792 7.92867 21.9424C7.92867 21.6056 7.65564 21.3325 7.31883 21.3325C6.98202 21.3325 6.70898 21.6056 6.70898 21.9424C6.70898 22.2792 6.98202 22.5522 7.31883 22.5522Z" fill="#FAD605"/>
<path d="M10.6738 19.459H10.2051V23.2887H10.6738V19.459Z" fill="#FAD605"/>
<path d="M10.4399 24C10.7767 24 11.0498 23.7269 11.0498 23.3901C11.0498 23.0533 10.7767 22.7803 10.4399 22.7803C10.1031 22.7803 9.83008 23.0533 9.83008 23.3901C9.83008 23.7269 10.1031 24 10.4399 24Z" fill="#FAD605"/>
<path d="M13.7949 19.459H13.3262V23.2887H13.7949V19.459Z" fill="#FAD605"/>
<path d="M13.5591 24C13.8959 24 14.1689 23.7269 14.1689 23.3901C14.1689 23.0533 13.8959 22.7803 13.5591 22.7803C13.2223 22.7803 12.9492 23.0533 12.9492 23.3901C12.9492 23.7269 13.2223 24 13.5591 24Z" fill="#FAD605"/>
<path d="M16.9141 20.126H16.4453V21.8407H16.9141V20.126Z" fill="#FAD605"/>
<path d="M16.6802 22.5522C17.017 22.5522 17.29 22.2792 17.29 21.9424C17.29 21.6056 17.017 21.3325 16.6802 21.3325C16.3433 21.3325 16.0703 21.6056 16.0703 21.9424C16.0703 22.2792 16.3433 22.5522 16.6802 22.5522Z" fill="#FAD605"/>
<path d="M3.87484 16.4463H2.16016V16.915H3.87484V16.4463Z" fill="#FAD605"/>
<path d="M2.05711 17.2905C2.39392 17.2905 2.66695 17.0175 2.66695 16.6806C2.66695 16.3438 2.39392 16.0708 2.05711 16.0708C1.7203 16.0708 1.44727 16.3438 1.44727 16.6806C1.44727 17.0175 1.7203 17.2905 2.05711 17.2905Z" fill="#FAD605"/>
<path d="M4.54063 13.3257H0.710938V13.7944H4.54063V13.3257Z" fill="#FAD605"/>
<path d="M0.609844 14.1699C0.946651 14.1699 1.21969 13.8968 1.21969 13.56C1.21969 13.2232 0.946651 12.9502 0.609844 12.9502C0.273036 12.9502 0 13.2232 0 13.56C0 13.8968 0.273036 14.1699 0.609844 14.1699Z" fill="#FAD605"/>
<path d="M4.54063 10.2056H0.710938V10.6743H4.54063V10.2056Z" fill="#FAD605"/>
<path d="M0.609844 11.0498C0.946651 11.0498 1.21969 10.7767 1.21969 10.4399C1.21969 10.1031 0.946651 9.83008 0.609844 9.83008C0.273036 9.83008 0 10.1031 0 10.4399C0 10.7767 0.273036 11.0498 0.609844 11.0498Z" fill="#FAD605"/>
<path d="M3.87484 7.08496H2.16016V7.55371H3.87484V7.08496Z" fill="#FAD605"/>
<path d="M2.05711 7.92916C2.39392 7.92916 2.66695 7.65612 2.66695 7.31932C2.66695 6.98251 2.39392 6.70947 2.05711 6.70947C1.7203 6.70947 1.44727 6.98251 1.44727 7.31932C1.44727 7.65612 1.7203 7.92916 2.05711 7.92916Z" fill="#FAD605"/>
<path d="M21.8397 16.4463H20.125V16.915H21.8397V16.4463Z" fill="#FAD605"/>
<path d="M21.9419 17.2905C22.2787 17.2905 22.5517 17.0175 22.5517 16.6806C22.5517 16.3438 22.2787 16.0708 21.9419 16.0708C21.6051 16.0708 21.332 16.3438 21.332 16.6806C21.332 17.0175 21.6051 17.2905 21.9419 17.2905Z" fill="#FAD605"/>
<path d="M23.2887 13.3257H19.459V13.7944H23.2887V13.3257Z" fill="#FAD605"/>
<path d="M23.3911 14.1699C23.7279 14.1699 24.0009 13.8968 24.0009 13.56C24.0009 13.2232 23.7279 12.9502 23.3911 12.9502C23.0543 12.9502 22.7812 13.2232 22.7812 13.56C22.7812 13.8968 23.0543 14.1699 23.3911 14.1699Z" fill="#FAD605"/>
<path d="M23.2887 10.2056H19.459V10.6743H23.2887V10.2056Z" fill="#FAD605"/>
<path d="M23.3911 11.0498C23.7279 11.0498 24.0009 10.7767 24.0009 10.4399C24.0009 10.1031 23.7279 9.83008 23.3911 9.83008C23.0543 9.83008 22.7812 10.1031 22.7812 10.4399C22.7812 10.7767 23.0543 11.0498 23.3911 11.0498Z" fill="#FAD605"/>
<path d="M21.8397 7.08496H20.125V7.55371H21.8397V7.08496Z" fill="#FAD605"/>
<path d="M21.9419 7.92916C22.2787 7.92916 22.5517 7.65612 22.5517 7.31932C22.5517 6.98251 22.2787 6.70947 21.9419 6.70947C21.6051 6.70947 21.332 6.98251 21.332 7.31932C21.332 7.65612 21.6051 7.92916 21.9419 7.92916Z" fill="#FAD605"/>
</g>
<defs>
<clipPath id="clip0_292_5694">
<rect width="24" height="24" fill="white"/>
</clipPath>
</defs>
</svg>
