<svg width="24" height="24" viewBox="0 0 24 24" fill="none" xmlns="http://www.w3.org/2000/svg">
<g clip-path="url(#clip0_231_7664)">
<path d="M16.5577 19.5H7.44234C5.81748 19.5 4.5 18.1829 4.5 16.5576V7.44242C4.5 5.81751 5.81706 4.5 7.44234 4.5H16.5577C18.1825 4.5 19.5 5.8171 19.5 7.44242V16.558C19.4996 18.1829 18.1825 19.5 16.5577 19.5Z" fill="#25185A"/>
<path d="M7.55371 2.15955H7.08496V3.87423H7.55371V2.15955Z" fill="#D7B403"/>
<path d="M7.3198 2.66769C7.65661 2.66769 7.92965 2.39465 7.92965 2.05784C7.92965 1.72103 7.65661 1.448 7.3198 1.448C6.983 1.448 6.70996 1.72103 6.70996 2.05784C6.70996 2.39465 6.983 2.66769 7.3198 2.66769Z" fill="#D7B403"/>
<path d="M10.6748 0.71106H10.2061V4.54075H10.6748V0.71106Z" fill="#D7B403"/>
<path d="M10.4399 1.21969C10.7767 1.21969 11.0498 0.946651 11.0498 0.609844C11.0498 0.273036 10.7767 0 10.4399 0C10.1031 0 9.83008 0.273036 9.83008 0.609844C9.83008 0.946651 10.1031 1.21969 10.4399 1.21969Z" fill="#D7B403"/>
<path d="M13.7939 0.71106H13.3252V4.54075H13.7939V0.71106Z" fill="#D7B403"/>
<path d="M13.56 1.21969C13.8968 1.21969 14.1699 0.946651 14.1699 0.609844C14.1699 0.273036 13.8968 0 13.56 0C13.2232 0 12.9502 0.273036 12.9502 0.609844C12.9502 0.946651 13.2232 1.21969 13.56 1.21969Z" fill="#D7B403"/>
<path d="M16.915 2.15955H16.4463V3.87423H16.915V2.15955Z" fill="#D7B403"/>
<path d="M16.6802 2.66769C17.017 2.66769 17.29 2.39465 17.29 2.05784C17.29 1.72103 17.017 1.448 16.6802 1.448C16.3433 1.448 16.0703 1.72103 16.0703 2.05784C16.0703 2.39465 16.3433 2.66769 16.6802 2.66769Z" fill="#D7B403"/>
<path d="M7.55371 20.1257H7.08496V21.8404H7.55371V20.1257Z" fill="#D7B403"/>
<path d="M7.3198 22.5521C7.65661 22.5521 7.92965 22.279 7.92965 21.9422C7.92965 21.6054 7.65661 21.3324 7.3198 21.3324C6.983 21.3324 6.70996 21.6054 6.70996 21.9422C6.70996 22.279 6.983 22.5521 7.3198 22.5521Z" fill="#D7B403"/>
<path d="M10.6748 19.4592H10.2061V23.2889H10.6748V19.4592Z" fill="#D7B403"/>
<path d="M10.4399 24C10.7767 24 11.0498 23.7269 11.0498 23.3901C11.0498 23.0533 10.7767 22.7803 10.4399 22.7803C10.1031 22.7803 9.83008 23.0533 9.83008 23.3901C9.83008 23.7269 10.1031 24 10.4399 24Z" fill="#D7B403"/>
<path d="M13.7939 19.4592H13.3252V23.2889H13.7939V19.4592Z" fill="#D7B403"/>
<path d="M13.56 24C13.8968 24 14.1699 23.7269 14.1699 23.3901C14.1699 23.0533 13.8968 22.7803 13.56 22.7803C13.2232 22.7803 12.9502 23.0533 12.9502 23.3901C12.9502 23.7269 13.2232 24 13.56 24Z" fill="#D7B403"/>
<path d="M16.915 20.1257H16.4463V21.8404H16.915V20.1257Z" fill="#D7B403"/>
<path d="M16.6802 22.5521C17.017 22.5521 17.29 22.279 17.29 21.9422C17.29 21.6054 17.017 21.3324 16.6802 21.3324C16.3433 21.3324 16.0703 21.6054 16.0703 21.9422C16.0703 22.279 16.3433 22.5521 16.6802 22.5521Z" fill="#D7B403"/>
<path d="M3.87387 16.446H2.15918V16.9148H3.87387V16.446Z" fill="#D7B403"/>
<path d="M2.05809 17.2904C2.39489 17.2904 2.66793 17.0173 2.66793 16.6805C2.66793 16.3437 2.39489 16.0707 2.05809 16.0707C1.72128 16.0707 1.44824 16.3437 1.44824 16.6805C1.44824 17.0173 1.72128 17.2904 2.05809 17.2904Z" fill="#D7B403"/>
<path d="M4.54063 13.3257H0.710938V13.7944H4.54063V13.3257Z" fill="#D7B403"/>
<path d="M0.609844 14.1699C0.946651 14.1699 1.21969 13.8968 1.21969 13.56C1.21969 13.2232 0.946651 12.9502 0.609844 12.9502C0.273036 12.9502 0 13.2232 0 13.56C0 13.8968 0.273036 14.1699 0.609844 14.1699Z" fill="#D7B403"/>
<path d="M4.54063 10.2056H0.710938V10.6743H4.54063V10.2056Z" fill="#D7B403"/>
<path d="M0.609844 11.0499C0.946651 11.0499 1.21969 10.7769 1.21969 10.44C1.21969 10.1032 0.946651 9.8302 0.609844 9.8302C0.273036 9.8302 0 10.1032 0 10.44C0 10.7769 0.273036 11.0499 0.609844 11.0499Z" fill="#D7B403"/>
<path d="M3.87387 7.08521H2.15918V7.55396H3.87387V7.08521Z" fill="#D7B403"/>
<path d="M2.05809 7.9294C2.39489 7.9294 2.66793 7.65637 2.66793 7.31956C2.66793 6.98275 2.39489 6.70972 2.05809 6.70972C1.72128 6.70972 1.44824 6.98275 1.44824 7.31956C1.44824 7.65637 1.72128 7.9294 2.05809 7.9294Z" fill="#D7B403"/>
<path d="M21.8407 16.446H20.126V16.9148H21.8407V16.446Z" fill="#D7B403"/>
<path d="M21.9419 17.2904C22.2787 17.2904 22.5517 17.0173 22.5517 16.6805C22.5517 16.3437 22.2787 16.0707 21.9419 16.0707C21.6051 16.0707 21.332 16.3437 21.332 16.6805C21.332 17.0173 21.6051 17.2904 21.9419 17.2904Z" fill="#D7B403"/>
<path d="M23.2887 13.3257H19.459V13.7944H23.2887V13.3257Z" fill="#D7B403"/>
<path d="M23.3901 14.1699C23.7269 14.1699 24 13.8968 24 13.56C24 13.2232 23.7269 12.9502 23.3901 12.9502C23.0533 12.9502 22.7803 13.2232 22.7803 13.56C22.7803 13.8968 23.0533 14.1699 23.3901 14.1699Z" fill="#D7B403"/>
<path d="M23.2887 10.2056H19.459V10.6743H23.2887V10.2056Z" fill="#D7B403"/>
<path d="M23.3901 11.0499C23.7269 11.0499 24 10.7769 24 10.44C24 10.1032 23.7269 9.8302 23.3901 9.8302C23.0533 9.8302 22.7803 10.1032 22.7803 10.44C22.7803 10.7769 23.0533 11.0499 23.3901 11.0499Z" fill="#D7B403"/>
<path d="M21.8407 7.08521H20.126V7.55396H21.8407V7.08521Z" fill="#D7B403"/>
<path d="M21.9419 7.9294C22.2787 7.9294 22.5517 7.65637 22.5517 7.31956C22.5517 6.98275 22.2787 6.70972 21.9419 6.70972C21.6051 6.70972 21.332 6.98275 21.332 7.31956C21.332 7.65637 21.6051 7.9294 21.9419 7.9294Z" fill="#D7B403"/>
</g>
<defs>
<clipPath id="clip0_231_7664">
<rect width="24" height="24" fill="white"/>
</clipPath>
</defs>
</svg>
