<svg width="21" height="20" viewBox="0 0 21 20" fill="none" xmlns="http://www.w3.org/2000/svg">
                  <path d="M9.01953 6.53008C9.01953 7.03789 9.01953 7.53008 9.17969 7.99102C7.49609 9.96758 3.05078 15.1902 2.63672 15.5887C2.55442 15.6625 2.48859 15.7528 2.4435 15.8538C2.39841 15.9547 2.37507 16.064 2.375 16.1746C2.375 16.5066 2.57812 16.827 2.75 17.0066C3.00781 17.2762 4.10938 18.2957 4.3125 18.1004C4.91406 17.5145 5.03516 17.3582 5.28125 17.116C5.65234 16.7527 5.24219 16.0105 5.37109 15.7098C5.5 15.409 5.63672 15.3504 5.85938 15.3035C6.08203 15.2566 6.47656 15.4168 6.78516 15.4207C7.10938 15.4246 7.28516 15.2879 7.52734 15.0613C7.72266 14.8816 7.86328 14.7137 7.86719 14.452C7.875 14.1004 7.36719 13.6355 7.74609 13.2645C8.125 12.8934 8.67188 13.5066 9.07422 13.4598C9.47656 13.4129 9.96485 12.8543 10.0156 12.616C10.0664 12.3777 9.55859 11.7645 9.63672 11.4168C9.66406 11.2996 9.90235 11.0262 10.082 10.9871C10.2617 10.948 11.0586 11.2566 11.2383 11.2176C11.457 11.1707 11.7109 10.9402 11.918 10.8113C12.5234 11.073 13.0742 11.1785 13.7813 11.1785C16.457 11.1785 18.625 9.09258 18.625 6.52227C18.625 3.95195 16.457 1.875 13.7813 1.875C11.1055 1.875 9.01953 3.95977 9.01953 6.53008ZM16.125 5.625C16.125 5.87223 16.0517 6.1139 15.9143 6.31946C15.777 6.52502 15.5818 6.68524 15.3534 6.77985C15.1249 6.87446 14.8736 6.89921 14.6311 6.85098C14.3887 6.80275 14.1659 6.6837 13.9911 6.50888C13.8163 6.33407 13.6973 6.11134 13.649 5.86886C13.6008 5.62639 13.6255 5.37505 13.7202 5.14665C13.8148 4.91824 13.975 4.72301 14.1805 4.58566C14.3861 4.44831 14.6278 4.375 14.875 4.375C15.2065 4.375 15.5245 4.5067 15.7589 4.74112C15.9933 4.97554 16.125 5.29348 16.125 5.625Z" fill="white"/>
                </svg>