<svg width="24" height="24" viewBox="0 0 24 24" fill="none" xmlns="http://www.w3.org/2000/svg">
<g clip-path="url(#clip0_231_7860)">
<path d="M23.6057 5.91596C23.5506 5.80271 23.4693 5.70427 23.3685 5.62883C23.2677 5.55338 23.1503 5.50313 23.0262 5.48226C22.902 5.46139 22.7747 5.47051 22.6547 5.50885C22.5348 5.54719 22.4258 5.61365 22.3368 5.70268L19.9391 8.10033C19.8413 8.1968 19.7094 8.25089 19.5721 8.25089C19.4347 8.25089 19.3028 8.1968 19.205 8.10033L18.1513 7.04658C18.0549 6.94864 18.0009 6.81673 18.0009 6.67932C18.0009 6.5419 18.0549 6.40999 18.1513 6.31205L20.5363 3.92658C20.6275 3.83533 20.6951 3.72312 20.7329 3.59974C20.7708 3.47637 20.7778 3.3456 20.7534 3.21887C20.7291 3.09215 20.674 2.97332 20.5931 2.87279C20.5122 2.77226 20.4079 2.69309 20.2893 2.64221C18.4278 1.84533 16.1136 2.29299 14.6643 3.73393C13.4075 4.98127 13.0316 6.92143 13.633 9.06361C13.6589 9.15555 13.6588 9.25288 13.6327 9.34476C13.6065 9.43663 13.5553 9.51943 13.4849 9.58393L5.38019 17.1144C5.11169 17.3559 4.89518 17.6496 4.74385 17.9776C4.59252 18.3055 4.50954 18.6608 4.49996 19.0218C4.49038 19.3829 4.55441 19.7421 4.68814 20.0776C4.82188 20.4131 5.02252 20.7178 5.27783 20.9733C5.53315 21.2287 5.8378 21.4295 6.17323 21.5634C6.50865 21.6973 6.86783 21.7615 7.22887 21.7521C7.58991 21.7427 7.94526 21.6599 8.27327 21.5087C8.60127 21.3576 8.89507 21.1412 9.13675 20.8728L16.7347 12.7541C16.7983 12.6852 16.8795 12.635 16.9695 12.6088C17.0596 12.5826 17.155 12.5815 17.2457 12.6055C19.355 13.168 21.2769 12.793 22.5158 11.5742C23.2283 10.8711 23.7257 9.87877 23.9169 8.77533C24.0964 7.73471 23.983 6.69221 23.6057 5.91596Z" fill="#D7B403"/>
<path d="M20.5016 17.7385C19.8481 17.1952 18.452 15.9383 17.0291 14.634L13.9316 17.9443C15.2556 19.3508 16.4539 20.6565 16.979 21.2673L16.9822 21.2711C17.1084 21.4154 17.2627 21.5325 17.4357 21.615C17.6087 21.6976 17.7968 21.7439 17.9883 21.7511H18.0399C18.4082 21.75 18.7615 21.605 19.0244 21.347L19.0277 21.3437L20.5949 19.7793C20.7311 19.6435 20.8373 19.4807 20.9069 19.3014C20.9765 19.1221 21.0079 18.9303 20.9991 18.7382C20.9903 18.5461 20.9414 18.3579 20.8557 18.1858C20.7699 18.0137 20.6492 17.8613 20.5012 17.7385H20.5016Z" fill="#25185A"/>
<path d="M5.55653 10.0576C5.55729 9.87974 5.50861 9.70511 5.4159 9.55327C5.40292 9.53273 5.39598 9.50896 5.39588 9.48466C5.39578 9.46036 5.40252 9.43653 5.41534 9.41589C5.42815 9.39525 5.44652 9.37863 5.46834 9.36794C5.49016 9.35726 5.51455 9.35293 5.53871 9.35546H5.54153C5.5809 9.35968 5.79137 9.39014 6.08996 9.57155C6.31168 9.70608 6.94449 10.1378 8.04606 11.2375C8.03433 11.612 8.15407 11.9789 8.38449 12.2744L11.489 9.38921C11.2141 9.12885 10.8548 8.97582 10.4765 8.95796C10.473 8.9541 10.4697 8.95003 10.4667 8.94577L10.4362 8.91342L9.2859 7.32717C9.15802 7.15353 9.07415 6.95147 9.0415 6.7383C9.00884 6.52514 9.02837 6.30723 9.0984 6.10327C9.20391 5.79948 9.39583 5.53312 9.65059 5.33686C9.91731 5.13014 10.5192 4.88124 11.0306 4.83905C11.2688 4.81935 11.5086 4.83419 11.7426 4.88311C11.8547 4.91016 11.9652 4.94349 12.0736 4.98296C12.1064 4.99522 12.1401 5.00509 12.1743 5.01249C12.3231 5.04545 12.4784 5.0323 12.6196 4.97479C12.7607 4.91729 12.881 4.81815 12.9643 4.69058C13.0477 4.56302 13.0903 4.41308 13.0863 4.26073C13.0823 4.10838 13.0321 3.96086 12.9422 3.8378C12.93 3.82139 12.8803 3.75389 12.8067 3.66296C12.6694 3.48977 12.5189 3.32742 12.3567 3.17733C11.9746 2.83233 10.9846 2.25061 9.68481 2.25061C8.94094 2.25007 8.20399 2.39332 7.51449 2.67249C5.7159 3.39671 4.53934 4.38717 3.9984 4.91264L3.99418 4.91686C3.6302 5.27626 3.29319 5.66199 2.9859 6.07092C2.86973 6.23475 2.79421 6.42386 2.76559 6.62264C2.75221 6.70721 2.70775 6.78375 2.6409 6.83724C2.57405 6.89074 2.48963 6.91735 2.40418 6.91186C2.38731 6.91186 2.36996 6.91186 2.35309 6.91186C2.09755 6.91016 1.85171 7.00958 1.66918 7.18842L0.288714 8.53421L0.273714 8.54921C0.100064 8.72962 0.00212667 8.9697 3.42289e-05 9.22009C-0.00205821 9.47049 0.0918537 9.71217 0.262464 9.89546C0.271371 9.90483 0.279808 9.91374 0.289183 9.92264L2.51574 12.0944C2.6992 12.2741 2.94563 12.375 3.20246 12.3756C3.458 12.3773 3.70384 12.2779 3.88637 12.0991L5.26731 10.7495C5.35941 10.6595 5.43247 10.5518 5.48215 10.4329C5.53184 10.3141 5.55713 10.1865 5.55653 10.0576Z" fill="#25185A"/>
</g>
<defs>
<clipPath id="clip0_231_7860">
<rect width="24" height="24" fill="white"/>
</clipPath>
</defs>
</svg>
