<svg width="24" height="24" viewBox="0 0 24 24" fill="none" xmlns="http://www.w3.org/2000/svg">
<g clip-path="url(#clip0_292_5731)">
<path d="M23.6066 5.91608C23.5516 5.80284 23.4703 5.70439 23.3695 5.62895C23.2687 5.55351 23.1513 5.50326 23.0272 5.48239C22.903 5.46152 22.7756 5.47063 22.6557 5.50897C22.5358 5.54731 22.4268 5.61377 22.3377 5.7028L19.9401 8.10046C19.8423 8.19693 19.7104 8.25101 19.573 8.25101C19.4357 8.25101 19.3038 8.19693 19.206 8.10046L18.1523 7.04671C18.0559 6.94876 18.0019 6.81686 18.0019 6.67944C18.0019 6.54202 18.0559 6.41011 18.1523 6.31217L20.5373 3.9267C20.6285 3.83546 20.696 3.72324 20.7339 3.59986C20.7717 3.47649 20.7788 3.34572 20.7544 3.21899C20.73 3.09227 20.675 2.97344 20.5941 2.87291C20.5131 2.77239 20.4088 2.69322 20.2902 2.64233C18.4288 1.84545 16.1146 2.29311 14.6652 3.73405C13.4085 4.98139 13.0326 6.92155 13.634 9.06374C13.6599 9.15567 13.6598 9.25301 13.6336 9.34488C13.6075 9.43675 13.5563 9.51955 13.4859 9.58405L5.38117 17.1145C5.11267 17.3561 4.89615 17.6498 4.74482 17.9777C4.59349 18.3056 4.51051 18.6609 4.50094 19.022C4.49136 19.383 4.55539 19.7422 4.68912 20.0777C4.82285 20.4132 5.02349 20.7179 5.27881 20.9734C5.53413 21.2288 5.83878 21.4296 6.17421 21.5635C6.50963 21.6974 6.86881 21.7616 7.22985 21.7522C7.59089 21.7428 7.94624 21.66 8.27424 21.5089C8.60225 21.3577 8.89605 21.1413 9.13773 20.873L16.7357 12.7542C16.7993 12.6853 16.8805 12.6351 16.9705 12.6089C17.0605 12.5827 17.156 12.5816 17.2466 12.6056C19.356 13.1681 21.2779 12.7931 22.5168 11.5744C23.2293 10.8712 23.7266 9.87889 23.9179 8.77546C24.0974 7.73483 23.984 6.69233 23.6066 5.91608Z" fill="#FAD605"/>
<path d="M20.5016 17.7383C19.8481 17.1949 18.452 15.938 17.0291 14.6338L13.9316 17.9441C15.2556 19.3506 16.4539 20.6562 16.979 21.2671L16.9822 21.2708C17.1084 21.4152 17.2627 21.5322 17.4357 21.6148C17.6087 21.6973 17.7968 21.7437 17.9883 21.7509H18.0399C18.4082 21.7498 18.7615 21.6048 19.0244 21.3468L19.0277 21.3435L20.5949 19.7791C20.7311 19.6432 20.8373 19.4805 20.9069 19.3012C20.9765 19.1219 21.0079 18.9301 20.9991 18.7379C20.9903 18.5458 20.9414 18.3577 20.8557 18.1855C20.7699 18.0134 20.6492 17.8611 20.5012 17.7383H20.5016Z" fill="white"/>
<path d="M5.55653 10.0575C5.55729 9.87961 5.50861 9.70499 5.4159 9.55315C5.40292 9.53261 5.39598 9.50883 5.39588 9.48454C5.39578 9.46024 5.40252 9.43641 5.41534 9.41577C5.42815 9.39512 5.44652 9.37851 5.46834 9.36782C5.49016 9.35713 5.51455 9.35281 5.53871 9.35533H5.54153C5.5809 9.35955 5.79137 9.39002 6.08996 9.57143C6.31168 9.70596 6.94449 10.1377 8.04606 11.2374C8.03433 11.6119 8.15407 11.9787 8.38449 12.2742L11.489 9.38908C11.2141 9.12872 10.8548 8.9757 10.4765 8.95783C10.473 8.95398 10.4697 8.94991 10.4667 8.94565L10.4362 8.9133L9.2859 7.32705C9.15802 7.15341 9.07415 6.95134 9.0415 6.73818C9.00884 6.52501 9.02837 6.30711 9.0984 6.10315C9.20391 5.79936 9.39583 5.53299 9.65059 5.33674C9.91731 5.13002 10.5192 4.88112 11.0306 4.83893C11.2688 4.81923 11.5086 4.83407 11.7426 4.88299C11.8547 4.91004 11.9652 4.94337 12.0736 4.98283C12.1064 4.9951 12.1401 5.00497 12.1743 5.01237C12.3231 5.04533 12.4784 5.03218 12.6196 4.97467C12.7607 4.91716 12.881 4.81803 12.9643 4.69046C13.0477 4.56289 13.0903 4.41295 13.0863 4.26061C13.0823 4.10826 13.0321 3.96073 12.9421 3.83768C12.93 3.82127 12.8803 3.75377 12.8067 3.66283C12.6694 3.48965 12.5189 3.32729 12.3567 3.17721C11.9746 2.83221 10.9846 2.25049 9.68481 2.25049C8.94094 2.24995 8.20399 2.3932 7.51449 2.67236C5.7159 3.39658 4.53934 4.38705 3.9984 4.91252L3.99418 4.91674C3.6302 5.27614 3.29319 5.66187 2.9859 6.0708C2.86973 6.23462 2.79421 6.42374 2.76559 6.62252C2.75221 6.70709 2.70775 6.78362 2.6409 6.83712C2.57405 6.89062 2.48963 6.91723 2.40418 6.91174C2.38731 6.91174 2.36996 6.91174 2.35309 6.91174C2.09755 6.91004 1.85171 7.00945 1.66918 7.1883L0.288714 8.53408L0.273714 8.54908C0.100064 8.72949 0.00212667 8.96957 3.42289e-05 9.21997C-0.00205821 9.47036 0.0918537 9.71205 0.262464 9.89533C0.271371 9.90471 0.279808 9.91362 0.289183 9.92252L2.51575 12.0942C2.6992 12.274 2.94563 12.3749 3.20246 12.3755C3.458 12.3772 3.70384 12.2778 3.88637 12.0989L5.26731 10.7494C5.35941 10.6593 5.43247 10.5517 5.48215 10.4328C5.53184 10.314 5.55713 10.1863 5.55653 10.0575V10.0575Z" fill="white"/>
</g>
<defs>
<clipPath id="clip0_292_5731">
<rect width="24" height="24" fill="white"/>
</clipPath>
</defs>
</svg>
