<svg width="32" height="32" viewBox="0 0 32 32" fill="none" xmlns="http://www.w3.org/2000/svg">
<path d="M16 3.00024C8.83188 3.00024 3 8.83212 3 16.0002C3 23.1684 8.83188 29.0002 16 29.0002C23.1681 29.0002 29 23.1684 29 16.0002C29 8.83212 23.1681 3.00024 16 3.00024ZM16 22.9946C15.7528 22.9946 15.5111 22.9213 15.3055 22.784C15.1 22.6466 14.9398 22.4514 14.8452 22.223C14.7505 21.9946 14.7258 21.7432 14.774 21.5008C14.8223 21.2583 14.9413 21.0356 15.1161 20.8607C15.2909 20.6859 15.5137 20.5669 15.7561 20.5186C15.9986 20.4704 16.2499 20.4952 16.4784 20.5898C16.7068 20.6844 16.902 20.8446 17.0393 21.0502C17.1767 21.2557 17.25 21.4974 17.25 21.7446C17.25 22.0761 17.1183 22.3941 16.8839 22.6285C16.6495 22.8629 16.3315 22.9946 16 22.9946ZM17.3575 10.4227L16.9988 18.0477C16.9988 18.313 16.8934 18.5673 16.7059 18.7549C16.5183 18.9424 16.264 19.0477 15.9988 19.0477C15.7335 19.0477 15.4792 18.9424 15.2916 18.7549C15.1041 18.5673 14.9988 18.313 14.9988 18.0477L14.64 10.4265V10.4234C14.6321 10.2402 14.6614 10.0573 14.7261 9.88578C14.7908 9.71423 14.8895 9.55754 15.0163 9.42515C15.1432 9.29275 15.2955 9.1874 15.4641 9.11543C15.6327 9.04345 15.8142 9.00635 15.9975 9.00635C16.1808 9.00635 16.3623 9.04345 16.5309 9.11543C16.6995 9.1874 16.8518 9.29275 16.9787 9.42515C17.1055 9.55754 17.2042 9.71423 17.2689 9.88578C17.3336 10.0573 17.3629 10.2402 17.355 10.4234L17.3575 10.4227Z" fill="#DB3E52"/>
</svg>
