<svg width="33" height="33" viewBox="0 0 33 33" fill="none" xmlns="http://www.w3.org/2000/svg">
<path d="M16.332 3.50024C9.16391 3.50024 3.33203 9.33212 3.33203 16.5002C3.33203 23.6684 9.16391 29.5002 16.332 29.5002C23.5002 29.5002 29.332 23.6684 29.332 16.5002C29.332 9.33212 23.5002 3.50024 16.332 3.50024ZM16.332 23.4946C16.0848 23.4946 15.8431 23.4213 15.6376 23.284C15.432 23.1466 15.2718 22.9514 15.1772 22.723C15.0826 22.4946 15.0578 22.2432 15.1061 22.0008C15.1543 21.7583 15.2733 21.5356 15.4482 21.3607C15.623 21.1859 15.8457 21.0669 16.0882 21.0186C16.3306 20.9704 16.582 20.9952 16.8104 21.0898C17.0388 21.1844 17.234 21.3446 17.3714 21.5502C17.5087 21.7557 17.582 21.9974 17.582 22.2446C17.582 22.5761 17.4503 22.8941 17.2159 23.1285C16.9815 23.3629 16.6636 23.4946 16.332 23.4946ZM17.6895 10.9227L17.3308 18.5477C17.3308 18.813 17.2254 19.0673 17.0379 19.2549C16.8504 19.4424 16.596 19.5477 16.3308 19.5477C16.0656 19.5477 15.8112 19.4424 15.6237 19.2549C15.4361 19.0673 15.3308 18.813 15.3308 18.5477L14.972 10.9265V10.9234C14.9642 10.7402 14.9935 10.5573 15.0581 10.3858C15.1228 10.2142 15.2215 10.0575 15.3484 9.92515C15.4752 9.79275 15.6275 9.6874 15.7961 9.61543C15.9648 9.54345 16.1462 9.50635 16.3295 9.50635C16.5129 9.50635 16.6943 9.54345 16.8629 9.61543C17.0316 9.6874 17.1839 9.79275 17.3107 9.92515C17.4375 10.0575 17.5363 10.2142 17.6009 10.3858C17.6656 10.5573 17.6949 10.7402 17.687 10.9234L17.6895 10.9227Z" fill="white"/>
</svg>
