<svg width="20" height="20" viewBox="0 0 20 20" fill="none" xmlns="http://www.w3.org/2000/svg">
<path d="M18.752 5.00019C18.752 4.33715 18.4886 3.70126 18.0197 3.23242C17.5509 2.76358 16.915 2.50019 16.252 2.50019H15.627V1.89277C15.627 1.55644 15.3684 1.26777 15.032 1.25097C14.9475 1.2469 14.8631 1.26002 14.7838 1.28956C14.7045 1.31909 14.632 1.36441 14.5708 1.42277C14.5095 1.48114 14.4608 1.55133 14.4275 1.6291C14.3941 1.70686 14.377 1.79058 14.377 1.87519V2.50019H5.62695V1.89277C5.62695 1.55644 5.36836 1.26777 5.03203 1.25097C4.94753 1.2469 4.86307 1.26002 4.78379 1.28956C4.70451 1.31909 4.63205 1.36441 4.5708 1.42277C4.50955 1.48114 4.46079 1.55133 4.42747 1.6291C4.39415 1.70686 4.37696 1.79058 4.37695 1.87519V2.50019H3.75195C3.08891 2.50019 2.45303 2.76358 1.98419 3.23242C1.51535 3.70126 1.25195 4.33715 1.25195 5.00019V5.46894C1.25195 5.51038 1.26842 5.55012 1.29772 5.57942C1.32702 5.60873 1.36676 5.62519 1.4082 5.62519H18.5957C18.6371 5.62519 18.6769 5.60873 18.7062 5.57942C18.7355 5.55012 18.752 5.51038 18.752 5.46894V5.00019Z" fill="#25185A"/>
<path d="M1.25 16.25C1.25 16.913 1.51339 17.5489 1.98223 18.0178C2.45107 18.4866 3.08696 18.75 3.75 18.75H16.25C16.913 18.75 17.5489 18.4866 18.0178 18.0178C18.4866 17.5489 18.75 16.913 18.75 16.25V7.03125C18.75 6.98981 18.7335 6.95007 18.7042 6.92076C18.6749 6.89146 18.6352 6.875 18.5938 6.875H1.40625C1.36481 6.875 1.32507 6.89146 1.29576 6.92076C1.26646 6.95007 1.25 6.98981 1.25 7.03125V16.25Z" fill="#25185A"/>
</svg>
