<svg width="28" height="28" viewBox="0 0 28 28" fill="none" xmlns="http://www.w3.org/2000/svg">
<path d="M25.6673 24.5C25.6673 25.1417 25.1423 25.6667 24.5007 25.6667H3.50065C2.85898 25.6667 2.33398 25.1417 2.33398 24.5C2.33398 23.8584 2.85898 23.3334 3.50065 23.3334H24.5007C25.1423 23.3334 25.6673 23.8584 25.6673 24.5ZM7.00065 21C7.64232 21 8.16732 20.475 8.16732 19.8334V3.50004C8.16732 2.85837 7.64232 2.33337 7.00065 2.33337C6.35898 2.33337 5.83398 2.85837 5.83398 3.50004V19.8334C5.83398 20.475 6.35898 21 7.00065 21ZM16.334 21C16.9757 21 17.5007 20.475 17.5007 19.8334V15.1667C17.5007 14.525 16.9757 14 16.334 14C15.6923 14 15.1673 14.525 15.1673 15.1667V19.8334C15.1673 20.475 15.6923 21 16.334 21ZM11.6673 21C12.309 21 12.834 20.475 12.834 19.8334V10.5C12.834 9.85837 12.309 9.33337 11.6673 9.33337C11.0257 9.33337 10.5007 9.85837 10.5007 10.5V19.8334C10.5007 20.475 11.0257 21 11.6673 21ZM21.0007 21C21.6423 21 22.1673 20.475 22.1673 19.8334V5.83337C22.1673 5.19171 21.6423 4.66671 21.0007 4.66671C20.359 4.66671 19.834 5.19171 19.834 5.83337V19.8334C19.834 20.475 20.359 21 21.0007 21Z" fill="#2E77D8"/>
</svg>
