<svg width="29" height="29" viewBox="0 0 29 29" fill="none" xmlns="http://www.w3.org/2000/svg">
<g clip-path="url(#clip0_389_23576)">
<path d="M20.7617 24.1251H6.54297C4.77273 24.1251 3.24914 23.6564 2.1357 22.7705C0.868594 21.7615 0.199219 20.2636 0.199219 18.4376C0.199219 15.2892 2.49609 13.484 4.98766 12.9278C5.15155 12.8905 5.30121 12.8067 5.41876 12.6866C5.5363 12.5664 5.61674 12.4149 5.65047 12.2502C6.07047 10.2443 6.98758 8.52329 8.34 7.219C9.91411 5.70572 12.0157 4.865 14.1992 4.87509C16.1406 4.87509 17.9311 5.51439 19.377 6.72353C20.3654 7.55721 21.1517 8.60434 21.6766 9.78603C21.7331 9.91287 21.8189 10.0245 21.9271 10.1116C22.0352 10.1987 22.1625 10.2588 22.2984 10.287C23.775 10.5938 25.0913 11.2347 26.0817 12.1381C27.467 13.3998 28.1992 15.1246 28.1992 17.1251C28.1992 19.0938 27.4128 20.892 25.9849 22.1886C24.6095 23.4377 22.7545 24.1251 20.7617 24.1251Z" fill="#B39402"/>
</g>
<defs>
<clipPath id="clip0_389_23576">
<rect width="28" height="28" fill="white" transform="translate(0.199219 0.5)"/>
</clipPath>
</defs>
</svg>
