<svg width="720" height="602" viewBox="0 0 720 602" fill="none" xmlns="http://www.w3.org/2000/svg">
<path d="M0 28C0 12.536 12.536 0 28 0H720V602H28C12.536 602 0 589.464 0 574V28Z" fill="url(#paint0_linear_2468_38002)"/>
<mask id="mask0_2468_38002" style="mask-type:alpha" maskUnits="userSpaceOnUse" x="0" y="0" width="720" height="602">
<path d="M0 28C0 12.536 12.536 0 28 0H720V602H28C12.536 602 0 589.464 0 574V28Z" fill="url(#paint1_linear_2468_38002)"/>
</mask>
<g mask="url(#mask0_2468_38002)">
<path d="M52.1992 85.7812V100H49.2695V85.7812H52.1992ZM60.7148 85.7812L55.0801 92.8027L51.8281 96.2988L51.3008 93.5254L53.498 90.5176L57.1211 85.7812H60.7148ZM57.3848 100L53.1953 93.4277L55.3633 91.6113L60.8516 100H57.3848ZM66.418 100.195C65.5977 100.195 64.862 100.065 64.2109 99.8047C63.5599 99.5378 63.0065 99.1699 62.5508 98.7012C62.1016 98.2324 61.7565 97.6888 61.5156 97.0703C61.2747 96.4453 61.1543 95.7812 61.1543 95.0781V94.6875C61.1543 93.8867 61.2682 93.1543 61.4961 92.4902C61.724 91.8262 62.0495 91.25 62.4727 90.7617C62.9023 90.2734 63.4232 89.8991 64.0352 89.6387C64.6471 89.3717 65.3372 89.2383 66.1055 89.2383C66.8542 89.2383 67.5182 89.362 68.0977 89.6094C68.6771 89.8568 69.1621 90.2083 69.5527 90.6641C69.9499 91.1198 70.2493 91.6667 70.4512 92.3047C70.653 92.9362 70.7539 93.6393 70.7539 94.4141V95.5859H62.3555V93.7109H67.9902V93.4961C67.9902 93.1055 67.9186 92.7572 67.7754 92.4512C67.6387 92.1387 67.4303 91.8913 67.1504 91.709C66.8704 91.5267 66.5124 91.4355 66.0762 91.4355C65.7051 91.4355 65.3861 91.5169 65.1191 91.6797C64.8522 91.8424 64.6341 92.0703 64.4648 92.3633C64.3021 92.6562 64.1784 93.0013 64.0938 93.3984C64.0156 93.7891 63.9766 94.2188 63.9766 94.6875V95.0781C63.9766 95.5013 64.0352 95.8919 64.1523 96.25C64.276 96.6081 64.4486 96.9173 64.6699 97.1777C64.8978 97.4382 65.1712 97.64 65.4902 97.7832C65.8158 97.9264 66.1836 97.998 66.5938 97.998C67.1016 97.998 67.5736 97.9004 68.0098 97.7051C68.4525 97.5033 68.8333 97.2005 69.1523 96.7969L70.5195 98.2812C70.2982 98.6003 69.9954 98.9062 69.6113 99.1992C69.2337 99.4922 68.778 99.7331 68.2441 99.9219C67.7103 100.104 67.1016 100.195 66.418 100.195ZM75.168 91.6211V100H72.3457V89.4336H74.9922L75.168 91.6211ZM74.7773 94.3457H73.9961C73.9961 93.61 74.084 92.9329 74.2598 92.3145C74.4421 91.6895 74.7057 91.1491 75.0508 90.6934C75.4023 90.2311 75.8353 89.873 76.3496 89.6191C76.8639 89.3652 77.4596 89.2383 78.1367 89.2383C78.6055 89.2383 79.0352 89.3099 79.4258 89.4531C79.8164 89.5898 80.1517 89.8079 80.4316 90.1074C80.7181 90.4004 80.9395 90.7845 81.0957 91.2598C81.252 91.7285 81.3301 92.2917 81.3301 92.9492V100H78.5176V93.2617C78.5176 92.7799 78.4525 92.4089 78.3223 92.1484C78.1921 91.888 78.0065 91.7057 77.7656 91.6016C77.5312 91.4974 77.248 91.4453 76.916 91.4453C76.5514 91.4453 76.2324 91.5202 75.959 91.6699C75.6921 91.8197 75.4707 92.028 75.2949 92.2949C75.1191 92.5553 74.9889 92.8613 74.9043 93.2129C74.8197 93.5645 74.7773 93.9421 74.7773 94.3457ZM81.0664 94.0234L80.0605 94.1504C80.0605 93.4603 80.1452 92.819 80.3145 92.2266C80.4902 91.6341 80.7474 91.1133 81.0859 90.6641C81.431 90.2148 81.8574 89.8665 82.3652 89.6191C82.873 89.3652 83.459 89.2383 84.123 89.2383C84.6309 89.2383 85.0931 89.3132 85.5098 89.4629C85.9264 89.6061 86.2812 89.8372 86.5742 90.1562C86.8737 90.4688 87.1016 90.8789 87.2578 91.3867C87.4206 91.8945 87.502 92.5163 87.502 93.252V100H84.6797V93.252C84.6797 92.7637 84.6146 92.3926 84.4844 92.1387C84.3607 91.8783 84.1784 91.6992 83.9375 91.6016C83.7031 91.4974 83.4232 91.4453 83.0977 91.4453C82.7591 91.4453 82.4629 91.5137 82.209 91.6504C81.9551 91.7806 81.7435 91.9629 81.5742 92.1973C81.4049 92.4316 81.278 92.7051 81.1934 93.0176C81.1087 93.3236 81.0664 93.6589 81.0664 94.0234ZM94.543 100.195C93.7227 100.195 92.987 100.065 92.3359 99.8047C91.6849 99.5378 91.1315 99.1699 90.6758 98.7012C90.2266 98.2324 89.8815 97.6888 89.6406 97.0703C89.3997 96.4453 89.2793 95.7812 89.2793 95.0781V94.6875C89.2793 93.8867 89.3932 93.1543 89.6211 92.4902C89.849 91.8262 90.1745 91.25 90.5977 90.7617C91.0273 90.2734 91.5482 89.8991 92.1602 89.6387C92.7721 89.3717 93.4622 89.2383 94.2305 89.2383C94.9792 89.2383 95.6432 89.362 96.2227 89.6094C96.8021 89.8568 97.2871 90.2083 97.6777 90.6641C98.0749 91.1198 98.3743 91.6667 98.5762 92.3047C98.778 92.9362 98.8789 93.6393 98.8789 94.4141V95.5859H90.4805V93.7109H96.1152V93.4961C96.1152 93.1055 96.0436 92.7572 95.9004 92.4512C95.7637 92.1387 95.5553 91.8913 95.2754 91.709C94.9954 91.5267 94.6374 91.4355 94.2012 91.4355C93.8301 91.4355 93.5111 91.5169 93.2441 91.6797C92.9772 91.8424 92.7591 92.0703 92.5898 92.3633C92.4271 92.6562 92.3034 93.0013 92.2188 93.3984C92.1406 93.7891 92.1016 94.2188 92.1016 94.6875V95.0781C92.1016 95.5013 92.1602 95.8919 92.2773 96.25C92.401 96.6081 92.5736 96.9173 92.7949 97.1777C93.0228 97.4382 93.2962 97.64 93.6152 97.7832C93.9408 97.9264 94.3086 97.998 94.7188 97.998C95.2266 97.998 95.6986 97.9004 96.1348 97.7051C96.5775 97.5033 96.9583 97.2005 97.2773 96.7969L98.6445 98.2812C98.4232 98.6003 98.1204 98.9062 97.7363 99.1992C97.3587 99.4922 96.903 99.7331 96.3691 99.9219C95.8353 100.104 95.2266 100.195 94.543 100.195ZM103.234 91.6895V100H100.422V89.4336H103.059L103.234 91.6895ZM102.824 94.3457H102.062C102.062 93.5645 102.163 92.8613 102.365 92.2363C102.567 91.6048 102.85 91.0677 103.215 90.625C103.579 90.1758 104.012 89.834 104.514 89.5996C105.021 89.3587 105.588 89.2383 106.213 89.2383C106.708 89.2383 107.16 89.3099 107.57 89.4531C107.98 89.5964 108.332 89.8242 108.625 90.1367C108.924 90.4492 109.152 90.8626 109.309 91.377C109.471 91.8913 109.553 92.5195 109.553 93.2617V100H106.721V93.252C106.721 92.7832 106.656 92.4186 106.525 92.1582C106.395 91.8978 106.203 91.7155 105.949 91.6113C105.702 91.5007 105.396 91.4453 105.031 91.4453C104.654 91.4453 104.325 91.5202 104.045 91.6699C103.771 91.8197 103.544 92.028 103.361 92.2949C103.186 92.5553 103.052 92.8613 102.961 93.2129C102.87 93.5645 102.824 93.9421 102.824 94.3457ZM116.867 89.4336V91.4258H110.715V89.4336H116.867ZM112.238 86.8262H115.051V96.8164C115.051 97.1224 115.09 97.3568 115.168 97.5195C115.253 97.6823 115.376 97.7962 115.539 97.8613C115.702 97.9199 115.907 97.9492 116.154 97.9492C116.33 97.9492 116.486 97.9427 116.623 97.9297C116.766 97.9102 116.887 97.8906 116.984 97.8711L116.994 99.9414C116.753 100.02 116.493 100.081 116.213 100.127C115.933 100.173 115.624 100.195 115.285 100.195C114.667 100.195 114.126 100.094 113.664 99.8926C113.208 99.6842 112.857 99.3522 112.609 98.8965C112.362 98.4408 112.238 97.8418 112.238 97.0996V86.8262ZM123.332 100.195C122.512 100.195 121.776 100.065 121.125 99.8047C120.474 99.5378 119.921 99.1699 119.465 98.7012C119.016 98.2324 118.671 97.6888 118.43 97.0703C118.189 96.4453 118.068 95.7812 118.068 95.0781V94.6875C118.068 93.8867 118.182 93.1543 118.41 92.4902C118.638 91.8262 118.964 91.25 119.387 90.7617C119.816 90.2734 120.337 89.8991 120.949 89.6387C121.561 89.3717 122.251 89.2383 123.02 89.2383C123.768 89.2383 124.432 89.362 125.012 89.6094C125.591 89.8568 126.076 90.2083 126.467 90.6641C126.864 91.1198 127.163 91.6667 127.365 92.3047C127.567 92.9362 127.668 93.6393 127.668 94.4141V95.5859H119.27V93.7109H124.904V93.4961C124.904 93.1055 124.833 92.7572 124.689 92.4512C124.553 92.1387 124.344 91.8913 124.064 91.709C123.785 91.5267 123.426 91.4355 122.99 91.4355C122.619 91.4355 122.3 91.5169 122.033 91.6797C121.766 91.8424 121.548 92.0703 121.379 92.3633C121.216 92.6562 121.092 93.0013 121.008 93.3984C120.93 93.7891 120.891 94.2188 120.891 94.6875V95.0781C120.891 95.5013 120.949 95.8919 121.066 96.25C121.19 96.6081 121.363 96.9173 121.584 97.1777C121.812 97.4382 122.085 97.64 122.404 97.7832C122.73 97.9264 123.098 97.998 123.508 97.998C124.016 97.998 124.488 97.9004 124.924 97.7051C125.367 97.5033 125.747 97.2005 126.066 96.7969L127.434 98.2812C127.212 98.6003 126.91 98.9062 126.525 99.1992C126.148 99.4922 125.692 99.7331 125.158 99.9219C124.624 100.104 124.016 100.195 123.332 100.195ZM132.082 91.7383V100H129.27V89.4336H131.916L132.082 91.7383ZM135.266 89.3652L135.217 91.9727C135.08 91.9531 134.914 91.9368 134.719 91.9238C134.53 91.9043 134.357 91.8945 134.201 91.8945C133.804 91.8945 133.459 91.9466 133.166 92.0508C132.88 92.1484 132.639 92.2949 132.443 92.4902C132.255 92.6855 132.111 92.9232 132.014 93.2031C131.923 93.4831 131.87 93.8021 131.857 94.1602L131.291 93.9844C131.291 93.3008 131.359 92.6725 131.496 92.0996C131.633 91.5202 131.831 91.0156 132.092 90.5859C132.359 90.1562 132.684 89.8242 133.068 89.5898C133.452 89.3555 133.892 89.2383 134.387 89.2383C134.543 89.2383 134.702 89.2513 134.865 89.2773C135.028 89.2969 135.161 89.3262 135.266 89.3652ZM139.562 89.4336V100H136.74V89.4336H139.562ZM136.564 86.6797C136.564 86.2695 136.708 85.931 136.994 85.6641C137.281 85.3971 137.665 85.2637 138.146 85.2637C138.622 85.2637 139.003 85.3971 139.289 85.6641C139.582 85.931 139.729 86.2695 139.729 86.6797C139.729 87.0898 139.582 87.4284 139.289 87.6953C139.003 87.9622 138.622 88.0957 138.146 88.0957C137.665 88.0957 137.281 87.9622 136.994 87.6953C136.708 87.4284 136.564 87.0898 136.564 86.6797ZM147.59 97.6172V92.9102C147.59 92.5716 147.535 92.2819 147.424 92.041C147.313 91.7936 147.141 91.6016 146.906 91.4648C146.678 91.3281 146.382 91.2598 146.018 91.2598C145.705 91.2598 145.435 91.3151 145.207 91.4258C144.979 91.5299 144.803 91.6829 144.68 91.8848C144.556 92.0801 144.494 92.3112 144.494 92.5781H141.682C141.682 92.1289 141.786 91.7025 141.994 91.2988C142.202 90.8952 142.505 90.5404 142.902 90.2344C143.299 89.9219 143.771 89.6777 144.318 89.502C144.872 89.3262 145.49 89.2383 146.174 89.2383C146.994 89.2383 147.723 89.375 148.361 89.6484C148.999 89.9219 149.501 90.332 149.865 90.8789C150.236 91.4258 150.422 92.1094 150.422 92.9297V97.4512C150.422 98.0306 150.458 98.5059 150.529 98.877C150.601 99.2415 150.705 99.5605 150.842 99.834V100H148C147.863 99.7135 147.759 99.3555 147.688 98.9258C147.622 98.4896 147.59 98.0534 147.59 97.6172ZM147.961 93.5645L147.98 95.1562H146.408C146.037 95.1562 145.715 95.1986 145.441 95.2832C145.168 95.3678 144.943 95.4883 144.768 95.6445C144.592 95.7943 144.462 95.9701 144.377 96.1719C144.299 96.3737 144.26 96.5951 144.26 96.8359C144.26 97.0768 144.315 97.2949 144.426 97.4902C144.536 97.679 144.696 97.8288 144.904 97.9395C145.113 98.0436 145.357 98.0957 145.637 98.0957C146.06 98.0957 146.428 98.0111 146.74 97.8418C147.053 97.6725 147.294 97.4642 147.463 97.2168C147.639 96.9694 147.73 96.735 147.736 96.5137L148.479 97.7051C148.374 97.972 148.231 98.2487 148.049 98.5352C147.873 98.8216 147.648 99.0918 147.375 99.3457C147.102 99.5931 146.773 99.7982 146.389 99.9609C146.005 100.117 145.549 100.195 145.021 100.195C144.351 100.195 143.742 100.062 143.195 99.7949C142.655 99.5215 142.225 99.1471 141.906 98.6719C141.594 98.1901 141.438 97.6432 141.438 97.0312C141.438 96.4779 141.542 95.9863 141.75 95.5566C141.958 95.127 142.264 94.7656 142.668 94.4727C143.078 94.1732 143.589 93.9486 144.201 93.7988C144.813 93.6426 145.523 93.5645 146.33 93.5645H147.961ZM155.344 91.6895V100H152.531V89.4336H155.168L155.344 91.6895ZM154.934 94.3457H154.172C154.172 93.5645 154.273 92.8613 154.475 92.2363C154.676 91.6048 154.96 91.0677 155.324 90.625C155.689 90.1758 156.122 89.834 156.623 89.5996C157.131 89.3587 157.697 89.2383 158.322 89.2383C158.817 89.2383 159.27 89.3099 159.68 89.4531C160.09 89.5964 160.441 89.8242 160.734 90.1367C161.034 90.4492 161.262 90.8626 161.418 91.377C161.581 91.8913 161.662 92.5195 161.662 93.2617V100H158.83V93.252C158.83 92.7832 158.765 92.4186 158.635 92.1582C158.505 91.8978 158.312 91.7155 158.059 91.6113C157.811 91.5007 157.505 91.4453 157.141 91.4453C156.763 91.4453 156.434 91.5202 156.154 91.6699C155.881 91.8197 155.653 92.028 155.471 92.2949C155.295 92.5553 155.161 92.8613 155.07 93.2129C154.979 93.5645 154.934 93.9421 154.934 94.3457ZM174.494 94.9316H170.871V92.6465H174.494C175.054 92.6465 175.51 92.5553 175.861 92.373C176.213 92.1842 176.47 91.9238 176.633 91.5918C176.796 91.2598 176.877 90.8854 176.877 90.4688C176.877 90.0456 176.796 89.6517 176.633 89.2871C176.47 88.9225 176.213 88.6296 175.861 88.4082C175.51 88.1868 175.054 88.0762 174.494 88.0762H171.887V100H168.957V85.7812H174.494C175.607 85.7812 176.561 85.9831 177.355 86.3867C178.156 86.7839 178.768 87.334 179.191 88.0371C179.615 88.7402 179.826 89.5443 179.826 90.4492C179.826 91.3672 179.615 92.1615 179.191 92.832C178.768 93.5026 178.156 94.0202 177.355 94.3848C176.561 94.7493 175.607 94.9316 174.494 94.9316ZM186.398 100.195C185.578 100.195 184.842 100.065 184.191 99.8047C183.54 99.5378 182.987 99.1699 182.531 98.7012C182.082 98.2324 181.737 97.6888 181.496 97.0703C181.255 96.4453 181.135 95.7812 181.135 95.0781V94.6875C181.135 93.8867 181.249 93.1543 181.477 92.4902C181.704 91.8262 182.03 91.25 182.453 90.7617C182.883 90.2734 183.404 89.8991 184.016 89.6387C184.628 89.3717 185.318 89.2383 186.086 89.2383C186.835 89.2383 187.499 89.362 188.078 89.6094C188.658 89.8568 189.143 90.2083 189.533 90.6641C189.93 91.1198 190.23 91.6667 190.432 92.3047C190.633 92.9362 190.734 93.6393 190.734 94.4141V95.5859H182.336V93.7109H187.971V93.4961C187.971 93.1055 187.899 92.7572 187.756 92.4512C187.619 92.1387 187.411 91.8913 187.131 91.709C186.851 91.5267 186.493 91.4355 186.057 91.4355C185.686 91.4355 185.367 91.5169 185.1 91.6797C184.833 91.8424 184.615 92.0703 184.445 92.3633C184.283 92.6562 184.159 93.0013 184.074 93.3984C183.996 93.7891 183.957 94.2188 183.957 94.6875V95.0781C183.957 95.5013 184.016 95.8919 184.133 96.25C184.257 96.6081 184.429 96.9173 184.65 97.1777C184.878 97.4382 185.152 97.64 185.471 97.7832C185.796 97.9264 186.164 97.998 186.574 97.998C187.082 97.998 187.554 97.9004 187.99 97.7051C188.433 97.5033 188.814 97.2005 189.133 96.7969L190.5 98.2812C190.279 98.6003 189.976 98.9062 189.592 99.1992C189.214 99.4922 188.758 99.7331 188.225 99.9219C187.691 100.104 187.082 100.195 186.398 100.195ZM195.148 84.9902V100H192.336V84.9902H195.148ZM201.809 89.4336L197.219 94.668L194.758 97.1582L193.732 95.127L195.686 92.6465L198.43 89.4336H201.809ZM198.889 100L195.764 95.1172L197.707 93.418L202.131 100H198.889ZM207.688 100.195C206.867 100.195 206.132 100.065 205.48 99.8047C204.829 99.5378 204.276 99.1699 203.82 98.7012C203.371 98.2324 203.026 97.6888 202.785 97.0703C202.544 96.4453 202.424 95.7812 202.424 95.0781V94.6875C202.424 93.8867 202.538 93.1543 202.766 92.4902C202.993 91.8262 203.319 91.25 203.742 90.7617C204.172 90.2734 204.693 89.8991 205.305 89.6387C205.917 89.3717 206.607 89.2383 207.375 89.2383C208.124 89.2383 208.788 89.362 209.367 89.6094C209.947 89.8568 210.432 90.2083 210.822 90.6641C211.219 91.1198 211.519 91.6667 211.721 92.3047C211.923 92.9362 212.023 93.6393 212.023 94.4141V95.5859H203.625V93.7109H209.26V93.4961C209.26 93.1055 209.188 92.7572 209.045 92.4512C208.908 92.1387 208.7 91.8913 208.42 91.709C208.14 91.5267 207.782 91.4355 207.346 91.4355C206.975 91.4355 206.656 91.5169 206.389 91.6797C206.122 91.8424 205.904 92.0703 205.734 92.3633C205.572 92.6562 205.448 93.0013 205.363 93.3984C205.285 93.7891 205.246 94.2188 205.246 94.6875V95.0781C205.246 95.5013 205.305 95.8919 205.422 96.25C205.546 96.6081 205.718 96.9173 205.939 97.1777C206.167 97.4382 206.441 97.64 206.76 97.7832C207.085 97.9264 207.453 97.998 207.863 97.998C208.371 97.998 208.843 97.9004 209.279 97.7051C209.722 97.5033 210.103 97.2005 210.422 96.7969L211.789 98.2812C211.568 98.6003 211.265 98.9062 210.881 99.1992C210.503 99.4922 210.048 99.7331 209.514 99.9219C208.98 100.104 208.371 100.195 207.688 100.195ZM216.438 91.7383V100H213.625V89.4336H216.271L216.438 91.7383ZM219.621 89.3652L219.572 91.9727C219.436 91.9531 219.27 91.9368 219.074 91.9238C218.885 91.9043 218.713 91.8945 218.557 91.8945C218.16 91.8945 217.814 91.9466 217.521 92.0508C217.235 92.1484 216.994 92.2949 216.799 92.4902C216.61 92.6855 216.467 92.9232 216.369 93.2031C216.278 93.4831 216.226 93.8021 216.213 94.1602L215.646 93.9844C215.646 93.3008 215.715 92.6725 215.852 92.0996C215.988 91.5202 216.187 91.0156 216.447 90.5859C216.714 90.1562 217.04 89.8242 217.424 89.5898C217.808 89.3555 218.247 89.2383 218.742 89.2383C218.898 89.2383 219.058 89.2513 219.221 89.2773C219.383 89.2969 219.517 89.3262 219.621 89.3652ZM221.105 89.4336H223.928V100.635C223.928 101.416 223.785 102.077 223.498 102.617C223.212 103.158 222.798 103.568 222.258 103.848C221.717 104.128 221.063 104.268 220.295 104.268C220.054 104.268 219.82 104.255 219.592 104.229C219.357 104.202 219.117 104.16 218.869 104.102L218.879 101.943C219.035 101.969 219.188 101.989 219.338 102.002C219.481 102.021 219.628 102.031 219.777 102.031C220.07 102.031 220.314 101.982 220.51 101.885C220.705 101.787 220.852 101.634 220.949 101.426C221.053 101.224 221.105 100.96 221.105 100.635V89.4336ZM220.881 86.6797C220.881 86.2695 221.024 85.931 221.311 85.6641C221.604 85.3971 221.988 85.2637 222.463 85.2637C222.945 85.2637 223.329 85.3971 223.615 85.6641C223.902 85.931 224.045 86.2695 224.045 86.6797C224.045 87.0898 223.902 87.4284 223.615 87.6953C223.329 87.9622 222.945 88.0957 222.463 88.0957C221.988 88.0957 221.604 87.9622 221.311 87.6953C221.024 87.4284 220.881 87.0898 220.881 86.6797ZM231.867 97.6172V92.9102C231.867 92.5716 231.812 92.2819 231.701 92.041C231.59 91.7936 231.418 91.6016 231.184 91.4648C230.956 91.3281 230.66 91.2598 230.295 91.2598C229.982 91.2598 229.712 91.3151 229.484 91.4258C229.257 91.5299 229.081 91.6829 228.957 91.8848C228.833 92.0801 228.771 92.3112 228.771 92.5781H225.959C225.959 92.1289 226.063 91.7025 226.271 91.2988C226.48 90.8952 226.783 90.5404 227.18 90.2344C227.577 89.9219 228.049 89.6777 228.596 89.502C229.149 89.3262 229.768 89.2383 230.451 89.2383C231.271 89.2383 232.001 89.375 232.639 89.6484C233.277 89.9219 233.778 90.332 234.143 90.8789C234.514 91.4258 234.699 92.1094 234.699 92.9297V97.4512C234.699 98.0306 234.735 98.5059 234.807 98.877C234.878 99.2415 234.982 99.5605 235.119 99.834V100H232.277C232.141 99.7135 232.036 99.3555 231.965 98.9258C231.9 98.4896 231.867 98.0534 231.867 97.6172ZM232.238 93.5645L232.258 95.1562H230.686C230.314 95.1562 229.992 95.1986 229.719 95.2832C229.445 95.3678 229.221 95.4883 229.045 95.6445C228.869 95.7943 228.739 95.9701 228.654 96.1719C228.576 96.3737 228.537 96.5951 228.537 96.8359C228.537 97.0768 228.592 97.2949 228.703 97.4902C228.814 97.679 228.973 97.8288 229.182 97.9395C229.39 98.0436 229.634 98.0957 229.914 98.0957C230.337 98.0957 230.705 98.0111 231.018 97.8418C231.33 97.6725 231.571 97.4642 231.74 97.2168C231.916 96.9694 232.007 96.735 232.014 96.5137L232.756 97.7051C232.652 97.972 232.508 98.2487 232.326 98.5352C232.15 98.8216 231.926 99.0918 231.652 99.3457C231.379 99.5931 231.05 99.7982 230.666 99.9609C230.282 100.117 229.826 100.195 229.299 100.195C228.628 100.195 228.02 100.062 227.473 99.7949C226.932 99.5215 226.503 99.1471 226.184 98.6719C225.871 98.1901 225.715 97.6432 225.715 97.0312C225.715 96.4779 225.819 95.9863 226.027 95.5566C226.236 95.127 226.542 94.7656 226.945 94.4727C227.355 94.1732 227.867 93.9486 228.479 93.7988C229.09 93.6426 229.8 93.5645 230.607 93.5645H232.238ZM242.57 97.6172V92.9102C242.57 92.5716 242.515 92.2819 242.404 92.041C242.294 91.7936 242.121 91.6016 241.887 91.4648C241.659 91.3281 241.363 91.2598 240.998 91.2598C240.686 91.2598 240.415 91.3151 240.188 91.4258C239.96 91.5299 239.784 91.6829 239.66 91.8848C239.536 92.0801 239.475 92.3112 239.475 92.5781H236.662C236.662 92.1289 236.766 91.7025 236.975 91.2988C237.183 90.8952 237.486 90.5404 237.883 90.2344C238.28 89.9219 238.752 89.6777 239.299 89.502C239.852 89.3262 240.471 89.2383 241.154 89.2383C241.975 89.2383 242.704 89.375 243.342 89.6484C243.98 89.9219 244.481 90.332 244.846 90.8789C245.217 91.4258 245.402 92.1094 245.402 92.9297V97.4512C245.402 98.0306 245.438 98.5059 245.51 98.877C245.581 99.2415 245.686 99.5605 245.822 99.834V100H242.98C242.844 99.7135 242.74 99.3555 242.668 98.9258C242.603 98.4896 242.57 98.0534 242.57 97.6172ZM242.941 93.5645L242.961 95.1562H241.389C241.018 95.1562 240.695 95.1986 240.422 95.2832C240.148 95.3678 239.924 95.4883 239.748 95.6445C239.572 95.7943 239.442 95.9701 239.357 96.1719C239.279 96.3737 239.24 96.5951 239.24 96.8359C239.24 97.0768 239.296 97.2949 239.406 97.4902C239.517 97.679 239.676 97.8288 239.885 97.9395C240.093 98.0436 240.337 98.0957 240.617 98.0957C241.04 98.0957 241.408 98.0111 241.721 97.8418C242.033 97.6725 242.274 97.4642 242.443 97.2168C242.619 96.9694 242.71 96.735 242.717 96.5137L243.459 97.7051C243.355 97.972 243.212 98.2487 243.029 98.5352C242.854 98.8216 242.629 99.0918 242.355 99.3457C242.082 99.5931 241.753 99.7982 241.369 99.9609C240.985 100.117 240.529 100.195 240.002 100.195C239.331 100.195 238.723 100.062 238.176 99.7949C237.635 99.5215 237.206 99.1471 236.887 98.6719C236.574 98.1901 236.418 97.6432 236.418 97.0312C236.418 96.4779 236.522 95.9863 236.73 95.5566C236.939 95.127 237.245 94.7656 237.648 94.4727C238.059 94.1732 238.57 93.9486 239.182 93.7988C239.794 93.6426 240.503 93.5645 241.311 93.5645H242.941ZM250.324 91.6895V100H247.512V89.4336H250.148L250.324 91.6895ZM249.914 94.3457H249.152C249.152 93.5645 249.253 92.8613 249.455 92.2363C249.657 91.6048 249.94 91.0677 250.305 90.625C250.669 90.1758 251.102 89.834 251.604 89.5996C252.111 89.3587 252.678 89.2383 253.303 89.2383C253.798 89.2383 254.25 89.3099 254.66 89.4531C255.07 89.5964 255.422 89.8242 255.715 90.1367C256.014 90.4492 256.242 90.8626 256.398 91.377C256.561 91.8913 256.643 92.5195 256.643 93.2617V100H253.811V93.252C253.811 92.7832 253.745 92.4186 253.615 92.1582C253.485 91.8978 253.293 91.7155 253.039 91.6113C252.792 91.5007 252.486 91.4453 252.121 91.4453C251.743 91.4453 251.415 91.5202 251.135 91.6699C250.861 91.8197 250.633 92.028 250.451 92.2949C250.275 92.5553 250.142 92.8613 250.051 93.2129C249.96 93.5645 249.914 93.9421 249.914 94.3457ZM271.789 85.7812H274.709V95.1758C274.709 96.2695 274.475 97.1908 274.006 97.9395C273.544 98.6882 272.902 99.2513 272.082 99.6289C271.268 100.007 270.331 100.195 269.27 100.195C268.208 100.195 267.264 100.007 266.438 99.6289C265.617 99.2513 264.973 98.6882 264.504 97.9395C264.042 97.1908 263.811 96.2695 263.811 95.1758V85.7812H266.74V95.1758C266.74 95.8138 266.841 96.3346 267.043 96.7383C267.245 97.1419 267.535 97.4382 267.912 97.627C268.296 97.8158 268.749 97.9102 269.27 97.9102C269.803 97.9102 270.256 97.8158 270.627 97.627C271.005 97.4382 271.291 97.1419 271.486 96.7383C271.688 96.3346 271.789 95.8138 271.789 95.1758V85.7812ZM279.758 91.6211V100H276.936V89.4336H279.582L279.758 91.6211ZM279.367 94.3457H278.586C278.586 93.61 278.674 92.9329 278.85 92.3145C279.032 91.6895 279.296 91.1491 279.641 90.6934C279.992 90.2311 280.425 89.873 280.939 89.6191C281.454 89.3652 282.049 89.2383 282.727 89.2383C283.195 89.2383 283.625 89.3099 284.016 89.4531C284.406 89.5898 284.742 89.8079 285.021 90.1074C285.308 90.4004 285.529 90.7845 285.686 91.2598C285.842 91.7285 285.92 92.2917 285.92 92.9492V100H283.107V93.2617C283.107 92.7799 283.042 92.4089 282.912 92.1484C282.782 91.888 282.596 91.7057 282.355 91.6016C282.121 91.4974 281.838 91.4453 281.506 91.4453C281.141 91.4453 280.822 91.5202 280.549 91.6699C280.282 91.8197 280.061 92.028 279.885 92.2949C279.709 92.5553 279.579 92.8613 279.494 93.2129C279.41 93.5645 279.367 93.9421 279.367 94.3457ZM285.656 94.0234L284.65 94.1504C284.65 93.4603 284.735 92.819 284.904 92.2266C285.08 91.6341 285.337 91.1133 285.676 90.6641C286.021 90.2148 286.447 89.8665 286.955 89.6191C287.463 89.3652 288.049 89.2383 288.713 89.2383C289.221 89.2383 289.683 89.3132 290.1 89.4629C290.516 89.6061 290.871 89.8372 291.164 90.1562C291.464 90.4688 291.691 90.8789 291.848 91.3867C292.01 91.8945 292.092 92.5163 292.092 93.252V100H289.27V93.252C289.27 92.7637 289.204 92.3926 289.074 92.1387C288.951 91.8783 288.768 91.6992 288.527 91.6016C288.293 91.4974 288.013 91.4453 287.688 91.4453C287.349 91.4453 287.053 91.5137 286.799 91.6504C286.545 91.7806 286.333 91.9629 286.164 92.1973C285.995 92.4316 285.868 92.7051 285.783 93.0176C285.699 93.3236 285.656 93.6589 285.656 94.0234ZM300.52 97.4707V89.4336H303.332V100H300.686L300.52 97.4707ZM300.832 95.3027L301.662 95.2832C301.662 95.9863 301.581 96.6406 301.418 97.2461C301.255 97.8451 301.011 98.3659 300.686 98.8086C300.36 99.2448 299.95 99.5866 299.455 99.834C298.96 100.075 298.378 100.195 297.707 100.195C297.193 100.195 296.717 100.124 296.281 99.9805C295.852 99.8307 295.48 99.5996 295.168 99.2871C294.862 98.9681 294.621 98.5612 294.445 98.0664C294.276 97.5651 294.191 96.9629 294.191 96.2598V89.4336H297.004V96.2793C297.004 96.5918 297.04 96.8555 297.111 97.0703C297.189 97.2852 297.297 97.4609 297.434 97.5977C297.57 97.7344 297.73 97.832 297.912 97.8906C298.101 97.9492 298.309 97.9785 298.537 97.9785C299.117 97.9785 299.572 97.8613 299.904 97.627C300.243 97.3926 300.48 97.0736 300.617 96.6699C300.76 96.2598 300.832 95.804 300.832 95.3027ZM308.293 91.6211V100H305.471V89.4336H308.117L308.293 91.6211ZM307.902 94.3457H307.121C307.121 93.61 307.209 92.9329 307.385 92.3145C307.567 91.6895 307.831 91.1491 308.176 90.6934C308.527 90.2311 308.96 89.873 309.475 89.6191C309.989 89.3652 310.585 89.2383 311.262 89.2383C311.73 89.2383 312.16 89.3099 312.551 89.4531C312.941 89.5898 313.277 89.8079 313.557 90.1074C313.843 90.4004 314.064 90.7845 314.221 91.2598C314.377 91.7285 314.455 92.2917 314.455 92.9492V100H311.643V93.2617C311.643 92.7799 311.577 92.4089 311.447 92.1484C311.317 91.888 311.132 91.7057 310.891 91.6016C310.656 91.4974 310.373 91.4453 310.041 91.4453C309.676 91.4453 309.357 91.5202 309.084 91.6699C308.817 91.8197 308.596 92.028 308.42 92.2949C308.244 92.5553 308.114 92.8613 308.029 93.2129C307.945 93.5645 307.902 93.9421 307.902 94.3457ZM314.191 94.0234L313.186 94.1504C313.186 93.4603 313.27 92.819 313.439 92.2266C313.615 91.6341 313.872 91.1133 314.211 90.6641C314.556 90.2148 314.982 89.8665 315.49 89.6191C315.998 89.3652 316.584 89.2383 317.248 89.2383C317.756 89.2383 318.218 89.3132 318.635 89.4629C319.051 89.6061 319.406 89.8372 319.699 90.1562C319.999 90.4688 320.227 90.8789 320.383 91.3867C320.546 91.8945 320.627 92.5163 320.627 93.252V100H317.805V93.252C317.805 92.7637 317.74 92.3926 317.609 92.1387C317.486 91.8783 317.303 91.6992 317.062 91.6016C316.828 91.4974 316.548 91.4453 316.223 91.4453C315.884 91.4453 315.588 91.5137 315.334 91.6504C315.08 91.7806 314.868 91.9629 314.699 92.1973C314.53 92.4316 314.403 92.7051 314.318 93.0176C314.234 93.3236 314.191 93.6589 314.191 94.0234Z" fill="white"/>
<path opacity="0.1" d="M245.35 -43.3687C429.168 -121.144 927.714 240.478 348.142 303.469C-231.431 366.46 394.124 778.398 742.012 528.822" stroke="white" stroke-opacity="0.4" stroke-width="75"/>
</g>
<path d="M67.0234 340.566H72.8633C72.7461 342.48 72.2188 344.18 71.2812 345.664C70.3568 347.148 69.0612 348.307 67.3945 349.141C65.7409 349.974 63.7487 350.391 61.418 350.391C59.5951 350.391 57.9609 350.078 56.5156 349.453C55.0703 348.815 53.8333 347.904 52.8047 346.719C51.7891 345.534 51.0143 344.102 50.4805 342.422C49.9466 340.742 49.6797 338.861 49.6797 336.777V334.805C49.6797 332.721 49.9531 330.84 50.5 329.16C51.0599 327.467 51.8542 326.029 52.8828 324.844C53.9245 323.659 55.168 322.747 56.6133 322.109C58.0586 321.471 59.6732 321.152 61.457 321.152C63.8268 321.152 65.8255 321.582 67.4531 322.441C69.0938 323.301 70.3633 324.486 71.2617 325.996C72.1732 327.507 72.7201 329.225 72.9023 331.152H67.043C66.9779 330.007 66.75 329.036 66.3594 328.242C65.9688 327.435 65.3763 326.829 64.582 326.426C63.8008 326.009 62.7591 325.801 61.457 325.801C60.4805 325.801 59.6276 325.983 58.8984 326.348C58.1693 326.712 57.5573 327.266 57.0625 328.008C56.5677 328.75 56.1966 329.688 55.9492 330.82C55.7148 331.94 55.5977 333.255 55.5977 334.766V336.777C55.5977 338.249 55.7083 339.544 55.9297 340.664C56.151 341.771 56.4896 342.708 56.9453 343.477C57.4141 344.232 58.013 344.805 58.7422 345.195C59.4844 345.573 60.3763 345.762 61.418 345.762C62.6419 345.762 63.651 345.566 64.4453 345.176C65.2396 344.785 65.8451 344.206 66.2617 343.438C66.6914 342.669 66.9453 341.712 67.0234 340.566ZM75.4609 339.648V339.238C75.4609 337.689 75.6823 336.263 76.125 334.961C76.5677 333.646 77.2122 332.507 78.0586 331.543C78.9049 330.579 79.9466 329.831 81.1836 329.297C82.4206 328.75 83.8398 328.477 85.4414 328.477C87.043 328.477 88.4688 328.75 89.7188 329.297C90.9688 329.831 92.0169 330.579 92.8633 331.543C93.7227 332.507 94.3737 333.646 94.8164 334.961C95.2591 336.263 95.4805 337.689 95.4805 339.238V339.648C95.4805 341.185 95.2591 342.611 94.8164 343.926C94.3737 345.228 93.7227 346.367 92.8633 347.344C92.0169 348.307 90.9753 349.056 89.7383 349.59C88.5013 350.124 87.082 350.391 85.4805 350.391C83.8789 350.391 82.4531 350.124 81.2031 349.59C79.9661 349.056 78.918 348.307 78.0586 347.344C77.2122 346.367 76.5677 345.228 76.125 343.926C75.6823 342.611 75.4609 341.185 75.4609 339.648ZM81.0859 339.238V339.648C81.0859 340.534 81.1641 341.361 81.3203 342.129C81.4766 342.897 81.724 343.574 82.0625 344.16C82.4141 344.733 82.8698 345.182 83.4297 345.508C83.9896 345.833 84.6732 345.996 85.4805 345.996C86.2617 345.996 86.9323 345.833 87.4922 345.508C88.0521 345.182 88.5013 344.733 88.8398 344.16C89.1784 343.574 89.4258 342.897 89.582 342.129C89.7513 341.361 89.8359 340.534 89.8359 339.648V339.238C89.8359 338.379 89.7513 337.572 89.582 336.816C89.4258 336.048 89.1719 335.371 88.8203 334.785C88.4818 334.186 88.0326 333.717 87.4727 333.379C86.9128 333.04 86.2357 332.871 85.4414 332.871C84.6471 332.871 83.9701 333.04 83.4102 333.379C82.8633 333.717 82.4141 334.186 82.0625 334.785C81.724 335.371 81.4766 336.048 81.3203 336.816C81.1641 337.572 81.0859 338.379 81.0859 339.238ZM104.562 333.242V350H98.918V328.867H104.211L104.562 333.242ZM103.781 338.691H102.219C102.219 337.22 102.395 335.866 102.746 334.629C103.111 333.379 103.638 332.298 104.328 331.387C105.031 330.462 105.897 329.746 106.926 329.238C107.954 328.73 109.146 328.477 110.5 328.477C111.438 328.477 112.297 328.62 113.078 328.906C113.859 329.18 114.53 329.616 115.09 330.215C115.663 330.801 116.105 331.569 116.418 332.52C116.73 333.457 116.887 334.583 116.887 335.898V350H111.262V336.523C111.262 335.56 111.132 334.818 110.871 334.297C110.611 333.776 110.24 333.411 109.758 333.203C109.289 332.995 108.723 332.891 108.059 332.891C107.329 332.891 106.691 333.04 106.145 333.34C105.611 333.639 105.168 334.056 104.816 334.59C104.465 335.111 104.204 335.723 104.035 336.426C103.866 337.129 103.781 337.884 103.781 338.691ZM116.359 338.047L114.348 338.301C114.348 336.921 114.517 335.638 114.855 334.453C115.207 333.268 115.721 332.227 116.398 331.328C117.089 330.43 117.941 329.733 118.957 329.238C119.973 328.73 121.145 328.477 122.473 328.477C123.488 328.477 124.413 328.626 125.246 328.926C126.079 329.212 126.789 329.674 127.375 330.312C127.974 330.938 128.43 331.758 128.742 332.773C129.068 333.789 129.23 335.033 129.23 336.504V350H123.586V336.504C123.586 335.527 123.456 334.785 123.195 334.277C122.948 333.757 122.583 333.398 122.102 333.203C121.633 332.995 121.073 332.891 120.422 332.891C119.745 332.891 119.152 333.027 118.645 333.301C118.137 333.561 117.714 333.926 117.375 334.395C117.036 334.863 116.783 335.41 116.613 336.035C116.444 336.647 116.359 337.318 116.359 338.047ZM139.211 333.242V350H133.566V328.867H138.859L139.211 333.242ZM138.43 338.691H136.867C136.867 337.22 137.043 335.866 137.395 334.629C137.759 333.379 138.286 332.298 138.977 331.387C139.68 330.462 140.546 329.746 141.574 329.238C142.603 328.73 143.794 328.477 145.148 328.477C146.086 328.477 146.945 328.62 147.727 328.906C148.508 329.18 149.178 329.616 149.738 330.215C150.311 330.801 150.754 331.569 151.066 332.52C151.379 333.457 151.535 334.583 151.535 335.898V350H145.91V336.523C145.91 335.56 145.78 334.818 145.52 334.297C145.259 333.776 144.888 333.411 144.406 333.203C143.938 332.995 143.371 332.891 142.707 332.891C141.978 332.891 141.34 333.04 140.793 333.34C140.259 333.639 139.816 334.056 139.465 334.59C139.113 335.111 138.853 335.723 138.684 336.426C138.514 337.129 138.43 337.884 138.43 338.691ZM151.008 338.047L148.996 338.301C148.996 336.921 149.165 335.638 149.504 334.453C149.855 333.268 150.37 332.227 151.047 331.328C151.737 330.43 152.59 329.733 153.605 329.238C154.621 328.73 155.793 328.477 157.121 328.477C158.137 328.477 159.061 328.626 159.895 328.926C160.728 329.212 161.438 329.674 162.023 330.312C162.622 330.938 163.078 331.758 163.391 332.773C163.716 333.789 163.879 335.033 163.879 336.504V350H158.234V336.504C158.234 335.527 158.104 334.785 157.844 334.277C157.596 333.757 157.232 333.398 156.75 333.203C156.281 332.995 155.721 332.891 155.07 332.891C154.393 332.891 153.801 333.027 153.293 333.301C152.785 333.561 152.362 333.926 152.023 334.395C151.685 334.863 151.431 335.41 151.262 336.035C151.092 336.647 151.008 337.318 151.008 338.047ZM179.641 345.234V335.82C179.641 335.143 179.53 334.564 179.309 334.082C179.087 333.587 178.742 333.203 178.273 332.93C177.818 332.656 177.225 332.52 176.496 332.52C175.871 332.52 175.331 332.63 174.875 332.852C174.419 333.06 174.068 333.366 173.82 333.77C173.573 334.16 173.449 334.622 173.449 335.156H167.824C167.824 334.258 168.033 333.405 168.449 332.598C168.866 331.79 169.471 331.081 170.266 330.469C171.06 329.844 172.004 329.355 173.098 329.004C174.204 328.652 175.441 328.477 176.809 328.477C178.449 328.477 179.908 328.75 181.184 329.297C182.46 329.844 183.462 330.664 184.191 331.758C184.934 332.852 185.305 334.219 185.305 335.859V344.902C185.305 346.061 185.376 347.012 185.52 347.754C185.663 348.483 185.871 349.121 186.145 349.668V350H180.461C180.188 349.427 179.979 348.711 179.836 347.852C179.706 346.979 179.641 346.107 179.641 345.234ZM180.383 337.129L180.422 340.312H177.277C176.535 340.312 175.891 340.397 175.344 340.566C174.797 340.736 174.348 340.977 173.996 341.289C173.645 341.589 173.384 341.94 173.215 342.344C173.059 342.747 172.98 343.19 172.98 343.672C172.98 344.154 173.091 344.59 173.312 344.98C173.534 345.358 173.853 345.658 174.27 345.879C174.686 346.087 175.174 346.191 175.734 346.191C176.581 346.191 177.316 346.022 177.941 345.684C178.566 345.345 179.048 344.928 179.387 344.434C179.738 343.939 179.921 343.47 179.934 343.027L181.418 345.41C181.21 345.944 180.923 346.497 180.559 347.07C180.207 347.643 179.758 348.184 179.211 348.691C178.664 349.186 178.007 349.596 177.238 349.922C176.47 350.234 175.559 350.391 174.504 350.391C173.163 350.391 171.945 350.124 170.852 349.59C169.771 349.043 168.911 348.294 168.273 347.344C167.648 346.38 167.336 345.286 167.336 344.062C167.336 342.956 167.544 341.973 167.961 341.113C168.378 340.254 168.99 339.531 169.797 338.945C170.617 338.346 171.639 337.897 172.863 337.598C174.087 337.285 175.507 337.129 177.121 337.129H180.383ZM195.148 333.379V350H189.523V328.867H194.797L195.148 333.379ZM194.328 338.691H192.805C192.805 337.129 193.007 335.723 193.41 334.473C193.814 333.21 194.38 332.135 195.109 331.25C195.839 330.352 196.704 329.668 197.707 329.199C198.723 328.717 199.855 328.477 201.105 328.477C202.095 328.477 203 328.62 203.82 328.906C204.641 329.193 205.344 329.648 205.93 330.273C206.529 330.898 206.984 331.725 207.297 332.754C207.622 333.783 207.785 335.039 207.785 336.523V350H202.121V336.504C202.121 335.566 201.991 334.837 201.73 334.316C201.47 333.796 201.086 333.431 200.578 333.223C200.083 333.001 199.471 332.891 198.742 332.891C197.987 332.891 197.329 333.04 196.77 333.34C196.223 333.639 195.767 334.056 195.402 334.59C195.051 335.111 194.784 335.723 194.602 336.426C194.419 337.129 194.328 337.884 194.328 338.691ZM224.543 345.391V320H230.207V350H225.109L224.543 345.391ZM211.184 339.688V339.277C211.184 337.663 211.366 336.198 211.73 334.883C212.095 333.555 212.629 332.415 213.332 331.465C214.035 330.514 214.901 329.779 215.93 329.258C216.958 328.737 218.13 328.477 219.445 328.477C220.682 328.477 221.763 328.737 222.688 329.258C223.625 329.779 224.419 330.521 225.07 331.484C225.734 332.435 226.268 333.561 226.672 334.863C227.076 336.152 227.368 337.565 227.551 339.102V340C227.368 341.471 227.076 342.839 226.672 344.102C226.268 345.365 225.734 346.471 225.07 347.422C224.419 348.359 223.625 349.089 222.688 349.609C221.75 350.13 220.656 350.391 219.406 350.391C218.091 350.391 216.919 350.124 215.891 349.59C214.875 349.056 214.016 348.307 213.312 347.344C212.622 346.38 212.095 345.247 211.73 343.945C211.366 342.643 211.184 341.224 211.184 339.688ZM216.809 339.277V339.688C216.809 340.56 216.874 341.374 217.004 342.129C217.147 342.884 217.375 343.555 217.688 344.141C218.013 344.714 218.43 345.163 218.938 345.488C219.458 345.801 220.09 345.957 220.832 345.957C221.796 345.957 222.59 345.742 223.215 345.312C223.84 344.87 224.315 344.264 224.641 343.496C224.979 342.728 225.174 341.842 225.227 340.84V338.281C225.188 337.461 225.07 336.725 224.875 336.074C224.693 335.41 224.419 334.844 224.055 334.375C223.703 333.906 223.26 333.542 222.727 333.281C222.206 333.021 221.587 332.891 220.871 332.891C220.142 332.891 219.517 333.06 218.996 333.398C218.475 333.724 218.052 334.173 217.727 334.746C217.414 335.319 217.18 335.996 217.023 336.777C216.88 337.546 216.809 338.379 216.809 339.277ZM261.398 340.566H267.238C267.121 342.48 266.594 344.18 265.656 345.664C264.732 347.148 263.436 348.307 261.77 349.141C260.116 349.974 258.124 350.391 255.793 350.391C253.97 350.391 252.336 350.078 250.891 349.453C249.445 348.815 248.208 347.904 247.18 346.719C246.164 345.534 245.389 344.102 244.855 342.422C244.322 340.742 244.055 338.861 244.055 336.777V334.805C244.055 332.721 244.328 330.84 244.875 329.16C245.435 327.467 246.229 326.029 247.258 324.844C248.299 323.659 249.543 322.747 250.988 322.109C252.434 321.471 254.048 321.152 255.832 321.152C258.202 321.152 260.201 321.582 261.828 322.441C263.469 323.301 264.738 324.486 265.637 325.996C266.548 327.507 267.095 329.225 267.277 331.152H261.418C261.353 330.007 261.125 329.036 260.734 328.242C260.344 327.435 259.751 326.829 258.957 326.426C258.176 326.009 257.134 325.801 255.832 325.801C254.855 325.801 254.003 325.983 253.273 326.348C252.544 326.712 251.932 327.266 251.438 328.008C250.943 328.75 250.572 329.688 250.324 330.82C250.09 331.94 249.973 333.255 249.973 334.766V336.777C249.973 338.249 250.083 339.544 250.305 340.664C250.526 341.771 250.865 342.708 251.32 343.477C251.789 344.232 252.388 344.805 253.117 345.195C253.859 345.573 254.751 345.762 255.793 345.762C257.017 345.762 258.026 345.566 258.82 345.176C259.615 344.785 260.22 344.206 260.637 343.438C261.066 342.669 261.32 341.712 261.398 340.566ZM280.461 350.391C278.82 350.391 277.349 350.13 276.047 349.609C274.745 349.076 273.638 348.34 272.727 347.402C271.828 346.465 271.138 345.378 270.656 344.141C270.174 342.891 269.934 341.562 269.934 340.156V339.375C269.934 337.773 270.161 336.309 270.617 334.98C271.073 333.652 271.724 332.5 272.57 331.523C273.43 330.547 274.471 329.798 275.695 329.277C276.919 328.743 278.299 328.477 279.836 328.477C281.333 328.477 282.661 328.724 283.82 329.219C284.979 329.714 285.949 330.417 286.73 331.328C287.525 332.24 288.124 333.333 288.527 334.609C288.931 335.872 289.133 337.279 289.133 338.828V341.172H272.336V337.422H283.605V336.992C283.605 336.211 283.462 335.514 283.176 334.902C282.902 334.277 282.486 333.783 281.926 333.418C281.366 333.053 280.65 332.871 279.777 332.871C279.035 332.871 278.397 333.034 277.863 333.359C277.329 333.685 276.893 334.141 276.555 334.727C276.229 335.312 275.982 336.003 275.812 336.797C275.656 337.578 275.578 338.438 275.578 339.375V340.156C275.578 341.003 275.695 341.784 275.93 342.5C276.177 343.216 276.522 343.835 276.965 344.355C277.421 344.876 277.967 345.28 278.605 345.566C279.257 345.853 279.992 345.996 280.812 345.996C281.828 345.996 282.772 345.801 283.645 345.41C284.53 345.007 285.292 344.401 285.93 343.594L288.664 346.562C288.221 347.201 287.616 347.812 286.848 348.398C286.092 348.984 285.181 349.466 284.113 349.844C283.046 350.208 281.828 350.391 280.461 350.391ZM297.844 333.379V350H292.219V328.867H297.492L297.844 333.379ZM297.023 338.691H295.5C295.5 337.129 295.702 335.723 296.105 334.473C296.509 333.21 297.076 332.135 297.805 331.25C298.534 330.352 299.4 329.668 300.402 329.199C301.418 328.717 302.551 328.477 303.801 328.477C304.79 328.477 305.695 328.62 306.516 328.906C307.336 329.193 308.039 329.648 308.625 330.273C309.224 330.898 309.68 331.725 309.992 332.754C310.318 333.783 310.48 335.039 310.48 336.523V350H304.816V336.504C304.816 335.566 304.686 334.837 304.426 334.316C304.165 333.796 303.781 333.431 303.273 333.223C302.779 333.001 302.167 332.891 301.438 332.891C300.682 332.891 300.025 333.04 299.465 333.34C298.918 333.639 298.462 334.056 298.098 334.59C297.746 335.111 297.479 335.723 297.297 336.426C297.115 337.129 297.023 337.884 297.023 338.691ZM325.109 328.867V332.852H312.805V328.867H325.109ZM315.852 323.652H321.477V343.633C321.477 344.245 321.555 344.714 321.711 345.039C321.88 345.365 322.128 345.592 322.453 345.723C322.779 345.84 323.189 345.898 323.684 345.898C324.035 345.898 324.348 345.885 324.621 345.859C324.908 345.82 325.148 345.781 325.344 345.742L325.363 349.883C324.882 350.039 324.361 350.163 323.801 350.254C323.241 350.345 322.622 350.391 321.945 350.391C320.708 350.391 319.628 350.189 318.703 349.785C317.792 349.368 317.089 348.704 316.594 347.793C316.099 346.882 315.852 345.684 315.852 344.199V323.652ZM338.039 350.391C336.398 350.391 334.927 350.13 333.625 349.609C332.323 349.076 331.216 348.34 330.305 347.402C329.406 346.465 328.716 345.378 328.234 344.141C327.753 342.891 327.512 341.562 327.512 340.156V339.375C327.512 337.773 327.74 336.309 328.195 334.98C328.651 333.652 329.302 332.5 330.148 331.523C331.008 330.547 332.049 329.798 333.273 329.277C334.497 328.743 335.878 328.477 337.414 328.477C338.911 328.477 340.24 328.724 341.398 329.219C342.557 329.714 343.527 330.417 344.309 331.328C345.103 332.24 345.702 333.333 346.105 334.609C346.509 335.872 346.711 337.279 346.711 338.828V341.172H329.914V337.422H341.184V336.992C341.184 336.211 341.04 335.514 340.754 334.902C340.48 334.277 340.064 333.783 339.504 333.418C338.944 333.053 338.228 332.871 337.355 332.871C336.613 332.871 335.975 333.034 335.441 333.359C334.908 333.685 334.471 334.141 334.133 334.727C333.807 335.312 333.56 336.003 333.391 336.797C333.234 337.578 333.156 338.438 333.156 339.375V340.156C333.156 341.003 333.273 341.784 333.508 342.5C333.755 343.216 334.1 343.835 334.543 344.355C334.999 344.876 335.546 345.28 336.184 345.566C336.835 345.853 337.57 345.996 338.391 345.996C339.406 345.996 340.35 345.801 341.223 345.41C342.108 345.007 342.87 344.401 343.508 343.594L346.242 346.562C345.799 347.201 345.194 347.812 344.426 348.398C343.671 348.984 342.759 349.466 341.691 349.844C340.624 350.208 339.406 350.391 338.039 350.391ZM355.539 333.477V350H349.914V328.867H355.207L355.539 333.477ZM361.906 328.73L361.809 333.945C361.535 333.906 361.203 333.874 360.812 333.848C360.435 333.809 360.09 333.789 359.777 333.789C358.983 333.789 358.293 333.893 357.707 334.102C357.134 334.297 356.652 334.59 356.262 334.98C355.884 335.371 355.598 335.846 355.402 336.406C355.22 336.966 355.116 337.604 355.09 338.32L353.957 337.969C353.957 336.602 354.094 335.345 354.367 334.199C354.641 333.04 355.038 332.031 355.559 331.172C356.092 330.312 356.743 329.648 357.512 329.18C358.28 328.711 359.159 328.477 360.148 328.477C360.461 328.477 360.78 328.503 361.105 328.555C361.431 328.594 361.698 328.652 361.906 328.73ZM386.008 337.52H378.703L378.664 333.496H384.797C385.878 333.496 386.763 333.359 387.453 333.086C388.143 332.799 388.658 332.389 388.996 331.855C389.348 331.309 389.523 330.645 389.523 329.863C389.523 328.978 389.354 328.262 389.016 327.715C388.69 327.168 388.176 326.771 387.473 326.523C386.783 326.276 385.891 326.152 384.797 326.152H380.734V350H374.875V321.562H384.797C386.451 321.562 387.928 321.719 389.23 322.031C390.546 322.344 391.659 322.819 392.57 323.457C393.482 324.095 394.178 324.902 394.66 325.879C395.142 326.842 395.383 327.988 395.383 329.316C395.383 330.488 395.116 331.569 394.582 332.559C394.061 333.548 393.234 334.355 392.102 334.98C390.982 335.605 389.517 335.951 387.707 336.016L386.008 337.52ZM385.754 350H377.102L379.387 345.43H385.754C386.783 345.43 387.622 345.267 388.273 344.941C388.924 344.603 389.406 344.147 389.719 343.574C390.031 343.001 390.188 342.344 390.188 341.602C390.188 340.768 390.044 340.046 389.758 339.434C389.484 338.822 389.042 338.353 388.43 338.027C387.818 337.689 387.01 337.52 386.008 337.52H380.363L380.402 333.496H387.434L388.781 335.078C390.513 335.052 391.906 335.358 392.961 335.996C394.029 336.621 394.803 337.435 395.285 338.438C395.78 339.44 396.027 340.514 396.027 341.66C396.027 343.483 395.63 345.02 394.836 346.27C394.042 347.507 392.876 348.438 391.34 349.062C389.816 349.688 387.954 350 385.754 350ZM411.555 337.52H404.25L404.211 333.496H410.344C411.424 333.496 412.31 333.359 413 333.086C413.69 332.799 414.204 332.389 414.543 331.855C414.895 331.309 415.07 330.645 415.07 329.863C415.07 328.978 414.901 328.262 414.562 327.715C414.237 327.168 413.723 326.771 413.02 326.523C412.329 326.276 411.438 326.152 410.344 326.152H406.281V350H400.422V321.562H410.344C411.997 321.562 413.475 321.719 414.777 322.031C416.092 322.344 417.206 322.819 418.117 323.457C419.029 324.095 419.725 324.902 420.207 325.879C420.689 326.842 420.93 327.988 420.93 329.316C420.93 330.488 420.663 331.569 420.129 332.559C419.608 333.548 418.781 334.355 417.648 334.98C416.529 335.605 415.064 335.951 413.254 336.016L411.555 337.52ZM411.301 350H402.648L404.934 345.43H411.301C412.329 345.43 413.169 345.267 413.82 344.941C414.471 344.603 414.953 344.147 415.266 343.574C415.578 343.001 415.734 342.344 415.734 341.602C415.734 340.768 415.591 340.046 415.305 339.434C415.031 338.822 414.589 338.353 413.977 338.027C413.365 337.689 412.557 337.52 411.555 337.52H405.91L405.949 333.496H412.98L414.328 335.078C416.06 335.052 417.453 335.358 418.508 335.996C419.576 336.621 420.35 337.435 420.832 338.438C421.327 339.44 421.574 340.514 421.574 341.66C421.574 343.483 421.177 345.02 420.383 346.27C419.589 347.507 418.423 348.438 416.887 349.062C415.363 349.688 413.501 350 411.301 350ZM432.824 345.488L438.488 321.562H441.652L442.375 325.547L436.34 350H432.941L432.824 345.488ZM429.914 321.562L434.602 345.488L434.211 350H430.422L424.113 321.562H429.914ZM447.355 345.391L451.984 321.562H457.785L451.496 350H447.707L447.355 345.391ZM443.43 321.562L449.133 345.586L448.977 350H445.578L439.504 325.527L440.285 321.562H443.43ZM475.773 342.559C475.773 342.051 475.695 341.595 475.539 341.191C475.396 340.775 475.122 340.397 474.719 340.059C474.315 339.707 473.749 339.362 473.02 339.023C472.29 338.685 471.346 338.333 470.188 337.969C468.898 337.552 467.674 337.083 466.516 336.562C465.37 336.042 464.354 335.436 463.469 334.746C462.596 334.043 461.906 333.229 461.398 332.305C460.904 331.38 460.656 330.306 460.656 329.082C460.656 327.897 460.917 326.823 461.438 325.859C461.958 324.883 462.688 324.049 463.625 323.359C464.562 322.656 465.669 322.116 466.945 321.738C468.234 321.361 469.647 321.172 471.184 321.172C473.28 321.172 475.109 321.549 476.672 322.305C478.234 323.06 479.445 324.095 480.305 325.41C481.177 326.725 481.613 328.229 481.613 329.922H475.793C475.793 329.089 475.617 328.359 475.266 327.734C474.927 327.096 474.406 326.595 473.703 326.23C473.013 325.866 472.141 325.684 471.086 325.684C470.07 325.684 469.224 325.84 468.547 326.152C467.87 326.452 467.362 326.862 467.023 327.383C466.685 327.891 466.516 328.464 466.516 329.102C466.516 329.583 466.633 330.02 466.867 330.41C467.115 330.801 467.479 331.165 467.961 331.504C468.443 331.842 469.035 332.161 469.738 332.461C470.441 332.76 471.255 333.053 472.18 333.34C473.729 333.809 475.09 334.336 476.262 334.922C477.447 335.508 478.436 336.165 479.23 336.895C480.025 337.624 480.624 338.451 481.027 339.375C481.431 340.299 481.633 341.348 481.633 342.52C481.633 343.757 481.392 344.863 480.91 345.84C480.428 346.816 479.732 347.643 478.82 348.32C477.909 348.997 476.822 349.512 475.559 349.863C474.296 350.215 472.883 350.391 471.32 350.391C469.914 350.391 468.527 350.208 467.16 349.844C465.793 349.466 464.549 348.9 463.43 348.145C462.323 347.389 461.438 346.426 460.773 345.254C460.109 344.082 459.777 342.695 459.777 341.094H465.656C465.656 341.979 465.793 342.728 466.066 343.34C466.34 343.952 466.724 344.447 467.219 344.824C467.727 345.202 468.326 345.475 469.016 345.645C469.719 345.814 470.487 345.898 471.32 345.898C472.336 345.898 473.169 345.755 473.82 345.469C474.484 345.182 474.973 344.785 475.285 344.277C475.611 343.77 475.773 343.197 475.773 342.559ZM512.062 340.566H517.902C517.785 342.48 517.258 344.18 516.32 345.664C515.396 347.148 514.1 348.307 512.434 349.141C510.78 349.974 508.788 350.391 506.457 350.391C504.634 350.391 503 350.078 501.555 349.453C500.109 348.815 498.872 347.904 497.844 346.719C496.828 345.534 496.053 344.102 495.52 342.422C494.986 340.742 494.719 338.861 494.719 336.777V334.805C494.719 332.721 494.992 330.84 495.539 329.16C496.099 327.467 496.893 326.029 497.922 324.844C498.964 323.659 500.207 322.747 501.652 322.109C503.098 321.471 504.712 321.152 506.496 321.152C508.866 321.152 510.865 321.582 512.492 322.441C514.133 323.301 515.402 324.486 516.301 325.996C517.212 327.507 517.759 329.225 517.941 331.152H512.082C512.017 330.007 511.789 329.036 511.398 328.242C511.008 327.435 510.415 326.829 509.621 326.426C508.84 326.009 507.798 325.801 506.496 325.801C505.52 325.801 504.667 325.983 503.938 326.348C503.208 326.712 502.596 327.266 502.102 328.008C501.607 328.75 501.236 329.688 500.988 330.82C500.754 331.94 500.637 333.255 500.637 334.766V336.777C500.637 338.249 500.747 339.544 500.969 340.664C501.19 341.771 501.529 342.708 501.984 343.477C502.453 344.232 503.052 344.805 503.781 345.195C504.523 345.573 505.415 345.762 506.457 345.762C507.681 345.762 508.69 345.566 509.484 345.176C510.279 344.785 510.884 344.206 511.301 343.438C511.73 342.669 511.984 341.712 512.062 340.566ZM527.336 328.867V350H521.691V328.867H527.336ZM521.34 323.359C521.34 322.539 521.626 321.862 522.199 321.328C522.772 320.794 523.54 320.527 524.504 320.527C525.454 320.527 526.216 320.794 526.789 321.328C527.375 321.862 527.668 322.539 527.668 323.359C527.668 324.18 527.375 324.857 526.789 325.391C526.216 325.924 525.454 326.191 524.504 326.191C523.54 326.191 522.772 325.924 522.199 325.391C521.626 324.857 521.34 324.18 521.34 323.359ZM542.336 328.867V332.852H530.031V328.867H542.336ZM533.078 323.652H538.703V343.633C538.703 344.245 538.781 344.714 538.938 345.039C539.107 345.365 539.354 345.592 539.68 345.723C540.005 345.84 540.415 345.898 540.91 345.898C541.262 345.898 541.574 345.885 541.848 345.859C542.134 345.82 542.375 345.781 542.57 345.742L542.59 349.883C542.108 350.039 541.587 350.163 541.027 350.254C540.467 350.345 539.849 350.391 539.172 350.391C537.935 350.391 536.854 350.189 535.93 349.785C535.018 349.368 534.315 348.704 533.82 347.793C533.326 346.882 533.078 345.684 533.078 344.199V323.652ZM556.945 345.234V335.82C556.945 335.143 556.835 334.564 556.613 334.082C556.392 333.587 556.047 333.203 555.578 332.93C555.122 332.656 554.53 332.52 553.801 332.52C553.176 332.52 552.635 332.63 552.18 332.852C551.724 333.06 551.372 333.366 551.125 333.77C550.878 334.16 550.754 334.622 550.754 335.156H545.129C545.129 334.258 545.337 333.405 545.754 332.598C546.171 331.79 546.776 331.081 547.57 330.469C548.365 329.844 549.309 329.355 550.402 329.004C551.509 328.652 552.746 328.477 554.113 328.477C555.754 328.477 557.212 328.75 558.488 329.297C559.764 329.844 560.767 330.664 561.496 331.758C562.238 332.852 562.609 334.219 562.609 335.859V344.902C562.609 346.061 562.681 347.012 562.824 347.754C562.967 348.483 563.176 349.121 563.449 349.668V350H557.766C557.492 349.427 557.284 348.711 557.141 347.852C557.01 346.979 556.945 346.107 556.945 345.234ZM557.688 337.129L557.727 340.312H554.582C553.84 340.312 553.195 340.397 552.648 340.566C552.102 340.736 551.652 340.977 551.301 341.289C550.949 341.589 550.689 341.94 550.52 342.344C550.363 342.747 550.285 343.19 550.285 343.672C550.285 344.154 550.396 344.59 550.617 344.98C550.839 345.358 551.158 345.658 551.574 345.879C551.991 346.087 552.479 346.191 553.039 346.191C553.885 346.191 554.621 346.022 555.246 345.684C555.871 345.345 556.353 344.928 556.691 344.434C557.043 343.939 557.225 343.47 557.238 343.027L558.723 345.41C558.514 345.944 558.228 346.497 557.863 347.07C557.512 347.643 557.062 348.184 556.516 348.691C555.969 349.186 555.311 349.596 554.543 349.922C553.775 350.234 552.863 350.391 551.809 350.391C550.467 350.391 549.25 350.124 548.156 349.59C547.076 349.043 546.216 348.294 545.578 347.344C544.953 346.38 544.641 345.286 544.641 344.062C544.641 342.956 544.849 341.973 545.266 341.113C545.682 340.254 546.294 339.531 547.102 338.945C547.922 338.346 548.944 337.897 550.168 337.598C551.392 337.285 552.811 337.129 554.426 337.129H557.688ZM572.453 333.379V350H566.828V328.867H572.102L572.453 333.379ZM571.633 338.691H570.109C570.109 337.129 570.311 335.723 570.715 334.473C571.118 333.21 571.685 332.135 572.414 331.25C573.143 330.352 574.009 329.668 575.012 329.199C576.027 328.717 577.16 328.477 578.41 328.477C579.4 328.477 580.305 328.62 581.125 328.906C581.945 329.193 582.648 329.648 583.234 330.273C583.833 330.898 584.289 331.725 584.602 332.754C584.927 333.783 585.09 335.039 585.09 336.523V350H579.426V336.504C579.426 335.566 579.296 334.837 579.035 334.316C578.775 333.796 578.391 333.431 577.883 333.223C577.388 333.001 576.776 332.891 576.047 332.891C575.292 332.891 574.634 333.04 574.074 333.34C573.527 333.639 573.072 334.056 572.707 334.59C572.355 335.111 572.089 335.723 571.906 336.426C571.724 337.129 571.633 337.884 571.633 338.691ZM601.848 345.391V320H607.512V350H602.414L601.848 345.391ZM588.488 339.688V339.277C588.488 337.663 588.671 336.198 589.035 334.883C589.4 333.555 589.934 332.415 590.637 331.465C591.34 330.514 592.206 329.779 593.234 329.258C594.263 328.737 595.435 328.477 596.75 328.477C597.987 328.477 599.068 328.737 599.992 329.258C600.93 329.779 601.724 330.521 602.375 331.484C603.039 332.435 603.573 333.561 603.977 334.863C604.38 336.152 604.673 337.565 604.855 339.102V340C604.673 341.471 604.38 342.839 603.977 344.102C603.573 345.365 603.039 346.471 602.375 347.422C601.724 348.359 600.93 349.089 599.992 349.609C599.055 350.13 597.961 350.391 596.711 350.391C595.396 350.391 594.224 350.124 593.195 349.59C592.18 349.056 591.32 348.307 590.617 347.344C589.927 346.38 589.4 345.247 589.035 343.945C588.671 342.643 588.488 341.224 588.488 339.688ZM594.113 339.277V339.688C594.113 340.56 594.178 341.374 594.309 342.129C594.452 342.884 594.68 343.555 594.992 344.141C595.318 344.714 595.734 345.163 596.242 345.488C596.763 345.801 597.395 345.957 598.137 345.957C599.1 345.957 599.895 345.742 600.52 345.312C601.145 344.87 601.62 344.264 601.945 343.496C602.284 342.728 602.479 341.842 602.531 340.84V338.281C602.492 337.461 602.375 336.725 602.18 336.074C601.997 335.41 601.724 334.844 601.359 334.375C601.008 333.906 600.565 333.542 600.031 333.281C599.51 333.021 598.892 332.891 598.176 332.891C597.447 332.891 596.822 333.06 596.301 333.398C595.78 333.724 595.357 334.173 595.031 334.746C594.719 335.319 594.484 335.996 594.328 336.777C594.185 337.546 594.113 338.379 594.113 339.277ZM624.406 344.941V328.867H630.031V350H624.738L624.406 344.941ZM625.031 340.605L626.691 340.566C626.691 341.973 626.529 343.281 626.203 344.492C625.878 345.69 625.389 346.732 624.738 347.617C624.087 348.49 623.267 349.173 622.277 349.668C621.288 350.15 620.122 350.391 618.781 350.391C617.753 350.391 616.802 350.247 615.93 349.961C615.07 349.661 614.328 349.199 613.703 348.574C613.091 347.936 612.609 347.122 612.258 346.133C611.919 345.13 611.75 343.926 611.75 342.52V328.867H617.375V342.559C617.375 343.184 617.447 343.711 617.59 344.141C617.746 344.57 617.961 344.922 618.234 345.195C618.508 345.469 618.827 345.664 619.191 345.781C619.569 345.898 619.986 345.957 620.441 345.957C621.6 345.957 622.512 345.723 623.176 345.254C623.853 344.785 624.328 344.147 624.602 343.34C624.888 342.52 625.031 341.608 625.031 340.605ZM640.598 347.617L646.203 328.867H652.238L643.742 353.184C643.56 353.717 643.312 354.29 643 354.902C642.701 355.514 642.29 356.094 641.77 356.641C641.262 357.201 640.617 357.656 639.836 358.008C639.068 358.359 638.124 358.535 637.004 358.535C636.47 358.535 636.034 358.503 635.695 358.438C635.357 358.372 634.953 358.281 634.484 358.164V354.043C634.628 354.043 634.777 354.043 634.934 354.043C635.09 354.056 635.24 354.062 635.383 354.062C636.125 354.062 636.73 353.978 637.199 353.809C637.668 353.639 638.046 353.379 638.332 353.027C638.618 352.689 638.846 352.246 639.016 351.699L640.598 347.617ZM638.254 328.867L642.844 344.18L643.645 350.137L639.816 350.547L632.219 328.867H638.254Z" fill="white"/>
<path d="M55.8887 402H51.5547L51.582 398.801H55.8887C56.9642 398.801 57.8711 398.559 58.6094 398.076C59.3477 397.584 59.9036 396.868 60.2773 395.93C60.6602 394.991 60.8516 393.856 60.8516 392.525V391.555C60.8516 390.534 60.7422 389.636 60.5234 388.861C60.3138 388.087 59.9993 387.435 59.5801 386.906C59.1608 386.378 58.6458 385.981 58.0352 385.717C57.4245 385.443 56.7227 385.307 55.9297 385.307H51.4727V382.094H55.9297C57.2604 382.094 58.4772 382.322 59.5801 382.777C60.6921 383.224 61.6536 383.867 62.4648 384.705C63.276 385.544 63.9004 386.546 64.3379 387.713C64.7845 388.87 65.0078 390.16 65.0078 391.582V392.525C65.0078 393.938 64.7845 395.228 64.3379 396.395C63.9004 397.561 63.276 398.564 62.4648 399.402C61.6628 400.232 60.7012 400.874 59.5801 401.33C58.4681 401.777 57.2376 402 55.8887 402ZM53.8789 382.094V402H49.7773V382.094H53.8789ZM71.8984 387.207V402H67.9473V387.207H71.8984ZM67.7012 383.352C67.7012 382.777 67.9017 382.303 68.3027 381.93C68.7038 381.556 69.2415 381.369 69.916 381.369C70.5814 381.369 71.1146 381.556 71.5156 381.93C71.9258 382.303 72.1309 382.777 72.1309 383.352C72.1309 383.926 71.9258 384.4 71.5156 384.773C71.1146 385.147 70.5814 385.334 69.916 385.334C69.2415 385.334 68.7038 385.147 68.3027 384.773C67.9017 384.4 67.7012 383.926 67.7012 383.352ZM79.0898 390.434V402H75.1523V387.207H78.8574L79.0898 390.434ZM83.5469 387.111L83.4785 390.762C83.2871 390.734 83.0547 390.712 82.7812 390.693C82.5169 390.666 82.2754 390.652 82.0566 390.652C81.5007 390.652 81.0176 390.725 80.6074 390.871C80.2064 391.008 79.8691 391.213 79.5957 391.486C79.3314 391.76 79.1309 392.092 78.9941 392.484C78.8665 392.876 78.7936 393.323 78.7754 393.824L77.9824 393.578C77.9824 392.621 78.0781 391.742 78.2695 390.939C78.4609 390.128 78.7389 389.422 79.1035 388.82C79.4772 388.219 79.9329 387.754 80.4707 387.426C81.0085 387.098 81.6237 386.934 82.3164 386.934C82.5352 386.934 82.7585 386.952 82.9863 386.988C83.2142 387.016 83.401 387.057 83.5469 387.111ZM91.9414 402.273C90.793 402.273 89.763 402.091 88.8516 401.727C87.9401 401.353 87.1654 400.838 86.5273 400.182C85.8984 399.525 85.4154 398.764 85.0781 397.898C84.7409 397.023 84.5723 396.094 84.5723 395.109V394.562C84.5723 393.441 84.7318 392.416 85.0508 391.486C85.3698 390.557 85.8255 389.75 86.418 389.066C87.0195 388.383 87.7487 387.859 88.6055 387.494C89.4622 387.12 90.4284 386.934 91.5039 386.934C92.5521 386.934 93.4818 387.107 94.293 387.453C95.1042 387.799 95.7832 388.292 96.3301 388.93C96.8861 389.568 97.3053 390.333 97.5879 391.227C97.8704 392.111 98.0117 393.095 98.0117 394.18V395.82H86.2539V393.195H94.1426V392.895C94.1426 392.348 94.0423 391.86 93.8418 391.432C93.6504 390.994 93.3587 390.648 92.9668 390.393C92.5749 390.137 92.0736 390.01 91.4629 390.01C90.9434 390.01 90.4967 390.124 90.123 390.352C89.7493 390.579 89.444 390.898 89.207 391.309C88.9792 391.719 88.806 392.202 88.6875 392.758C88.5781 393.305 88.5234 393.906 88.5234 394.562V395.109C88.5234 395.702 88.6055 396.249 88.7695 396.75C88.9427 397.251 89.1842 397.684 89.4941 398.049C89.8132 398.413 90.196 398.696 90.6426 398.896C91.0983 399.097 91.6133 399.197 92.1875 399.197C92.8984 399.197 93.5592 399.061 94.1699 398.787C94.7897 398.505 95.3229 398.081 95.7695 397.516L97.6836 399.594C97.3737 400.04 96.9499 400.469 96.4121 400.879C95.8835 401.289 95.2454 401.626 94.498 401.891C93.7507 402.146 92.8984 402.273 91.9414 402.273ZM104.191 380.986V402H100.254V380.986H104.191ZM113.516 387.207L107.09 394.535L103.645 398.021L102.209 395.178L104.943 391.705L108.785 387.207H113.516ZM109.428 402L105.053 395.164L107.773 392.785L113.967 402H109.428ZM122.457 387.207V389.996H113.844V387.207H122.457ZM115.977 383.557H119.914V397.543C119.914 397.971 119.969 398.299 120.078 398.527C120.197 398.755 120.37 398.915 120.598 399.006C120.826 399.088 121.113 399.129 121.459 399.129C121.705 399.129 121.924 399.12 122.115 399.102C122.316 399.074 122.484 399.047 122.621 399.02L122.635 401.918C122.298 402.027 121.933 402.114 121.541 402.178C121.149 402.242 120.716 402.273 120.242 402.273C119.376 402.273 118.62 402.132 117.973 401.85C117.335 401.558 116.842 401.093 116.496 400.455C116.15 399.817 115.977 398.979 115.977 397.939V383.557ZM123.715 394.754V394.467C123.715 393.382 123.87 392.384 124.18 391.473C124.49 390.552 124.941 389.755 125.533 389.08C126.126 388.406 126.855 387.882 127.721 387.508C128.587 387.125 129.58 386.934 130.701 386.934C131.822 386.934 132.82 387.125 133.695 387.508C134.57 387.882 135.304 388.406 135.896 389.08C136.498 389.755 136.954 390.552 137.264 391.473C137.574 392.384 137.729 393.382 137.729 394.467V394.754C137.729 395.829 137.574 396.827 137.264 397.748C136.954 398.66 136.498 399.457 135.896 400.141C135.304 400.815 134.575 401.339 133.709 401.713C132.843 402.087 131.85 402.273 130.729 402.273C129.607 402.273 128.609 402.087 127.734 401.713C126.868 401.339 126.135 400.815 125.533 400.141C124.941 399.457 124.49 398.66 124.18 397.748C123.87 396.827 123.715 395.829 123.715 394.754ZM127.652 394.467V394.754C127.652 395.374 127.707 395.952 127.816 396.49C127.926 397.028 128.099 397.502 128.336 397.912C128.582 398.313 128.901 398.628 129.293 398.855C129.685 399.083 130.163 399.197 130.729 399.197C131.275 399.197 131.745 399.083 132.137 398.855C132.529 398.628 132.843 398.313 133.08 397.912C133.317 397.502 133.49 397.028 133.6 396.49C133.718 395.952 133.777 395.374 133.777 394.754V394.467C133.777 393.865 133.718 393.3 133.6 392.771C133.49 392.234 133.312 391.76 133.066 391.35C132.829 390.93 132.515 390.602 132.123 390.365C131.731 390.128 131.257 390.01 130.701 390.01C130.145 390.01 129.671 390.128 129.279 390.365C128.896 390.602 128.582 390.93 128.336 391.35C128.099 391.76 127.926 392.234 127.816 392.771C127.707 393.3 127.652 393.865 127.652 394.467ZM144.086 390.434V402H140.148V387.207H143.854L144.086 390.434ZM148.543 387.111L148.475 390.762C148.283 390.734 148.051 390.712 147.777 390.693C147.513 390.666 147.271 390.652 147.053 390.652C146.497 390.652 146.014 390.725 145.604 390.871C145.202 391.008 144.865 391.213 144.592 391.486C144.327 391.76 144.127 392.092 143.99 392.484C143.863 392.876 143.79 393.323 143.771 393.824L142.979 393.578C142.979 392.621 143.074 391.742 143.266 390.939C143.457 390.128 143.735 389.422 144.1 388.82C144.473 388.219 144.929 387.754 145.467 387.426C146.005 387.098 146.62 386.934 147.312 386.934C147.531 386.934 147.755 386.952 147.982 386.988C148.21 387.016 148.397 387.057 148.543 387.111ZM157.922 398.664V392.074C157.922 391.6 157.844 391.195 157.689 390.857C157.535 390.511 157.293 390.242 156.965 390.051C156.646 389.859 156.231 389.764 155.721 389.764C155.283 389.764 154.905 389.841 154.586 389.996C154.267 390.142 154.021 390.356 153.848 390.639C153.674 390.912 153.588 391.236 153.588 391.609H149.65C149.65 390.98 149.796 390.383 150.088 389.818C150.38 389.253 150.803 388.757 151.359 388.328C151.915 387.891 152.576 387.549 153.342 387.303C154.117 387.057 154.982 386.934 155.939 386.934C157.088 386.934 158.109 387.125 159.002 387.508C159.895 387.891 160.597 388.465 161.107 389.23C161.627 389.996 161.887 390.953 161.887 392.102V398.432C161.887 399.243 161.937 399.908 162.037 400.428C162.137 400.938 162.283 401.385 162.475 401.768V402H158.496C158.305 401.599 158.159 401.098 158.059 400.496C157.967 399.885 157.922 399.275 157.922 398.664ZM158.441 392.99L158.469 395.219H156.268C155.748 395.219 155.297 395.278 154.914 395.396C154.531 395.515 154.217 395.684 153.971 395.902C153.725 396.112 153.542 396.358 153.424 396.641C153.314 396.923 153.26 397.233 153.26 397.57C153.26 397.908 153.337 398.213 153.492 398.486C153.647 398.751 153.87 398.96 154.162 399.115C154.454 399.261 154.796 399.334 155.188 399.334C155.78 399.334 156.295 399.215 156.732 398.979C157.17 398.742 157.507 398.45 157.744 398.104C157.99 397.757 158.118 397.429 158.127 397.119L159.166 398.787C159.02 399.161 158.82 399.548 158.564 399.949C158.318 400.35 158.004 400.729 157.621 401.084C157.238 401.43 156.778 401.717 156.24 401.945C155.702 402.164 155.064 402.273 154.326 402.273C153.387 402.273 152.535 402.087 151.77 401.713C151.013 401.33 150.411 400.806 149.965 400.141C149.527 399.466 149.309 398.701 149.309 397.844C149.309 397.069 149.454 396.381 149.746 395.779C150.038 395.178 150.466 394.672 151.031 394.262C151.605 393.842 152.321 393.528 153.178 393.318C154.035 393.1 155.028 392.99 156.158 392.99H158.441ZM172.168 387.207V389.996H163.555V387.207H172.168ZM165.688 383.557H169.625V397.543C169.625 397.971 169.68 398.299 169.789 398.527C169.908 398.755 170.081 398.915 170.309 399.006C170.536 399.088 170.824 399.129 171.17 399.129C171.416 399.129 171.635 399.12 171.826 399.102C172.027 399.074 172.195 399.047 172.332 399.02L172.346 401.918C172.008 402.027 171.644 402.114 171.252 402.178C170.86 402.242 170.427 402.273 169.953 402.273C169.087 402.273 168.331 402.132 167.684 401.85C167.046 401.558 166.553 401.093 166.207 400.455C165.861 399.817 165.688 398.979 165.688 397.939V383.557ZM189.682 395.889V382.094H193.77V395.889C193.77 397.219 193.478 398.363 192.895 399.32C192.311 400.268 191.514 400.997 190.502 401.508C189.499 402.018 188.369 402.273 187.111 402.273C185.808 402.273 184.655 402.055 183.652 401.617C182.65 401.18 181.861 400.51 181.287 399.607C180.713 398.696 180.426 397.543 180.426 396.148H184.541C184.541 396.878 184.641 397.456 184.842 397.885C185.051 398.313 185.348 398.618 185.73 398.801C186.113 398.983 186.574 399.074 187.111 399.074C187.631 399.074 188.082 398.951 188.465 398.705C188.848 398.459 189.144 398.099 189.354 397.625C189.572 397.151 189.682 396.572 189.682 395.889ZM203.832 402.273C202.684 402.273 201.654 402.091 200.742 401.727C199.831 401.353 199.056 400.838 198.418 400.182C197.789 399.525 197.306 398.764 196.969 397.898C196.632 397.023 196.463 396.094 196.463 395.109V394.562C196.463 393.441 196.622 392.416 196.941 391.486C197.26 390.557 197.716 389.75 198.309 389.066C198.91 388.383 199.639 387.859 200.496 387.494C201.353 387.12 202.319 386.934 203.395 386.934C204.443 386.934 205.372 387.107 206.184 387.453C206.995 387.799 207.674 388.292 208.221 388.93C208.777 389.568 209.196 390.333 209.479 391.227C209.761 392.111 209.902 393.095 209.902 394.18V395.82H198.145V393.195H206.033V392.895C206.033 392.348 205.933 391.86 205.732 391.432C205.541 390.994 205.249 390.648 204.857 390.393C204.465 390.137 203.964 390.01 203.354 390.01C202.834 390.01 202.387 390.124 202.014 390.352C201.64 390.579 201.335 390.898 201.098 391.309C200.87 391.719 200.697 392.202 200.578 392.758C200.469 393.305 200.414 393.906 200.414 394.562V395.109C200.414 395.702 200.496 396.249 200.66 396.75C200.833 397.251 201.075 397.684 201.385 398.049C201.704 398.413 202.087 398.696 202.533 398.896C202.989 399.097 203.504 399.197 204.078 399.197C204.789 399.197 205.45 399.061 206.061 398.787C206.68 398.505 207.214 398.081 207.66 397.516L209.574 399.594C209.264 400.04 208.84 400.469 208.303 400.879C207.774 401.289 207.136 401.626 206.389 401.891C205.641 402.146 204.789 402.273 203.832 402.273ZM216 390.365V402H212.062V387.207H215.754L216 390.365ZM215.426 394.084H214.359C214.359 392.99 214.501 392.006 214.783 391.131C215.066 390.247 215.462 389.495 215.973 388.875C216.483 388.246 217.089 387.768 217.791 387.439C218.502 387.102 219.295 386.934 220.17 386.934C220.863 386.934 221.496 387.034 222.07 387.234C222.645 387.435 223.137 387.754 223.547 388.191C223.966 388.629 224.285 389.208 224.504 389.928C224.732 390.648 224.846 391.527 224.846 392.566V402H220.881V392.553C220.881 391.896 220.79 391.386 220.607 391.021C220.425 390.657 220.156 390.402 219.801 390.256C219.454 390.101 219.026 390.023 218.516 390.023C217.987 390.023 217.527 390.128 217.135 390.338C216.752 390.548 216.433 390.839 216.178 391.213C215.932 391.577 215.745 392.006 215.617 392.498C215.49 392.99 215.426 393.519 215.426 394.084ZM236.576 398.773V381H240.541V402H236.973L236.576 398.773ZM227.225 394.781V394.494C227.225 393.364 227.352 392.339 227.607 391.418C227.863 390.488 228.236 389.691 228.729 389.025C229.221 388.36 229.827 387.845 230.547 387.48C231.267 387.116 232.087 386.934 233.008 386.934C233.874 386.934 234.63 387.116 235.277 387.48C235.934 387.845 236.49 388.365 236.945 389.039C237.41 389.704 237.784 390.493 238.066 391.404C238.349 392.307 238.554 393.296 238.682 394.371V395C238.554 396.03 238.349 396.987 238.066 397.871C237.784 398.755 237.41 399.53 236.945 400.195C236.49 400.852 235.934 401.362 235.277 401.727C234.621 402.091 233.855 402.273 232.98 402.273C232.06 402.273 231.24 402.087 230.52 401.713C229.809 401.339 229.207 400.815 228.715 400.141C228.232 399.466 227.863 398.673 227.607 397.762C227.352 396.85 227.225 395.857 227.225 394.781ZM231.162 394.494V394.781C231.162 395.392 231.208 395.962 231.299 396.49C231.399 397.019 231.559 397.488 231.777 397.898C232.005 398.299 232.297 398.614 232.652 398.842C233.017 399.061 233.459 399.17 233.979 399.17C234.653 399.17 235.209 399.02 235.646 398.719C236.084 398.409 236.417 397.985 236.645 397.447C236.882 396.91 237.018 396.29 237.055 395.588V393.797C237.027 393.223 236.945 392.708 236.809 392.252C236.681 391.787 236.49 391.391 236.234 391.062C235.988 390.734 235.678 390.479 235.305 390.297C234.94 390.115 234.507 390.023 234.006 390.023C233.495 390.023 233.058 390.142 232.693 390.379C232.329 390.607 232.033 390.921 231.805 391.322C231.586 391.723 231.422 392.197 231.312 392.744C231.212 393.282 231.162 393.865 231.162 394.494ZM250.426 402.273C249.277 402.273 248.247 402.091 247.336 401.727C246.424 401.353 245.65 400.838 245.012 400.182C244.383 399.525 243.9 398.764 243.562 397.898C243.225 397.023 243.057 396.094 243.057 395.109V394.562C243.057 393.441 243.216 392.416 243.535 391.486C243.854 390.557 244.31 389.75 244.902 389.066C245.504 388.383 246.233 387.859 247.09 387.494C247.947 387.12 248.913 386.934 249.988 386.934C251.036 386.934 251.966 387.107 252.777 387.453C253.589 387.799 254.268 388.292 254.814 388.93C255.37 389.568 255.79 390.333 256.072 391.227C256.355 392.111 256.496 393.095 256.496 394.18V395.82H244.738V393.195H252.627V392.895C252.627 392.348 252.527 391.86 252.326 391.432C252.135 390.994 251.843 390.648 251.451 390.393C251.059 390.137 250.558 390.01 249.947 390.01C249.428 390.01 248.981 390.124 248.607 390.352C248.234 390.579 247.928 390.898 247.691 391.309C247.464 391.719 247.29 392.202 247.172 392.758C247.062 393.305 247.008 393.906 247.008 394.562V395.109C247.008 395.702 247.09 396.249 247.254 396.75C247.427 397.251 247.669 397.684 247.979 398.049C248.298 398.413 248.68 398.696 249.127 398.896C249.583 399.097 250.098 399.197 250.672 399.197C251.383 399.197 252.044 399.061 252.654 398.787C253.274 398.505 253.807 398.081 254.254 397.516L256.168 399.594C255.858 400.04 255.434 400.469 254.896 400.879C254.368 401.289 253.73 401.626 252.982 401.891C252.235 402.146 251.383 402.273 250.426 402.273ZM262.676 390.434V402H258.738V387.207H262.443L262.676 390.434ZM267.133 387.111L267.064 390.762C266.873 390.734 266.641 390.712 266.367 390.693C266.103 390.666 265.861 390.652 265.643 390.652C265.087 390.652 264.604 390.725 264.193 390.871C263.792 391.008 263.455 391.213 263.182 391.486C262.917 391.76 262.717 392.092 262.58 392.484C262.452 392.876 262.38 393.323 262.361 393.824L261.568 393.578C261.568 392.621 261.664 391.742 261.855 390.939C262.047 390.128 262.325 389.422 262.689 388.82C263.063 388.219 263.519 387.754 264.057 387.426C264.594 387.098 265.21 386.934 265.902 386.934C266.121 386.934 266.344 386.952 266.572 386.988C266.8 387.016 266.987 387.057 267.133 387.111ZM276.512 398.664V392.074C276.512 391.6 276.434 391.195 276.279 390.857C276.124 390.511 275.883 390.242 275.555 390.051C275.236 389.859 274.821 389.764 274.311 389.764C273.873 389.764 273.495 389.841 273.176 389.996C272.857 390.142 272.611 390.356 272.438 390.639C272.264 390.912 272.178 391.236 272.178 391.609H268.24C268.24 390.98 268.386 390.383 268.678 389.818C268.969 389.253 269.393 388.757 269.949 388.328C270.505 387.891 271.166 387.549 271.932 387.303C272.706 387.057 273.572 386.934 274.529 386.934C275.678 386.934 276.699 387.125 277.592 387.508C278.485 387.891 279.187 388.465 279.697 389.23C280.217 389.996 280.477 390.953 280.477 392.102V398.432C280.477 399.243 280.527 399.908 280.627 400.428C280.727 400.938 280.873 401.385 281.064 401.768V402H277.086C276.895 401.599 276.749 401.098 276.648 400.496C276.557 399.885 276.512 399.275 276.512 398.664ZM277.031 392.99L277.059 395.219H274.857C274.338 395.219 273.887 395.278 273.504 395.396C273.121 395.515 272.807 395.684 272.561 395.902C272.314 396.112 272.132 396.358 272.014 396.641C271.904 396.923 271.85 397.233 271.85 397.57C271.85 397.908 271.927 398.213 272.082 398.486C272.237 398.751 272.46 398.96 272.752 399.115C273.044 399.261 273.385 399.334 273.777 399.334C274.37 399.334 274.885 399.215 275.322 398.979C275.76 398.742 276.097 398.45 276.334 398.104C276.58 397.757 276.708 397.429 276.717 397.119L277.756 398.787C277.61 399.161 277.41 399.548 277.154 399.949C276.908 400.35 276.594 400.729 276.211 401.084C275.828 401.43 275.368 401.717 274.83 401.945C274.292 402.164 273.654 402.273 272.916 402.273C271.977 402.273 271.125 402.087 270.359 401.713C269.603 401.33 269.001 400.806 268.555 400.141C268.117 399.466 267.898 398.701 267.898 397.844C267.898 397.069 268.044 396.381 268.336 395.779C268.628 395.178 269.056 394.672 269.621 394.262C270.195 393.842 270.911 393.528 271.768 393.318C272.624 393.1 273.618 392.99 274.748 392.99H277.031ZM287.668 381V402H283.717V381H287.668ZM308.504 396.791C308.504 396.436 308.449 396.117 308.34 395.834C308.24 395.542 308.048 395.278 307.766 395.041C307.483 394.795 307.087 394.553 306.576 394.316C306.066 394.079 305.405 393.833 304.594 393.578C303.691 393.286 302.835 392.958 302.023 392.594C301.221 392.229 300.51 391.805 299.891 391.322C299.28 390.83 298.797 390.26 298.441 389.613C298.095 388.966 297.922 388.214 297.922 387.357C297.922 386.528 298.104 385.776 298.469 385.102C298.833 384.418 299.344 383.835 300 383.352C300.656 382.859 301.431 382.481 302.324 382.217C303.227 381.952 304.215 381.82 305.291 381.82C306.758 381.82 308.039 382.085 309.133 382.613C310.227 383.142 311.074 383.867 311.676 384.787C312.286 385.708 312.592 386.76 312.592 387.945H308.518C308.518 387.362 308.395 386.852 308.148 386.414C307.911 385.967 307.547 385.617 307.055 385.361C306.572 385.106 305.961 384.979 305.223 384.979C304.512 384.979 303.919 385.088 303.445 385.307C302.971 385.516 302.616 385.803 302.379 386.168C302.142 386.523 302.023 386.924 302.023 387.371C302.023 387.708 302.105 388.014 302.27 388.287C302.443 388.561 302.698 388.816 303.035 389.053C303.372 389.29 303.787 389.513 304.279 389.723C304.771 389.932 305.341 390.137 305.988 390.338C307.073 390.666 308.025 391.035 308.846 391.445C309.675 391.855 310.368 392.316 310.924 392.826C311.48 393.337 311.899 393.915 312.182 394.562C312.464 395.21 312.605 395.943 312.605 396.764C312.605 397.63 312.437 398.404 312.1 399.088C311.762 399.771 311.275 400.35 310.637 400.824C309.999 401.298 309.238 401.658 308.354 401.904C307.469 402.15 306.48 402.273 305.387 402.273C304.402 402.273 303.432 402.146 302.475 401.891C301.518 401.626 300.647 401.23 299.863 400.701C299.089 400.173 298.469 399.498 298.004 398.678C297.539 397.857 297.307 396.887 297.307 395.766H301.422C301.422 396.385 301.518 396.91 301.709 397.338C301.9 397.766 302.169 398.113 302.516 398.377C302.871 398.641 303.29 398.833 303.773 398.951C304.266 399.07 304.803 399.129 305.387 399.129C306.098 399.129 306.681 399.029 307.137 398.828C307.602 398.628 307.943 398.35 308.162 397.994C308.39 397.639 308.504 397.238 308.504 396.791ZM323.898 398.459V387.207H327.836V402H324.131L323.898 398.459ZM324.336 395.424L325.498 395.396C325.498 396.381 325.384 397.297 325.156 398.145C324.928 398.983 324.587 399.712 324.131 400.332C323.675 400.943 323.101 401.421 322.408 401.768C321.715 402.105 320.9 402.273 319.961 402.273C319.241 402.273 318.576 402.173 317.965 401.973C317.363 401.763 316.844 401.439 316.406 401.002C315.978 400.555 315.641 399.986 315.395 399.293C315.158 398.591 315.039 397.748 315.039 396.764V387.207H318.977V396.791C318.977 397.229 319.027 397.598 319.127 397.898C319.236 398.199 319.387 398.445 319.578 398.637C319.77 398.828 319.993 398.965 320.248 399.047C320.512 399.129 320.804 399.17 321.123 399.17C321.934 399.17 322.572 399.006 323.037 398.678C323.511 398.35 323.844 397.903 324.035 397.338C324.236 396.764 324.336 396.126 324.336 395.424ZM334.781 390.27V402H330.83V387.207H334.535L334.781 390.27ZM334.234 394.084H333.141C333.141 393.054 333.264 392.106 333.51 391.24C333.765 390.365 334.134 389.609 334.617 388.971C335.109 388.324 335.715 387.822 336.436 387.467C337.156 387.111 337.99 386.934 338.938 386.934C339.594 386.934 340.195 387.034 340.742 387.234C341.289 387.426 341.758 387.731 342.15 388.15C342.551 388.561 342.861 389.098 343.08 389.764C343.299 390.42 343.408 391.208 343.408 392.129V402H339.471V392.566C339.471 391.892 339.38 391.372 339.197 391.008C339.015 390.643 338.755 390.388 338.418 390.242C338.09 390.096 337.693 390.023 337.229 390.023C336.718 390.023 336.271 390.128 335.889 390.338C335.515 390.548 335.205 390.839 334.959 391.213C334.713 391.577 334.531 392.006 334.412 392.498C334.294 392.99 334.234 393.519 334.234 394.084ZM343.039 393.633L341.631 393.811C341.631 392.844 341.749 391.947 341.986 391.117C342.232 390.288 342.592 389.559 343.066 388.93C343.549 388.301 344.146 387.813 344.857 387.467C345.568 387.111 346.389 386.934 347.318 386.934C348.029 386.934 348.676 387.038 349.26 387.248C349.843 387.449 350.34 387.772 350.75 388.219C351.169 388.656 351.488 389.23 351.707 389.941C351.935 390.652 352.049 391.523 352.049 392.553V402H348.098V392.553C348.098 391.869 348.007 391.35 347.824 390.994C347.651 390.63 347.396 390.379 347.059 390.242C346.73 390.096 346.339 390.023 345.883 390.023C345.409 390.023 344.994 390.119 344.639 390.311C344.283 390.493 343.987 390.748 343.75 391.076C343.513 391.404 343.335 391.787 343.217 392.225C343.098 392.653 343.039 393.122 343.039 393.633ZM355.098 381H359.035V398.609L358.639 402H355.098V381ZM368.4 394.453V394.74C368.4 395.843 368.282 396.855 368.045 397.775C367.817 398.696 367.462 399.493 366.979 400.168C366.495 400.833 365.894 401.353 365.174 401.727C364.463 402.091 363.624 402.273 362.658 402.273C361.756 402.273 360.972 402.091 360.307 401.727C359.65 401.362 359.099 400.847 358.652 400.182C358.206 399.516 357.846 398.737 357.572 397.844C357.299 396.951 357.094 395.975 356.957 394.918V394.289C357.094 393.232 357.299 392.257 357.572 391.363C357.846 390.47 358.206 389.691 358.652 389.025C359.099 388.36 359.65 387.845 360.307 387.48C360.963 387.116 361.738 386.934 362.631 386.934C363.606 386.934 364.454 387.12 365.174 387.494C365.903 387.859 366.505 388.378 366.979 389.053C367.462 389.718 367.817 390.511 368.045 391.432C368.282 392.343 368.4 393.35 368.4 394.453ZM364.463 394.74V394.453C364.463 393.852 364.417 393.286 364.326 392.758C364.244 392.22 364.098 391.751 363.889 391.35C363.679 390.939 363.392 390.616 363.027 390.379C362.672 390.142 362.212 390.023 361.646 390.023C361.109 390.023 360.653 390.115 360.279 390.297C359.906 390.479 359.596 390.734 359.35 391.062C359.113 391.391 358.935 391.783 358.816 392.238C358.698 392.685 358.625 393.177 358.598 393.715V395.506C358.625 396.226 358.743 396.864 358.953 397.42C359.172 397.967 359.5 398.4 359.938 398.719C360.384 399.029 360.963 399.184 361.674 399.184C362.23 399.184 362.69 399.074 363.055 398.855C363.419 398.637 363.702 398.327 363.902 397.926C364.112 397.525 364.258 397.055 364.34 396.518C364.422 395.971 364.463 395.378 364.463 394.74ZM377.656 402.273C376.508 402.273 375.478 402.091 374.566 401.727C373.655 401.353 372.88 400.838 372.242 400.182C371.613 399.525 371.13 398.764 370.793 397.898C370.456 397.023 370.287 396.094 370.287 395.109V394.562C370.287 393.441 370.447 392.416 370.766 391.486C371.085 390.557 371.54 389.75 372.133 389.066C372.734 388.383 373.464 387.859 374.32 387.494C375.177 387.12 376.143 386.934 377.219 386.934C378.267 386.934 379.197 387.107 380.008 387.453C380.819 387.799 381.498 388.292 382.045 388.93C382.601 389.568 383.02 390.333 383.303 391.227C383.585 392.111 383.727 393.095 383.727 394.18V395.82H371.969V393.195H379.857V392.895C379.857 392.348 379.757 391.86 379.557 391.432C379.365 390.994 379.074 390.648 378.682 390.393C378.29 390.137 377.788 390.01 377.178 390.01C376.658 390.01 376.212 390.124 375.838 390.352C375.464 390.579 375.159 390.898 374.922 391.309C374.694 391.719 374.521 392.202 374.402 392.758C374.293 393.305 374.238 393.906 374.238 394.562V395.109C374.238 395.702 374.32 396.249 374.484 396.75C374.658 397.251 374.899 397.684 375.209 398.049C375.528 398.413 375.911 398.696 376.357 398.896C376.813 399.097 377.328 399.197 377.902 399.197C378.613 399.197 379.274 399.061 379.885 398.787C380.505 398.505 381.038 398.081 381.484 397.516L383.398 399.594C383.089 400.04 382.665 400.469 382.127 400.879C381.598 401.289 380.96 401.626 380.213 401.891C379.465 402.146 378.613 402.273 377.656 402.273ZM389.906 390.434V402H385.969V387.207H389.674L389.906 390.434ZM394.363 387.111L394.295 390.762C394.104 390.734 393.871 390.712 393.598 390.693C393.333 390.666 393.092 390.652 392.873 390.652C392.317 390.652 391.834 390.725 391.424 390.871C391.023 391.008 390.686 391.213 390.412 391.486C390.148 391.76 389.947 392.092 389.811 392.484C389.683 392.876 389.61 393.323 389.592 393.824L388.799 393.578C388.799 392.621 388.895 391.742 389.086 390.939C389.277 390.128 389.555 389.422 389.92 388.82C390.294 388.219 390.749 387.754 391.287 387.426C391.825 387.098 392.44 386.934 393.133 386.934C393.352 386.934 393.575 386.952 393.803 386.988C394.031 387.016 394.217 387.057 394.363 387.111ZM409.553 402H405.219L405.246 398.801H409.553C410.628 398.801 411.535 398.559 412.273 398.076C413.012 397.584 413.568 396.868 413.941 395.93C414.324 394.991 414.516 393.856 414.516 392.525V391.555C414.516 390.534 414.406 389.636 414.188 388.861C413.978 388.087 413.663 387.435 413.244 386.906C412.825 386.378 412.31 385.981 411.699 385.717C411.089 385.443 410.387 385.307 409.594 385.307H405.137V382.094H409.594C410.924 382.094 412.141 382.322 413.244 382.777C414.356 383.224 415.318 383.867 416.129 384.705C416.94 385.544 417.564 386.546 418.002 387.713C418.449 388.87 418.672 390.16 418.672 391.582V392.525C418.672 393.938 418.449 395.228 418.002 396.395C417.564 397.561 416.94 398.564 416.129 399.402C415.327 400.232 414.365 400.874 413.244 401.33C412.132 401.777 410.902 402 409.553 402ZM407.543 382.094V402H403.441V382.094H407.543ZM429.391 398.664V392.074C429.391 391.6 429.313 391.195 429.158 390.857C429.003 390.511 428.762 390.242 428.434 390.051C428.115 389.859 427.7 389.764 427.189 389.764C426.752 389.764 426.374 389.841 426.055 389.996C425.736 390.142 425.49 390.356 425.316 390.639C425.143 390.912 425.057 391.236 425.057 391.609H421.119C421.119 390.98 421.265 390.383 421.557 389.818C421.848 389.253 422.272 388.757 422.828 388.328C423.384 387.891 424.045 387.549 424.811 387.303C425.585 387.057 426.451 386.934 427.408 386.934C428.557 386.934 429.577 387.125 430.471 387.508C431.364 387.891 432.066 388.465 432.576 389.23C433.096 389.996 433.355 390.953 433.355 392.102V398.432C433.355 399.243 433.406 399.908 433.506 400.428C433.606 400.938 433.752 401.385 433.943 401.768V402H429.965C429.773 401.599 429.628 401.098 429.527 400.496C429.436 399.885 429.391 399.275 429.391 398.664ZM429.91 392.99L429.938 395.219H427.736C427.217 395.219 426.766 395.278 426.383 395.396C426 395.515 425.686 395.684 425.439 395.902C425.193 396.112 425.011 396.358 424.893 396.641C424.783 396.923 424.729 397.233 424.729 397.57C424.729 397.908 424.806 398.213 424.961 398.486C425.116 398.751 425.339 398.96 425.631 399.115C425.923 399.261 426.264 399.334 426.656 399.334C427.249 399.334 427.764 399.215 428.201 398.979C428.639 398.742 428.976 398.45 429.213 398.104C429.459 397.757 429.587 397.429 429.596 397.119L430.635 398.787C430.489 399.161 430.288 399.548 430.033 399.949C429.787 400.35 429.473 400.729 429.09 401.084C428.707 401.43 428.247 401.717 427.709 401.945C427.171 402.164 426.533 402.273 425.795 402.273C424.856 402.273 424.004 402.087 423.238 401.713C422.482 401.33 421.88 400.806 421.434 400.141C420.996 399.466 420.777 398.701 420.777 397.844C420.777 397.069 420.923 396.381 421.215 395.779C421.507 395.178 421.935 394.672 422.5 394.262C423.074 393.842 423.79 393.528 424.646 393.318C425.503 393.1 426.497 392.99 427.627 392.99H429.91ZM440.561 400.332L444.484 387.207H448.709L442.762 404.229C442.634 404.602 442.461 405.003 442.242 405.432C442.033 405.86 441.745 406.266 441.381 406.648C441.025 407.04 440.574 407.359 440.027 407.605C439.49 407.852 438.829 407.975 438.045 407.975C437.671 407.975 437.366 407.952 437.129 407.906C436.892 407.861 436.609 407.797 436.281 407.715V404.83C436.382 404.83 436.486 404.83 436.596 404.83C436.705 404.839 436.81 404.844 436.91 404.844C437.43 404.844 437.854 404.785 438.182 404.666C438.51 404.548 438.774 404.365 438.975 404.119C439.175 403.882 439.335 403.572 439.453 403.189L440.561 400.332ZM438.92 387.207L442.133 397.926L442.693 402.096L440.014 402.383L434.695 387.207H438.92ZM458.047 398.664V392.074C458.047 391.6 457.969 391.195 457.814 390.857C457.66 390.511 457.418 390.242 457.09 390.051C456.771 389.859 456.356 389.764 455.846 389.764C455.408 389.764 455.03 389.841 454.711 389.996C454.392 390.142 454.146 390.356 453.973 390.639C453.799 390.912 453.713 391.236 453.713 391.609H449.775C449.775 390.98 449.921 390.383 450.213 389.818C450.505 389.253 450.928 388.757 451.484 388.328C452.04 387.891 452.701 387.549 453.467 387.303C454.242 387.057 455.107 386.934 456.064 386.934C457.213 386.934 458.234 387.125 459.127 387.508C460.02 387.891 460.722 388.465 461.232 389.23C461.752 389.996 462.012 390.953 462.012 392.102V398.432C462.012 399.243 462.062 399.908 462.162 400.428C462.262 400.938 462.408 401.385 462.6 401.768V402H458.621C458.43 401.599 458.284 401.098 458.184 400.496C458.092 399.885 458.047 399.275 458.047 398.664ZM458.566 392.99L458.594 395.219H456.393C455.873 395.219 455.422 395.278 455.039 395.396C454.656 395.515 454.342 395.684 454.096 395.902C453.85 396.112 453.667 396.358 453.549 396.641C453.439 396.923 453.385 397.233 453.385 397.57C453.385 397.908 453.462 398.213 453.617 398.486C453.772 398.751 453.995 398.96 454.287 399.115C454.579 399.261 454.921 399.334 455.312 399.334C455.905 399.334 456.42 399.215 456.857 398.979C457.295 398.742 457.632 398.45 457.869 398.104C458.115 397.757 458.243 397.429 458.252 397.119L459.291 398.787C459.145 399.161 458.945 399.548 458.689 399.949C458.443 400.35 458.129 400.729 457.746 401.084C457.363 401.43 456.903 401.717 456.365 401.945C455.827 402.164 455.189 402.273 454.451 402.273C453.512 402.273 452.66 402.087 451.895 401.713C451.138 401.33 450.536 400.806 450.09 400.141C449.652 399.466 449.434 398.701 449.434 397.844C449.434 397.069 449.579 396.381 449.871 395.779C450.163 395.178 450.591 394.672 451.156 394.262C451.73 393.842 452.446 393.528 453.303 393.318C454.16 393.1 455.153 392.99 456.283 392.99H458.566ZM480.359 385.498L474.945 402H470.584L477.98 382.094H480.756L480.359 385.498ZM484.857 402L479.43 385.498L478.992 382.094H481.795L489.232 402H484.857ZM484.611 394.59V397.803H474.098V394.59H484.611ZM494.988 387.207V402H491.037V387.207H494.988ZM490.791 383.352C490.791 382.777 490.992 382.303 491.393 381.93C491.794 381.556 492.331 381.369 493.006 381.369C493.671 381.369 494.204 381.556 494.605 381.93C495.016 382.303 495.221 382.777 495.221 383.352C495.221 383.926 495.016 384.4 494.605 384.773C494.204 385.147 493.671 385.334 493.006 385.334C492.331 385.334 491.794 385.147 491.393 384.773C490.992 384.4 490.791 383.926 490.791 383.352ZM502.18 390.434V402H498.242V387.207H501.947L502.18 390.434ZM506.637 387.111L506.568 390.762C506.377 390.734 506.145 390.712 505.871 390.693C505.607 390.666 505.365 390.652 505.146 390.652C504.59 390.652 504.107 390.725 503.697 390.871C503.296 391.008 502.959 391.213 502.686 391.486C502.421 391.76 502.221 392.092 502.084 392.484C501.956 392.876 501.883 393.323 501.865 393.824L501.072 393.578C501.072 392.621 501.168 391.742 501.359 390.939C501.551 390.128 501.829 389.422 502.193 388.82C502.567 388.219 503.023 387.754 503.561 387.426C504.098 387.098 504.714 386.934 505.406 386.934C505.625 386.934 505.848 386.952 506.076 386.988C506.304 387.016 506.491 387.057 506.637 387.111Z" fill="#BAA8EE"/>
<g clip-path="url(#clip0_2468_38002)">
<path d="M130 193H48V285H130V193Z" fill="#FAD605"/>
<path fill-rule="evenodd" clip-rule="evenodd" d="M48 193H130V285H48V193ZM50.5545 195.811H127.445V282.189H50.5545V195.811Z" fill="#25185A"/>
<path fill-rule="evenodd" clip-rule="evenodd" d="M53.1934 279.548H57.0251C56.94 278.867 56.94 278.271 56.94 277.589C56.94 267.793 64.7738 259.785 74.481 259.785C84.1882 259.785 92.1072 267.793 92.1072 277.589C92.1072 278.271 92.022 278.867 91.9369 279.548H124.805V252.8H120.633C120.718 253.397 120.718 253.993 120.718 254.589C120.718 262.597 114.502 268.985 106.838 268.985C99.1747 268.985 92.9587 262.597 92.9587 254.589L93.0438 198.452H64.1778V203.904C76.6949 203.904 86.913 214.382 86.913 227.33C86.913 240.193 76.6949 250.756 64.1778 250.756H53.1934V279.548Z" fill="#25185A"/>
</g>
<defs>
<linearGradient id="paint0_linear_2468_38002" x1="-463.433" y1="-142.73" x2="-249.914" y2="938.332" gradientUnits="userSpaceOnUse">
<stop stop-color="#25185A"/>
<stop offset="1" stop-color="#4F33C0"/>
</linearGradient>
<linearGradient id="paint1_linear_2468_38002" x1="-463.433" y1="-142.73" x2="-249.914" y2="938.332" gradientUnits="userSpaceOnUse">
<stop stop-color="#25185A"/>
<stop offset="1" stop-color="#4F33C0"/>
</linearGradient>
<clipPath id="clip0_2468_38002">
<rect width="82" height="92" fill="white" transform="translate(48 193)"/>
</clipPath>
</defs>
</svg>
