<svg width="720" height="602" viewBox="0 0 720 602" fill="none" xmlns="http://www.w3.org/2000/svg">
<path d="M0 28C0 12.536 12.536 0 28 0H720V602H28C12.536 602 0 589.464 0 574V28Z" fill="url(#paint0_linear_318_15313)"/>
<mask id="mask0_318_15313" style="mask-type:alpha" maskUnits="userSpaceOnUse" x="0" y="0" width="720" height="602">
<path d="M0 28C0 12.536 12.536 0 28 0H720V602H28C12.536 602 0 589.464 0 574V28Z" fill="url(#paint1_linear_318_15313)"/>
</mask>
<g mask="url(#mask0_318_15313)">
<path opacity="0.1" d="M245.35 -43.3687C429.168 -121.144 927.714 240.478 348.142 303.469C-231.431 366.46 394.124 778.398 742.012 528.822" stroke="white" stroke-width="75"/>
</g>
<path d="M67.6719 322.52H60.3672L60.3281 318.496H66.4609C67.5417 318.496 68.4271 318.359 69.1172 318.086C69.8073 317.799 70.3216 317.389 70.6602 316.855C71.0117 316.309 71.1875 315.645 71.1875 314.863C71.1875 313.978 71.0182 313.262 70.6797 312.715C70.3542 312.168 69.8398 311.771 69.1367 311.523C68.4466 311.276 67.5547 311.152 66.4609 311.152H62.3984V335H56.5391V306.562H66.4609C68.1146 306.562 69.5924 306.719 70.8945 307.031C72.2096 307.344 73.3229 307.819 74.2344 308.457C75.1458 309.095 75.8424 309.902 76.3242 310.879C76.806 311.842 77.0469 312.988 77.0469 314.316C77.0469 315.488 76.7799 316.569 76.2461 317.559C75.7253 318.548 74.8984 319.355 73.7656 319.98C72.6458 320.605 71.181 320.951 69.3711 321.016L67.6719 322.52ZM67.418 335H58.7656L61.0508 330.43H67.418C68.4466 330.43 69.2865 330.267 69.9375 329.941C70.5885 329.603 71.0703 329.147 71.3828 328.574C71.6953 328.001 71.8516 327.344 71.8516 326.602C71.8516 325.768 71.7083 325.046 71.4219 324.434C71.1484 323.822 70.7057 323.353 70.0938 323.027C69.4818 322.689 68.6745 322.52 67.6719 322.52H62.0273L62.0664 318.496H69.0977L70.4453 320.078C72.1771 320.052 73.5703 320.358 74.625 320.996C75.6927 321.621 76.4674 322.435 76.9492 323.438C77.444 324.44 77.6914 325.514 77.6914 326.66C77.6914 328.483 77.2943 330.02 76.5 331.27C75.7057 332.507 74.5404 333.438 73.0039 334.062C71.4805 334.688 69.6185 335 67.418 335ZM93.2188 322.52H85.9141L85.875 318.496H92.0078C93.0885 318.496 93.974 318.359 94.6641 318.086C95.3542 317.799 95.8685 317.389 96.207 316.855C96.5586 316.309 96.7344 315.645 96.7344 314.863C96.7344 313.978 96.5651 313.262 96.2266 312.715C95.901 312.168 95.3867 311.771 94.6836 311.523C93.9935 311.276 93.1016 311.152 92.0078 311.152H87.9453V335H82.0859V306.562H92.0078C93.6615 306.562 95.1393 306.719 96.4414 307.031C97.7565 307.344 98.8698 307.819 99.7812 308.457C100.693 309.095 101.389 309.902 101.871 310.879C102.353 311.842 102.594 312.988 102.594 314.316C102.594 315.488 102.327 316.569 101.793 317.559C101.272 318.548 100.445 319.355 99.3125 319.98C98.1927 320.605 96.7279 320.951 94.918 321.016L93.2188 322.52ZM92.9648 335H84.3125L86.5977 330.43H92.9648C93.9935 330.43 94.8333 330.267 95.4844 329.941C96.1354 329.603 96.6172 329.147 96.9297 328.574C97.2422 328.001 97.3984 327.344 97.3984 326.602C97.3984 325.768 97.2552 325.046 96.9688 324.434C96.6953 323.822 96.2526 323.353 95.6406 323.027C95.0286 322.689 94.2214 322.52 93.2188 322.52H87.5742L87.6133 318.496H94.6445L95.9922 320.078C97.724 320.052 99.1172 320.358 100.172 320.996C101.24 321.621 102.014 322.435 102.496 323.438C102.991 324.44 103.238 325.514 103.238 326.66C103.238 328.483 102.841 330.02 102.047 331.27C101.253 332.507 100.087 333.438 98.5508 334.062C97.0273 334.688 95.1654 335 92.9648 335ZM114.488 330.488L120.152 306.562H123.316L124.039 310.547L118.004 335H114.605L114.488 330.488ZM111.578 306.562L116.266 330.488L115.875 335H112.086L105.777 306.562H111.578ZM129.02 330.391L133.648 306.562H139.449L133.16 335H129.371L129.02 330.391ZM125.094 306.562L130.797 330.586L130.641 335H127.242L121.168 310.527L121.949 306.562H125.094ZM157.438 327.559C157.438 327.051 157.359 326.595 157.203 326.191C157.06 325.775 156.786 325.397 156.383 325.059C155.979 324.707 155.413 324.362 154.684 324.023C153.954 323.685 153.01 323.333 151.852 322.969C150.562 322.552 149.339 322.083 148.18 321.562C147.034 321.042 146.018 320.436 145.133 319.746C144.26 319.043 143.57 318.229 143.062 317.305C142.568 316.38 142.32 315.306 142.32 314.082C142.32 312.897 142.581 311.823 143.102 310.859C143.622 309.883 144.352 309.049 145.289 308.359C146.227 307.656 147.333 307.116 148.609 306.738C149.898 306.361 151.311 306.172 152.848 306.172C154.944 306.172 156.773 306.549 158.336 307.305C159.898 308.06 161.109 309.095 161.969 310.41C162.841 311.725 163.277 313.229 163.277 314.922H157.457C157.457 314.089 157.281 313.359 156.93 312.734C156.591 312.096 156.07 311.595 155.367 311.23C154.677 310.866 153.805 310.684 152.75 310.684C151.734 310.684 150.888 310.84 150.211 311.152C149.534 311.452 149.026 311.862 148.688 312.383C148.349 312.891 148.18 313.464 148.18 314.102C148.18 314.583 148.297 315.02 148.531 315.41C148.779 315.801 149.143 316.165 149.625 316.504C150.107 316.842 150.699 317.161 151.402 317.461C152.105 317.76 152.919 318.053 153.844 318.34C155.393 318.809 156.754 319.336 157.926 319.922C159.111 320.508 160.1 321.165 160.895 321.895C161.689 322.624 162.288 323.451 162.691 324.375C163.095 325.299 163.297 326.348 163.297 327.52C163.297 328.757 163.056 329.863 162.574 330.84C162.092 331.816 161.396 332.643 160.484 333.32C159.573 333.997 158.486 334.512 157.223 334.863C155.96 335.215 154.547 335.391 152.984 335.391C151.578 335.391 150.191 335.208 148.824 334.844C147.457 334.466 146.214 333.9 145.094 333.145C143.987 332.389 143.102 331.426 142.438 330.254C141.773 329.082 141.441 327.695 141.441 326.094H147.32C147.32 326.979 147.457 327.728 147.73 328.34C148.004 328.952 148.388 329.447 148.883 329.824C149.391 330.202 149.99 330.475 150.68 330.645C151.383 330.814 152.151 330.898 152.984 330.898C154 330.898 154.833 330.755 155.484 330.469C156.148 330.182 156.637 329.785 156.949 329.277C157.275 328.77 157.438 328.197 157.438 327.559ZM178.023 320.586V325H166.988V320.586H178.023ZM199.547 325.566H205.387C205.27 327.48 204.742 329.18 203.805 330.664C202.88 332.148 201.585 333.307 199.918 334.141C198.264 334.974 196.272 335.391 193.941 335.391C192.118 335.391 190.484 335.078 189.039 334.453C187.594 333.815 186.357 332.904 185.328 331.719C184.312 330.534 183.538 329.102 183.004 327.422C182.47 325.742 182.203 323.861 182.203 321.777V319.805C182.203 317.721 182.477 315.84 183.023 314.16C183.583 312.467 184.378 311.029 185.406 309.844C186.448 308.659 187.691 307.747 189.137 307.109C190.582 306.471 192.197 306.152 193.98 306.152C196.35 306.152 198.349 306.582 199.977 307.441C201.617 308.301 202.887 309.486 203.785 310.996C204.697 312.507 205.243 314.225 205.426 316.152H199.566C199.501 315.007 199.273 314.036 198.883 313.242C198.492 312.435 197.9 311.829 197.105 311.426C196.324 311.009 195.283 310.801 193.98 310.801C193.004 310.801 192.151 310.983 191.422 311.348C190.693 311.712 190.081 312.266 189.586 313.008C189.091 313.75 188.72 314.688 188.473 315.82C188.238 316.94 188.121 318.255 188.121 319.766V321.777C188.121 323.249 188.232 324.544 188.453 325.664C188.674 326.771 189.013 327.708 189.469 328.477C189.938 329.232 190.536 329.805 191.266 330.195C192.008 330.573 192.9 330.762 193.941 330.762C195.165 330.762 196.174 330.566 196.969 330.176C197.763 329.785 198.368 329.206 198.785 328.438C199.215 327.669 199.469 326.712 199.547 325.566ZM225.719 325.566H231.559C231.441 327.48 230.914 329.18 229.977 330.664C229.052 332.148 227.757 333.307 226.09 334.141C224.436 334.974 222.444 335.391 220.113 335.391C218.29 335.391 216.656 335.078 215.211 334.453C213.766 333.815 212.529 332.904 211.5 331.719C210.484 330.534 209.71 329.102 209.176 327.422C208.642 325.742 208.375 323.861 208.375 321.777V319.805C208.375 317.721 208.648 315.84 209.195 314.16C209.755 312.467 210.549 311.029 211.578 309.844C212.62 308.659 213.863 307.747 215.309 307.109C216.754 306.471 218.368 306.152 220.152 306.152C222.522 306.152 224.521 306.582 226.148 307.441C227.789 308.301 229.059 309.486 229.957 310.996C230.868 312.507 231.415 314.225 231.598 316.152H225.738C225.673 315.007 225.445 314.036 225.055 313.242C224.664 312.435 224.072 311.829 223.277 311.426C222.496 311.009 221.454 310.801 220.152 310.801C219.176 310.801 218.323 310.983 217.594 311.348C216.865 311.712 216.253 312.266 215.758 313.008C215.263 313.75 214.892 314.688 214.645 315.82C214.41 316.94 214.293 318.255 214.293 319.766V321.777C214.293 323.249 214.404 324.544 214.625 325.664C214.846 326.771 215.185 327.708 215.641 328.477C216.109 329.232 216.708 329.805 217.438 330.195C218.18 330.573 219.072 330.762 220.113 330.762C221.337 330.762 222.346 330.566 223.141 330.176C223.935 329.785 224.54 329.206 224.957 328.438C225.387 327.669 225.641 326.712 225.719 325.566Z" fill="white"/>
<path d="M63.5293 375.904H58.457V372.705H63.5293C64.3132 372.705 64.9512 372.577 65.4434 372.322C65.9355 372.058 66.2956 371.693 66.5234 371.229C66.7513 370.764 66.8652 370.24 66.8652 369.656C66.8652 369.064 66.7513 368.512 66.5234 368.002C66.2956 367.492 65.9355 367.081 65.4434 366.771C64.9512 366.462 64.3132 366.307 63.5293 366.307H59.8789V383H55.7773V363.094H63.5293C65.0879 363.094 66.4232 363.376 67.5352 363.941C68.6562 364.497 69.513 365.268 70.1055 366.252C70.6979 367.236 70.9941 368.362 70.9941 369.629C70.9941 370.914 70.6979 372.026 70.1055 372.965C69.513 373.904 68.6562 374.628 67.5352 375.139C66.4232 375.649 65.0879 375.904 63.5293 375.904ZM84.8164 363.094H88.9043V376.246C88.9043 377.777 88.5762 379.067 87.9199 380.115C87.2728 381.163 86.375 381.952 85.2266 382.48C84.0872 383.009 82.7747 383.273 81.2891 383.273C79.8034 383.273 78.4818 383.009 77.3242 382.48C76.1758 381.952 75.2734 381.163 74.6172 380.115C73.9701 379.067 73.6465 377.777 73.6465 376.246V363.094H77.748V376.246C77.748 377.139 77.8893 377.868 78.1719 378.434C78.4544 378.999 78.86 379.413 79.3887 379.678C79.9264 379.942 80.5599 380.074 81.2891 380.074C82.0365 380.074 82.6699 379.942 83.1895 379.678C83.7181 379.413 84.1191 378.999 84.3926 378.434C84.6751 377.868 84.8164 377.139 84.8164 376.246V363.094ZM100.033 375.904H94.9609V372.705H100.033C100.817 372.705 101.455 372.577 101.947 372.322C102.439 372.058 102.799 371.693 103.027 371.229C103.255 370.764 103.369 370.24 103.369 369.656C103.369 369.064 103.255 368.512 103.027 368.002C102.799 367.492 102.439 367.081 101.947 366.771C101.455 366.462 100.817 366.307 100.033 366.307H96.3828V383H92.2812V363.094H100.033C101.592 363.094 102.927 363.376 104.039 363.941C105.16 364.497 106.017 365.268 106.609 366.252C107.202 367.236 107.498 368.362 107.498 369.629C107.498 370.914 107.202 372.026 106.609 372.965C106.017 373.904 105.16 374.628 104.039 375.139C102.927 375.649 101.592 375.904 100.033 375.904ZM110.328 363.094H117.752C119.274 363.094 120.582 363.322 121.676 363.777C122.779 364.233 123.626 364.908 124.219 365.801C124.811 366.694 125.107 367.792 125.107 369.096C125.107 370.162 124.925 371.078 124.561 371.844C124.205 372.6 123.699 373.234 123.043 373.744C122.396 374.245 121.635 374.646 120.76 374.947L119.461 375.631H113.008L112.98 372.432H117.779C118.499 372.432 119.096 372.304 119.57 372.049C120.044 371.794 120.4 371.438 120.637 370.982C120.883 370.527 121.006 369.998 121.006 369.396C121.006 368.758 120.887 368.207 120.65 367.742C120.413 367.277 120.053 366.922 119.57 366.676C119.087 366.43 118.481 366.307 117.752 366.307H114.43V383H110.328V363.094ZM121.457 383L116.918 374.127L121.252 374.1L125.846 382.809V383H121.457ZM142.758 372.91V376H135.033V372.91H142.758ZM163.621 377.791C163.621 377.436 163.566 377.117 163.457 376.834C163.357 376.542 163.165 376.278 162.883 376.041C162.6 375.795 162.204 375.553 161.693 375.316C161.183 375.079 160.522 374.833 159.711 374.578C158.809 374.286 157.952 373.958 157.141 373.594C156.339 373.229 155.628 372.805 155.008 372.322C154.397 371.83 153.914 371.26 153.559 370.613C153.212 369.966 153.039 369.214 153.039 368.357C153.039 367.528 153.221 366.776 153.586 366.102C153.951 365.418 154.461 364.835 155.117 364.352C155.773 363.859 156.548 363.481 157.441 363.217C158.344 362.952 159.333 362.82 160.408 362.82C161.876 362.82 163.156 363.085 164.25 363.613C165.344 364.142 166.191 364.867 166.793 365.787C167.404 366.708 167.709 367.76 167.709 368.945H163.635C163.635 368.362 163.512 367.852 163.266 367.414C163.029 366.967 162.664 366.617 162.172 366.361C161.689 366.106 161.078 365.979 160.34 365.979C159.629 365.979 159.036 366.088 158.562 366.307C158.089 366.516 157.733 366.803 157.496 367.168C157.259 367.523 157.141 367.924 157.141 368.371C157.141 368.708 157.223 369.014 157.387 369.287C157.56 369.561 157.815 369.816 158.152 370.053C158.49 370.29 158.904 370.513 159.396 370.723C159.889 370.932 160.458 371.137 161.105 371.338C162.19 371.666 163.143 372.035 163.963 372.445C164.792 372.855 165.485 373.316 166.041 373.826C166.597 374.337 167.016 374.915 167.299 375.562C167.581 376.21 167.723 376.943 167.723 377.764C167.723 378.63 167.554 379.404 167.217 380.088C166.88 380.771 166.392 381.35 165.754 381.824C165.116 382.298 164.355 382.658 163.471 382.904C162.587 383.15 161.598 383.273 160.504 383.273C159.52 383.273 158.549 383.146 157.592 382.891C156.635 382.626 155.764 382.23 154.98 381.701C154.206 381.173 153.586 380.498 153.121 379.678C152.656 378.857 152.424 377.887 152.424 376.766H156.539C156.539 377.385 156.635 377.91 156.826 378.338C157.018 378.766 157.286 379.113 157.633 379.377C157.988 379.641 158.408 379.833 158.891 379.951C159.383 380.07 159.921 380.129 160.504 380.129C161.215 380.129 161.798 380.029 162.254 379.828C162.719 379.628 163.061 379.35 163.279 378.994C163.507 378.639 163.621 378.238 163.621 377.791ZM174.873 363.094V383H170.785V363.094H174.873ZM194.492 372.596V380.484C194.182 380.858 193.704 381.264 193.057 381.701C192.41 382.13 191.576 382.499 190.555 382.809C189.534 383.118 188.299 383.273 186.85 383.273C185.564 383.273 184.393 383.064 183.336 382.645C182.279 382.216 181.367 381.592 180.602 380.771C179.845 379.951 179.262 378.949 178.852 377.764C178.441 376.57 178.236 375.207 178.236 373.676V372.432C178.236 370.9 178.432 369.538 178.824 368.344C179.225 367.15 179.795 366.143 180.533 365.322C181.271 364.502 182.151 363.878 183.172 363.449C184.193 363.021 185.327 362.807 186.576 362.807C188.308 362.807 189.73 363.089 190.842 363.654C191.954 364.21 192.801 364.985 193.385 365.979C193.977 366.963 194.342 368.093 194.479 369.369H190.5C190.4 368.695 190.208 368.107 189.926 367.605C189.643 367.104 189.238 366.712 188.709 366.43C188.189 366.147 187.515 366.006 186.686 366.006C186.002 366.006 185.391 366.147 184.854 366.43C184.325 366.703 183.878 367.109 183.514 367.646C183.149 368.184 182.871 368.85 182.68 369.643C182.488 370.436 182.393 371.356 182.393 372.404V373.676C182.393 374.715 182.493 375.635 182.693 376.438C182.894 377.23 183.19 377.9 183.582 378.447C183.983 378.985 184.475 379.391 185.059 379.664C185.642 379.938 186.321 380.074 187.096 380.074C187.743 380.074 188.281 380.02 188.709 379.91C189.146 379.801 189.497 379.669 189.762 379.514C190.035 379.35 190.245 379.195 190.391 379.049V375.521H186.645V372.596H194.492ZM205.895 366.498L200.48 383H196.119L203.516 363.094H206.291L205.895 366.498ZM210.393 383L204.965 366.498L204.527 363.094H207.33L214.768 383H210.393ZM210.146 375.59V378.803H199.633V375.59H210.146ZM224.365 375.904H219.293V372.705H224.365C225.149 372.705 225.787 372.577 226.279 372.322C226.771 372.058 227.132 371.693 227.359 371.229C227.587 370.764 227.701 370.24 227.701 369.656C227.701 369.064 227.587 368.512 227.359 368.002C227.132 367.492 226.771 367.081 226.279 366.771C225.787 366.462 225.149 366.307 224.365 366.307H220.715V383H216.613V363.094H224.365C225.924 363.094 227.259 363.376 228.371 363.941C229.492 364.497 230.349 365.268 230.941 366.252C231.534 367.236 231.83 368.362 231.83 369.629C231.83 370.914 231.534 372.026 230.941 372.965C230.349 373.904 229.492 374.628 228.371 375.139C227.259 375.649 225.924 375.904 224.365 375.904ZM243.506 363.094H246.979L252.092 377.709L257.205 363.094H260.678L253.486 383H250.697L243.506 363.094ZM241.633 363.094H245.092L245.721 377.34V383H241.633V363.094ZM259.092 363.094H262.564V383H258.463V377.34L259.092 363.094ZM279.518 379.801V383H268.922V379.801H279.518ZM270.262 363.094V383H266.16V363.094H270.262ZM278.137 371.201V374.318H268.922V371.201H278.137ZM279.504 363.094V366.307H268.922V363.094H279.504ZM283.783 363.094H287.256L292.369 377.709L297.482 363.094H300.955L293.764 383H290.975L283.783 363.094ZM281.91 363.094H285.369L285.998 377.34V383H281.91V363.094ZM299.369 363.094H302.842V383H298.74V377.34L299.369 363.094ZM314.23 374.264H309.117L309.09 371.447H313.383C314.139 371.447 314.759 371.352 315.242 371.16C315.725 370.96 316.085 370.673 316.322 370.299C316.568 369.916 316.691 369.451 316.691 368.904C316.691 368.285 316.573 367.783 316.336 367.4C316.108 367.018 315.748 366.74 315.256 366.566C314.773 366.393 314.148 366.307 313.383 366.307H310.539V383H306.438V363.094H313.383C314.54 363.094 315.575 363.203 316.486 363.422C317.407 363.641 318.186 363.973 318.824 364.42C319.462 364.867 319.95 365.432 320.287 366.115C320.624 366.79 320.793 367.592 320.793 368.521C320.793 369.342 320.606 370.098 320.232 370.791C319.868 371.484 319.289 372.049 318.496 372.486C317.712 372.924 316.687 373.165 315.42 373.211L314.23 374.264ZM314.053 383H307.996L309.596 379.801H314.053C314.773 379.801 315.361 379.687 315.816 379.459C316.272 379.222 316.609 378.903 316.828 378.502C317.047 378.101 317.156 377.641 317.156 377.121C317.156 376.538 317.056 376.032 316.855 375.604C316.664 375.175 316.354 374.847 315.926 374.619C315.497 374.382 314.932 374.264 314.23 374.264H310.279L310.307 371.447H315.229L316.172 372.555C317.384 372.536 318.359 372.751 319.098 373.197C319.845 373.635 320.387 374.204 320.725 374.906C321.071 375.608 321.244 376.36 321.244 377.162C321.244 378.438 320.966 379.514 320.41 380.389C319.854 381.255 319.038 381.906 317.963 382.344C316.896 382.781 315.593 383 314.053 383ZM332.414 366.498L327 383H322.639L330.035 363.094H332.811L332.414 366.498ZM336.912 383L331.484 366.498L331.047 363.094H333.85L341.287 383H336.912ZM336.666 375.59V378.803H326.152V375.59H336.666ZM359.334 363.094V383H355.232L347.234 369.656V383H343.133V363.094H347.234L355.246 376.451V363.094H359.334ZM378.68 372.596V380.484C378.37 380.858 377.891 381.264 377.244 381.701C376.597 382.13 375.763 382.499 374.742 382.809C373.721 383.118 372.486 383.273 371.037 383.273C369.752 383.273 368.581 383.064 367.523 382.645C366.466 382.216 365.555 381.592 364.789 380.771C364.033 379.951 363.449 378.949 363.039 377.764C362.629 376.57 362.424 375.207 362.424 373.676V372.432C362.424 370.9 362.62 369.538 363.012 368.344C363.413 367.15 363.982 366.143 364.721 365.322C365.459 364.502 366.339 363.878 367.359 363.449C368.38 363.021 369.515 362.807 370.764 362.807C372.495 362.807 373.917 363.089 375.029 363.654C376.141 364.21 376.989 364.985 377.572 365.979C378.165 366.963 378.529 368.093 378.666 369.369H374.688C374.587 368.695 374.396 368.107 374.113 367.605C373.831 367.104 373.425 366.712 372.896 366.43C372.377 366.147 371.702 366.006 370.873 366.006C370.189 366.006 369.579 366.147 369.041 366.43C368.512 366.703 368.066 367.109 367.701 367.646C367.337 368.184 367.059 368.85 366.867 369.643C366.676 370.436 366.58 371.356 366.58 372.404V373.676C366.58 374.715 366.68 375.635 366.881 376.438C367.081 377.23 367.378 377.9 367.77 378.447C368.171 378.985 368.663 379.391 369.246 379.664C369.829 379.938 370.508 380.074 371.283 380.074C371.93 380.074 372.468 380.02 372.896 379.91C373.334 379.801 373.685 379.669 373.949 379.514C374.223 379.35 374.432 379.195 374.578 379.049V375.521H370.832V372.596H378.68ZM392.98 363.094H397.068V376.246C397.068 377.777 396.74 379.067 396.084 380.115C395.437 381.163 394.539 381.952 393.391 382.48C392.251 383.009 390.939 383.273 389.453 383.273C387.967 383.273 386.646 383.009 385.488 382.48C384.34 381.952 383.438 381.163 382.781 380.115C382.134 379.067 381.811 377.777 381.811 376.246V363.094H385.912V376.246C385.912 377.139 386.053 377.868 386.336 378.434C386.618 378.999 387.024 379.413 387.553 379.678C388.09 379.942 388.724 380.074 389.453 380.074C390.201 380.074 390.834 379.942 391.354 379.678C391.882 379.413 392.283 378.999 392.557 378.434C392.839 377.868 392.98 377.139 392.98 376.246V363.094ZM416.646 363.094V383H412.545L404.547 369.656V383H400.445V363.094H404.547L412.559 376.451V363.094H416.646ZM443.389 363.094V383H439.287L431.289 369.656V383H427.188V363.094H431.289L439.301 376.451V363.094H443.389ZM460.314 379.801V383H449.719V379.801H460.314ZM451.059 363.094V383H446.957V363.094H451.059ZM458.934 371.201V374.318H449.719V371.201H458.934ZM460.301 363.094V366.307H449.719V363.094H460.301ZM478.484 372.596V380.484C478.174 380.858 477.696 381.264 477.049 381.701C476.402 382.13 475.568 382.499 474.547 382.809C473.526 383.118 472.291 383.273 470.842 383.273C469.557 383.273 468.385 383.064 467.328 382.645C466.271 382.216 465.359 381.592 464.594 380.771C463.837 379.951 463.254 378.949 462.844 377.764C462.434 376.57 462.229 375.207 462.229 373.676V372.432C462.229 370.9 462.424 369.538 462.816 368.344C463.217 367.15 463.787 366.143 464.525 365.322C465.264 364.502 466.143 363.878 467.164 363.449C468.185 363.021 469.32 362.807 470.568 362.807C472.3 362.807 473.722 363.089 474.834 363.654C475.946 364.21 476.794 364.985 477.377 365.979C477.969 366.963 478.334 368.093 478.471 369.369H474.492C474.392 368.695 474.201 368.107 473.918 367.605C473.635 367.104 473.23 366.712 472.701 366.43C472.182 366.147 471.507 366.006 470.678 366.006C469.994 366.006 469.383 366.147 468.846 366.43C468.317 366.703 467.87 367.109 467.506 367.646C467.141 368.184 466.863 368.85 466.672 369.643C466.48 370.436 466.385 371.356 466.385 372.404V373.676C466.385 374.715 466.485 375.635 466.686 376.438C466.886 377.23 467.182 377.9 467.574 378.447C467.975 378.985 468.467 379.391 469.051 379.664C469.634 379.938 470.313 380.074 471.088 380.074C471.735 380.074 472.273 380.02 472.701 379.91C473.139 379.801 473.49 379.669 473.754 379.514C474.027 379.35 474.237 379.195 474.383 379.049V375.521H470.637V372.596H478.484ZM495.15 379.801V383H484.555V379.801H495.15ZM485.895 363.094V383H481.793V363.094H485.895ZM493.77 371.201V374.318H484.555V371.201H493.77ZM495.137 363.094V366.307H484.555V363.094H495.137ZM497.543 363.094H504.967C506.489 363.094 507.797 363.322 508.891 363.777C509.993 364.233 510.841 364.908 511.434 365.801C512.026 366.694 512.322 367.792 512.322 369.096C512.322 370.162 512.14 371.078 511.775 371.844C511.42 372.6 510.914 373.234 510.258 373.744C509.611 374.245 508.85 374.646 507.975 374.947L506.676 375.631H500.223L500.195 372.432H504.994C505.714 372.432 506.311 372.304 506.785 372.049C507.259 371.794 507.615 371.438 507.852 370.982C508.098 370.527 508.221 369.998 508.221 369.396C508.221 368.758 508.102 368.207 507.865 367.742C507.628 367.277 507.268 366.922 506.785 366.676C506.302 366.43 505.696 366.307 504.967 366.307H501.645V383H497.543V363.094ZM508.672 383L504.133 374.127L508.467 374.1L513.061 382.809V383H508.672ZM519.842 363.094V383H515.754V363.094H519.842Z" fill="#BAA8EE"/>
<g clip-path="url(#clip0_318_15313)">
<path d="M136 178H54V270H136V178Z" fill="#FAD605"/>
<path fill-rule="evenodd" clip-rule="evenodd" d="M54 178H136V270H54V178ZM56.5545 180.811H133.445V267.189H56.5545V180.811Z" fill="#25185A"/>
<path fill-rule="evenodd" clip-rule="evenodd" d="M59.1934 264.548H63.0251C62.94 263.866 62.94 263.27 62.94 262.589C62.94 252.792 70.7738 244.785 80.481 244.785C90.1882 244.785 98.1072 252.792 98.1072 262.589C98.1072 263.27 98.022 263.866 97.9369 264.548H130.805V237.8H126.633C126.718 238.396 126.718 238.992 126.718 239.589C126.718 247.596 120.502 253.985 112.838 253.985C105.175 253.985 98.9587 247.596 98.9587 239.589L99.0438 183.452H70.1778V188.904C82.6949 188.904 92.913 199.381 92.913 212.329C92.913 225.192 82.6949 235.755 70.1778 235.755H59.1934V264.548Z" fill="#25185A"/>
</g>
<defs>
<linearGradient id="paint0_linear_318_15313" x1="-463.433" y1="-142.73" x2="-249.914" y2="938.332" gradientUnits="userSpaceOnUse">
<stop stop-color="#25185A"/>
<stop offset="1" stop-color="#4F33C0"/>
</linearGradient>
<linearGradient id="paint1_linear_318_15313" x1="-463.433" y1="-142.73" x2="-249.914" y2="938.332" gradientUnits="userSpaceOnUse">
<stop stop-color="#25185A"/>
<stop offset="1" stop-color="#4F33C0"/>
</linearGradient>
<clipPath id="clip0_318_15313">
<rect width="82" height="92" fill="white" transform="translate(54 178)"/>
</clipPath>
</defs>
</svg>
