<svg width="24" height="24" viewBox="0 0 24 24" fill="none" xmlns="http://www.w3.org/2000/svg">
<path d="M3.09969 16.7345C2.95491 16.7346 2.81321 16.6927 2.69169 16.614C2.57017 16.5354 2.47402 16.4232 2.41484 16.2911C1.69881 14.6919 1.39435 12.939 1.52919 11.192C1.66403 9.4451 2.2339 7.75967 3.18686 6.28934C4.13982 4.81902 5.44557 3.61054 6.98513 2.77403C8.52469 1.93752 10.2491 1.49958 12.0012 1.50011C12.2002 1.50011 12.3909 1.57913 12.5316 1.71978C12.6722 1.86044 12.7512 2.0512 12.7512 2.25012V12.0001C12.7513 12.1449 12.7094 12.2867 12.6306 12.4082C12.5518 12.5297 12.4396 12.6259 12.3073 12.685L3.40578 16.667C3.30967 16.7109 3.20534 16.7339 3.09969 16.7345Z" fill="#25185A"/>
<path d="M14.6998 3.19594C14.6454 3.18491 14.5892 3.18609 14.5354 3.19939C14.4815 3.21269 14.4312 3.23777 14.3882 3.27284C14.3452 3.3079 14.3106 3.35207 14.2867 3.40216C14.2628 3.45226 14.2504 3.50702 14.2502 3.56251V12C14.2499 12.4343 14.124 12.8591 13.8878 13.2236C13.6517 13.588 13.3152 13.8764 12.919 14.0541L4.83444 17.6719C4.78433 17.6943 4.73974 17.7273 4.70382 17.7688C4.66789 17.8103 4.64151 17.8592 4.62654 17.912C4.61156 17.9648 4.60836 18.0202 4.61715 18.0744C4.62594 18.1285 4.64651 18.1801 4.67741 18.2255C5.29612 19.1354 6.06412 19.9343 6.94897 20.5884C8.62545 21.8356 10.6608 22.5062 12.7502 22.5C18.1263 22.5 22.5002 18.1261 22.5002 12.75C22.5002 8.04141 19.1449 4.10157 14.6998 3.19594Z" fill="#D7B403"/>
</svg>
