<svg width="24" height="24" viewBox="0 0 24 24" fill="none" xmlns="http://www.w3.org/2000/svg">
<path d="M3.09969 16.7344C2.95491 16.7344 2.81321 16.6926 2.69169 16.6139C2.57017 16.5352 2.47402 16.4231 2.41484 16.2909C1.69881 14.6918 1.39435 12.9389 1.52919 11.1919C1.66403 9.44499 2.2339 7.75956 3.18686 6.28923C4.13982 4.8189 5.44557 3.61042 6.98513 2.77392C8.52469 1.93741 10.2491 1.49947 12.0012 1.5C12.2002 1.5 12.3909 1.57902 12.5316 1.71967C12.6722 1.86032 12.7512 2.05109 12.7512 2.25V12C12.7513 12.1448 12.7094 12.2866 12.6306 12.4081C12.5518 12.5296 12.4396 12.6257 12.3073 12.6848L3.40578 16.6669C3.30967 16.7108 3.20534 16.7338 3.09969 16.7344V16.7344Z" fill="white"/>
<path d="M14.6988 3.19596C14.6444 3.18493 14.5883 3.18611 14.5344 3.1994C14.4805 3.2127 14.4303 3.23779 14.3873 3.27285C14.3443 3.30792 14.3096 3.35209 14.2857 3.40218C14.2618 3.45227 14.2494 3.50703 14.2492 3.56252V12C14.2489 12.4343 14.123 12.8592 13.8869 13.2236C13.6507 13.588 13.3142 13.8764 12.918 14.0541L4.83346 17.6719C4.78335 17.6943 4.73876 17.7274 4.70284 17.7688C4.66692 17.8103 4.64054 17.8592 4.62556 17.912C4.61059 17.9648 4.60738 18.0202 4.61617 18.0744C4.62496 18.1286 4.64553 18.1801 4.67643 18.2255C5.29515 19.1355 6.06314 19.9343 6.948 20.5885C8.62448 21.8356 10.6598 22.5062 12.7492 22.5C18.1253 22.5 22.4993 18.1261 22.4993 12.75C22.4993 8.04143 19.1439 4.10158 14.6988 3.19596Z" fill="#FAD605"/>
</svg>
