<svg width="24" height="24" viewBox="0 0 24 24" fill="none" xmlns="http://www.w3.org/2000/svg">
<path d="M20.0635 10.5004H13.501C12.9042 10.5004 12.3319 10.2634 11.91 9.8414C11.488 9.41945 11.251 8.84715 11.251 8.25041V1.68791C11.251 1.63818 11.2312 1.59049 11.1961 1.55533C11.1609 1.52017 11.1132 1.50041 11.0635 1.50041H6.75098C5.95533 1.50041 5.19227 1.81648 4.62966 2.37909C4.06705 2.9417 3.75098 3.70476 3.75098 4.50041V19.5004C3.75098 20.2961 4.06705 21.0591 4.62966 21.6217C5.19227 22.1843 5.95533 22.5004 6.75098 22.5004H17.251C18.0466 22.5004 18.8097 22.1843 19.3723 21.6217C19.9349 21.0591 20.251 20.2961 20.251 19.5004V10.6879C20.251 10.6382 20.2312 10.5905 20.1961 10.5553C20.1609 10.5202 20.1132 10.5004 20.0635 10.5004Z" fill="#25185A"/>
<path d="M19.6509 8.84073L12.9089 2.09868C12.8958 2.08564 12.8791 2.07678 12.861 2.07319C12.8428 2.06961 12.824 2.07146 12.807 2.07853C12.7899 2.08559 12.7753 2.09755 12.765 2.11289C12.7546 2.12824 12.7491 2.14629 12.749 2.16478V8.25049C12.749 8.44943 12.8281 8.64023 12.9687 8.7809C13.1094 8.92157 13.3002 9.0006 13.4991 9.0006H19.5848C19.6033 9.00052 19.6214 8.99498 19.6367 8.98467C19.6521 8.97437 19.664 8.95975 19.6711 8.94267C19.6782 8.92558 19.68 8.90679 19.6764 8.88865C19.6728 8.87052 19.664 8.85385 19.6509 8.84073Z" fill="#D7B403"/>
</svg>
