<svg width="28" height="29" viewBox="0 0 28 29" fill="none" xmlns="http://www.w3.org/2000/svg">
<path d="M21.875 17.8752C21.875 22.7079 18.8327 25.7502 14 25.7502C9.16727 25.7502 6.125 22.7079 6.125 17.8752C6.125 12.6892 11.7704 5.68809 13.5018 3.66301C13.5634 3.59106 13.6399 3.5333 13.7259 3.4937C13.812 3.4541 13.9056 3.43359 14.0003 3.43359C14.095 3.43359 14.1886 3.4541 14.2746 3.4937C14.3607 3.5333 14.4371 3.59106 14.4987 3.66301C16.2296 5.68809 21.875 12.6892 21.875 17.8752Z" fill="#2BC409"/>
<path d="M18.8154 18.3115C18.8154 19.3566 18.4002 20.3588 17.6613 21.0978C16.9223 21.8368 15.9201 22.2519 14.875 22.2519" stroke="#2BC409" stroke-width="1.00189" stroke-linecap="round" stroke-linejoin="round"/>
</svg>
