<svg width="28" height="29" viewBox="0 0 28 29" fill="none" xmlns="http://www.w3.org/2000/svg">
<path d="M7 18.125C7.00253 18.523 7.02971 18.9204 7.08138 19.315C6.01442 18.8274 5.1098 18.0439 4.47496 17.0575C3.84013 16.071 3.50174 14.9231 3.5 13.75C3.5 10.6429 8.379 4.3 8.93463 3.58688C9.01649 3.48191 9.12123 3.397 9.24087 3.33863C9.3605 3.28025 9.49188 3.24994 9.625 3.25C9.75834 3.24991 9.88994 3.28029 10.0097 3.33883C10.1295 3.39736 10.2344 3.48251 10.3162 3.58775C11.1924 4.72931 12.0251 5.90352 12.8126 7.10788C10.3854 10.012 7 14.6792 7 18.125ZM17.2646 6.15325C17.1807 6.06907 17.081 6.00227 16.9713 5.9567C16.8615 5.91112 16.7438 5.88766 16.625 5.88766C16.5062 5.88766 16.3885 5.91112 16.2787 5.9567C16.169 6.00227 16.0693 6.06907 15.9854 6.15325C15.2442 6.94775 8.75 14.0326 8.75 18.125C8.75 20.2136 9.57969 22.2166 11.0565 23.6935C12.5334 25.1703 14.5364 26 16.625 26C18.7136 26 20.7166 25.1703 22.1935 23.6935C23.6703 22.2166 24.5 20.2136 24.5 18.125C24.5 14.0326 18.0058 6.94775 17.2646 6.15325Z" fill="#FF2F78"/>
</svg>
