<svg width="28" height="29" viewBox="0 0 28 29" fill="none" xmlns="http://www.w3.org/2000/svg">
<g clip-path="url(#clip0_267_16129)">
<path d="M13.8344 13.6051C13.119 19.3661 9.46501 20.3909 9.46501 24.3963C9.46501 26.8687 11.5412 28.8749 13.9996 28.8749C16.458 28.8749 18.5328 26.8673 18.5328 24.3963C18.5328 20.3909 14.8788 19.3661 14.1634 13.6051C14.141 13.4329 13.8568 13.4329 13.8344 13.6051ZM5.43581 1.00513C4.72041 6.76613 1.06641 7.78953 1.06641 11.7963C1.06641 14.2673 3.14121 16.2749 5.59961 16.2749C8.05801 16.2749 10.1328 14.2673 10.1328 11.7963C10.1328 7.79093 6.47881 6.76613 5.76341 1.00513C5.74241 0.832927 5.45681 0.832927 5.43581 1.00513ZM22.2358 1.00513C21.5204 6.76613 17.8664 7.79093 17.8664 11.7963C17.8664 14.2673 19.9412 16.2749 22.3996 16.2749C24.858 16.2749 26.9328 14.2673 26.9328 11.7963C26.9328 7.79093 23.2788 6.76613 22.5634 1.00513C22.541 0.832927 22.2568 0.832927 22.2358 1.00513Z" fill="#8361FF"/>
</g>
<defs>
<clipPath id="clip0_267_16129">
<rect width="28" height="28" fill="white" transform="translate(0 0.875)"/>
</clipPath>
</defs>
</svg>
