<svg width="17" height="17" viewBox="0 0 17 17" fill="none" xmlns="http://www.w3.org/2000/svg">
<path d="M9.2624 2.5508H6.76002C6.72705 2.55042 6.69434 2.55664 6.66381 2.56908C6.63328 2.58152 6.60555 2.59994 6.58223 2.62325C6.55892 2.64656 6.5405 2.6743 6.52806 2.70483C6.51562 2.73536 6.5094 2.76807 6.50978 2.80104V3.55175H9.51264V2.80104C9.51302 2.76807 9.50681 2.73536 9.49436 2.70483C9.48192 2.6743 9.4635 2.64656 9.44019 2.62325C9.41688 2.59994 9.38914 2.58152 9.35861 2.56908C9.32808 2.55664 9.29537 2.55042 9.2624 2.5508Z" fill="white"/>
<path d="M13.5103 3.55317H10.5097V2.80301C10.5097 2.47141 10.3779 2.1534 10.1435 1.91893C9.909 1.68446 9.59098 1.55273 9.25939 1.55273H6.75885C6.42725 1.55273 6.10924 1.68446 5.87477 1.91893C5.6403 2.1534 5.50857 2.47141 5.50857 2.80301V3.55317H2.50792C2.37528 3.55317 2.24808 3.60586 2.15429 3.69965C2.0605 3.79344 2.00781 3.92064 2.00781 4.05328C2.00781 4.18592 2.0605 4.31312 2.15429 4.40691C2.24808 4.5007 2.37528 4.55339 2.50792 4.55339H3.03929L3.63317 14.0842C3.67755 14.9235 4.32082 15.5558 5.13349 15.5558H10.8847C11.7015 15.5558 12.3319 14.9375 12.3851 14.0867L12.979 4.55339H13.5103C13.643 4.55339 13.7702 4.5007 13.8639 4.40691C13.9577 4.31312 14.0104 4.18592 14.0104 4.05328C14.0104 3.92064 13.9577 3.79344 13.8639 3.69965C13.7702 3.60586 13.643 3.55317 13.5103 3.55317ZM6.0265 13.5553H6.00868C5.87908 13.5554 5.7545 13.5052 5.66121 13.4152C5.56791 13.3253 5.51319 13.2026 5.50857 13.0731L5.25852 6.07153C5.2538 5.93889 5.30195 5.80981 5.3924 5.71268C5.48285 5.61555 5.60818 5.55833 5.74081 5.55361C5.87345 5.54888 6.00253 5.59704 6.09966 5.68749C6.19679 5.77793 6.25401 5.90326 6.25874 6.0359L6.50879 13.0374C6.51117 13.1031 6.50058 13.1686 6.47763 13.2302C6.45467 13.2918 6.4198 13.3483 6.37501 13.3964C6.33022 13.4445 6.27638 13.4833 6.21658 13.5105C6.15678 13.5378 6.09219 13.553 6.0265 13.5553ZM8.50923 13.0552C8.50923 13.1879 8.45654 13.3151 8.36275 13.4089C8.26896 13.5027 8.14176 13.5553 8.00912 13.5553C7.87648 13.5553 7.74928 13.5027 7.65549 13.4089C7.5617 13.3151 7.50901 13.1879 7.50901 13.0552V6.05371C7.50901 5.92108 7.5617 5.79387 7.65549 5.70008C7.74928 5.6063 7.87648 5.55361 8.00912 5.55361C8.14176 5.55361 8.26896 5.6063 8.36275 5.70008C8.45654 5.79387 8.50923 5.92108 8.50923 6.05371V13.0552ZM9.50945 3.55317H6.50879V2.80301C6.50842 2.77006 6.51463 2.73738 6.52706 2.70687C6.53949 2.67636 6.5579 2.64865 6.58119 2.62535C6.60449 2.60206 6.6322 2.58365 6.66271 2.57122C6.69322 2.55879 6.7259 2.55258 6.75885 2.55295H9.25939C9.29233 2.55258 9.32502 2.55879 9.35553 2.57122C9.38604 2.58365 9.41375 2.60206 9.43705 2.62535C9.46034 2.64865 9.47875 2.67636 9.49118 2.70687C9.50361 2.73738 9.50982 2.77006 9.50945 2.80301V3.55317ZM10.5097 13.0731C10.505 13.2026 10.4503 13.3253 10.357 13.4152C10.2637 13.5052 10.1392 13.5554 10.0096 13.5553H9.99143C9.92576 13.553 9.86121 13.5378 9.80144 13.5105C9.74168 13.4832 9.68788 13.4444 9.64312 13.3963C9.59836 13.3482 9.56352 13.2917 9.54058 13.2301C9.51764 13.1686 9.50706 13.1031 9.50945 13.0374L9.7595 6.0359C9.76184 5.97022 9.77709 5.90565 9.80439 5.84587C9.83168 5.78609 9.87048 5.73227 9.91858 5.68749C9.96667 5.6427 10.0231 5.60783 10.0847 5.58486C10.1463 5.56188 10.2118 5.55127 10.2774 5.55361C10.3431 5.55594 10.4077 5.5712 10.4675 5.59849C10.5272 5.62579 10.5811 5.66459 10.6258 5.71268C10.6706 5.76078 10.7055 5.81722 10.7285 5.87879C10.7514 5.94036 10.7621 6.00586 10.7597 6.07153L10.5097 13.0731Z" fill="white"/>
</svg>
