<svg width="21" height="21" viewBox="0 0 21 21" fill="none" xmlns="http://www.w3.org/2000/svg">
<path d="M17.3848 9.25H11.916C11.4187 9.25 10.9418 9.05246 10.5902 8.70083C10.2386 8.34919 10.041 7.87228 10.041 7.375V1.90625C10.041 1.86481 10.0246 1.82507 9.99525 1.79576C9.96595 1.76646 9.92621 1.75 9.88477 1.75H6.29102C5.62798 1.75 4.99209 2.01339 4.52325 2.48223C4.05441 2.95107 3.79102 3.58696 3.79102 4.25V16.75C3.79102 17.413 4.05441 18.0489 4.52325 18.5178C4.99209 18.9866 5.62798 19.25 6.29102 19.25H15.041C15.7041 19.25 16.3399 18.9866 16.8088 18.5178C17.2776 18.0489 17.541 17.413 17.541 16.75V9.40625C17.541 9.36481 17.5246 9.32507 17.4953 9.29576C17.466 9.26646 17.4262 9.25 17.3848 9.25Z" fill="#25185A"/>
<path d="M17.0426 7.86766L11.4242 2.24928C11.4133 2.23842 11.3994 2.23103 11.3843 2.22805C11.3692 2.22506 11.3535 2.2266 11.3393 2.23249C11.3251 2.23838 11.3129 2.24834 11.3043 2.26113C11.2957 2.27392 11.2911 2.28896 11.291 2.30437V7.3758C11.291 7.54158 11.3569 7.70058 11.4741 7.8178C11.5913 7.93503 11.7503 8.00089 11.9161 8.00089H16.9875C17.0029 8.00082 17.018 7.9962 17.0308 7.98761C17.0436 7.97902 17.0535 7.96685 17.0594 7.95261C17.0653 7.93837 17.0668 7.92271 17.0639 7.9076C17.0609 7.89248 17.0535 7.87859 17.0426 7.86766Z" fill="black"/>
</svg>
