<svg width="28" height="28" viewBox="0 0 28 28" fill="none" xmlns="http://www.w3.org/2000/svg">
<path d="M14 25.375C20.282 25.375 25.375 20.282 25.375 14C25.375 7.71805 20.282 2.625 14 2.625C7.71805 2.625 2.625 7.71805 2.625 14C2.625 20.282 7.71805 25.375 14 25.375ZM9.00375 13.7457C9.08468 13.6641 9.18089 13.5993 9.28689 13.5548C9.39289 13.5104 9.5066 13.4873 9.62152 13.4869C9.73644 13.4864 9.85033 13.5086 9.95668 13.5522C10.063 13.5957 10.1598 13.6598 10.2413 13.7408L13.125 16.602V9.29688C13.125 9.06481 13.2172 8.84225 13.3813 8.67816C13.5454 8.51406 13.7679 8.42188 14 8.42188C14.2321 8.42188 14.4546 8.51406 14.6187 8.67816C14.7828 8.84225 14.875 9.06481 14.875 9.29688V16.602L17.7587 13.7408C17.9236 13.5773 18.1467 13.4861 18.3789 13.4871C18.6111 13.4881 18.8333 13.5813 18.9968 13.7463C19.1603 13.9112 19.2515 14.1343 19.2505 14.3664C19.2495 14.5986 19.1562 14.8209 18.9913 14.9844L14.6163 19.326C14.4524 19.4887 14.2309 19.5799 14 19.5799C13.7691 19.5799 13.5476 19.4887 13.3837 19.326L9.00867 14.9844C8.92691 14.9034 8.86192 14.8071 8.81741 14.7011C8.77291 14.595 8.74977 14.4811 8.74931 14.3661C8.74885 14.251 8.77109 14.137 8.81475 14.0305C8.85841 13.9241 8.92264 13.8273 9.00375 13.7457Z" fill="#DB3E52"/>
</svg>
