<svg width="28" height="29" viewBox="0 0 28 29" fill="none" xmlns="http://www.w3.org/2000/svg">
<path d="M14 25.875C20.282 25.875 25.375 20.782 25.375 14.5C25.375 8.21805 20.282 3.125 14 3.125C7.71805 3.125 2.625 8.21805 2.625 14.5C2.625 20.782 7.71805 25.875 14 25.875ZM9.00375 14.2457C9.08468 14.1641 9.18089 14.0993 9.28689 14.0548C9.39289 14.0104 9.5066 13.9873 9.62152 13.9869C9.73644 13.9864 9.85033 14.0086 9.95668 14.0522C10.063 14.0957 10.1598 14.1598 10.2413 14.2408L13.125 17.102V9.79688C13.125 9.56481 13.2172 9.34225 13.3813 9.17816C13.5454 9.01406 13.7679 8.92188 14 8.92188C14.2321 8.92188 14.4546 9.01406 14.6187 9.17816C14.7828 9.34225 14.875 9.56481 14.875 9.79688V17.102L17.7587 14.2408C17.9236 14.0773 18.1467 13.9861 18.3789 13.9871C18.6111 13.9881 18.8333 14.0813 18.9968 14.2463C19.1603 14.4112 19.2515 14.6343 19.2505 14.8664C19.2495 15.0986 19.1562 15.3209 18.9913 15.4844L14.6163 19.826C14.4524 19.9887 14.2309 20.0799 14 20.0799C13.7691 20.0799 13.5476 19.9887 13.3837 19.826L9.00867 15.4844C8.92691 15.4034 8.86192 15.3071 8.81741 15.2011C8.77291 15.095 8.74977 14.9811 8.74931 14.8661C8.74885 14.751 8.77109 14.637 8.81475 14.5305C8.85841 14.4241 8.92264 14.3273 9.00375 14.2457Z" fill="#DB3E52"/>
</svg>
