<svg width="32" height="33" viewBox="0 0 32 33" fill="none" xmlns="http://www.w3.org/2000/svg">
<path d="M16 29.5C23.1794 29.5 29 23.6794 29 16.5C29 9.32063 23.1794 3.5 16 3.5C8.82063 3.5 3 9.32063 3 16.5C3 23.6794 8.82063 29.5 16 29.5ZM10.29 16.2094C10.3825 16.1161 10.4924 16.042 10.6136 15.9913C10.7347 15.9405 10.8647 15.9141 10.996 15.9136C11.1274 15.9131 11.2575 15.9384 11.3791 15.9882C11.5006 16.038 11.6111 16.1112 11.7044 16.2038L15 19.4738V11.125C15 10.8598 15.1054 10.6054 15.2929 10.4179C15.4804 10.2304 15.7348 10.125 16 10.125C16.2652 10.125 16.5196 10.2304 16.7071 10.4179C16.8946 10.6054 17 10.8598 17 11.125V19.4738L20.2956 16.2038C20.4841 16.0169 20.7391 15.9127 21.0044 15.9138C21.2698 15.915 21.5238 16.0215 21.7106 16.21C21.8974 16.3985 22.0017 16.6534 22.0006 16.9188C21.9994 17.1842 21.8928 17.4382 21.7044 17.625L16.7044 22.5869C16.5171 22.7728 16.2639 22.8771 16 22.8771C15.7361 22.8771 15.4829 22.7728 15.2956 22.5869L10.2956 17.625C10.2022 17.5325 10.1279 17.4225 10.077 17.3012C10.0262 17.1799 9.99973 17.0498 9.99921 16.9184C9.99869 16.7869 10.0241 16.6566 10.074 16.5349C10.1239 16.4133 10.1973 16.3026 10.29 16.2094Z" fill="#5EDB57"/>
</svg>
