<svg width="16" height="17" viewBox="0 0 16 17" fill="none" xmlns="http://www.w3.org/2000/svg">
<path d="M14.3866 2.2147C14.3407 2.16428 14.2851 2.12368 14.2231 2.09536C14.161 2.06704 14.0939 2.0516 14.0258 2.04995C13.9576 2.04831 13.8898 2.0605 13.8265 2.08579C13.7632 2.11109 13.7056 2.14896 13.6574 2.19711L13.2688 2.58374C13.2218 2.63086 13.1953 2.69474 13.1953 2.76135C13.1953 2.82796 13.2218 2.89184 13.2688 2.93896L13.625 3.29449C13.6484 3.31795 13.6761 3.33656 13.7067 3.34926C13.7372 3.36196 13.77 3.3685 13.8031 3.3685C13.8362 3.3685 13.8689 3.36196 13.8995 3.34926C13.9301 3.33656 13.9578 3.31795 13.9812 3.29449L14.3599 2.9176C14.5515 2.72633 14.5694 2.41477 14.3866 2.2147Z" fill="white"/>
<path d="M12.4855 3.3624L6.84219 8.99568C6.80798 9.02976 6.78311 9.07207 6.76998 9.11854L6.50895 9.896C6.50269 9.9171 6.50225 9.93949 6.50766 9.96082C6.51308 9.98215 6.52415 10.0016 6.53971 10.0172C6.55527 10.0327 6.57474 10.0438 6.59606 10.0492C6.61739 10.0546 6.63978 10.0542 6.66088 10.0479L7.43772 9.7869C7.48419 9.77377 7.5265 9.7489 7.56058 9.71469L13.1939 4.07078C13.246 4.01811 13.2752 3.947 13.2752 3.8729C13.2752 3.7988 13.246 3.72769 13.1939 3.67501L12.8828 3.3624C12.8301 3.30981 12.7586 3.28027 12.6841 3.28027C12.6097 3.28027 12.5382 3.30981 12.4855 3.3624Z" fill="white"/>
<path d="M12.0793 6.60321L8.26944 10.4206C8.12219 10.5682 7.94121 10.6778 7.74214 10.7397L6.93259 11.0107C6.74046 11.065 6.53734 11.067 6.34416 11.0167C6.15098 10.9663 5.97473 10.8653 5.83356 10.7241C5.69239 10.583 5.59142 10.4067 5.54105 10.2135C5.49067 10.0204 5.49272 9.81725 5.54697 9.62512L5.81797 8.81557C5.87978 8.61656 5.98909 8.43559 6.13648 8.28827L9.95387 4.47775C9.98886 4.4428 10.0127 4.39825 10.0224 4.34975C10.0321 4.30125 10.0271 4.25096 10.0082 4.20526C9.98932 4.15956 9.95729 4.12049 9.91618 4.09299C9.87507 4.06549 9.82673 4.0508 9.77727 4.05078H3.25429C2.79006 4.05078 2.34484 4.2352 2.01658 4.56346C1.68832 4.89172 1.50391 5.33693 1.50391 5.80116V13.3028C1.50391 13.767 1.68832 14.2122 2.01658 14.5405C2.34484 14.8688 2.79006 15.0532 3.25429 15.0532H10.7559C11.2202 15.0532 11.6654 14.8688 11.9936 14.5405C12.3219 14.2122 12.5063 13.767 12.5063 13.3028V6.77981C12.5063 6.73036 12.4916 6.68201 12.4641 6.64091C12.4366 6.5998 12.3975 6.56776 12.3518 6.54886C12.3061 6.52996 12.2558 6.52503 12.2073 6.53471C12.1588 6.54438 12.1143 6.56822 12.0793 6.60321Z" fill="white"/>
</svg>
