<svg width="16" height="17" viewBox="0 0 16 17" fill="none" xmlns="http://www.w3.org/2000/svg">
<path d="M8.00267 10.5542C9.10764 10.5542 10.0034 9.65842 10.0034 8.55345C10.0034 7.44849 9.10764 6.55273 8.00267 6.55273C6.89771 6.55273 6.00195 7.44849 6.00195 8.55345C6.00195 9.65842 6.89771 10.5542 8.00267 10.5542Z" fill="white"/>
<path d="M15.3426 8.008C14.5156 6.72897 13.4425 5.64249 12.2397 4.86576C10.9091 4.00557 9.44007 3.55078 7.99163 3.55078C6.66259 3.55078 5.35574 3.93055 4.10735 4.67946C2.83426 5.44307 1.68088 6.55862 0.6791 7.99487C0.566008 8.15719 0.503724 8.34947 0.500162 8.54727C0.4966 8.74506 0.551921 8.93946 0.659095 9.10574C1.48459 10.3976 2.54701 11.4856 3.73101 12.2517C5.06412 13.1154 6.4988 13.553 7.99163 13.553C9.45164 13.553 10.9238 13.1019 12.2488 12.2489C13.4509 11.4747 14.5218 10.3841 15.3457 9.09449C15.4492 8.93207 15.5039 8.74337 15.5034 8.55079C15.5028 8.3582 15.447 8.16982 15.3426 8.008ZM8.00226 11.5525C7.40878 11.5525 6.82864 11.3765 6.33518 11.0468C5.84173 10.7171 5.45713 10.2485 5.23001 9.70017C5.0029 9.15187 4.94348 8.54854 5.05926 7.96647C5.17504 7.3844 5.46083 6.84974 5.88047 6.43009C6.30012 6.01044 6.83479 5.72465 7.41686 5.60887C7.99893 5.49309 8.60226 5.55252 9.15056 5.77963C9.69886 6.00674 10.1675 6.39134 10.4972 6.8848C10.8269 7.37825 11.0029 7.9584 11.0029 8.55187C11.002 9.34741 10.6856 10.1101 10.123 10.6726C9.5605 11.2352 8.7978 11.5516 8.00226 11.5525Z" fill="white"/>
</svg>
