<svg width="32" height="32" viewBox="0 0 32 32" fill="none" xmlns="http://www.w3.org/2000/svg">
<path d="M17 20.0281V12.6431L27.4138 7.91001C27.5887 7.83062 27.7371 7.70252 27.8411 7.54103C27.9452 7.37954 28.0005 7.19149 28.0005 6.99938C28.0005 6.80727 27.9452 6.61922 27.8411 6.45773C27.7371 6.29624 27.5887 6.16814 27.4138 6.08876L16.4137 1.08876C16.2614 1.01952 16.0941 0.98962 15.9272 1.0018C15.7603 1.01397 15.5992 1.06784 15.4585 1.15845C15.3178 1.24907 15.2021 1.37353 15.122 1.52045C15.0419 1.66737 15 1.83204 15 1.99938V11.9781C15 11.9925 15 12.0075 15 12.0219V20.0281C15.3333 20.0094 15.6667 19.9998 16 19.9994C16.3333 19.999 16.6667 20.0086 17 20.0281Z" fill="#FF565C"/>
<path d="M28.9586 28.5941C28.4236 25.916 26.7642 23.6729 24.1598 22.1066C22.1286 20.8847 19.618 20.1504 17.0005 20.0004V24.9847C17.0005 25.25 16.8951 25.5043 16.7076 25.6918C16.52 25.8794 16.2657 25.9847 16.0005 25.9847C15.7352 25.9847 15.4809 25.8794 15.2933 25.6918C15.1058 25.5043 15.0005 25.25 15.0005 24.9847V20.0004C12.383 20.1504 9.87232 20.8847 7.84107 22.1066C5.2367 23.6729 3.57732 25.916 3.04232 28.5941C2.97984 28.8884 2.98353 29.1929 3.05314 29.4857C3.12275 29.7784 3.25654 30.0519 3.44482 30.2866C3.82107 30.7504 4.37545 31.0004 5.00045 31.0004H27.0005C27.6255 31.0004 28.1805 30.7472 28.5567 30.2866C28.7449 30.0519 28.8786 29.7783 28.9481 29.4856C29.0176 29.1929 29.0212 28.8884 28.9586 28.5941Z" fill="#FF565C"/>
</svg>
