<svg width="20" height="20" viewBox="0 0 20 20" fill="none" xmlns="http://www.w3.org/2000/svg">
<path d="M14.375 7.49976H7.5V4.37476C7.5 3.71171 7.76339 3.07583 8.23223 2.60699C8.70108 2.13815 9.33696 1.87476 10 1.87476C10.663 1.87476 11.2989 2.13815 11.7678 2.60699C12.2366 3.07583 12.5 3.71171 12.5 4.37476C12.5 4.54052 12.5659 4.69949 12.6831 4.8167C12.8003 4.93391 12.9592 4.99976 13.125 4.99976C13.2908 4.99976 13.4497 4.93391 13.5669 4.8167C13.6842 4.69949 13.75 4.54052 13.75 4.37476C13.75 3.38019 13.3549 2.42637 12.6517 1.72311C11.9484 1.01984 10.9946 0.624756 10 0.624756C9.00544 0.624756 8.05161 1.01984 7.34835 1.72311C6.64509 2.42637 6.25 3.38019 6.25 4.37476V7.49976H5.625C4.96218 7.50048 4.32672 7.7641 3.85803 8.23279C3.38935 8.70147 3.12572 9.33694 3.125 9.99976V16.8748C3.12572 17.5376 3.38935 18.173 3.85803 18.6417C4.32672 19.1104 4.96218 19.374 5.625 19.3748H14.375C15.0378 19.374 15.6733 19.1104 16.142 18.6417C16.6107 18.173 16.8743 17.5376 16.875 16.8748V9.99976C16.8743 9.33694 16.6107 8.70147 16.142 8.23279C15.6733 7.7641 15.0378 7.50048 14.375 7.49976V7.49976Z" fill="white"/>
</svg>
