<svg width="48" height="48" viewBox="0 0 48 48" fill="none" xmlns="http://www.w3.org/2000/svg">
<path fill-rule="evenodd" clip-rule="evenodd" d="M23.993 4.49368C22.2208 4.49003 20.4654 4.83651 18.8276 5.51322C17.1897 6.18993 15.7017 7.18353 14.449 8.43698C14.3062 8.57576 14.1924 8.74159 14.1144 8.92479C14.0363 9.108 13.9955 9.30491 13.9944 9.50404C13.9932 9.70317 14.0318 9.90054 14.1077 10.0846C14.1836 10.2687 14.2955 10.4358 14.4367 10.5763C14.5779 10.7167 14.7456 10.8276 14.9302 10.9025C15.1147 10.9773 15.3123 11.0148 15.5114 11.0125C15.7105 11.0102 15.9072 10.9683 16.0899 10.8892C16.2727 10.8101 16.4379 10.6955 16.5759 10.5519C17.5492 9.57437 18.706 8.79874 19.9798 8.26949C21.2537 7.74024 22.6195 7.46779 23.999 7.46779C25.3784 7.46779 26.7443 7.74024 28.0181 8.26949C29.292 8.79874 30.4488 9.57437 31.4221 10.5519C31.5601 10.6955 31.7252 10.8101 31.908 10.8892C32.0908 10.9683 32.2874 11.0102 32.4866 11.0125C32.6857 11.0148 32.8833 10.9773 33.0678 10.9025C33.2523 10.8276 33.4201 10.7167 33.5613 10.5763C33.7025 10.4358 33.8143 10.2687 33.8902 10.0846C33.9662 9.90054 34.0047 9.70317 34.0036 9.50404C34.0024 9.30491 33.9616 9.108 33.8836 8.92479C33.8055 8.74159 33.6918 8.57576 33.549 8.43698C32.2941 7.18348 30.8042 6.18993 29.1647 5.51327C27.5251 4.8366 25.7667 4.49012 23.993 4.49368ZM23.993 10.4844C23.0102 10.4828 22.0369 10.6757 21.129 11.0517C20.2211 11.4278 19.3965 11.9798 18.7027 12.6758C18.5591 12.8137 18.4445 12.9789 18.3654 13.1617C18.2863 13.3444 18.2444 13.5411 18.2421 13.7402C18.2399 13.9394 18.2773 14.1369 18.3522 14.3215C18.4271 14.506 18.5379 14.6737 18.6784 14.8149C18.8188 14.9561 18.9859 15.068 19.17 15.1439C19.3541 15.2199 19.5514 15.2584 19.7506 15.2572C19.9497 15.2561 20.1466 15.2153 20.3298 15.1373C20.513 15.0592 20.6789 14.9455 20.8176 14.8026C21.2342 14.3822 21.73 14.0484 22.2763 13.8206C22.8226 13.5928 23.4086 13.4755 24.0005 13.4755C24.5924 13.4755 25.1784 13.5928 25.7247 13.8206C26.271 14.0484 26.7667 14.3822 27.1833 14.8026C27.3221 14.9455 27.4879 15.0592 27.6711 15.1373C27.8543 15.2153 28.0512 15.2561 28.2504 15.2572C28.4495 15.2584 28.6469 15.2199 28.831 15.1439C29.015 15.068 29.1822 14.9561 29.3226 14.8149C29.463 14.6737 29.5739 14.506 29.6488 14.3215C29.7237 14.1369 29.7611 13.9394 29.7588 13.7402C29.7565 13.5411 29.7146 13.3444 29.6356 13.1617C29.5565 12.9789 29.4418 12.8137 29.2982 12.6758C28.6014 11.9797 27.7742 11.428 26.8638 11.0522C25.9534 10.6764 24.9778 10.484 23.993 10.4859V10.4844ZM3.00006 13.4962C2.60226 13.4962 2.22075 13.6542 1.93946 13.9355C1.65817 14.2168 1.50014 14.5983 1.50014 14.9961C1.50014 15.3939 1.65817 15.7754 1.93946 16.0567C2.22075 16.338 2.60226 16.4961 3.00006 16.4961H4.49398V19.7809C2.76007 20.4109 1.49414 22.0683 1.49414 24.0047V29.9924C1.502 31.1857 1.97956 32.328 2.82342 33.1718C3.66727 34.0157 4.80953 34.4933 6.00291 34.5011C8.47028 34.5011 10.4967 32.4597 10.4967 29.9924V28.4984H13.4965V29.9924C13.4965 32.0592 14.9364 33.8097 16.8533 34.3271C15.7959 35.3057 14.952 36.4922 14.3744 37.8121C13.7967 39.132 13.4979 40.557 13.4965 41.9977C13.4965 42.3955 13.6545 42.777 13.9358 43.0583C14.2171 43.3396 14.5986 43.4977 14.9964 43.4977C15.3942 43.4977 15.7758 43.3396 16.057 43.0583C16.3383 42.777 16.4964 42.3955 16.4964 41.9977C16.4932 41.0124 16.6849 40.0361 17.0605 39.1252C17.4362 38.2142 17.9882 37.3865 18.685 36.6898C19.3818 35.993 20.2094 35.4409 21.1204 35.0653C22.0314 34.6897 23.0076 34.4979 23.993 34.5011C24.979 34.4976 25.956 34.6889 26.8678 35.0643C27.7796 35.4396 28.6083 35.9915 29.306 36.6882C30.0038 37.3848 30.557 38.2126 30.9338 39.1238C31.3106 40.035 31.5036 41.0117 31.5016 41.9977C31.5016 42.3955 31.6596 42.777 31.9409 43.0583C32.2222 43.3396 32.6037 43.4977 33.0015 43.4977C33.3993 43.4977 33.7808 43.3396 34.0621 43.0583C34.3434 42.777 34.5014 42.3955 34.5014 41.9977C34.4996 40.5574 34.2002 39.133 33.6221 37.8138C33.0439 36.4946 32.1994 35.3091 31.1416 34.3316C33.0615 33.8142 34.5014 32.0622 34.5014 29.9924V28.4984H37.5013V29.9924C37.5013 32.4597 39.5307 34.5011 41.998 34.5011C44.4654 34.5011 46.4918 32.4597 46.4918 29.9924V24.0047C46.4918 22.0683 45.2349 20.4094 43.504 19.7794V16.4961H44.9979C45.3957 16.4961 45.7772 16.338 46.0585 16.0567C46.3398 15.7754 46.4978 15.3939 46.4978 14.9961C46.4978 14.5983 46.3398 14.2168 46.0585 13.9355C45.7772 13.6542 45.3957 13.4962 44.9979 13.4962H38.9952C38.5974 13.4962 38.2159 13.6542 37.9346 13.9355C37.6533 14.2168 37.4953 14.5983 37.4953 14.9961C37.4953 15.3939 37.6533 15.7754 37.9346 16.0567C38.2159 16.338 38.5974 16.4961 38.9952 16.4961H40.5041V19.7749C38.7657 20.4004 37.5013 22.0623 37.5013 24.0047V25.4986H34.5014V24.0047C34.4943 22.8118 34.0174 21.6699 33.1739 20.8264C32.3304 19.983 31.1885 19.506 29.9957 19.4989H18.0053C16.8122 19.506 15.6699 19.9829 14.826 20.8262C13.982 21.6696 13.5044 22.8116 13.4965 24.0047V25.4986H10.4967V24.0047C10.4967 22.0638 9.23374 20.4004 7.49683 19.7749V16.4961H9.00275C9.40055 16.4961 9.78207 16.338 10.0634 16.0567C10.3446 15.7754 10.5027 15.3939 10.5027 14.9961C10.5027 14.5983 10.3446 14.2168 10.0634 13.9355C9.78207 13.6542 9.40055 13.4962 9.00275 13.4962H3.00006ZM20.9991 25.4986C21.3969 25.4986 21.7784 25.6566 22.0597 25.9379C22.341 26.2192 22.499 26.6007 22.499 26.9985C22.499 27.3963 22.341 27.7778 22.0597 28.0591C21.7784 28.3404 21.3969 28.4984 20.9991 28.4984C20.6013 28.4984 20.2198 28.3404 19.9385 28.0591C19.6572 27.7778 19.4992 27.3963 19.4992 26.9985C19.4992 26.6007 19.6572 26.2192 19.9385 25.9379C20.2198 25.6566 20.6013 25.4986 20.9991 25.4986ZM26.9988 25.4986C27.3966 25.4986 27.7781 25.6566 28.0594 25.9379C28.3407 26.2192 28.4987 26.6007 28.4987 26.9985C28.4987 27.3963 28.3407 27.7778 28.0594 28.0591C27.7781 28.3404 27.3966 28.4984 26.9988 28.4984C26.601 28.4984 26.2195 28.3404 25.9382 28.0591C25.6569 27.7778 25.4989 27.3963 25.4989 26.9985C25.4989 26.6007 25.6569 26.2192 25.9382 25.9379C26.2195 25.6566 26.601 25.4986 26.9988 25.4986Z" fill="#58469C"/>
</svg>
