<svg width="48" height="48" viewBox="0 0 48 48" fill="none" xmlns="http://www.w3.org/2000/svg">
<path d="M24 13C35.598 13 45 11.2091 45 9C45 6.79086 35.598 5 24 5C12.402 5 3 6.79086 3 9C3 11.2091 12.402 13 24 13Z" fill="#58469C"/>
<path d="M45 13V20.2C43.782 21.4706 35.2 23.2353 24 23.2353C11.96 23.2353 4.106 21.3012 3 20.2V13C7.746 15.6824 17.49 16.1765 24 16.1765C30.51 16.1765 40.254 15.6824 45 13ZM24 26.0588C24.756 26.0588 38.882 26.0588 45 23.3482V30.0824C43.782 31.3529 35.2 33.1176 24 33.1176C11.96 33.1176 4.106 31.1835 3 30.0824V23.3482C9.118 26.0588 23.244 26.0588 24 26.0588ZM24 35.9412C24.756 35.9412 38.882 35.9412 45 33.2306V38.7647C45 41.1082 35.592 43 24 43C12.408 43 3 41.1082 3 38.7647V33.2306C9.118 35.9412 23.244 35.9412 24 35.9412Z" fill="#58469C"/>
</svg>
