<svg width="48" height="48" viewBox="0 0 48 48" fill="none" xmlns="http://www.w3.org/2000/svg">
<g clip-path="url(#clip0_3143_40692)">
<path d="M33.1153 39H14.8847C11.635 39 9 36.3658 9 33.1152V14.8848C9 11.635 11.6341 9 14.8847 9H33.1153C36.365 9 39 11.6342 39 14.8848V33.116C38.9992 36.3658 36.365 39 33.1153 39Z" fill="#58469C"/>
<path d="M15.1074 4.31885H14.1699V7.74822H15.1074V4.31885Z" fill="#58469C"/>
<path d="M14.6396 5.33537C15.3132 5.33537 15.8593 4.7893 15.8593 4.11568C15.8593 3.44207 15.3132 2.896 14.6396 2.896C13.966 2.896 13.4199 3.44207 13.4199 4.11568C13.4199 4.7893 13.966 5.33537 14.6396 5.33537Z" fill="#58469C"/>
<path d="M21.3496 1.42236H20.4121V9.08174H21.3496V1.42236Z" fill="#58469C"/>
<path d="M20.8798 2.43937C21.5535 2.43937 22.0995 1.8933 22.0995 1.21969C22.0995 0.546073 21.5535 0 20.8798 0C20.2062 0 19.6602 0.546073 19.6602 1.21969C19.6602 1.8933 20.2062 2.43937 20.8798 2.43937Z" fill="#58469C"/>
<path d="M27.5879 1.42236H26.6504V9.08174H27.5879V1.42236Z" fill="#58469C"/>
<path d="M27.1201 2.43937C27.7937 2.43937 28.3398 1.8933 28.3398 1.21969C28.3398 0.546073 27.7937 0 27.1201 0C26.4465 0 25.9004 0.546073 25.9004 1.21969C25.9004 1.8933 26.4465 2.43937 27.1201 2.43937Z" fill="#58469C"/>
<path d="M33.8301 4.31885H32.8926V7.74822H33.8301V4.31885Z" fill="#58469C"/>
<path d="M33.3603 5.33537C34.0339 5.33537 34.58 4.7893 34.58 4.11568C34.58 3.44207 34.0339 2.896 33.3603 2.896C32.6867 2.896 32.1406 3.44207 32.1406 4.11568C32.1406 4.7893 32.6867 5.33537 33.3603 5.33537Z" fill="#58469C"/>
<path d="M15.1074 40.2515H14.1699V43.6808H15.1074V40.2515Z" fill="#58469C"/>
<path d="M14.6396 45.1039C15.3132 45.1039 15.8593 44.5579 15.8593 43.8842C15.8593 43.2106 15.3132 42.6646 14.6396 42.6646C13.966 42.6646 13.4199 43.2106 13.4199 43.8842C13.4199 44.5579 13.966 45.1039 14.6396 45.1039Z" fill="#58469C"/>
<path d="M21.3496 38.9185H20.4121V46.5778H21.3496V38.9185Z" fill="#58469C"/>
<path d="M20.8798 47.9999C21.5535 47.9999 22.0995 47.4538 22.0995 46.7802C22.0995 46.1066 21.5535 45.5605 20.8798 45.5605C20.2062 45.5605 19.6602 46.1066 19.6602 46.7802C19.6602 47.4538 20.2062 47.9999 20.8798 47.9999Z" fill="#58469C"/>
<path d="M27.5879 38.9185H26.6504V46.5778H27.5879V38.9185Z" fill="#58469C"/>
<path d="M27.1201 47.9999C27.7937 47.9999 28.3398 47.4538 28.3398 46.7802C28.3398 46.1066 27.7937 45.5605 27.1201 45.5605C26.4465 45.5605 25.9004 46.1066 25.9004 46.7802C25.9004 47.4538 26.4465 47.9999 27.1201 47.9999Z" fill="#58469C"/>
<path d="M33.8301 40.2515H32.8926V43.6808H33.8301V40.2515Z" fill="#58469C"/>
<path d="M33.3603 45.1039C34.0339 45.1039 34.58 44.5579 34.58 43.8842C34.58 43.2106 34.0339 42.6646 33.3603 42.6646C32.6867 42.6646 32.1406 43.2106 32.1406 43.8842C32.1406 44.5579 32.6867 45.1039 33.3603 45.1039Z" fill="#58469C"/>
<path d="M7.74773 32.8921H4.31836V33.8296H7.74773V32.8921Z" fill="#58469C"/>
<path d="M4.11617 34.5805C4.78979 34.5805 5.33586 34.0344 5.33586 33.3608C5.33586 32.6872 4.78979 32.1411 4.11617 32.1411C3.44256 32.1411 2.89648 32.6872 2.89648 33.3608C2.89648 34.0344 3.44256 34.5805 4.11617 34.5805Z" fill="#58469C"/>
<path d="M9.08125 26.6514H1.42188V27.5889H9.08125V26.6514Z" fill="#58469C"/>
<path d="M1.21969 28.3398C1.8933 28.3398 2.43937 27.7937 2.43937 27.1201C2.43937 26.4465 1.8933 25.9004 1.21969 25.9004C0.546073 25.9004 0 26.4465 0 27.1201C0 27.7937 0.546073 28.3398 1.21969 28.3398Z" fill="#58469C"/>
<path d="M9.08125 20.4111H1.42188V21.3486H9.08125V20.4111Z" fill="#58469C"/>
<path d="M1.21969 22.0995C1.8933 22.0995 2.43937 21.5535 2.43937 20.8798C2.43937 20.2062 1.8933 19.6602 1.21969 19.6602C0.546073 19.6602 0 20.2062 0 20.8798C0 21.5535 0.546073 22.0995 1.21969 22.0995Z" fill="#58469C"/>
<path d="M7.74773 14.1704H4.31836V15.1079H7.74773V14.1704Z" fill="#58469C"/>
<path d="M4.11617 15.8588C4.78979 15.8588 5.33586 15.3127 5.33586 14.6391C5.33586 13.9655 4.78979 13.4194 4.11617 13.4194C3.44256 13.4194 2.89648 13.9655 2.89648 14.6391C2.89648 15.3127 3.44256 15.8588 4.11617 15.8588Z" fill="#58469C"/>
<path d="M43.6813 32.8921H40.252V33.8296H43.6813V32.8921Z" fill="#58469C"/>
<path d="M43.8838 34.5805C44.5574 34.5805 45.1034 34.0344 45.1034 33.3608C45.1034 32.6872 44.5574 32.1411 43.8838 32.1411C43.2101 32.1411 42.6641 32.6872 42.6641 33.3608C42.6641 34.0344 43.2101 34.5805 43.8838 34.5805Z" fill="#58469C"/>
<path d="M46.5773 26.6514H38.918V27.5889H46.5773V26.6514Z" fill="#58469C"/>
<path d="M46.7802 28.3398C47.4538 28.3398 47.9999 27.7937 47.9999 27.1201C47.9999 26.4465 47.4538 25.9004 46.7802 25.9004C46.1066 25.9004 45.5605 26.4465 45.5605 27.1201C45.5605 27.7937 46.1066 28.3398 46.7802 28.3398Z" fill="#58469C"/>
<path d="M46.5773 20.4111H38.918V21.3486H46.5773V20.4111Z" fill="#58469C"/>
<path d="M46.7802 22.0995C47.4538 22.0995 47.9999 21.5535 47.9999 20.8798C47.9999 20.2062 47.4538 19.6602 46.7802 19.6602C46.1066 19.6602 45.5605 20.2062 45.5605 20.8798C45.5605 21.5535 46.1066 22.0995 46.7802 22.0995Z" fill="#58469C"/>
<path d="M43.6813 14.1704H40.252V15.1079H43.6813V14.1704Z" fill="#58469C"/>
<path d="M43.8838 15.8588C44.5574 15.8588 45.1034 15.3127 45.1034 14.6391C45.1034 13.9655 44.5574 13.4194 43.8838 13.4194C43.2101 13.4194 42.6641 13.9655 42.6641 14.6391C42.6641 15.3127 43.2101 15.8588 43.8838 15.8588Z" fill="#58469C"/>
</g>
<defs>
<clipPath id="clip0_3143_40692">
<rect width="48" height="48" fill="white"/>
</clipPath>
</defs>
</svg>
