<svg width="48" height="48" viewBox="0 0 48 48" fill="none" xmlns="http://www.w3.org/2000/svg">
<path d="M39.0969 21.1799L37.5969 20.9249C37.186 20.86 36.7926 20.7121 36.4406 20.4903C36.0886 20.2686 35.7854 19.9775 35.5494 19.6349C35.4206 19.4485 35.3101 19.2501 35.2194 19.0424L34.0644 16.2674C33.8678 15.7777 33.7971 15.2466 33.8586 14.7225C33.9202 14.1984 34.1122 13.6982 34.4169 13.2674L35.2494 12.0824V12.0224C35.3738 11.8846 35.4426 11.7055 35.4426 11.5199C35.4426 11.3342 35.3738 11.1552 35.2494 11.0174L32.8794 8.64739C32.7521 8.51119 32.5786 8.42729 32.3928 8.41203C32.207 8.39678 32.0222 8.45128 31.8744 8.56489L31.8144 8.60239L30.6444 9.44239C30.2136 9.74714 29.7134 9.93908 29.1893 10.0007C28.6652 10.0622 28.1341 9.99149 27.6444 9.79489L24.8694 8.63989C24.6617 8.54923 24.4633 8.43872 24.2769 8.30989C23.9273 8.07758 23.6291 7.77601 23.4008 7.42382C23.1725 7.07164 23.0188 6.67634 22.9494 6.26239L22.6944 4.76239C22.6706 4.58082 22.5812 4.41423 22.443 4.29403C22.3049 4.17383 22.1275 4.10834 21.9444 4.10989H18.5769C18.3938 4.10834 18.2164 4.17383 18.0783 4.29403C17.9401 4.41423 17.8507 4.58082 17.8269 4.76239L17.5719 6.26239C17.4869 6.78631 17.2693 7.27979 16.9398 7.69591C16.6103 8.11204 16.1799 8.43699 15.6894 8.63989L13.6194 9.50239L12.9144 9.79489C12.4247 9.99149 11.8936 10.0622 11.3695 10.0007C10.8454 9.93908 10.3452 9.74714 9.9144 9.44239L8.6844 8.56489C8.53659 8.45128 8.35177 8.39678 8.16597 8.41203C7.98017 8.42729 7.8067 8.51119 7.6794 8.64739L5.2494 11.0174C5.1226 11.1464 5.0467 11.3169 5.03567 11.4974C5.02465 11.678 5.07924 11.8564 5.1894 11.9999L6.0669 13.2299C6.37165 13.6607 6.56359 14.1609 6.62517 14.685C6.68674 15.2091 6.616 15.7402 6.4194 16.2299L5.2494 19.0424C5.04783 19.5309 4.72517 19.9601 4.31184 20.2895C3.89851 20.6188 3.40813 20.8375 2.8869 20.9249L1.3869 21.1799C1.20533 21.2037 1.03874 21.2931 0.918543 21.4313C0.798346 21.5694 0.732849 21.7468 0.734402 21.9299V25.2749C0.732849 25.458 0.798346 25.6354 0.918543 25.7735C1.03874 25.9117 1.20533 26.0011 1.3869 26.0249L2.8869 26.2799C3.41296 26.3715 3.90659 26.597 4.32034 26.9345C4.73408 27.2721 5.05403 27.7104 5.2494 28.2074L6.4044 30.9824C6.601 31.4721 6.67174 32.0032 6.61017 32.5273C6.54859 33.0513 6.35665 33.5516 6.0519 33.9824L5.1894 35.2499C5.07924 35.3934 5.02465 35.5718 5.03567 35.7524C5.0467 35.9329 5.1226 36.1034 5.2494 36.2324L7.6194 38.6024C7.7467 38.7386 7.92017 38.8225 8.10597 38.8377C8.29177 38.853 8.4766 38.7985 8.6244 38.6849L9.8544 37.8074C10.2852 37.5026 10.7854 37.3107 11.3095 37.2491C11.8336 37.1875 12.3647 37.2583 12.8544 37.4549L15.6294 38.6099C16.1199 38.8128 16.5503 39.1377 16.8798 39.5539C17.2093 39.97 17.4269 40.4635 17.5119 40.9874L17.7669 42.4874C17.7907 42.669 17.8801 42.8356 18.0183 42.9557C18.1564 43.0759 18.3338 43.1414 18.5169 43.1399H21.8619C22.045 43.1414 22.2224 43.0759 22.3605 42.9557C22.4987 42.8356 22.5881 42.669 22.6119 42.4874L22.8669 40.9874C22.9519 40.4635 23.1695 39.97 23.499 39.5539C23.8285 39.1377 24.2589 38.8128 24.7494 38.6099L27.5244 37.4549C28.0141 37.2583 28.5452 37.1875 29.0693 37.2491C29.5934 37.3107 30.0936 37.5026 30.5244 37.8074L31.7544 38.6849C31.9022 38.7985 32.087 38.853 32.2728 38.8377C32.4586 38.8225 32.6321 38.7386 32.7594 38.6024L35.2494 36.2324C35.3762 36.1034 35.4521 35.9329 35.4631 35.7524C35.4742 35.5718 35.4196 35.3934 35.3094 35.2499L34.4319 34.0199C34.1272 33.5891 33.9352 33.0888 33.8736 32.5648C33.8121 32.0407 33.8828 31.5096 34.0794 31.0199L34.3719 30.3149L35.2494 28.2074C35.4523 27.7169 35.7773 27.2865 36.1934 26.957C36.6095 26.6275 37.103 26.4099 37.6269 26.3249L39.1269 26.0699C39.3085 26.0461 39.4751 25.9567 39.5953 25.8185C39.7155 25.6804 39.781 25.503 39.7794 25.3199V21.9524C39.7859 21.7608 39.7188 21.574 39.5919 21.4303C39.465 21.2866 39.2878 21.197 39.0969 21.1799ZM28.7619 24.6674C28.5673 26.264 27.9278 27.7738 26.9165 29.0245C25.9051 30.2751 24.5625 31.2163 23.0419 31.7407C21.5214 32.265 19.884 32.3514 18.3167 31.9899C16.7494 31.6284 15.3153 30.8337 14.1779 29.6963C13.0406 28.559 12.2459 27.1249 11.8844 25.5576C11.5229 23.9903 11.6093 22.3529 12.1336 20.8324C12.658 19.3118 13.5992 17.9692 14.8498 16.9578C16.1005 15.9465 17.6103 15.307 19.2069 15.1124C19.5525 15.0668 19.9008 15.0442 20.2494 15.0449C22.525 15.0449 24.7073 15.9489 26.3164 17.5579C27.9254 19.167 28.8294 21.3493 28.8294 23.6249C28.8301 23.9735 28.8075 24.3218 28.7619 24.6674Z" fill="#58469C"/>
<path d="M39.0969 21.1799L37.5969 20.9249C37.186 20.86 36.7926 20.7121 36.4406 20.4903C36.0886 20.2686 35.7854 19.9775 35.5494 19.6349C35.4206 19.4485 35.3101 19.2501 35.2194 19.0424L34.0644 16.2674C33.8678 15.7777 33.7971 15.2466 33.8586 14.7225C33.9202 14.1984 34.1122 13.6982 34.4169 13.2674L35.2494 12.0824V12.0224C35.3738 11.8846 35.4426 11.7055 35.4426 11.5199C35.4426 11.3342 35.3738 11.1552 35.2494 11.0174L32.8794 8.64739C32.7521 8.51119 32.5786 8.42729 32.3928 8.41203C32.207 8.39678 32.0222 8.45128 31.8744 8.56489L31.8144 8.60239L30.6444 9.44239C30.2136 9.74714 29.7134 9.93908 29.1893 10.0007C28.6652 10.0622 28.1341 9.99149 27.6444 9.79489L24.8694 8.63989C24.6617 8.54923 24.4633 8.43872 24.2769 8.30989C23.9273 8.07758 23.6291 7.77601 23.4008 7.42382C23.1725 7.07164 23.0188 6.67634 22.9494 6.26239L22.6944 4.76239C22.6706 4.58082 22.5812 4.41423 22.443 4.29403C22.3049 4.17383 22.1275 4.10834 21.9444 4.10989H18.5769C18.3938 4.10834 18.2164 4.17383 18.0783 4.29403C17.9401 4.41423 17.8507 4.58082 17.8269 4.76239L17.5719 6.26239C17.4869 6.78631 17.2693 7.27979 16.9398 7.69591C16.6103 8.11204 16.1799 8.43699 15.6894 8.63989L13.6194 9.50239L12.9144 9.79489C12.4247 9.99149 11.8936 10.0622 11.3695 10.0007C10.8454 9.93908 10.3452 9.74714 9.9144 9.44239L8.6844 8.56489C8.53659 8.45128 8.35177 8.39678 8.16597 8.41203C7.98017 8.42729 7.8067 8.51119 7.6794 8.64739L5.2494 11.0174C5.1226 11.1464 5.0467 11.3169 5.03567 11.4974C5.02465 11.678 5.07924 11.8564 5.1894 11.9999L6.0669 13.2299C6.37165 13.6607 6.56359 14.1609 6.62517 14.685C6.68674 15.2091 6.616 15.7402 6.4194 16.2299L5.2494 19.0424C5.04783 19.5309 4.72517 19.9601 4.31184 20.2895C3.89851 20.6188 3.40813 20.8375 2.8869 20.9249L1.3869 21.1799C1.20533 21.2037 1.03874 21.2931 0.918543 21.4313C0.798346 21.5694 0.732849 21.7468 0.734402 21.9299V25.2749C0.732849 25.458 0.798346 25.6354 0.918543 25.7735C1.03874 25.9117 1.20533 26.0011 1.3869 26.0249L2.8869 26.2799C3.41296 26.3715 3.90659 26.597 4.32034 26.9345C4.73408 27.2721 5.05403 27.7104 5.2494 28.2074L6.4044 30.9824C6.601 31.4721 6.67174 32.0032 6.61017 32.5273C6.54859 33.0513 6.35665 33.5516 6.0519 33.9824L5.1894 35.2499C5.07924 35.3934 5.02465 35.5718 5.03567 35.7524C5.0467 35.9329 5.1226 36.1034 5.2494 36.2324L7.6194 38.6024C7.7467 38.7386 7.92017 38.8225 8.10597 38.8377C8.29177 38.853 8.4766 38.7985 8.6244 38.6849L9.8544 37.8074C10.2852 37.5026 10.7854 37.3107 11.3095 37.2491C11.8336 37.1875 12.3647 37.2583 12.8544 37.4549L15.6294 38.6099C16.1199 38.8128 16.5503 39.1377 16.8798 39.5539C17.2093 39.97 17.4269 40.4635 17.5119 40.9874L17.7669 42.4874C17.7907 42.669 17.8801 42.8356 18.0183 42.9557C18.1564 43.0759 18.3338 43.1414 18.5169 43.1399H21.8619C22.045 43.1414 22.2224 43.0759 22.3605 42.9557C22.4987 42.8356 22.5881 42.669 22.6119 42.4874L22.8669 40.9874C22.9519 40.4635 23.1695 39.97 23.499 39.5539C23.8285 39.1377 24.2589 38.8128 24.7494 38.6099L27.5244 37.4549C28.0141 37.2583 28.5452 37.1875 29.0693 37.2491C29.5934 37.3107 30.0936 37.5026 30.5244 37.8074L31.7544 38.6849C31.9022 38.7985 32.087 38.853 32.2728 38.8377C32.4586 38.8225 32.6321 38.7386 32.7594 38.6024L35.2494 36.2324C35.3762 36.1034 35.4521 35.9329 35.4631 35.7524C35.4742 35.5718 35.4196 35.3934 35.3094 35.2499L34.4319 34.0199C34.1272 33.5891 33.9352 33.0888 33.8736 32.5648C33.8121 32.0407 33.8828 31.5096 34.0794 31.0199L34.3719 30.3149L35.2494 28.2074C35.4523 27.7169 35.7773 27.2865 36.1934 26.957C36.6095 26.6275 37.103 26.4099 37.6269 26.3249L39.1269 26.0699C39.3085 26.0461 39.4751 25.9567 39.5953 25.8185C39.7155 25.6804 39.781 25.503 39.7794 25.3199V21.9524C39.7859 21.7608 39.7188 21.574 39.5919 21.4303C39.465 21.2866 39.2878 21.197 39.0969 21.1799ZM28.7619 24.6674C28.5673 26.264 27.9278 27.7738 26.9165 29.0245C25.9051 30.2751 24.5625 31.2163 23.0419 31.7407C21.5214 32.265 19.884 32.3514 18.3167 31.9899C16.7494 31.6284 15.3153 30.8337 14.1779 29.6963C13.0406 28.559 12.2459 27.1249 11.8844 25.5576C11.5229 23.9903 11.6093 22.3529 12.1336 20.8324C12.658 19.3118 13.5992 17.9692 14.8498 16.9578C16.1005 15.9465 17.6103 15.307 19.2069 15.1124C19.5525 15.0668 19.9008 15.0442 20.2494 15.0449C22.525 15.0449 24.7073 15.9489 26.3164 17.5579C27.9254 19.167 28.8294 21.3493 28.8294 23.6249C28.8301 23.9735 28.8075 24.3218 28.7619 24.6674Z" fill="#58469C"/>
<path d="M41.5132 30.24C40.8753 30.2405 40.262 29.994 39.802 29.5521C39.3419 29.1102 39.0709 28.5074 39.0457 27.87L38.4532 13.725C38.44 13.4053 38.4916 13.0863 38.6047 12.787C38.7178 12.4877 38.8902 12.2143 39.1115 11.9832C39.3328 11.7521 39.5985 11.568 39.8926 11.442C40.1867 11.3161 40.5032 11.2507 40.8232 11.25H42.2032C42.5235 11.2508 42.8403 11.3161 43.1348 11.442C43.4293 11.5679 43.6955 11.7518 43.9174 11.9828C44.1392 12.2137 44.3123 12.4871 44.4263 12.7864C44.5403 13.0857 44.5928 13.4049 44.5807 13.725L43.9882 27.87C43.9611 28.508 43.6884 29.1109 43.2272 29.5526C42.7659 29.9943 42.1518 30.2406 41.5132 30.24Z" fill="#58469C"/>
<path d="M41.5126 38.2498C42.8215 38.2498 43.8826 37.1887 43.8826 35.8798C43.8826 34.5709 42.8215 33.5098 41.5126 33.5098C40.2037 33.5098 39.1426 34.5709 39.1426 35.8798C39.1426 37.1887 40.2037 38.2498 41.5126 38.2498Z" fill="#58469C"/>
<path d="M21.25 15C19.5441 15 17.8766 15.5058 16.4582 16.4536C15.0398 17.4013 13.9343 18.7483 13.2815 20.3244C12.6287 21.9004 12.4579 23.6346 12.7907 25.3077C13.1235 26.9807 13.945 28.5176 15.1512 29.7238C16.3574 30.93 17.8943 31.7515 19.5674 32.0843C21.2404 32.4171 22.9746 32.2463 24.5506 31.5935C26.1267 30.9407 27.4737 29.8352 28.4214 28.4168C29.3692 26.9984 29.875 25.3309 29.875 23.625C29.875 21.3375 28.9663 19.1437 27.3488 17.5262C25.7313 15.9087 23.5375 15 21.25 15ZM24.73 31.5C23.6343 31.9878 22.4494 32.2432 21.25 32.25C19.0703 32.2421 16.9753 31.4048 15.3904 29.9083C13.8056 28.4117 12.8498 26.3681 12.7171 24.1924C12.5844 22.0167 13.2848 19.872 14.676 18.194C16.0672 16.5159 18.0449 15.4303 20.2075 15.1575C20.5521 15.0968 20.9004 15.0592 21.25 15.045C23.5256 15.045 25.7079 15.949 27.317 17.558C28.926 19.1671 29.83 21.3494 29.83 23.625C29.8307 23.9736 29.8081 24.3219 29.7625 24.6675C29.5851 26.144 29.0284 27.5494 28.1464 28.7468C27.2645 29.9442 26.0875 30.8927 24.73 31.5Z" fill="#58469C"/>
</svg>
