<svg width="48" height="48" viewBox="0 0 48 48" fill="none" xmlns="http://www.w3.org/2000/svg">
<path d="M41.9301 37.3935C41.1336 37.3743 40.3498 37.5955 39.6808 38.0281C38.7656 38.58 37.7171 38.8716 36.6483 38.8716C35.5796 38.8716 34.5311 38.58 33.6158 38.0281C32.9463 37.5966 32.1629 37.3756 31.3665 37.3935C30.5722 37.3713 29.7901 37.5928 29.1253 38.0281C28.21 38.58 27.1616 38.8716 26.0928 38.8716C25.0241 38.8716 23.9756 38.58 23.0603 38.0281C22.3955 37.5928 21.6134 37.3713 20.8191 37.3935C20.0226 37.3743 19.2388 37.5955 18.5698 38.0281C17.6645 38.5995 16.6116 38.8928 15.5413 38.8716C14.7413 38.8942 13.9469 38.732 13.2197 38.3977L13.4125 40.5425H46.4126V38.8234C45.6198 38.7214 44.8582 38.4502 44.1794 38.0281C43.5098 37.5966 42.7264 37.3756 41.9301 37.3935ZM41.9301 33.377C41.1336 33.3578 40.3498 33.5789 39.6808 34.0116C38.7656 34.5634 37.7171 34.8551 36.6483 34.8551C35.5796 34.8551 34.5311 34.5634 33.6158 34.0116C32.9463 33.5801 32.1629 33.359 31.3665 33.377C30.5722 33.3548 29.7901 33.5762 29.1253 34.0116C28.21 34.5634 27.1616 34.8551 26.0928 34.8551C25.0241 34.8551 23.9756 34.5634 23.0603 34.0116C22.3955 33.5762 21.6134 33.3548 20.8191 33.377C20.0226 33.3578 19.2388 33.5789 18.5698 34.0116C17.6645 34.5829 16.6116 34.8762 15.5413 34.8551C14.599 34.8799 13.6671 34.6524 12.8422 34.1963L13.051 36.5018C13.1314 36.542 13.2117 36.5822 13.292 36.6304C13.9615 37.0619 14.745 37.2829 15.5413 37.265C16.3356 37.2872 17.1177 37.0657 17.7825 36.6304C18.6978 36.0785 19.7463 35.7869 20.815 35.7869C21.8838 35.7869 22.9323 36.0785 23.8475 36.6304C24.5165 37.063 25.3003 37.2842 26.0968 37.265C26.8912 37.2872 27.6733 37.0657 28.3381 36.6304C29.2533 36.0785 30.3018 35.7869 31.3706 35.7869C32.4393 35.7869 33.4878 36.0785 34.4031 36.6304C35.0726 37.0619 35.856 37.2829 36.6523 37.265C37.4467 37.2872 38.2288 37.0657 38.8936 36.6304C39.8103 36.0785 40.8601 35.7869 41.9301 35.7869C43.0001 35.7869 44.0499 36.0785 44.9666 36.6304C45.4105 36.9057 45.9003 37.0988 46.4126 37.2007V34.8069C45.6198 34.7049 44.8582 34.4336 44.1794 34.0116C43.5098 33.5801 42.7264 33.359 41.9301 33.377ZM41.9301 29.3604C41.1336 29.3412 40.3498 29.5624 39.6808 29.995C38.7656 30.5469 37.7171 30.8385 36.6483 30.8385C35.5796 30.8385 34.5311 30.5469 33.6158 29.995C32.9463 29.5635 32.1629 29.3425 31.3665 29.3604C30.5722 29.3382 29.7901 29.5597 29.1253 29.995C28.21 30.5469 27.1616 30.8385 26.0928 30.8385C25.0241 30.8385 23.9756 30.5469 23.0603 29.995C22.3955 29.5597 21.6134 29.3382 20.8191 29.3604C20.0226 29.3412 19.2388 29.5624 18.5698 29.995C17.6645 30.5664 16.6116 30.8597 15.5413 30.8385C14.4719 30.8616 13.4191 30.5712 12.5128 30.0031C12.4984 29.9968 12.4849 29.9887 12.4727 29.979L12.6735 32.2925C12.8904 32.3969 13.0992 32.5014 13.292 32.6138C13.9599 33.049 14.7445 33.2704 15.5413 33.2484C16.3356 33.2706 17.1177 33.0491 17.7825 32.6138C18.6978 32.062 19.7463 31.7703 20.815 31.7703C21.8838 31.7703 22.9323 32.062 23.8475 32.6138C24.5165 33.0465 25.3003 33.2676 26.0968 33.2484C26.8912 33.2706 27.6733 33.0491 28.3381 32.6138C29.2533 32.062 30.3018 31.7703 31.3706 31.7703C32.4393 31.7703 33.4878 32.062 34.4031 32.6138C35.0726 33.0453 35.856 33.2664 36.6523 33.2484C37.4467 33.2706 38.2288 33.0491 38.8936 32.6138C39.8103 32.0619 40.8601 31.7703 41.9301 31.7703C43.0001 31.7703 44.0499 32.0619 44.9666 32.6138C45.4105 32.8891 45.9003 33.0823 46.4126 33.1842V30.7903C45.6198 30.6883 44.8582 30.4171 44.1794 29.995C43.5098 29.5635 42.7264 29.3425 41.9301 29.3604Z" fill="#58469C"/>
<path d="M11.123 14.8364L11.5488 19.6563H46.4125V14.8364H11.123Z" fill="#58469C"/>
<path d="M41.9287 25.3438C41.1323 25.3246 40.3485 25.5458 39.6795 25.9784C38.7642 26.5303 37.7157 26.8219 36.647 26.8219C35.5782 26.8219 34.5297 26.5303 33.6145 25.9784C32.945 25.5469 32.1615 25.3259 31.3652 25.3438C30.5709 25.3216 29.7887 25.5431 29.124 25.9784C28.2087 26.5303 27.1602 26.8219 26.0915 26.8219C25.0227 26.8219 23.9742 26.5303 23.059 25.9784C22.3942 25.5431 21.6121 25.3216 20.8177 25.3438C20.0212 25.3246 19.2374 25.5458 18.5684 25.9784C17.6632 26.5498 16.6102 26.8431 15.54 26.8219C14.467 26.8441 13.4112 26.5508 12.5034 25.9784C12.3669 25.9061 12.2303 25.8258 12.0938 25.7615L12.3026 28.1152C12.6465 28.2502 12.9795 28.4113 13.2987 28.5972C13.9652 29.0288 14.7461 29.2499 15.54 29.2318C16.3343 29.254 17.1164 29.0325 17.7812 28.5972C18.6965 28.0454 19.7449 27.7537 20.8137 27.7537C21.8824 27.7537 22.9309 28.0454 23.8462 28.5972C24.5152 29.0299 25.299 29.251 26.0955 29.2318C26.8898 29.254 27.6719 29.0325 28.3367 28.5972C29.252 28.0454 30.3005 27.7537 31.3692 27.7537C32.438 27.7537 33.4865 28.0454 34.4017 28.5972C35.0712 29.0287 35.8547 29.2498 36.651 29.2318C37.4453 29.254 38.2274 29.0325 38.8922 28.5972C39.8089 28.0453 40.8587 27.7537 41.9287 27.7537C42.9988 27.7537 44.0485 28.0453 44.9653 28.5972C45.4091 28.8725 45.8989 29.0657 46.4112 29.1676V26.7737C45.6184 26.6717 44.8568 26.4005 44.178 25.9784C43.5085 25.5469 42.7251 25.3259 41.9287 25.3438Z" fill="#58469C"/>
<path d="M3.78793 6L1.48242 40.5424H11.7969L8.72026 6H3.78793Z" fill="#58469C"/>
</svg>
