<svg width="48" height="48" viewBox="0 0 48 48" fill="none" xmlns="http://www.w3.org/2000/svg">
<path d="M37.5508 27.9878C41.6124 27.9878 44.9077 24.5724 44.9077 20.3816C44.9077 16.4309 38.9539 8.84316 38.28 7.99393C37.9293 7.55085 37.1816 7.55085 36.8308 7.99393C36.157 8.84316 30.2031 16.4309 30.2031 20.3816C30.2031 24.5724 33.4985 27.9878 37.5508 27.9878ZM34.14 19.1789C34.3849 19.1789 34.6197 19.2761 34.7928 19.4492C34.9659 19.6223 35.0631 19.8571 35.0631 20.1019C35.0631 21.5733 36.1579 22.7262 37.5554 22.7262C37.8002 22.7262 38.035 22.8235 38.2081 22.9966C38.3813 23.1697 38.4785 23.4045 38.4785 23.6493C38.4785 23.8941 38.3813 24.1289 38.2081 24.302C38.035 24.4751 37.8002 24.5724 37.5554 24.5724C35.1628 24.5724 33.217 22.5665 33.217 20.1019C33.217 19.8571 33.3142 19.6223 33.4873 19.4492C33.6604 19.2761 33.8952 19.1789 34.14 19.1789Z" fill="#58469C"/>
<path d="M45.7019 39.0925C45.7019 39.7848 45.2311 40.3386 44.6496 40.3386H28.9757C25.4127 40.3386 21.7296 40.3386 18.6281 38.4186L15.7481 36.2955C14.4851 35.3596 13.0707 34.6477 11.5665 34.1909V23.4555H12.9604C15.1296 23.4555 17.2619 23.8709 19.2373 24.6648L32.9727 31.3017C33.9419 31.6894 34.4311 32.8894 34.0804 33.9878C34.0619 34.0248 34.0434 34.0617 34.0342 34.0986C33.9142 34.4586 33.7481 34.5417 33.6834 34.5694C33.5173 34.6525 32.9911 34.7725 31.7542 34.2832L24.6373 31.4309C24.3974 31.3354 24.1293 31.3392 23.8922 31.4413C23.655 31.5434 23.4682 31.7356 23.3727 31.9755C23.2772 32.2155 23.2809 32.4835 23.3831 32.7206C23.4852 32.9578 23.6774 33.1447 23.9173 33.2401L31.0342 36.0832C32.4834 36.6648 33.6188 36.7478 34.505 36.3325C34.745 36.2217 35.0311 36.0371 35.2896 35.7509H42.7481C44.3727 35.7509 45.7019 37.2463 45.7019 39.0925ZM9.72037 22.1355V35.834C9.72037 37.4586 8.48344 38.7786 6.96037 38.7786H3.2219C2.70498 38.7786 2.29883 38.3632 2.29883 37.8555V20.114C2.29883 19.6063 2.70498 19.1909 3.2219 19.1909H6.96037C8.48344 19.1909 9.72037 20.5109 9.72037 22.1355Z" fill="#58469C"/>
</svg>
