<svg width="48" height="48" viewBox="0 0 48 48" fill="none" xmlns="http://www.w3.org/2000/svg">
<g clip-path="url(#clip0_3143_40741)">
<path d="M26.378 11.4826C26.378 11.4826 24.3755 10.4101 23.1755 11.1751C21.9755 11.9401 18.278 11.7976 17.2655 12.3001C16.5114 12.723 15.8576 13.3038 15.3489 14.0028C14.8401 14.7019 14.4885 15.5026 14.318 16.3501C14.018 18.3301 14.633 22.5451 14.633 22.5451C14.633 22.5451 10.7255 25.1551 10.5005 26.3776C10.2755 27.6001 14.6255 32.8726 24.4055 33.5776C34.1855 34.2826 38.873 32.6251 37.613 30.8101C36.353 28.9951 34.613 21.6826 34.9955 18.8551C35.378 16.0276 33.038 11.9551 26.378 11.4826Z" fill="#58469C"/>
<path d="M31.7255 18.7498C32.1005 15.9298 29.7455 11.8348 23.078 11.3623L22.9055 11.2798C21.503 11.8873 18.2105 11.7973 17.258 12.2698C16.5039 12.6926 15.8501 13.2735 15.3414 13.9725C14.8326 14.6715 14.481 15.4722 14.3105 16.3198C14.0105 18.2998 14.6255 22.5148 14.6255 22.5148C14.6255 22.5148 10.7255 25.1548 10.5005 26.3773C10.2755 27.5998 14.6255 32.8723 24.4055 33.5773L25.673 33.6523C32.318 33.6523 35.3705 32.2273 34.3205 30.7198C33.083 28.9198 31.3505 21.5998 31.7255 18.7498Z" fill="#58469C"/>
<path d="M26.4749 12.1948C26.4749 12.1948 20.0549 14.7448 19.7249 17.4448C19.3949 20.1448 25.4999 16.4248 26.8199 12.9298M28.6574 13.4998C28.6574 13.4998 27.9074 20.8273 30.7724 21.1573C33.6374 21.4873 30.7724 13.9798 29.5424 12.9823M19.6199 20.8948C19.6199 20.8948 19.4624 25.7623 20.4974 26.5273M30.4049 23.3473C30.4049 23.3473 28.4999 25.2673 26.9999 25.4998" stroke="#58469C" stroke-linecap="round" stroke-linejoin="round"/>
<path d="M24.5999 4.63523C24.5295 4.66279 24.4655 4.70465 24.4121 4.75816C24.3586 4.81168 24.3169 4.87568 24.2894 4.94615C24.2619 5.01661 24.2493 5.09201 24.2524 5.16758C24.2555 5.24315 24.2743 5.31726 24.3074 5.38523C24.9749 6.58523 26.5049 9.28523 26.3774 10.4327C26.3174 10.9427 26.3774 12.5027 26.8199 12.8927C27.2624 13.2827 28.7249 13.7177 29.5499 12.9452C30.0086 12.27 30.6103 11.7041 31.3124 11.2877C32.237 10.8151 33.2936 10.6672 34.3124 10.8677C35.3549 11.0477 36.1124 11.5427 36.4874 11.2052C36.8624 10.8677 36.9074 9.81773 36.1424 8.82773C35.3774 7.83773 31.6424 7.67273 30.7799 8.37773C30.7799 8.37773 31.5299 6.58523 30.9449 5.91023C30.3599 5.23523 27.9449 6.76523 27.9449 6.76523C27.9449 6.76523 26.2499 4.12523 24.5999 4.63523Z" fill="#58469C"/>
<path d="M26.5117 12.3227C26.555 12.5501 26.6616 12.7607 26.8192 12.9302C27.2842 13.3277 28.7242 13.7552 29.5492 12.9827C30.0079 12.3075 30.6096 11.7416 31.3117 11.3252C32.2363 10.8526 33.2929 10.7047 34.3117 10.9052C35.3542 11.0852 36.1117 11.5802 36.4867 11.2427C36.8617 10.9052 36.9067 9.85522 36.1417 8.86522C35.6317 8.20522 33.7867 7.91272 32.3917 8.00272C31.6717 9.87022 29.4367 11.5127 26.5117 12.3227Z" fill="#58469C"/>
<path d="M34.125 36.6973C31.59 36.6973 31.59 38.1973 29.0625 38.1973C26.535 38.1973 26.535 36.6973 24 36.6973C21.465 36.6973 21.4725 38.1973 18.9375 38.1973C16.4025 38.1973 16.41 36.6973 13.875 36.6973C11.34 36.6973 11.3475 38.1973 8.8125 38.1973C6.2775 38.1973 6.285 36.6973 3.75 36.6973V39.6973C6.2775 39.6973 6.2775 41.1973 8.8125 41.1973C11.3475 41.1973 11.34 39.6973 13.875 39.6973C16.41 39.6973 16.4025 41.1973 18.9375 41.1973C21.4725 41.1973 21.465 39.6973 24 39.6973C26.535 39.6973 26.5275 41.1973 29.0625 41.1973C31.5975 41.1973 31.5975 39.6973 34.125 39.6973C36.6525 39.6973 36.66 41.1973 39.195 41.1973C41.73 41.1973 41.73 39.6973 44.265 39.6973V36.6973C41.73 36.6973 41.73 38.1973 39.195 38.1973C36.66 38.1973 36.6525 36.6973 34.125 36.6973ZM34.125 30.6973C31.59 30.6973 31.59 32.1973 29.0625 32.1973C26.535 32.1973 26.535 30.6973 24 30.6973C21.465 30.6973 21.4725 32.1973 18.9375 32.1973C16.4025 32.1973 16.41 30.6973 13.875 30.6973C11.34 30.6973 11.3475 32.1973 8.8125 32.1973C6.2775 32.1973 6.285 30.6973 3.75 30.6973V33.6973C6.2775 33.6973 6.2775 35.1973 8.8125 35.1973C11.3475 35.1973 11.34 33.6973 13.875 33.6973C16.41 33.6973 16.4025 35.1973 18.9375 35.1973C21.4725 35.1973 21.465 33.6973 24 33.6973C26.535 33.6973 26.5275 35.1973 29.0625 35.1973C31.5975 35.1973 31.5975 33.6973 34.125 33.6973C36.6525 33.6973 36.66 35.1973 39.195 35.1973C41.73 35.1973 41.73 33.6973 44.265 33.6973V30.6973C41.73 30.6973 41.73 32.1973 39.195 32.1973C36.66 32.1973 36.6525 30.6973 34.125 30.6973Z" fill="#58469C"/>
<path d="M34.125 42.6973C31.59 42.6973 31.59 44.1973 29.0625 44.1973C26.535 44.1973 26.535 42.6973 24 42.6973C21.465 42.6973 21.4725 44.1973 18.9375 44.1973C16.4025 44.1973 16.41 42.6973 13.875 42.6973C11.34 42.6973 11.3475 44.1973 8.8125 44.1973C6.2775 44.1973 6.285 42.6973 3.75 42.6973V45.6973C6.2775 45.6973 6.2775 47.1973 8.8125 47.1973C11.3475 47.1973 11.34 45.6973 13.875 45.6973C16.41 45.6973 16.4025 47.1973 18.9375 47.1973C21.4725 47.1973 21.465 45.6973 24 45.6973C26.535 45.6973 26.5275 47.1973 29.0625 47.1973C31.5975 47.1973 31.5975 45.6973 34.125 45.6973C36.6525 45.6973 36.66 47.1973 39.195 47.1973C41.73 47.1973 41.73 45.6973 44.265 45.6973V42.6973C41.73 42.6973 41.73 44.1973 39.195 44.1973C36.66 44.1973 36.6525 42.6973 34.125 42.6973ZM34.125 36.6973C31.59 36.6973 31.59 38.1973 29.0625 38.1973C26.535 38.1973 26.535 36.6973 24 36.6973C21.465 36.6973 21.4725 38.1973 18.9375 38.1973C16.4025 38.1973 16.41 36.6973 13.875 36.6973C11.34 36.6973 11.3475 38.1973 8.8125 38.1973C6.2775 38.1973 6.285 36.6973 3.75 36.6973V39.6973C6.2775 39.6973 6.2775 41.1973 8.8125 41.1973C11.3475 41.1973 11.34 39.6973 13.875 39.6973C16.41 39.6973 16.4025 41.1973 18.9375 41.1973C21.4725 41.1973 21.465 39.6973 24 39.6973C26.535 39.6973 26.5275 41.1973 29.0625 41.1973C31.5975 41.1973 31.5975 39.6973 34.125 39.6973C36.6525 39.6973 36.66 41.1973 39.195 41.1973C41.73 41.1973 41.73 39.6973 44.265 39.6973V36.6973C41.73 36.6973 41.73 38.1973 39.195 38.1973C36.66 38.1973 36.6525 36.6973 34.125 36.6973Z" fill="#58469C"/>
</g>
<defs>
<clipPath id="clip0_3143_40741">
<rect width="48" height="48" fill="white"/>
</clipPath>
</defs>
</svg>
