<svg width="48" height="48" viewBox="0 0 48 48" fill="none" xmlns="http://www.w3.org/2000/svg">
<path d="M31.0264 16.5284C31.0287 14.3357 30.5341 12.171 29.5798 10.1969C28.6255 8.22272 27.2363 6.49047 25.5166 5.13022C23.7968 3.76997 21.7912 2.81708 19.6503 2.34311C17.5095 1.86915 15.2891 1.88643 13.1558 2.39367C11.0226 2.90091 9.03208 3.88491 7.3337 5.27177C5.63532 6.65863 4.27326 8.41229 3.34982 10.401C2.42638 12.3898 1.96557 14.5619 2.002 16.7543C2.03843 18.9467 2.57116 21.1023 3.56016 23.0593C6.13625 28.1208 5.62829 33.0009 5.62829 40.1123H21.9556V32.8557H29.2122V25.5991H32.8405L31.0264 16.5284Z" fill="#58469C"/>
<path d="M45.5389 29.2275H32.8398V32.8558H45.5389V29.2275Z" fill="#58469C"/>
<path d="M40.6266 17.06L35.1875 22.499L37.7531 25.0646L43.1922 19.6256L40.6266 17.06Z" fill="#58469C"/>
<path d="M37.7511 37.012L35.1855 39.5776L40.6246 45.0167L43.1902 42.4511L37.7511 37.012Z" fill="#58469C"/>
<path d="M16.5131 32.8555V27.4131H12.8848V36.4838H21.9555V32.8555H16.5131Z" fill="#58469C"/>
</svg>
