<svg width="24" height="24" viewBox="0 0 24 24" fill="none" xmlns="http://www.w3.org/2000/svg">
<path d="M11.8261 1.71484C10.153 1.71484 8.81445 3.05336 8.81445 4.7265C8.81445 6.02318 10.7804 8.53289 11.8261 9.78775C12.9136 8.53289 14.8378 5.98135 14.8378 4.7265C14.8378 3.05336 13.4992 1.71484 11.8261 1.71484ZM11.8261 6.35781C10.9477 6.35781 10.2366 5.64673 10.2366 4.76833C10.2366 3.88993 10.9477 3.17884 11.8261 3.17884C12.7045 3.17884 13.4156 3.88993 13.4156 4.76833C13.4156 5.64673 12.7045 6.35781 11.8261 6.35781Z" fill="#FAD605"/>
<path d="M12.2852 10.6656V18.4039L16.8863 15.8523V6.06445L14.9204 7.11017C14.0838 8.61599 12.7453 10.1636 12.2852 10.6656Z" fill="white"/>
<path d="M6.76367 16.8984L11.3648 18.5297V13.8449L6.76367 12.8828V16.8984Z" fill="white"/>
<path d="M1.20117 19.1997L5.84414 16.941V13.3438L1.20117 17.4429V19.1997Z" fill="white"/>
<path d="M12.2852 22.6289L16.8863 20.1611V16.8984L12.2852 19.45V22.6289Z" fill="white"/>
<path d="M6.76367 20.1619L11.3648 22.6298V19.5345L6.76367 17.8613V20.1619Z" fill="white"/>
<path d="M1.20117 22.6293L5.84414 20.1614V17.9863L1.20117 20.2451V22.6293Z" fill="white"/>
<path d="M6.76367 6.06445V11.9623L11.3648 12.9243V10.7074C10.9047 10.2055 9.56618 8.65782 8.68778 7.11017L6.76367 6.06445Z" fill="white"/>
<path d="M17.8066 6.02344V20.1615L22.4496 22.6294V8.49132L17.8066 6.02344Z" fill="white"/>
<path d="M1.20117 16.1878L5.84414 12.1304V6.02344L1.20117 8.49132V16.1878Z" fill="white"/>
</svg>
