<svg width="24" height="24" viewBox="0 0 24 24" fill="none" xmlns="http://www.w3.org/2000/svg">
<g clip-path="url(#clip0_292_5685)">
<path d="M22.9603 16.2627L22.7095 17.5522C22.4588 18.3761 21.7065 18.9492 20.8827 18.9492H7.7364C6.69759 18.9492 5.83789 18.0895 5.83789 17.0507V14.5433C5.83789 14.3642 6.017 14.1851 6.1961 14.1851H12.0707C12.2857 14.1851 12.4289 14.3642 12.4289 14.5433V15.2955H20.9185V14.5433C20.9185 14.3642 21.0618 14.1851 21.2767 14.1851C21.814 14.1851 22.2797 14.4358 22.6379 14.8298C22.9603 15.2239 23.0677 15.7612 22.9603 16.2627Z" fill="white"/>
<path d="M8.13193 11.0327H7.02148V13.4685H8.13193V11.0327Z" fill="white"/>
<path d="M10.0291 11.0327H8.88281V13.4685H10.0291V11.0327Z" fill="white"/>
<path d="M12.0718 11.0327H10.7465V13.4685H12.0718C12.2151 13.4685 12.3226 13.5044 12.43 13.5402V11.4267C12.43 11.176 12.2509 11.0327 12.0718 11.0327ZM6.30468 11.0327H6.01811C5.23005 11.0327 4.62109 11.6775 4.62109 12.4297V13.4685C4.62109 13.8984 4.8002 14.2566 5.12259 14.5432C5.12259 13.9342 5.58826 13.4685 6.19721 13.4685H6.3405V11.0327H6.30468Z" fill="white"/>
<path d="M14.9379 21.6359L14.7588 23.0329C14.723 23.212 14.5797 23.3553 14.4006 23.3553H5.62446C2.61551 23.3553 0.179688 20.9195 0.179688 17.9105V17.409C0.179688 15.009 1.71999 12.9672 3.90506 12.2508C3.90506 12.3941 3.7976 13.8269 4.11999 14.4717C3.04536 15.0807 2.32894 16.2269 2.32894 17.5165V17.8389C2.32894 19.7732 3.90506 21.3135 5.80357 21.3135H14.5439C14.6513 21.3135 14.7588 21.3493 14.8304 21.4568C14.9379 21.421 14.9379 21.5284 14.9379 21.6359ZM20.8483 13.5404C20.4901 13.7195 20.2036 14.0777 20.2036 14.5075V14.5433H13.1469V12.7523C14.0424 12.3941 15.2961 11.9642 16.6931 11.9642C18.2692 11.9642 19.6663 12.5016 20.8483 13.5404ZM17.4454 2.47171C17.4454 2.25678 17.3021 2.1135 17.0872 2.1135C16.8722 2.1135 16.7289 2.25678 16.7289 2.47171V2.82992C16.7289 3.04484 16.8722 3.18813 17.0872 3.18813C17.3021 3.18813 17.4454 3.04484 17.4454 2.82992V2.47171ZM17.4454 1.03887C17.4454 0.823948 17.3021 0.680664 17.0872 0.680664C16.8722 0.680664 16.7289 0.823948 16.7289 1.03887V1.39708C16.7289 1.61201 16.8722 1.75529 17.0872 1.75529C17.3021 1.75529 17.4454 1.61201 17.4454 1.39708V1.03887ZM17.4454 3.90454C17.4454 3.68962 17.3021 3.54634 17.0872 3.54634C16.8722 3.54634 16.7289 3.68962 16.7289 3.90454V4.26275C16.7289 4.47768 16.8722 4.62096 17.0872 4.62096C17.3021 4.62096 17.4454 4.47768 17.4454 4.26275V3.90454ZM17.4454 8.20305C17.4454 7.98813 17.3021 7.84484 17.0872 7.84484C16.8722 7.84484 16.7289 7.98813 16.7289 8.20305V8.56126C16.7289 8.77619 16.8722 8.91947 17.0872 8.91947C17.3021 8.91947 17.4454 8.77619 17.4454 8.56126V8.20305ZM17.4454 6.77022C17.4454 6.55529 17.3021 6.41201 17.0872 6.41201C16.8722 6.41201 16.7289 6.55529 16.7289 6.77022V7.12843C16.7289 7.34335 16.8722 7.48663 17.0872 7.48663C17.3021 7.48663 17.4454 7.34335 17.4454 7.12843V6.77022ZM17.0872 9.27768C16.8722 9.27768 16.7289 9.42096 16.7289 9.63589V9.85081C16.7289 10.0657 16.8722 10.209 17.0872 10.209C17.3021 10.209 17.4454 10.0657 17.4454 9.85081V9.63589C17.4454 9.42096 17.2663 9.27768 17.0872 9.27768ZM17.4454 5.33738C17.4454 5.12246 17.3021 4.97917 17.0872 4.97917C16.8722 4.97917 16.7289 5.12246 16.7289 5.33738V5.69559C16.7289 5.91051 16.8722 6.0538 17.0872 6.0538C17.3021 6.0538 17.4454 5.91051 17.4454 5.69559V5.33738ZM13.2901 8.20305C13.3976 8.38216 13.6125 8.4538 13.7916 8.34634C13.9707 8.23887 14.0424 8.02395 13.9349 7.84484L13.72 7.52246C13.6125 7.34335 13.3976 7.27171 13.2185 7.37917C13.0394 7.48663 12.9677 7.70156 13.0752 7.88066L13.2901 8.20305ZM13.9707 9.45678C14.0782 9.63589 14.2931 9.70753 14.4722 9.60007C14.6513 9.4926 14.723 9.27768 14.6155 9.09857L14.4364 8.77619C14.3289 8.59708 14.114 8.52544 13.9349 8.6329C13.7558 8.74037 13.6842 8.95529 13.7916 9.1344L13.9707 9.45678ZM12.6095 6.94932C12.717 7.12843 12.9319 7.20007 13.111 7.0926C13.2901 6.98514 13.3618 6.77022 13.2543 6.59111L13.0752 6.26872C12.9677 6.08962 12.7528 6.01798 12.5737 6.12544C12.3946 6.2329 12.323 6.44783 12.4304 6.62693L12.6095 6.94932ZM11.2483 4.40604C11.3558 4.58514 11.5707 4.65678 11.7498 4.54932C11.9289 4.44186 12.0006 4.22693 11.8931 4.04783L11.714 3.72544C11.6066 3.54634 11.3916 3.47469 11.2125 3.58216C11.0334 3.68962 10.9618 3.90454 11.0692 4.08365L11.2483 4.40604ZM14.6513 10.7105C14.7588 10.8896 14.9737 10.9613 15.1528 10.8538C15.3319 10.7463 15.4036 10.5314 15.2961 10.3523L15.117 10.0299C15.0095 9.85081 14.7946 9.77917 14.6155 9.88663C14.4364 9.9941 14.3648 10.209 14.4722 10.3881L14.6513 10.7105ZM11.1767 2.7941L10.9976 2.50753C10.8901 2.32843 10.6752 2.25678 10.4961 2.36425C10.317 2.47171 10.2454 2.68663 10.3528 2.86574L10.5319 3.18813C10.6394 3.36723 10.8543 3.43887 11.0334 3.33141C11.2125 3.18813 11.2842 2.9732 11.1767 2.7941ZM11.9289 5.65977C12.0364 5.83887 12.2513 5.91052 12.4304 5.80305C12.6095 5.69559 12.6812 5.48066 12.5737 5.30156L12.3588 5.01499C12.2513 4.83589 12.0364 4.76425 11.8573 4.87171C11.6782 4.97917 11.6066 5.1941 11.714 5.3732L11.9289 5.65977ZM20.8842 8.20305L21.0633 7.88066C21.1707 7.70156 21.0991 7.48663 20.92 7.37917C20.7409 7.27171 20.526 7.34335 20.4185 7.52246L20.2394 7.84484C20.1319 8.02395 20.2036 8.23887 20.3827 8.34634C20.5618 8.41798 20.7767 8.38216 20.8842 8.20305ZM21.5648 6.94932L21.7439 6.62693C21.8513 6.44783 21.7797 6.2329 21.6006 6.12544C21.4215 6.01798 21.2066 6.08962 21.0991 6.26872L20.92 6.59111C20.8125 6.77022 20.8842 6.98514 21.0633 7.0926C21.2424 7.16425 21.4573 7.0926 21.5648 6.94932ZM20.2036 9.45678L20.3827 9.1344C20.4901 8.95529 20.4185 8.74037 20.2394 8.6329C20.0603 8.52544 19.8454 8.59708 19.7379 8.77619L19.5588 9.09857C19.4513 9.27768 19.523 9.4926 19.7021 9.60007C19.8812 9.70753 20.0961 9.63589 20.2036 9.45678ZM22.2454 5.65977L22.4245 5.33738C22.5319 5.15828 22.4603 4.94335 22.2812 4.83589C22.1021 4.72843 21.8871 4.80007 21.7797 4.97917L21.6006 5.30156C21.4931 5.48066 21.5648 5.69559 21.7439 5.80305C21.923 5.91052 22.1379 5.83887 22.2454 5.65977ZM23.1409 3.29559C23.32 3.40305 23.5349 3.33141 23.6424 3.15231L23.8215 2.82992C23.9289 2.65081 23.8573 2.43589 23.6782 2.32843C23.4991 2.22096 23.2842 2.2926 23.1767 2.47171L22.9976 2.7941C22.8901 2.9732 22.9618 3.18813 23.1409 3.29559ZM19.0215 10.8538C19.2006 10.9613 19.4155 10.8896 19.523 10.7105L19.7021 10.3881C19.8095 10.209 19.7379 9.9941 19.5588 9.88663C19.3797 9.77917 19.1648 9.85081 19.0573 10.0299L18.8782 10.3881C18.8066 10.5314 18.8782 10.7822 19.0215 10.8538ZM22.926 4.40604L23.1051 4.08365C23.2125 3.90454 23.1409 3.68962 22.9618 3.58216C22.7827 3.47469 22.5677 3.58216 22.4603 3.76126L22.2812 4.08365C22.1737 4.26275 22.2454 4.47768 22.4245 4.58514C22.6036 4.65678 22.8185 4.58514 22.926 4.40604Z" fill="#FAD605"/>
</g>
<defs>
<clipPath id="clip0_292_5685">
<rect width="24" height="24" fill="white"/>
</clipPath>
</defs>
</svg>
