<svg width="24" height="24" viewBox="0 0 24 24" fill="none" xmlns="http://www.w3.org/2000/svg">
<g clip-path="url(#clip0_231_7513)">
<path d="M22.9613 16.2627L22.7105 17.5522C22.4598 18.3761 21.7075 18.9492 20.8836 18.9492H7.73738C6.69857 18.9492 5.83887 18.0895 5.83887 17.0507V14.5433C5.83887 14.3642 6.01797 14.1851 6.19708 14.1851H12.0717C12.2866 14.1851 12.4299 14.3642 12.4299 14.5433V15.2955H20.9195V14.5433C20.9195 14.3642 21.0627 14.1851 21.2777 14.1851C21.815 14.1851 22.2807 14.4358 22.6389 14.8298C22.9613 15.2239 23.0687 15.7612 22.9613 16.2627Z" fill="#25185A"/>
<path d="M8.13096 11.0328H7.02051V13.4687H8.13096V11.0328Z" fill="#25185A"/>
<path d="M10.0301 11.0328H8.88379V13.4687H10.0301V11.0328Z" fill="#25185A"/>
<path d="M12.0718 11.0328H10.7465V13.4687H12.0718C12.2151 13.4687 12.3226 13.5045 12.43 13.5403V11.4269C12.43 11.1761 12.2509 11.0328 12.0718 11.0328ZM6.30468 11.0328H6.01811C5.23005 11.0328 4.62109 11.6776 4.62109 12.4299V13.4687C4.62109 13.8985 4.8002 14.2567 5.12259 14.5433C5.12259 13.9343 5.58826 13.4687 6.19721 13.4687H6.3405V11.0328H6.30468Z" fill="#25185A"/>
<path d="M14.9369 21.6358L14.7578 23.0328C14.722 23.2119 14.5787 23.3552 14.3996 23.3552H5.62349C2.61453 23.3552 0.178711 20.9193 0.178711 17.9104V17.4089C0.178711 15.0089 1.71901 12.9671 3.90408 12.2507C3.90408 12.394 3.79662 13.8268 4.11901 14.4716C3.04438 15.0805 2.32796 16.2268 2.32796 17.5164V17.8388C2.32796 19.7731 3.90408 21.3134 5.80259 21.3134H14.5429C14.6504 21.3134 14.7578 21.3492 14.8295 21.4567C14.9369 21.4208 14.9369 21.5283 14.9369 21.6358ZM20.8474 13.5402C20.4892 13.7193 20.2026 14.0776 20.2026 14.5074V14.5432H13.1459V12.7522C14.0414 12.394 15.2951 11.9641 16.6921 11.9641C18.2683 11.9641 19.6653 12.5014 20.8474 13.5402ZM17.4444 2.47159C17.4444 2.25666 17.3011 2.11338 17.0862 2.11338C16.8712 2.11338 16.728 2.25666 16.728 2.47159V2.8298C16.728 3.04472 16.8712 3.188 17.0862 3.188C17.3011 3.188 17.4444 3.04472 17.4444 2.8298V2.47159ZM17.4444 1.03875C17.4444 0.823826 17.3011 0.680542 17.0862 0.680542C16.8712 0.680542 16.728 0.823826 16.728 1.03875V1.39696C16.728 1.61189 16.8712 1.75517 17.0862 1.75517C17.3011 1.75517 17.4444 1.61189 17.4444 1.39696V1.03875ZM17.4444 3.90442C17.4444 3.6895 17.3011 3.54621 17.0862 3.54621C16.8712 3.54621 16.728 3.6895 16.728 3.90442V4.26263C16.728 4.47756 16.8712 4.62084 17.0862 4.62084C17.3011 4.62084 17.4444 4.47756 17.4444 4.26263V3.90442ZM17.4444 8.20293C17.4444 7.988 17.3011 7.84472 17.0862 7.84472C16.8712 7.84472 16.728 7.988 16.728 8.20293V8.56114C16.728 8.77606 16.8712 8.91935 17.0862 8.91935C17.3011 8.91935 17.4444 8.77606 17.4444 8.56114V8.20293ZM17.4444 6.77009C17.4444 6.55517 17.3011 6.41189 17.0862 6.41189C16.8712 6.41189 16.728 6.55517 16.728 6.77009V7.1283C16.728 7.34323 16.8712 7.48651 17.0862 7.48651C17.3011 7.48651 17.4444 7.34323 17.4444 7.1283V6.77009ZM17.0862 9.27756C16.8712 9.27756 16.728 9.42084 16.728 9.63577V9.85069C16.728 10.0656 16.8712 10.2089 17.0862 10.2089C17.3011 10.2089 17.4444 10.0656 17.4444 9.85069V9.63577C17.4444 9.42084 17.2653 9.27756 17.0862 9.27756ZM17.4444 5.33726C17.4444 5.12233 17.3011 4.97905 17.0862 4.97905C16.8712 4.97905 16.728 5.12233 16.728 5.33726V5.69547C16.728 5.91039 16.8712 6.05368 17.0862 6.05368C17.3011 6.05368 17.4444 5.91039 17.4444 5.69547V5.33726ZM13.2892 8.20293C13.3966 8.38203 13.6115 8.45368 13.7907 8.34621C13.9698 8.23875 14.0414 8.02383 13.9339 7.84472L13.719 7.52233C13.6115 7.34323 13.3966 7.27159 13.2175 7.37905C13.0384 7.48651 12.9668 7.70144 13.0742 7.88054L13.2892 8.20293ZM13.9698 9.45666C14.0772 9.63577 14.2921 9.70741 14.4712 9.59995C14.6504 9.49248 14.722 9.27756 14.6145 9.09845L14.4354 8.77606C14.328 8.59696 14.113 8.52532 13.9339 8.63278C13.7548 8.74024 13.6832 8.95517 13.7907 9.13427L13.9698 9.45666ZM12.6086 6.9492C12.716 7.1283 12.9309 7.19994 13.1101 7.09248C13.2892 6.98502 13.3608 6.77009 13.2533 6.59099L13.0742 6.2686C12.9668 6.0895 12.7518 6.01786 12.5727 6.12532C12.3936 6.23278 12.322 6.44771 12.4295 6.62681L12.6086 6.9492ZM11.2474 4.40592C11.3548 4.58502 11.5698 4.65666 11.7489 4.5492C11.928 4.44174 11.9996 4.22681 11.8921 4.04771L11.713 3.72532C11.6056 3.54621 11.3907 3.47457 11.2115 3.58203C11.0324 3.6895 10.9608 3.90442 11.0683 4.08353L11.2474 4.40592ZM14.6504 10.7104C14.7578 10.8895 14.9727 10.9611 15.1518 10.8537C15.3309 10.7462 15.4026 10.5313 15.2951 10.3522L15.116 10.0298C15.0086 9.85069 14.7936 9.77905 14.6145 9.88651C14.4354 9.99397 14.3638 10.2089 14.4712 10.388L14.6504 10.7104ZM11.1757 2.79397L10.9966 2.50741C10.8892 2.3283 10.6742 2.25666 10.4951 2.36412C10.316 2.47159 10.2444 2.68651 10.3518 2.86562L10.5309 3.188C10.6384 3.36711 10.8533 3.43875 11.0324 3.33129C11.2115 3.188 11.2832 2.97308 11.1757 2.79397ZM11.928 5.65965C12.0354 5.83875 12.2504 5.91039 12.4295 5.80293C12.6086 5.69547 12.6802 5.48054 12.5727 5.30144L12.3578 5.01487C12.2504 4.83577 12.0354 4.76412 11.8563 4.87159C11.6772 4.97905 11.6056 5.19397 11.713 5.37308L11.928 5.65965ZM20.8832 8.20293L21.0623 7.88054C21.1698 7.70144 21.0981 7.48651 20.919 7.37905C20.7399 7.27159 20.525 7.34323 20.4175 7.52233L20.2384 7.84472C20.1309 8.02383 20.2026 8.23875 20.3817 8.34621C20.5608 8.41786 20.7757 8.38203 20.8832 8.20293ZM21.5638 6.9492L21.7429 6.62681C21.8504 6.44771 21.7787 6.23278 21.5996 6.12532C21.4205 6.01786 21.2056 6.0895 21.0981 6.2686L20.919 6.59099C20.8115 6.77009 20.8832 6.98502 21.0623 7.09248C21.2414 7.16412 21.4563 7.09248 21.5638 6.9492ZM20.2026 9.45666L20.3817 9.13427C20.4892 8.95517 20.4175 8.74024 20.2384 8.63278C20.0593 8.52532 19.8444 8.59696 19.7369 8.77606L19.5578 9.09845C19.4504 9.27756 19.522 9.49248 19.7011 9.59995C19.8802 9.70741 20.0951 9.63577 20.2026 9.45666ZM22.2444 5.65965L22.4235 5.33726C22.5309 5.15815 22.4593 4.94323 22.2802 4.83577C22.1011 4.7283 21.8862 4.79994 21.7787 4.97905L21.5996 5.30144C21.4921 5.48054 21.5638 5.69547 21.7429 5.80293C21.922 5.91039 22.1369 5.83875 22.2444 5.65965ZM23.1399 3.29547C23.319 3.40293 23.5339 3.33129 23.6414 3.15218L23.8205 2.8298C23.928 2.65069 23.8563 2.43577 23.6772 2.3283C23.4981 2.22084 23.2832 2.29248 23.1757 2.47159L22.9966 2.79397C22.8892 2.97308 22.9608 3.188 23.1399 3.29547ZM19.0205 10.8537C19.1996 10.9611 19.4145 10.8895 19.522 10.7104L19.7011 10.388C19.8086 10.2089 19.7369 9.99397 19.5578 9.88651C19.3787 9.77905 19.1638 9.85069 19.0563 10.0298L18.8772 10.388C18.8056 10.5313 18.8772 10.782 19.0205 10.8537ZM22.925 4.40592L23.1041 4.08353C23.2115 3.90442 23.1399 3.6895 22.9608 3.58203C22.7817 3.47457 22.5668 3.58203 22.4593 3.76114L22.2802 4.08353C22.1727 4.26263 22.2444 4.47756 22.4235 4.58502C22.6026 4.65666 22.8175 4.58502 22.925 4.40592Z" fill="#D7B403"/>
</g>
<defs>
<clipPath id="clip0_231_7513">
<rect width="24" height="24" fill="white"/>
</clipPath>
</defs>
</svg>
