<svg width="28" height="28" viewBox="0 0 28 28" fill="none" xmlns="http://www.w3.org/2000/svg">
<path d="M24.0661 19.0927C22.1384 21.1604 19.3653 22.205 15.8222 22.205C15.6876 22.205 15.553 22.205 15.4184 22.1996C14.7022 23.1743 14.0238 24.2243 13.4638 25.3119C13.3668 25.5004 13.1784 25.6081 12.9845 25.6081C12.9038 25.6081 12.8176 25.5866 12.7422 25.5489C12.473 25.4143 12.3707 25.0858 12.5053 24.8219C12.8068 24.2296 13.1407 23.6535 13.4961 23.0989C13.5391 22.1619 13.3938 21.2089 13.1245 20.2612C8.84914 19.6796 5.63991 17.9296 3.59914 15.065C-0.0731654 9.92271 1.32145 3.10579 1.38068 2.82041C1.43991 2.54579 1.69837 2.3681 1.97837 2.39502C7.30376 3.08425 11.0353 5.09271 13.0761 8.37733C16.0161 13.105 14.4276 18.8127 14.1153 19.8089V19.8143C14.2984 20.4066 14.433 21.015 14.5084 21.6181C14.5353 21.575 14.5676 21.5373 14.5999 21.4943C14.5461 20.5412 14.5138 16.7019 17.163 13.7027C19.193 11.3981 22.2891 10.1812 26.3653 10.0843C26.6507 10.0789 26.893 10.2996 26.9145 10.585C26.9253 10.795 27.2376 15.6896 24.0661 19.0927Z" fill="#3FBC43"/>
</svg>
