<svg width="568" height="244" viewBox="0 0 568 244" fill="none" xmlns="http://www.w3.org/2000/svg">
<g filter="url(#filter0_d_320_14)">
<path d="M125.759 215.974C71.7684 215.974 28 173.157 28 120.339C28 85.7477 46.7737 55.4456 74.8973 38.6518C75.7372 38.1503 76.8218 38.4799 77.2571 39.356L86.7326 58.4272C87.1568 59.2812 86.8026 60.3267 85.9698 60.7911C79.1705 64.5829 52.067 82.0656 50.9522 120.339C49.7885 160.293 84.2179 195.572 125.759 194.722C150.325 194.219 167.215 181.367 171.73 177.522C172.424 176.931 173.46 176.939 174.121 177.566L188.128 190.855C188.867 191.556 188.829 192.745 188.038 193.385C171.328 206.921 152.18 215.974 125.759 215.974Z" fill="#65FEFE" shape-rendering="crispEdges"/>
<path d="M27.1499 120.339C27.1499 173.644 71.3166 216.824 125.759 216.824C152.409 216.824 171.741 207.68 188.573 194.046C189.769 193.077 189.819 191.287 188.713 190.238L174.706 176.949C173.717 176.011 172.19 176.014 171.179 176.875C166.728 180.665 150.024 193.374 125.742 193.872C84.6825 194.712 50.6525 159.828 51.8019 120.364C52.9036 82.5422 79.6773 65.2737 86.3838 61.5335C87.5907 60.8605 88.1312 59.3317 87.4938 58.049L78.0183 38.9778C77.3671 37.667 75.7352 37.1614 74.4615 37.922C46.0969 54.8596 27.1499 85.4303 27.1499 120.339Z" stroke="#1B39C2" stroke-opacity="0.8" stroke-width="1.70016" shape-rendering="crispEdges"/>
</g>
<g filter="url(#filter1_d_320_14)">
<path d="M81.5448 36.2756C81.093 36.4526 80.8719 36.9762 81.0714 37.4185L90.1381 57.5228C90.3285 57.9451 90.822 58.1372 91.2478 57.9547L104.173 52.4155C104.733 52.1751 105.357 52.5866 105.357 53.1969V129.265C105.357 129.735 105.738 130.115 106.208 130.115H137.661C143.888 130.115 147.172 128.431 152.008 124.794C152.573 124.369 153.387 124.767 153.387 125.474V156.767C153.387 156.85 153.374 156.935 153.35 157.015C152.382 160.115 151.065 160.899 147.862 161.143H107.058C106.588 161.143 106.208 161.524 106.208 161.993V179.845C106.208 180.315 106.588 180.695 107.058 180.695H149.035C149.103 180.695 149.171 180.687 149.237 180.671C163.182 177.267 168.24 171.02 174.106 160.487C174.176 160.361 174.214 160.217 174.214 160.073V77.4101C174.214 76.9407 173.834 76.5601 173.364 76.5601H154.257C153.78 76.5601 153.397 76.9634 153.405 77.4405C153.816 100.512 148.977 109.293 129.806 114.529C129.27 114.675 128.735 114.271 128.735 113.715V51.5585C128.735 51.0604 129.166 50.6693 129.662 50.7143C145.698 52.1707 154.48 55.2316 168.388 64.5927C168.784 64.8593 169.327 64.7537 169.586 64.3527L181.805 45.4333C182.069 45.0247 181.926 44.4721 181.503 44.2305C142.817 22.1004 120.64 20.9533 81.5448 36.2756Z" fill="#FEFE3A"/>
</g>
<g filter="url(#filter2_d_320_14)">
<mask id="path-4-outside-1_320_14" maskUnits="userSpaceOnUse" x="222.969" y="45.5057" width="214" height="58" fill="black">
<rect fill="white" x="222.969" y="45.5057" width="214" height="58"/>
<path d="M224.883 100.506V48.7854H246.45C250.322 48.7854 253.563 49.3325 256.173 50.4269C258.799 51.5212 260.769 53.0533 262.082 55.0231C263.412 56.9929 264.077 59.2742 264.077 61.867C264.077 63.8368 263.665 65.5962 262.84 67.1451C262.015 68.6772 260.879 69.9483 259.431 70.9585C257.983 71.9686 256.308 72.6757 254.405 73.0798V73.5849C256.493 73.6859 258.42 74.2499 260.188 75.2769C261.973 76.3039 263.404 77.735 264.481 79.5701C265.559 81.3884 266.098 83.5434 266.098 86.0351C266.098 88.8131 265.391 91.2964 263.976 93.4851C262.562 95.6569 260.517 97.3742 257.84 98.6369C255.163 99.8828 251.913 100.506 248.092 100.506H224.883ZM237.384 90.4293H245.112C247.822 90.4293 249.817 89.9158 251.097 88.8888C252.393 87.8618 253.041 86.4308 253.041 84.5956C253.041 83.2656 252.73 82.1208 252.107 81.1611C251.484 80.1846 250.6 79.4354 249.455 78.9135C248.31 78.3747 246.938 78.1054 245.339 78.1054H237.384V90.4293ZM237.384 70.0493H244.303C245.667 70.0493 246.879 69.822 247.94 69.3674C249.001 68.9129 249.826 68.2563 250.415 67.3976C251.021 66.539 251.324 65.5036 251.324 64.2914C251.324 62.5573 250.71 61.1935 249.481 60.2002C248.252 59.2069 246.593 58.7102 244.505 58.7102H237.384V70.0493ZM272.108 100.506V48.7854H293.675C297.547 48.7854 300.788 49.3325 303.398 50.4269C306.024 51.5212 307.994 53.0533 309.307 55.0231C310.637 56.9929 311.303 59.2742 311.303 61.867C311.303 63.8368 310.89 65.5962 310.065 67.1451C309.24 68.6772 308.104 69.9483 306.656 70.9585C305.208 71.9686 303.533 72.6757 301.63 73.0798V73.5849C303.718 73.6859 305.646 74.2499 307.413 75.2769C309.198 76.3039 310.629 77.735 311.707 79.5701C312.784 81.3884 313.323 83.5434 313.323 86.0351C313.323 88.8131 312.616 91.2964 311.201 93.4851C309.787 95.6569 307.742 97.3742 305.065 98.6369C302.388 99.8828 299.138 100.506 295.317 100.506H272.108ZM284.609 90.4293H292.337C295.047 90.4293 297.042 89.9158 298.322 88.8888C299.618 87.8618 300.266 86.4308 300.266 84.5956C300.266 83.2656 299.955 82.1208 299.332 81.1611C298.709 80.1846 297.825 79.4354 296.68 78.9135C295.536 78.3747 294.163 78.1054 292.564 78.1054H284.609V90.4293ZM284.609 70.0493H291.529C292.892 70.0493 294.104 69.822 295.165 69.3674C296.226 68.9129 297.051 68.2563 297.64 67.3976C298.246 66.539 298.549 65.5036 298.549 64.2914C298.549 62.5573 297.935 61.1935 296.706 60.2002C295.477 59.2069 293.818 58.7102 291.731 58.7102H284.609V70.0493ZM331.733 100.506L316.682 48.7854H330.496L338.299 82.6763H338.728L347.643 48.7854H358.906L367.821 82.7521H368.25L376.079 48.7854H389.868L374.842 100.506H362.796L353.477 69.1402H353.073L343.754 100.506H331.733ZM422.364 64.2914C422.195 62.4394 421.446 60.9999 420.116 59.9729C418.803 58.9291 416.926 58.4072 414.484 58.4072C412.868 58.4072 411.521 58.6176 410.444 59.0385C409.366 59.4594 408.558 60.0403 408.019 60.7811C407.481 61.505 407.203 62.3384 407.186 63.2812C407.152 64.0557 407.304 64.7375 407.64 65.3268C407.994 65.9161 408.499 66.438 409.156 66.8925C409.829 67.3303 410.637 67.7175 411.58 68.0542C412.523 68.391 413.584 68.6856 414.762 68.9381L419.207 69.9483C421.766 70.5039 424.022 71.2447 425.975 72.1706C427.945 73.0966 429.595 74.1994 430.925 75.4789C432.272 76.7585 433.29 78.2316 433.98 79.8984C434.671 81.5652 435.024 83.434 435.041 85.5048C435.024 88.771 434.199 91.5742 432.566 93.9144C430.933 96.2546 428.585 98.0477 425.52 99.2935C422.473 100.539 418.794 101.162 414.484 101.162C410.157 101.162 406.386 100.514 403.17 99.2178C399.955 97.9214 397.455 95.9516 395.67 93.3083C393.885 90.665 392.968 87.3231 392.917 83.2824H404.888C404.989 84.9492 405.435 86.3382 406.226 87.4494C407.018 88.5605 408.103 89.4023 409.484 89.9748C410.881 90.5472 412.498 90.8334 414.333 90.8334C416.016 90.8334 417.447 90.6061 418.626 90.1515C419.821 89.697 420.739 89.0656 421.379 88.2575C422.018 87.4494 422.347 86.5234 422.364 85.4795C422.347 84.5031 422.044 83.6697 421.454 82.9794C420.865 82.2723 419.956 81.6662 418.727 81.1611C417.515 80.6392 415.966 80.1594 414.08 79.7216L408.676 78.4589C404.197 77.4319 400.67 75.7736 398.094 73.4839C395.519 71.1773 394.239 68.0627 394.256 64.1399C394.239 60.941 395.098 58.1378 396.832 55.7302C398.566 53.3227 400.965 51.4455 404.029 50.0986C407.093 48.7517 410.587 48.0783 414.51 48.0783C418.517 48.0783 421.993 48.7601 424.94 50.1238C427.903 51.4707 430.201 53.3648 431.834 55.806C433.467 58.2472 434.3 61.0757 434.334 64.2914H422.364Z"/>
</mask>
<path d="M224.883 100.506V48.7854H246.45C250.322 48.7854 253.563 49.3325 256.173 50.4269C258.799 51.5212 260.769 53.0533 262.082 55.0231C263.412 56.9929 264.077 59.2742 264.077 61.867C264.077 63.8368 263.665 65.5962 262.84 67.1451C262.015 68.6772 260.879 69.9483 259.431 70.9585C257.983 71.9686 256.308 72.6757 254.405 73.0798V73.5849C256.493 73.6859 258.42 74.2499 260.188 75.2769C261.973 76.3039 263.404 77.735 264.481 79.5701C265.559 81.3884 266.098 83.5434 266.098 86.0351C266.098 88.8131 265.391 91.2964 263.976 93.4851C262.562 95.6569 260.517 97.3742 257.84 98.6369C255.163 99.8828 251.913 100.506 248.092 100.506H224.883ZM237.384 90.4293H245.112C247.822 90.4293 249.817 89.9158 251.097 88.8888C252.393 87.8618 253.041 86.4308 253.041 84.5956C253.041 83.2656 252.73 82.1208 252.107 81.1611C251.484 80.1846 250.6 79.4354 249.455 78.9135C248.31 78.3747 246.938 78.1054 245.339 78.1054H237.384V90.4293ZM237.384 70.0493H244.303C245.667 70.0493 246.879 69.822 247.94 69.3674C249.001 68.9129 249.826 68.2563 250.415 67.3976C251.021 66.539 251.324 65.5036 251.324 64.2914C251.324 62.5573 250.71 61.1935 249.481 60.2002C248.252 59.2069 246.593 58.7102 244.505 58.7102H237.384V70.0493ZM272.108 100.506V48.7854H293.675C297.547 48.7854 300.788 49.3325 303.398 50.4269C306.024 51.5212 307.994 53.0533 309.307 55.0231C310.637 56.9929 311.303 59.2742 311.303 61.867C311.303 63.8368 310.89 65.5962 310.065 67.1451C309.24 68.6772 308.104 69.9483 306.656 70.9585C305.208 71.9686 303.533 72.6757 301.63 73.0798V73.5849C303.718 73.6859 305.646 74.2499 307.413 75.2769C309.198 76.3039 310.629 77.735 311.707 79.5701C312.784 81.3884 313.323 83.5434 313.323 86.0351C313.323 88.8131 312.616 91.2964 311.201 93.4851C309.787 95.6569 307.742 97.3742 305.065 98.6369C302.388 99.8828 299.138 100.506 295.317 100.506H272.108ZM284.609 90.4293H292.337C295.047 90.4293 297.042 89.9158 298.322 88.8888C299.618 87.8618 300.266 86.4308 300.266 84.5956C300.266 83.2656 299.955 82.1208 299.332 81.1611C298.709 80.1846 297.825 79.4354 296.68 78.9135C295.536 78.3747 294.163 78.1054 292.564 78.1054H284.609V90.4293ZM284.609 70.0493H291.529C292.892 70.0493 294.104 69.822 295.165 69.3674C296.226 68.9129 297.051 68.2563 297.64 67.3976C298.246 66.539 298.549 65.5036 298.549 64.2914C298.549 62.5573 297.935 61.1935 296.706 60.2002C295.477 59.2069 293.818 58.7102 291.731 58.7102H284.609V70.0493ZM331.733 100.506L316.682 48.7854H330.496L338.299 82.6763H338.728L347.643 48.7854H358.906L367.821 82.7521H368.25L376.079 48.7854H389.868L374.842 100.506H362.796L353.477 69.1402H353.073L343.754 100.506H331.733ZM422.364 64.2914C422.195 62.4394 421.446 60.9999 420.116 59.9729C418.803 58.9291 416.926 58.4072 414.484 58.4072C412.868 58.4072 411.521 58.6176 410.444 59.0385C409.366 59.4594 408.558 60.0403 408.019 60.7811C407.481 61.505 407.203 62.3384 407.186 63.2812C407.152 64.0557 407.304 64.7375 407.64 65.3268C407.994 65.9161 408.499 66.438 409.156 66.8925C409.829 67.3303 410.637 67.7175 411.58 68.0542C412.523 68.391 413.584 68.6856 414.762 68.9381L419.207 69.9483C421.766 70.5039 424.022 71.2447 425.975 72.1706C427.945 73.0966 429.595 74.1994 430.925 75.4789C432.272 76.7585 433.29 78.2316 433.98 79.8984C434.671 81.5652 435.024 83.434 435.041 85.5048C435.024 88.771 434.199 91.5742 432.566 93.9144C430.933 96.2546 428.585 98.0477 425.52 99.2935C422.473 100.539 418.794 101.162 414.484 101.162C410.157 101.162 406.386 100.514 403.17 99.2178C399.955 97.9214 397.455 95.9516 395.67 93.3083C393.885 90.665 392.968 87.3231 392.917 83.2824H404.888C404.989 84.9492 405.435 86.3382 406.226 87.4494C407.018 88.5605 408.103 89.4023 409.484 89.9748C410.881 90.5472 412.498 90.8334 414.333 90.8334C416.016 90.8334 417.447 90.6061 418.626 90.1515C419.821 89.697 420.739 89.0656 421.379 88.2575C422.018 87.4494 422.347 86.5234 422.364 85.4795C422.347 84.5031 422.044 83.6697 421.454 82.9794C420.865 82.2723 419.956 81.6662 418.727 81.1611C417.515 80.6392 415.966 80.1594 414.08 79.7216L408.676 78.4589C404.197 77.4319 400.67 75.7736 398.094 73.4839C395.519 71.1773 394.239 68.0627 394.256 64.1399C394.239 60.941 395.098 58.1378 396.832 55.7302C398.566 53.3227 400.965 51.4455 404.029 50.0986C407.093 48.7517 410.587 48.0783 414.51 48.0783C418.517 48.0783 421.993 48.7601 424.94 50.1238C427.903 51.4707 430.201 53.3648 431.834 55.806C433.467 58.2472 434.3 61.0757 434.334 64.2914H422.364Z" fill="#65FEFE" shape-rendering="crispEdges"/>
<path d="M224.883 100.506H223.183V102.206H224.883V100.506ZM224.883 48.7854V47.0852H223.183V48.7854H224.883ZM256.173 50.4269L255.515 51.9948L255.519 51.9963L256.173 50.4269ZM262.082 55.0231L260.668 55.9662L260.673 55.9745L262.082 55.0231ZM262.84 67.1451L264.337 67.9511L264.341 67.9443L262.84 67.1451ZM259.431 70.9585L258.458 69.5641L258.458 69.5641L259.431 70.9585ZM254.405 73.0798L254.052 71.4167L252.705 71.7028V73.0798H254.405ZM254.405 73.5849H252.705V75.2048L254.323 75.2831L254.405 73.5849ZM260.188 75.2769L259.334 76.747L259.34 76.7505L260.188 75.2769ZM264.481 79.5701L263.015 80.4309L263.019 80.4368L264.481 79.5701ZM263.976 93.4851L265.401 94.4128L265.404 94.4078L263.976 93.4851ZM257.84 98.6369L258.557 100.178L258.565 100.175L257.84 98.6369ZM237.384 90.4293H235.684V92.1295H237.384V90.4293ZM251.097 88.8888L250.041 87.5562L250.033 87.5629L251.097 88.8888ZM252.107 81.1611L250.674 82.0755L250.681 82.0868L252.107 81.1611ZM249.455 78.9135L248.731 80.4518L248.741 80.4562L248.75 80.4605L249.455 78.9135ZM237.384 78.1054V76.4052H235.684V78.1054H237.384ZM237.384 70.0493H235.684V71.7495H237.384V70.0493ZM250.415 67.3976L249.026 66.4172L249.019 66.4263L249.013 66.4356L250.415 67.3976ZM249.481 60.2002L250.549 58.8779L250.549 58.8779L249.481 60.2002ZM237.384 58.7102V57.0101H235.684V58.7102H237.384ZM226.583 100.506V48.7854H223.183V100.506H226.583ZM224.883 50.4855H246.45V47.0852H224.883V50.4855ZM246.45 50.4855C250.175 50.4855 253.176 51.0135 255.515 51.9948L256.83 48.859C253.951 47.6516 250.47 47.0852 246.45 47.0852V50.4855ZM255.519 51.9963C257.899 52.988 259.575 54.3278 260.668 55.9662L263.497 54.08C261.963 51.7788 259.7 50.0545 256.827 48.8575L255.519 51.9963ZM260.673 55.9745C261.796 57.6378 262.377 59.5811 262.377 61.867H265.778C265.778 58.9674 265.028 56.3481 263.491 54.0717L260.673 55.9745ZM262.377 61.867C262.377 63.5927 262.018 65.0718 261.339 66.3459L264.341 67.9443C265.312 66.1205 265.778 64.0809 265.778 61.867H262.377ZM261.343 66.339C260.646 67.6332 259.691 68.704 258.458 69.5641L260.403 72.3528C262.066 71.1926 263.384 69.7212 264.337 67.9511L261.343 66.339ZM258.458 69.5641C257.215 70.4315 255.755 71.0551 254.052 71.4167L254.758 74.7429C256.86 74.2964 258.751 73.5057 260.403 72.3528L258.458 69.5641ZM252.705 73.0798V73.5849H256.105V73.0798H252.705ZM254.323 75.2831C256.145 75.3712 257.807 75.8598 259.334 76.747L261.042 73.8068C259.034 72.64 256.84 72.0006 254.487 71.8867L254.323 75.2831ZM259.34 76.7505C260.86 77.6253 262.082 78.8413 263.015 80.4309L265.948 78.7092C264.726 76.6286 263.085 74.9825 261.036 73.8033L259.34 76.7505ZM263.019 80.4368C263.915 81.9491 264.398 83.7933 264.398 86.0351H267.798C267.798 83.2935 267.203 80.8276 265.944 78.7033L263.019 80.4368ZM264.398 86.0351C264.398 88.5084 263.773 90.6671 262.548 92.5624L265.404 94.4078C267.008 91.9257 267.798 89.1178 267.798 86.0351H264.398ZM262.552 92.5573C261.333 94.4291 259.547 95.9515 257.114 97.0992L258.565 100.175C261.486 98.7969 263.791 96.8848 265.401 94.4128L262.552 92.5573ZM257.122 97.0955C254.726 98.2108 251.736 98.8055 248.092 98.8055V102.206C252.091 102.206 255.599 101.555 258.557 100.178L257.122 97.0955ZM248.092 98.8055H224.883V102.206H248.092V98.8055ZM237.384 92.1295H245.112V88.7292H237.384V92.1295ZM245.112 92.1295C247.977 92.1295 250.438 91.5977 252.161 90.2147L250.033 87.5629C249.196 88.234 247.668 88.7292 245.112 88.7292V92.1295ZM252.153 90.2215C253.904 88.8338 254.742 86.8852 254.742 84.5956H251.341C251.341 85.9763 250.882 86.8899 250.041 87.5562L252.153 90.2215ZM254.742 84.5956C254.742 82.9916 254.362 81.5131 253.533 80.2354L250.681 82.0868C251.097 82.7284 251.341 83.5396 251.341 84.5956H254.742ZM253.54 80.2467C252.726 78.9696 251.577 78.0123 250.161 77.3665L248.75 80.4605C249.623 80.8585 250.242 81.3996 250.674 82.0755L253.54 80.2467ZM250.179 77.3751C248.756 76.7055 247.124 76.4052 245.339 76.4052V79.8055C246.752 79.8055 247.865 80.0439 248.731 80.4518L250.179 77.3751ZM245.339 76.4052H237.384V79.8055H245.339V76.4052ZM235.684 78.1054V90.4293H239.084V78.1054H235.684ZM237.384 71.7495H244.303V68.3491H237.384V71.7495ZM244.303 71.7495C245.856 71.7495 247.303 71.4904 248.61 70.9301L247.27 67.8047C246.456 68.1537 245.478 68.3491 244.303 68.3491V71.7495ZM248.61 70.9301C249.933 70.3629 251.026 69.512 251.817 68.3597L249.013 66.4356C248.625 67.0005 248.068 67.4628 247.27 67.8047L248.61 70.9301ZM251.804 68.3781C252.642 67.1903 253.024 65.799 253.024 64.2914H249.624C249.624 65.2081 249.4 65.8877 249.026 66.4172L251.804 68.3781ZM253.024 64.2914C253.024 62.1007 252.22 60.2282 250.549 58.8779L248.412 61.5225C249.199 62.1589 249.624 63.0138 249.624 64.2914H253.024ZM250.549 58.8779C248.933 57.5714 246.857 57.0101 244.505 57.0101V60.4104C246.33 60.4104 247.57 60.8424 248.412 61.5225L250.549 58.8779ZM244.505 57.0101H237.384V60.4104H244.505V57.0101ZM235.684 58.7102V70.0493H239.084V58.7102H235.684ZM272.108 100.506H270.408V102.206H272.108V100.506ZM272.108 48.7854V47.0852H270.408V48.7854H272.108ZM303.398 50.4269L302.74 51.9948L302.744 51.9963L303.398 50.4269ZM309.307 55.0231L307.893 55.9662L307.898 55.9745L309.307 55.0231ZM310.065 67.1451L311.562 67.9511L311.566 67.9443L310.065 67.1451ZM306.656 70.9585L305.683 69.5641L305.683 69.5641L306.656 70.9585ZM301.63 73.0798L301.277 71.4167L299.93 71.7028V73.0798H301.63ZM301.63 73.5849H299.93V75.2048L301.548 75.2831L301.63 73.5849ZM307.413 75.2769L306.559 76.747L306.565 76.7505L307.413 75.2769ZM311.707 79.5701L310.24 80.4309L310.244 80.4368L311.707 79.5701ZM311.201 93.4851L312.626 94.4128L312.629 94.4078L311.201 93.4851ZM305.065 98.6369L305.782 100.178L305.79 100.175L305.065 98.6369ZM284.609 90.4293H282.909V92.1295H284.609V90.4293ZM298.322 88.8888L297.266 87.5562L297.258 87.5629L298.322 88.8888ZM299.332 81.1611L297.899 82.0755L297.906 82.0868L299.332 81.1611ZM296.68 78.9135L295.956 80.4518L295.966 80.4562L295.975 80.4605L296.68 78.9135ZM284.609 78.1054V76.4052H282.909V78.1054H284.609ZM284.609 70.0493H282.909V71.7495H284.609V70.0493ZM297.64 67.3976L296.251 66.4172L296.245 66.4263L296.238 66.4356L297.64 67.3976ZM296.706 60.2002L297.774 58.8779L297.774 58.8779L296.706 60.2002ZM284.609 58.7102V57.0101H282.909V58.7102H284.609ZM273.808 100.506V48.7854H270.408V100.506H273.808ZM272.108 50.4855H293.675V47.0852H272.108V50.4855ZM293.675 50.4855C297.4 50.4855 300.401 51.0135 302.74 51.9948L304.055 48.859C301.176 47.6516 297.695 47.0852 293.675 47.0852V50.4855ZM302.744 51.9963C305.124 52.988 306.801 54.3278 307.893 55.9662L310.722 54.08C309.188 51.7788 306.925 50.0545 304.052 48.8575L302.744 51.9963ZM307.898 55.9745C309.021 57.6378 309.602 59.5811 309.602 61.867H313.003C313.003 58.9674 312.254 56.3481 310.716 54.0717L307.898 55.9745ZM309.602 61.867C309.602 63.5927 309.243 65.0718 308.564 66.3459L311.566 67.9443C312.537 66.1205 313.003 64.0809 313.003 61.867H309.602ZM308.568 66.339C307.871 67.6332 306.916 68.704 305.683 69.5641L307.629 72.3528C309.292 71.1926 310.609 69.7212 311.562 67.9511L308.568 66.339ZM305.683 69.5641C304.44 70.4315 302.98 71.0551 301.277 71.4167L301.983 74.7429C304.086 74.2964 305.976 73.5057 307.629 72.3528L305.683 69.5641ZM299.93 73.0798V73.5849H303.33V73.0798H299.93ZM301.548 75.2831C303.37 75.3712 305.032 75.8598 306.559 76.747L308.267 73.8068C306.259 72.64 304.066 72.0006 301.712 71.8867L301.548 75.2831ZM306.565 76.7505C308.085 77.6253 309.307 78.8413 310.24 80.4309L313.173 78.7092C311.951 76.6286 310.311 74.9825 308.261 73.8033L306.565 76.7505ZM310.244 80.4368C311.14 81.9491 311.623 83.7933 311.623 86.0351H315.023C315.023 83.2935 314.428 80.8276 313.169 78.7033L310.244 80.4368ZM311.623 86.0351C311.623 88.5084 310.998 90.6671 309.773 92.5624L312.629 94.4078C314.233 91.9257 315.023 89.1178 315.023 86.0351H311.623ZM309.777 92.5573C308.558 94.4291 306.773 95.9515 304.339 97.0992L305.79 100.175C308.711 98.7969 311.017 96.8848 312.626 94.4128L309.777 92.5573ZM304.347 97.0955C301.951 98.2108 298.961 98.8055 295.317 98.8055V102.206C299.316 102.206 302.825 101.555 305.782 100.178L304.347 97.0955ZM295.317 98.8055H272.108V102.206H295.317V98.8055ZM284.609 92.1295H292.337V88.7292H284.609V92.1295ZM292.337 92.1295C295.202 92.1295 297.663 91.5977 299.386 90.2147L297.258 87.5629C296.422 88.234 294.893 88.7292 292.337 88.7292V92.1295ZM299.378 90.2215C301.129 88.8338 301.967 86.8852 301.967 84.5956H298.566C298.566 85.9763 298.107 86.8899 297.266 87.5562L299.378 90.2215ZM301.967 84.5956C301.967 82.9916 301.588 81.5131 300.758 80.2354L297.906 82.0868C298.322 82.7284 298.566 83.5396 298.566 84.5956H301.967ZM300.765 80.2467C299.951 78.9696 298.802 78.0123 297.386 77.3665L295.975 80.4605C296.848 80.8585 297.468 81.3996 297.899 82.0755L300.765 80.2467ZM297.404 77.3751C295.981 76.7055 294.35 76.4052 292.564 76.4052V79.8055C293.977 79.8055 295.09 80.0439 295.956 80.4518L297.404 77.3751ZM292.564 76.4052H284.609V79.8055H292.564V76.4052ZM282.909 78.1054V90.4293H286.309V78.1054H282.909ZM284.609 71.7495H291.529V68.3491H284.609V71.7495ZM291.529 71.7495C293.081 71.7495 294.528 71.4904 295.835 70.9301L294.495 67.8047C293.681 68.1537 292.703 68.3491 291.529 68.3491V71.7495ZM295.835 70.9301C297.158 70.3629 298.251 69.512 299.042 68.3597L296.238 66.4356C295.851 67.0005 295.293 67.4628 294.495 67.8047L295.835 70.9301ZM299.029 68.3781C299.867 67.1903 300.249 65.799 300.249 64.2914H296.849C296.849 65.2081 296.625 65.8877 296.251 66.4172L299.029 68.3781ZM300.249 64.2914C300.249 62.1007 299.445 60.2282 297.774 58.8779L295.637 61.5225C296.424 62.1589 296.849 63.0138 296.849 64.2914H300.249ZM297.774 58.8779C296.158 57.5714 294.082 57.0101 291.731 57.0101V60.4104C293.555 60.4104 294.795 60.8424 295.637 61.5225L297.774 58.8779ZM291.731 57.0101H284.609V60.4104H291.731V57.0101ZM282.909 58.7102V70.0493H286.309V58.7102H282.909ZM331.733 100.506L330.101 100.981L330.457 102.206H331.733V100.506ZM316.682 48.7854V47.0852H314.416L315.049 49.2604L316.682 48.7854ZM330.496 48.7854L332.152 48.4039L331.849 47.0852H330.496V48.7854ZM338.299 82.6763L336.642 83.0578L336.946 84.3765H338.299V82.6763ZM338.728 82.6763V84.3765H340.039L340.373 83.1088L338.728 82.6763ZM347.643 48.7854V47.0852H346.332L345.999 48.3529L347.643 48.7854ZM358.906 48.7854L360.551 48.3538L360.218 47.0852H358.906V48.7854ZM367.821 82.7521L366.177 83.1837L366.51 84.4523H367.821V82.7521ZM368.25 82.7521V84.4523H369.603L369.907 83.134L368.25 82.7521ZM376.079 48.7854V47.0852H374.726L374.422 48.4035L376.079 48.7854ZM389.868 48.7854L391.501 49.2597L392.132 47.0852H389.868V48.7854ZM374.842 100.506V102.206H376.118L376.474 100.98L374.842 100.506ZM362.796 100.506L361.166 100.99L361.527 102.206H362.796V100.506ZM353.477 69.1402L355.107 68.656L354.745 67.44H353.477V69.1402ZM353.073 69.1402V67.44H351.804L351.443 68.656L353.073 69.1402ZM343.754 100.506V102.206H345.022L345.384 100.99L343.754 100.506ZM333.365 100.031L318.314 48.3103L315.049 49.2604L330.101 100.981L333.365 100.031ZM316.682 50.4855H330.496V47.0852H316.682V50.4855ZM328.839 49.1669L336.642 83.0578L339.956 82.2949L332.152 48.4039L328.839 49.1669ZM338.299 84.3765H338.728V80.9762H338.299V84.3765ZM340.373 83.1088L349.287 49.2179L345.999 48.3529L337.084 82.2438L340.373 83.1088ZM347.643 50.4855H358.906V47.0852H347.643V50.4855ZM357.262 49.217L366.177 83.1837L369.466 82.3205L360.551 48.3538L357.262 49.217ZM367.821 84.4523H368.25V81.0519H367.821V84.4523ZM369.907 83.134L377.736 49.1672L374.422 48.4035L366.594 82.3703L369.907 83.134ZM376.079 50.4855H389.868V47.0852H376.079V50.4855ZM388.235 48.311L373.209 100.031L376.474 100.98L391.501 49.2597L388.235 48.311ZM374.842 98.8055H362.796V102.206H374.842V98.8055ZM364.425 100.022L355.107 68.656L351.847 69.6244L361.166 100.99L364.425 100.022ZM353.477 67.44H353.073V70.8403H353.477V67.44ZM351.443 68.656L342.124 100.022L345.384 100.99L354.702 69.6244L351.443 68.656ZM343.754 98.8055H331.733V102.206H343.754V98.8055ZM422.364 64.2914L420.67 64.4453L420.811 65.9915H422.364V64.2914ZM420.116 59.9729L419.058 61.3039L419.067 61.3113L419.077 61.3186L420.116 59.9729ZM410.444 59.0385L409.825 57.4549L409.825 57.4549L410.444 59.0385ZM408.019 60.7811L409.383 61.7961L409.389 61.7886L409.394 61.781L408.019 60.7811ZM407.186 63.2812L408.884 63.3551L408.885 63.3333L408.886 63.3116L407.186 63.2812ZM407.64 65.3268L406.164 66.1703L406.173 66.186L406.183 66.2015L407.64 65.3268ZM409.156 66.8925L408.188 68.2904L408.208 68.3045L408.229 68.318L409.156 66.8925ZM411.58 68.0542L412.152 66.4531L412.152 66.4531L411.58 68.0542ZM414.762 68.9381L415.139 67.2802L415.129 67.2779L415.118 67.2757L414.762 68.9381ZM419.207 69.9483L418.83 71.6062L418.838 71.608L418.846 71.6097L419.207 69.9483ZM425.975 72.1706L425.247 73.7069L425.252 73.7093L425.975 72.1706ZM430.925 75.4789L429.746 76.7042L429.754 76.7115L430.925 75.4789ZM433.98 79.8984L432.41 80.5489L432.41 80.5489L433.98 79.8984ZM435.041 85.5048L436.741 85.5136L436.741 85.5023L436.741 85.491L435.041 85.5048ZM432.566 93.9144L431.172 92.9414L431.172 92.9414L432.566 93.9144ZM425.52 99.2935L424.88 97.7186L424.877 97.7198L425.52 99.2935ZM403.17 99.2178L403.806 97.6409L403.806 97.6409L403.17 99.2178ZM392.917 83.2824V81.5823H391.196L391.217 83.3037L392.917 83.2824ZM404.888 83.2824L406.585 83.1796L406.488 81.5823H404.888V83.2824ZM406.226 87.4494L404.841 88.4356L404.841 88.4356L406.226 87.4494ZM409.484 89.9748L408.833 91.5453L408.84 91.548L409.484 89.9748ZM418.626 90.1515L418.022 88.5624L418.014 88.5653L418.626 90.1515ZM421.379 88.2575L420.046 87.2022L420.046 87.2022L421.379 88.2575ZM422.364 85.4795L424.064 85.507L424.064 85.4786L424.064 85.4502L422.364 85.4795ZM421.454 82.9794L420.148 84.0678L420.155 84.0756L420.161 84.0832L421.454 82.9794ZM418.727 81.1611L418.055 82.7227L418.068 82.7283L418.081 82.7336L418.727 81.1611ZM414.08 79.7216L413.693 81.3772L413.696 81.3777L414.08 79.7216ZM408.676 78.4589L409.063 76.8033L409.056 76.8018L408.676 78.4589ZM398.094 73.4839L396.96 74.7505L396.965 74.7546L398.094 73.4839ZM394.256 64.1399L395.956 64.1472L395.956 64.139L395.956 64.1309L394.256 64.1399ZM396.832 55.7302L395.452 54.7366L395.452 54.7366L396.832 55.7302ZM404.029 50.0986L404.713 51.655L404.713 51.655L404.029 50.0986ZM424.94 50.1238L424.225 51.6668L424.236 51.6716L424.94 50.1238ZM431.834 55.806L433.247 54.8607L433.247 54.8607L431.834 55.806ZM434.334 64.2914V65.9915H436.052L436.034 64.2736L434.334 64.2914ZM424.057 64.1374C423.851 61.8703 422.902 59.9758 421.155 58.6272L419.077 61.3186C419.991 62.0241 420.54 63.0085 420.67 64.4453L424.057 64.1374ZM421.174 58.642C419.45 57.2715 417.14 56.707 414.484 56.707V60.1073C416.711 60.1073 418.156 60.5867 419.058 61.3039L421.174 58.642ZM414.484 56.707C412.734 56.707 411.161 56.933 409.825 57.4549L411.062 60.6222C411.881 60.3023 413.002 60.1073 414.484 60.1073V56.707ZM409.825 57.4549C408.524 57.9631 407.419 58.7163 406.644 59.7811L409.394 61.781C409.697 61.3643 410.208 60.9557 411.062 60.6222L409.825 57.4549ZM406.655 59.766C405.895 60.7884 405.509 61.9698 405.486 63.2509L408.886 63.3116C408.897 62.707 409.067 62.2216 409.383 61.7961L406.655 59.766ZM405.487 63.2074C405.442 64.2558 405.647 65.2644 406.164 66.1703L409.117 64.4833C408.961 64.2107 408.863 63.8556 408.884 63.3551L405.487 63.2074ZM406.183 66.2015C406.679 67.029 407.365 67.7204 408.188 68.2904L410.123 65.4947C409.634 65.1555 409.309 64.8031 409.098 64.4521L406.183 66.2015ZM408.229 68.318C409.037 68.843 409.97 69.2845 411.008 69.6553L412.152 66.4531C411.305 66.1505 410.621 65.8175 410.082 65.4671L408.229 68.318ZM411.008 69.6553C412.034 70.0217 413.168 70.3354 414.406 70.6006L415.118 67.2757C413.999 67.0358 413.012 66.7602 412.152 66.4531L411.008 69.6553ZM414.385 70.596L418.83 71.6062L419.584 68.2904L415.139 67.2802L414.385 70.596ZM418.846 71.6097C421.304 72.1434 423.433 72.8468 425.247 73.7069L426.703 70.6344C424.611 69.6425 422.228 68.8644 419.568 68.2868L418.846 71.6097ZM425.252 73.7093C427.083 74.5701 428.571 75.5739 429.746 76.7042L432.103 74.2537C430.618 72.8248 428.807 71.6231 426.698 70.632L425.252 73.7093ZM429.754 76.7115C430.933 77.8322 431.813 79.1086 432.41 80.5489L435.551 79.2479C434.767 77.3546 433.61 75.6848 432.096 74.2463L429.754 76.7115ZM432.41 80.5489C433.005 81.9861 433.326 83.6343 433.341 85.5186L436.741 85.491C436.723 83.2336 436.337 81.1442 435.551 79.2479L432.41 80.5489ZM433.341 85.496C433.326 88.4688 432.58 90.9237 431.172 92.9414L433.96 94.8874C435.819 92.2247 436.723 89.0732 436.741 85.5136L433.341 85.496ZM431.172 92.9414C429.755 94.9717 427.689 96.5762 424.88 97.7186L426.161 100.868C429.48 99.5191 432.111 97.5375 433.96 94.8874L431.172 92.9414ZM424.877 97.7198C422.086 98.8607 418.639 99.4622 414.484 99.4622V102.862C418.95 102.862 422.86 102.218 426.164 100.867L424.877 97.7198ZM414.484 99.4622C410.323 99.4622 406.777 98.8384 403.806 97.6409L402.535 100.795C405.996 102.19 409.992 102.862 414.484 102.862V99.4622ZM403.806 97.6409C400.876 96.4597 398.657 94.6947 397.079 92.357L394.261 94.2597C396.252 97.2084 399.033 99.383 402.535 100.795L403.806 97.6409ZM397.079 92.357C395.524 90.0537 394.665 87.0583 394.617 83.2612L391.217 83.3037C391.271 87.5879 392.247 91.2764 394.261 94.2597L397.079 92.357ZM392.917 84.9826H404.888V81.5823H392.917V84.9826ZM403.191 83.3853C403.307 85.2986 403.828 87.0123 404.841 88.4356L407.611 86.4631C407.042 85.664 406.671 84.5998 406.585 83.1796L403.191 83.3853ZM404.841 88.4356C405.835 89.831 407.187 90.8628 408.833 91.5453L410.135 88.4043C409.02 87.9419 408.2 87.29 407.611 86.4631L404.841 88.4356ZM408.84 91.548C410.48 92.2202 412.323 92.5336 414.333 92.5336V89.1332C412.672 89.1332 411.282 88.8742 410.128 88.4015L408.84 91.548ZM414.333 92.5336C416.16 92.5336 417.811 92.2881 419.238 91.7378L418.014 88.5653C417.084 88.9241 415.873 89.1332 414.333 89.1332V92.5336ZM419.23 91.7407C420.644 91.2032 421.841 90.4129 422.712 89.3128L420.046 87.2022C419.637 87.7183 418.999 88.1908 418.022 88.5624L419.23 91.7407ZM422.712 89.3128C423.587 88.2076 424.041 86.9192 424.064 85.507L420.664 85.4521C420.653 86.1275 420.45 86.6911 420.046 87.2022L422.712 89.3128ZM424.064 85.4502C424.04 84.1115 423.613 82.8896 422.748 81.8755L420.161 84.0832C420.474 84.4497 420.653 84.8946 420.664 85.5089L424.064 85.4502ZM422.761 81.891C421.933 80.8978 420.752 80.1553 419.373 79.5885L418.081 82.7336C419.16 83.177 419.797 83.6468 420.148 84.0678L422.761 81.891ZM419.399 79.5995C418.062 79.0238 416.408 78.5166 414.465 78.0655L413.696 81.3777C415.524 81.8021 416.967 82.2546 418.055 82.7227L419.399 79.5995ZM414.467 78.066L409.063 76.8033L408.289 80.1145L413.693 81.3772L414.467 78.066ZM409.056 76.8018C404.767 75.8181 401.527 74.2604 399.224 72.2131L396.965 74.7546C399.814 77.2867 403.628 79.0457 408.296 80.1161L409.056 76.8018ZM399.229 72.2173C397.066 70.2804 395.941 67.6565 395.956 64.1472L392.556 64.1326C392.537 68.4688 393.972 72.0742 396.96 74.7505L399.229 72.2173ZM395.956 64.1309C395.941 61.262 396.704 58.8164 398.211 56.7239L395.452 54.7366C393.491 57.4592 392.537 60.62 392.556 64.1488L395.956 64.1309ZM398.211 56.7239C399.746 54.593 401.891 52.8957 404.713 51.655L403.345 48.5422C400.039 49.9952 397.386 52.0524 395.452 54.7366L398.211 56.7239ZM404.713 51.655C407.528 50.4178 410.782 49.7784 414.51 49.7784V46.3781C410.391 46.3781 406.659 47.0856 403.345 48.5422L404.713 51.655ZM414.51 49.7784C418.326 49.7784 421.549 50.4279 424.225 51.6667L425.654 48.5809C422.437 47.0923 418.707 46.3781 414.51 46.3781V49.7784ZM424.236 51.6716C426.943 52.9022 428.982 54.6009 430.421 56.7513L433.247 54.8607C431.419 52.1287 428.862 50.0392 425.643 48.5761L424.236 51.6716ZM430.421 56.7513C431.853 58.8919 432.603 61.3913 432.634 64.3092L436.034 64.2736C435.997 60.76 435.081 57.6026 433.247 54.8607L430.421 56.7513ZM434.334 62.5912H422.364V65.9915H434.334V62.5912Z" fill="#1B39C2" fill-opacity="0.8" mask="url(#path-4-outside-1_320_14)"/>
</g>
<g filter="url(#filter3_d_320_14)">
<mask id="path-6-outside-2_320_14" maskUnits="userSpaceOnUse" x="221.969" y="109.812" width="323" height="74" fill="black">
<rect fill="white" x="221.969" y="109.812" width="323" height="74"/>
<path d="M271.83 133.83H259.203C259.035 132.534 258.69 131.364 258.168 130.32C257.646 129.276 256.956 128.384 256.097 127.643C255.238 126.902 254.22 126.338 253.041 125.951C251.88 125.547 250.592 125.345 249.177 125.345C246.669 125.345 244.505 125.959 242.687 127.189C240.886 128.418 239.497 130.194 238.52 132.517C237.561 134.84 237.081 137.652 237.081 140.952C237.081 144.387 237.569 147.265 238.546 149.589C239.539 151.895 240.928 153.638 242.712 154.816C244.514 155.978 246.644 156.559 249.102 156.559C250.482 156.559 251.737 156.382 252.865 156.029C254.009 155.675 255.011 155.162 255.87 154.488C256.745 153.798 257.461 152.964 258.016 151.988C258.589 150.995 258.984 149.875 259.203 148.629L271.83 148.705C271.612 150.995 270.946 153.251 269.835 155.473C268.741 157.695 267.234 159.724 265.315 161.559C263.396 163.378 261.055 164.825 258.294 165.903C255.55 166.981 252.402 167.519 248.849 167.519C244.169 167.519 239.977 166.492 236.273 164.438C232.586 162.367 229.673 159.354 227.535 155.397C225.397 151.441 224.327 146.626 224.327 140.952C224.327 135.261 225.413 130.438 227.585 126.481C229.757 122.525 232.695 119.52 236.399 117.466C240.103 115.412 244.253 114.385 248.849 114.385C251.981 114.385 254.876 114.822 257.537 115.698C260.197 116.557 262.537 117.819 264.557 119.486C266.578 121.136 268.219 123.165 269.482 125.572C270.744 127.98 271.527 130.732 271.83 133.83ZM278.984 166.812V128.022H291.333V166.812H278.984ZM285.171 123.501C283.437 123.501 281.947 122.929 280.701 121.784C279.455 120.622 278.832 119.225 278.832 117.592C278.832 115.976 279.455 114.595 280.701 113.45C281.947 112.289 283.437 111.708 285.171 111.708C286.922 111.708 288.412 112.289 289.641 113.45C290.887 114.595 291.51 115.976 291.51 117.592C291.51 119.225 290.887 120.622 289.641 121.784C288.412 122.929 286.922 123.501 285.171 123.501ZM321.088 128.022V137.113H296.617V128.022H321.088ZM301.744 118.728H314.093V154.614C314.093 155.372 314.211 155.987 314.447 156.458C314.699 156.913 315.061 157.241 315.533 157.443C316.004 157.628 316.568 157.721 317.225 157.721C317.696 157.721 318.193 157.679 318.715 157.594C319.253 157.493 319.657 157.409 319.927 157.342L321.796 166.257C321.206 166.425 320.373 166.635 319.295 166.888C318.235 167.14 316.964 167.3 315.482 167.368C312.586 167.502 310.103 167.166 308.032 166.358C305.978 165.533 304.404 164.253 303.31 162.519C302.232 160.785 301.71 158.605 301.744 155.978V118.728ZM338.324 167.469C335.849 167.469 333.652 167.056 331.733 166.231C329.831 165.389 328.324 164.127 327.213 162.443C326.118 160.743 325.571 158.613 325.571 156.054C325.571 153.899 325.95 152.081 326.707 150.599C327.465 149.117 328.509 147.914 329.839 146.988C331.169 146.062 332.701 145.363 334.435 144.892C336.169 144.403 338.021 144.075 339.991 143.907C342.197 143.705 343.973 143.494 345.32 143.275C346.667 143.04 347.643 142.711 348.249 142.29C348.872 141.853 349.184 141.238 349.184 140.447V140.321C349.184 139.024 348.737 138.022 347.845 137.315C346.953 136.608 345.749 136.255 344.234 136.255C342.601 136.255 341.287 136.608 340.294 137.315C339.301 138.022 338.669 138.999 338.4 140.245L327.011 139.841C327.347 137.484 328.214 135.379 329.612 133.527C331.026 131.658 332.962 130.194 335.42 129.133C337.895 128.056 340.867 127.517 344.335 127.517C346.81 127.517 349.091 127.811 351.179 128.401C353.266 128.973 355.085 129.815 356.634 130.926C358.182 132.02 359.378 133.367 360.22 134.967C361.078 136.566 361.508 138.393 361.508 140.447V166.812H349.891V161.408H349.588C348.897 162.721 348.013 163.832 346.936 164.741C345.875 165.65 344.621 166.332 343.173 166.787C341.742 167.241 340.126 167.469 338.324 167.469ZM342.138 159.387C343.468 159.387 344.663 159.118 345.724 158.579C346.801 158.041 347.66 157.3 348.3 156.357C348.939 155.397 349.259 154.286 349.259 153.023V149.336C348.906 149.522 348.476 149.69 347.971 149.841C347.483 149.993 346.944 150.136 346.355 150.271C345.766 150.405 345.16 150.523 344.537 150.624C343.914 150.725 343.316 150.818 342.744 150.902C341.582 151.087 340.589 151.373 339.764 151.761C338.956 152.148 338.333 152.653 337.895 153.276C337.474 153.882 337.264 154.606 337.264 155.448C337.264 156.727 337.718 157.704 338.627 158.377C339.553 159.051 340.723 159.387 342.138 159.387ZM381.408 144.69V166.812H369.059V128.022H380.802V135.144H381.231C382.09 132.77 383.554 130.909 385.625 129.562C387.696 128.199 390.163 127.517 393.025 127.517C395.752 127.517 398.118 128.131 400.121 129.36C402.141 130.573 403.707 132.273 404.818 134.462C405.946 136.634 406.502 139.176 406.485 142.088V166.812H394.136V144.513C394.153 142.358 393.606 140.674 392.494 139.462C391.4 138.25 389.876 137.644 387.923 137.644C386.627 137.644 385.482 137.93 384.489 138.502C383.512 139.058 382.755 139.858 382.216 140.901C381.694 141.945 381.425 143.208 381.408 144.69ZM428.298 167.368C425.436 167.368 422.835 166.627 420.495 165.145C418.155 163.664 416.286 161.441 414.888 158.478C413.491 155.515 412.792 151.836 412.792 147.442C412.792 142.88 413.516 139.125 414.964 136.179C416.412 133.233 418.306 131.052 420.646 129.638C423.003 128.224 425.537 127.517 428.248 127.517C430.285 127.517 432.027 127.87 433.475 128.577C434.923 129.268 436.119 130.16 437.061 131.254C438.004 132.349 438.72 133.485 439.208 134.664H439.461V115.092H451.81V166.812H439.587V160.524H439.208C438.686 161.719 437.945 162.839 436.986 163.883C436.026 164.927 434.822 165.768 433.374 166.408C431.943 167.048 430.251 167.368 428.298 167.368ZM432.591 157.746C434.09 157.746 435.369 157.325 436.43 156.483C437.491 155.625 438.307 154.421 438.88 152.872C439.452 151.323 439.738 149.505 439.738 147.417C439.738 145.296 439.452 143.469 438.88 141.937C438.324 140.405 437.508 139.226 436.43 138.401C435.369 137.576 434.09 137.164 432.591 137.164C431.059 137.164 429.763 137.585 428.702 138.427C427.642 139.268 426.834 140.455 426.278 141.987C425.739 143.519 425.47 145.329 425.47 147.417C425.47 149.505 425.748 151.323 426.303 152.872C426.859 154.421 427.659 155.625 428.702 156.483C429.763 157.325 431.059 157.746 432.591 157.746ZM484.646 150.069V128.022H496.97V166.812H485.202V159.589H484.798C483.939 161.963 482.475 163.849 480.404 165.246C478.35 166.627 475.866 167.317 472.954 167.317C470.311 167.317 467.987 166.711 465.984 165.499C463.98 164.287 462.423 162.595 461.312 160.423C460.201 158.234 459.636 155.675 459.62 152.746V128.022H471.969V150.321C471.986 152.426 472.541 154.084 473.636 155.296C474.73 156.508 476.22 157.115 478.106 157.115C479.335 157.115 480.437 156.845 481.414 156.306C482.407 155.751 483.19 154.951 483.763 153.907C484.352 152.847 484.646 151.567 484.646 150.069ZM512.382 181.358C510.9 181.358 509.503 181.241 508.19 181.005C506.876 180.786 505.748 180.491 504.806 180.121L507.533 171.156C508.745 171.56 509.839 171.796 510.816 171.863C511.809 171.93 512.66 171.77 513.367 171.383C514.091 171.013 514.646 170.348 515.033 169.388L515.513 168.226L501.725 128.022H514.655L521.801 155.7H522.206L529.453 128.022H542.459L527.837 170.524C527.13 172.646 526.128 174.515 524.832 176.131C523.552 177.764 521.894 179.044 519.857 179.97C517.837 180.895 515.345 181.358 512.382 181.358Z"/>
</mask>
<path d="M271.83 133.83H259.203C259.035 132.534 258.69 131.364 258.168 130.32C257.646 129.276 256.956 128.384 256.097 127.643C255.238 126.902 254.22 126.338 253.041 125.951C251.88 125.547 250.592 125.345 249.177 125.345C246.669 125.345 244.505 125.959 242.687 127.189C240.886 128.418 239.497 130.194 238.52 132.517C237.561 134.84 237.081 137.652 237.081 140.952C237.081 144.387 237.569 147.265 238.546 149.589C239.539 151.895 240.928 153.638 242.712 154.816C244.514 155.978 246.644 156.559 249.102 156.559C250.482 156.559 251.737 156.382 252.865 156.029C254.009 155.675 255.011 155.162 255.87 154.488C256.745 153.798 257.461 152.964 258.016 151.988C258.589 150.995 258.984 149.875 259.203 148.629L271.83 148.705C271.612 150.995 270.946 153.251 269.835 155.473C268.741 157.695 267.234 159.724 265.315 161.559C263.396 163.378 261.055 164.825 258.294 165.903C255.55 166.981 252.402 167.519 248.849 167.519C244.169 167.519 239.977 166.492 236.273 164.438C232.586 162.367 229.673 159.354 227.535 155.397C225.397 151.441 224.327 146.626 224.327 140.952C224.327 135.261 225.413 130.438 227.585 126.481C229.757 122.525 232.695 119.52 236.399 117.466C240.103 115.412 244.253 114.385 248.849 114.385C251.981 114.385 254.876 114.822 257.537 115.698C260.197 116.557 262.537 117.819 264.557 119.486C266.578 121.136 268.219 123.165 269.482 125.572C270.744 127.98 271.527 130.732 271.83 133.83ZM278.984 166.812V128.022H291.333V166.812H278.984ZM285.171 123.501C283.437 123.501 281.947 122.929 280.701 121.784C279.455 120.622 278.832 119.225 278.832 117.592C278.832 115.976 279.455 114.595 280.701 113.45C281.947 112.289 283.437 111.708 285.171 111.708C286.922 111.708 288.412 112.289 289.641 113.45C290.887 114.595 291.51 115.976 291.51 117.592C291.51 119.225 290.887 120.622 289.641 121.784C288.412 122.929 286.922 123.501 285.171 123.501ZM321.088 128.022V137.113H296.617V128.022H321.088ZM301.744 118.728H314.093V154.614C314.093 155.372 314.211 155.987 314.447 156.458C314.699 156.913 315.061 157.241 315.533 157.443C316.004 157.628 316.568 157.721 317.225 157.721C317.696 157.721 318.193 157.679 318.715 157.594C319.253 157.493 319.657 157.409 319.927 157.342L321.796 166.257C321.206 166.425 320.373 166.635 319.295 166.888C318.235 167.14 316.964 167.3 315.482 167.368C312.586 167.502 310.103 167.166 308.032 166.358C305.978 165.533 304.404 164.253 303.31 162.519C302.232 160.785 301.71 158.605 301.744 155.978V118.728ZM338.324 167.469C335.849 167.469 333.652 167.056 331.733 166.231C329.831 165.389 328.324 164.127 327.213 162.443C326.118 160.743 325.571 158.613 325.571 156.054C325.571 153.899 325.95 152.081 326.707 150.599C327.465 149.117 328.509 147.914 329.839 146.988C331.169 146.062 332.701 145.363 334.435 144.892C336.169 144.403 338.021 144.075 339.991 143.907C342.197 143.705 343.973 143.494 345.32 143.275C346.667 143.04 347.643 142.711 348.249 142.29C348.872 141.853 349.184 141.238 349.184 140.447V140.321C349.184 139.024 348.737 138.022 347.845 137.315C346.953 136.608 345.749 136.255 344.234 136.255C342.601 136.255 341.287 136.608 340.294 137.315C339.301 138.022 338.669 138.999 338.4 140.245L327.011 139.841C327.347 137.484 328.214 135.379 329.612 133.527C331.026 131.658 332.962 130.194 335.42 129.133C337.895 128.056 340.867 127.517 344.335 127.517C346.81 127.517 349.091 127.811 351.179 128.401C353.266 128.973 355.085 129.815 356.634 130.926C358.182 132.02 359.378 133.367 360.22 134.967C361.078 136.566 361.508 138.393 361.508 140.447V166.812H349.891V161.408H349.588C348.897 162.721 348.013 163.832 346.936 164.741C345.875 165.65 344.621 166.332 343.173 166.787C341.742 167.241 340.126 167.469 338.324 167.469ZM342.138 159.387C343.468 159.387 344.663 159.118 345.724 158.579C346.801 158.041 347.66 157.3 348.3 156.357C348.939 155.397 349.259 154.286 349.259 153.023V149.336C348.906 149.522 348.476 149.69 347.971 149.841C347.483 149.993 346.944 150.136 346.355 150.271C345.766 150.405 345.16 150.523 344.537 150.624C343.914 150.725 343.316 150.818 342.744 150.902C341.582 151.087 340.589 151.373 339.764 151.761C338.956 152.148 338.333 152.653 337.895 153.276C337.474 153.882 337.264 154.606 337.264 155.448C337.264 156.727 337.718 157.704 338.627 158.377C339.553 159.051 340.723 159.387 342.138 159.387ZM381.408 144.69V166.812H369.059V128.022H380.802V135.144H381.231C382.09 132.77 383.554 130.909 385.625 129.562C387.696 128.199 390.163 127.517 393.025 127.517C395.752 127.517 398.118 128.131 400.121 129.36C402.141 130.573 403.707 132.273 404.818 134.462C405.946 136.634 406.502 139.176 406.485 142.088V166.812H394.136V144.513C394.153 142.358 393.606 140.674 392.494 139.462C391.4 138.25 389.876 137.644 387.923 137.644C386.627 137.644 385.482 137.93 384.489 138.502C383.512 139.058 382.755 139.858 382.216 140.901C381.694 141.945 381.425 143.208 381.408 144.69ZM428.298 167.368C425.436 167.368 422.835 166.627 420.495 165.145C418.155 163.664 416.286 161.441 414.888 158.478C413.491 155.515 412.792 151.836 412.792 147.442C412.792 142.88 413.516 139.125 414.964 136.179C416.412 133.233 418.306 131.052 420.646 129.638C423.003 128.224 425.537 127.517 428.248 127.517C430.285 127.517 432.027 127.87 433.475 128.577C434.923 129.268 436.119 130.16 437.061 131.254C438.004 132.349 438.72 133.485 439.208 134.664H439.461V115.092H451.81V166.812H439.587V160.524H439.208C438.686 161.719 437.945 162.839 436.986 163.883C436.026 164.927 434.822 165.768 433.374 166.408C431.943 167.048 430.251 167.368 428.298 167.368ZM432.591 157.746C434.09 157.746 435.369 157.325 436.43 156.483C437.491 155.625 438.307 154.421 438.88 152.872C439.452 151.323 439.738 149.505 439.738 147.417C439.738 145.296 439.452 143.469 438.88 141.937C438.324 140.405 437.508 139.226 436.43 138.401C435.369 137.576 434.09 137.164 432.591 137.164C431.059 137.164 429.763 137.585 428.702 138.427C427.642 139.268 426.834 140.455 426.278 141.987C425.739 143.519 425.47 145.329 425.47 147.417C425.47 149.505 425.748 151.323 426.303 152.872C426.859 154.421 427.659 155.625 428.702 156.483C429.763 157.325 431.059 157.746 432.591 157.746ZM484.646 150.069V128.022H496.97V166.812H485.202V159.589H484.798C483.939 161.963 482.475 163.849 480.404 165.246C478.35 166.627 475.866 167.317 472.954 167.317C470.311 167.317 467.987 166.711 465.984 165.499C463.98 164.287 462.423 162.595 461.312 160.423C460.201 158.234 459.636 155.675 459.62 152.746V128.022H471.969V150.321C471.986 152.426 472.541 154.084 473.636 155.296C474.73 156.508 476.22 157.115 478.106 157.115C479.335 157.115 480.437 156.845 481.414 156.306C482.407 155.751 483.19 154.951 483.763 153.907C484.352 152.847 484.646 151.567 484.646 150.069ZM512.382 181.358C510.9 181.358 509.503 181.241 508.19 181.005C506.876 180.786 505.748 180.491 504.806 180.121L507.533 171.156C508.745 171.56 509.839 171.796 510.816 171.863C511.809 171.93 512.66 171.77 513.367 171.383C514.091 171.013 514.646 170.348 515.033 169.388L515.513 168.226L501.725 128.022H514.655L521.801 155.7H522.206L529.453 128.022H542.459L527.837 170.524C527.13 172.646 526.128 174.515 524.832 176.131C523.552 177.764 521.894 179.044 519.857 179.97C517.837 180.895 515.345 181.358 512.382 181.358Z" fill="#65FEFE" shape-rendering="crispEdges"/>
<path d="M271.83 133.83V135.53H273.705L273.522 133.665L271.83 133.83ZM259.203 133.83L257.517 134.049L257.71 135.53H259.203V133.83ZM258.168 130.32L256.647 131.08L256.647 131.08L258.168 130.32ZM256.097 127.643L257.208 126.356L257.208 126.356L256.097 127.643ZM253.041 125.951L252.483 127.557L252.497 127.562L252.511 127.566L253.041 125.951ZM242.687 127.189L241.735 125.78L241.729 125.784L242.687 127.189ZM238.52 132.517L236.953 131.858L236.949 131.868L238.52 132.517ZM238.546 149.589L236.978 150.248L236.981 150.254L236.984 150.261L238.546 149.589ZM242.712 154.816L241.776 156.235L241.783 156.24L241.791 156.245L242.712 154.816ZM252.865 156.029L252.363 154.404L252.356 154.406L252.865 156.029ZM255.87 154.488L256.919 155.826L256.922 155.823L255.87 154.488ZM258.016 151.988L256.543 151.139L256.539 151.147L258.016 151.988ZM259.203 148.629L259.214 146.929L257.777 146.92L257.529 148.335L259.203 148.629ZM271.83 148.705L273.523 148.867L273.7 147.016L271.841 147.005L271.83 148.705ZM269.835 155.473L268.315 154.713L268.31 154.722L269.835 155.473ZM265.315 161.559L266.484 162.794L266.49 162.788L265.315 161.559ZM258.294 165.903L257.676 164.319L257.673 164.32L258.294 165.903ZM236.273 164.438L235.44 165.921L235.448 165.925L236.273 164.438ZM227.535 155.397L229.03 154.589L227.535 155.397ZM227.585 126.481L226.095 125.663L226.095 125.663L227.585 126.481ZM257.537 115.698L257.005 117.313L257.014 117.316L257.537 115.698ZM264.557 119.486L263.475 120.797L263.482 120.803L264.557 119.486ZM271.83 132.13H259.203V135.53H271.83V132.13ZM260.889 133.611C260.699 132.149 260.305 130.793 259.689 129.56L256.647 131.08C257.075 131.935 257.371 132.919 257.517 134.049L260.889 133.611ZM259.689 129.56C259.069 128.321 258.242 127.248 257.208 126.356L254.986 128.93C255.67 129.52 256.223 130.232 256.647 131.08L259.689 129.56ZM257.208 126.356C256.164 125.455 254.944 124.786 253.572 124.336L252.511 127.566C253.496 127.89 254.313 128.349 254.986 128.93L257.208 126.356ZM253.6 124.345C252.234 123.87 250.754 123.645 249.177 123.645V127.045C250.43 127.045 251.525 127.224 252.483 127.557L253.6 124.345ZM249.177 123.645C246.38 123.645 243.873 124.335 241.735 125.78L243.639 128.597C245.138 127.584 246.958 127.045 249.177 127.045V123.645ZM241.729 125.784C239.617 127.225 238.036 129.281 236.953 131.858L240.088 133.176C240.957 131.106 242.155 129.61 243.645 128.593L241.729 125.784ZM236.949 131.868C235.882 134.451 235.381 137.496 235.381 140.952H238.781C238.781 137.809 239.239 135.23 240.092 133.166L236.949 131.868ZM235.381 140.952C235.381 144.536 235.888 147.655 236.978 150.248L240.113 148.93C239.25 146.876 238.781 144.237 238.781 140.952H235.381ZM236.984 150.261C238.085 152.818 239.669 154.844 241.776 156.235L243.649 153.398C242.187 152.432 240.993 150.973 240.107 148.916L236.984 150.261ZM241.791 156.245C243.906 157.609 246.366 158.259 249.102 158.259V154.859C246.921 154.859 245.122 154.347 243.634 153.388L241.791 156.245ZM249.102 158.259C250.627 158.259 252.056 158.064 253.373 157.651L252.356 154.406C251.418 154.7 250.338 154.859 249.102 154.859V158.259ZM253.366 157.653C254.69 157.244 255.882 156.64 256.919 155.826L254.821 153.15C254.141 153.684 253.329 154.106 252.363 154.404L253.366 157.653ZM256.922 155.823C257.972 154.996 258.831 153.994 259.494 152.829L256.539 151.147C256.091 151.935 255.519 152.6 254.817 153.153L256.922 155.823ZM259.489 152.837C260.171 151.655 260.628 150.344 260.878 148.923L257.529 148.335C257.341 149.406 257.007 150.334 256.543 151.139L259.489 152.837ZM259.193 150.329L271.82 150.405L271.841 147.005L259.214 146.929L259.193 150.329ZM270.138 148.543C269.941 150.608 269.34 152.663 268.315 154.713L271.356 156.233C272.553 153.839 273.283 151.381 273.523 148.867L270.138 148.543ZM268.31 154.722C267.31 156.753 265.926 158.623 264.14 160.33L266.49 162.788C268.543 160.825 270.172 158.638 271.361 156.224L268.31 154.722ZM264.146 160.325C262.404 161.975 260.257 163.312 257.676 164.319L258.912 167.487C261.853 166.339 264.387 164.78 266.484 162.794L264.146 160.325ZM257.673 164.32C255.163 165.306 252.231 165.819 248.849 165.819V169.219C252.572 169.219 255.937 168.655 258.916 167.486L257.673 164.32ZM248.849 165.819C244.426 165.819 240.523 164.851 237.097 162.951L235.448 165.925C239.43 168.133 243.911 169.219 248.849 169.219V165.819ZM237.105 162.956C233.717 161.053 231.026 158.281 229.03 154.589L226.039 156.206C228.32 160.426 231.455 163.682 235.44 165.921L237.105 162.956ZM229.03 154.589C227.057 150.937 226.028 146.416 226.028 140.952H222.627C222.627 146.836 223.736 151.944 226.039 156.206L229.03 154.589ZM226.028 140.952C226.028 135.474 227.073 130.948 229.076 127.3L226.095 125.663C223.754 129.928 222.627 135.049 222.627 140.952H226.028ZM229.076 127.3C231.104 123.605 233.819 120.841 237.223 118.953L235.574 115.979C231.571 118.199 228.411 121.445 226.095 125.663L229.076 127.3ZM237.223 118.953C240.654 117.05 244.516 116.085 248.849 116.085V112.685C243.99 112.685 239.552 113.773 235.574 115.979L237.223 118.953ZM248.849 116.085C251.821 116.085 254.535 116.5 257.005 117.313L258.068 114.083C255.218 113.145 252.14 112.685 248.849 112.685V116.085ZM257.014 117.316C259.484 118.113 261.631 119.276 263.475 120.797L265.639 118.175C263.442 116.362 260.909 115 258.059 114.08L257.014 117.316ZM263.482 120.803C265.317 122.302 266.815 124.149 267.976 126.362L270.987 124.783C269.623 122.181 267.838 119.97 265.633 118.169L263.482 120.803ZM267.976 126.362C269.123 128.549 269.854 131.085 270.138 133.996L273.522 133.665C273.201 130.38 272.366 127.41 270.987 124.783L267.976 126.362ZM278.984 166.812H277.283V168.512H278.984V166.812ZM278.984 128.022V126.322H277.283V128.022H278.984ZM291.333 128.022H293.033V126.322H291.333V128.022ZM291.333 166.812V168.512H293.033V166.812H291.333ZM280.701 121.784L279.541 123.028L279.551 123.036L280.701 121.784ZM280.701 113.45L281.851 114.702L281.86 114.694L280.701 113.45ZM289.641 113.45L288.473 114.686L288.482 114.694L288.49 114.702L289.641 113.45ZM289.641 121.784L290.8 123.028L290.8 123.028L289.641 121.784ZM280.684 166.812V128.022H277.283V166.812H280.684ZM278.984 129.722H291.333V126.322H278.984V129.722ZM289.633 128.022V166.812H293.033V128.022H289.633ZM291.333 165.112H278.984V168.512H291.333V165.112ZM285.171 121.801C283.851 121.801 282.775 121.381 281.851 120.532L279.551 123.036C281.119 124.477 283.022 125.202 285.171 125.202V121.801ZM281.86 120.541C280.943 119.685 280.532 118.731 280.532 117.592H277.132C277.132 119.719 277.967 121.56 279.541 123.028L281.86 120.541ZM280.532 117.592C280.532 116.476 280.937 115.542 281.851 114.702L279.551 112.198C277.973 113.648 277.132 115.475 277.132 117.592H280.532ZM281.86 114.694C282.785 113.831 283.858 113.408 285.171 113.408V110.008C283.015 110.008 281.108 110.746 279.541 112.207L281.86 114.694ZM285.171 113.408C286.504 113.408 287.572 113.834 288.473 114.686L290.809 112.215C289.252 110.743 287.339 110.008 285.171 110.008V113.408ZM288.49 114.702C289.404 115.542 289.809 116.476 289.809 117.592H293.21C293.21 115.475 292.369 113.648 290.791 112.198L288.49 114.702ZM289.809 117.592C289.809 118.731 289.399 119.685 288.481 120.541L290.8 123.028C292.374 121.56 293.21 119.719 293.21 117.592H289.809ZM288.482 120.54C287.582 121.378 286.512 121.801 285.171 121.801V125.202C287.332 125.202 289.242 124.48 290.8 123.028L288.482 120.54ZM321.088 128.022H322.789V126.322H321.088V128.022ZM321.088 137.113V138.814H322.789V137.113H321.088ZM296.617 137.113H294.917V138.814H296.617V137.113ZM296.617 128.022V126.322H294.917V128.022H296.617ZM301.744 118.728V117.028H300.044V118.728H301.744ZM314.093 118.728H315.793V117.028H314.093V118.728ZM314.447 156.458L312.926 157.218L312.942 157.251L312.96 157.284L314.447 156.458ZM315.533 157.443L314.863 159.006L314.887 159.016L314.911 159.025L315.533 157.443ZM318.715 157.594L318.985 159.273L319.007 159.269L319.028 159.265L318.715 157.594ZM319.927 157.342L321.591 156.993L321.228 155.264L319.514 155.692L319.927 157.342ZM321.796 166.257L322.263 167.891L323.784 167.457L323.46 165.908L321.796 166.257ZM319.295 166.888L318.907 165.233L318.902 165.234L319.295 166.888ZM315.482 167.368L315.405 165.669L315.403 165.669L315.482 167.368ZM308.032 166.358L307.398 167.935L307.406 167.938L307.414 167.941L308.032 166.358ZM303.31 162.519L301.865 163.416L301.872 163.426L303.31 162.519ZM301.744 155.978L303.444 156L303.444 155.989V155.978H301.744ZM319.388 128.022V137.113H322.789V128.022H319.388ZM321.088 135.413H296.617V138.814H321.088V135.413ZM298.317 137.113V128.022H294.917V137.113H298.317ZM296.617 129.722H321.088V126.322H296.617V129.722ZM301.744 120.429H314.093V117.028H301.744V120.429ZM312.393 118.728V154.614H315.793V118.728H312.393ZM312.393 154.614C312.393 155.529 312.532 156.431 312.926 157.218L315.967 155.698C315.89 155.543 315.793 155.216 315.793 154.614H312.393ZM312.96 157.284C313.393 158.063 314.04 158.653 314.863 159.006L316.202 155.88C316.082 155.829 316.005 155.762 315.933 155.632L312.96 157.284ZM314.911 159.025C315.629 159.308 316.415 159.421 317.225 159.421V156.021C316.721 156.021 316.379 155.949 316.154 155.86L314.911 159.025ZM317.225 159.421C317.797 159.421 318.384 159.37 318.985 159.273L318.444 155.916C318.001 155.987 317.595 156.021 317.225 156.021V159.421ZM319.028 159.265C319.575 159.163 320.019 159.071 320.339 158.991L319.514 155.692C319.296 155.747 318.932 155.824 318.401 155.923L319.028 159.265ZM318.263 157.691L320.132 166.605L323.46 165.908L321.591 156.993L318.263 157.691ZM321.328 164.622C320.778 164.779 319.976 164.982 318.907 165.233L319.683 168.543C320.77 168.289 321.634 168.071 322.263 167.891L321.328 164.622ZM318.902 165.234C317.974 165.455 316.815 165.605 315.405 165.669L315.559 169.066C317.112 168.996 318.495 168.826 319.689 168.542L318.902 165.234ZM315.403 165.669C312.676 165.796 310.443 165.473 308.65 164.774L307.414 167.941C309.763 168.858 312.497 169.209 315.561 169.066L315.403 165.669ZM308.666 164.78C306.916 164.077 305.635 163.019 304.747 161.612L301.872 163.426C303.172 165.487 305.04 166.988 307.398 167.935L308.666 164.78ZM304.754 161.622C303.89 160.232 303.413 158.394 303.444 156L300.044 155.956C300.007 158.815 300.574 161.338 301.865 163.416L304.754 161.622ZM303.444 155.978V118.728H300.044V155.978H303.444ZM331.733 166.231L331.045 167.786L331.053 167.79L331.062 167.793L331.733 166.231ZM327.213 162.443L325.783 163.363L325.788 163.372L325.794 163.38L327.213 162.443ZM326.707 150.599L325.194 149.825L325.194 149.825L326.707 150.599ZM329.839 146.988L330.81 148.383L330.81 148.383L329.839 146.988ZM334.435 144.892L334.881 146.532L334.889 146.53L334.896 146.528L334.435 144.892ZM339.991 143.907L340.136 145.601L340.146 145.6L339.991 143.907ZM345.32 143.275L345.592 144.954L345.603 144.952L345.613 144.95L345.32 143.275ZM348.249 142.29L349.219 143.687L349.227 143.681L348.249 142.29ZM347.845 137.315L348.901 135.983L348.901 135.983L347.845 137.315ZM340.294 137.315L339.308 135.93L339.308 135.93L340.294 137.315ZM338.4 140.245L338.34 141.944L339.761 141.994L340.062 140.604L338.4 140.245ZM327.011 139.841L325.327 139.6L325.06 141.473L326.95 141.54L327.011 139.841ZM329.612 133.527L328.256 132.501L328.255 132.503L329.612 133.527ZM335.42 129.133L336.094 130.694L336.099 130.692L335.42 129.133ZM351.179 128.401L350.717 130.037L350.729 130.04L351.179 128.401ZM356.634 130.926L355.642 132.308L355.653 132.315L356.634 130.926ZM360.22 134.967L358.715 135.759L358.722 135.771L360.22 134.967ZM361.508 166.812V168.512H363.208V166.812H361.508ZM349.891 166.812H348.191V168.512H349.891V166.812ZM349.891 161.408H351.591V159.708H349.891V161.408ZM349.588 161.408V159.708H348.561L348.083 160.617L349.588 161.408ZM346.936 164.741L345.84 163.442L345.83 163.45L346.936 164.741ZM343.173 166.787L342.664 165.165L342.658 165.167L343.173 166.787ZM345.724 158.579L344.963 157.059L344.954 157.063L345.724 158.579ZM348.3 156.357L349.707 157.312L349.714 157.3L348.3 156.357ZM349.259 149.336H350.96V146.526L348.47 147.83L349.259 149.336ZM347.971 149.841L347.483 148.213L347.475 148.215L347.467 148.218L347.971 149.841ZM344.537 150.624L344.809 152.303L344.809 152.303L344.537 150.624ZM342.744 150.902L342.496 149.22L342.486 149.221L342.476 149.223L342.744 150.902ZM339.764 151.761L339.041 150.222L339.029 150.227L339.764 151.761ZM337.895 153.276L336.504 152.298L336.499 152.306L337.895 153.276ZM338.627 158.377L337.615 159.743L337.621 159.748L337.627 159.752L338.627 158.377ZM338.324 165.769C336.038 165.769 334.076 165.388 332.404 164.669L331.062 167.793C333.228 168.725 335.661 169.169 338.324 169.169V165.769ZM332.421 164.677C330.807 163.962 329.557 162.91 328.632 161.507L325.794 163.38C327.09 165.344 328.855 166.817 331.045 167.786L332.421 164.677ZM328.642 161.523C327.766 160.161 327.271 158.373 327.271 156.054H323.871C323.871 158.853 324.471 161.324 325.783 163.363L328.642 161.523ZM327.271 156.054C327.271 154.091 327.617 152.555 328.221 151.373L325.194 149.825C324.283 151.606 323.871 153.707 323.871 156.054H327.271ZM328.221 151.373C328.855 150.133 329.716 149.145 330.81 148.383L328.868 145.592C327.302 146.682 326.075 148.102 325.194 149.825L328.221 151.373ZM330.81 148.383C331.964 147.58 333.315 146.958 334.881 146.532L333.989 143.251C332.088 143.768 330.374 144.544 328.868 145.592L330.81 148.383ZM334.896 146.528C336.517 146.072 338.263 145.761 340.136 145.601L339.846 142.213C337.78 142.389 335.821 142.735 333.974 143.255L334.896 146.528ZM340.146 145.6C342.37 145.396 344.19 145.181 345.592 144.954L345.047 141.597C343.756 141.807 342.023 142.013 339.836 142.214L340.146 145.6ZM345.613 144.95C347.03 144.702 348.304 144.323 349.219 143.687L347.279 140.894C346.983 141.1 346.303 141.377 345.027 141.601L345.613 144.95ZM349.227 143.681C350.323 142.911 350.884 141.766 350.884 140.447H347.483C347.483 140.71 347.421 140.795 347.272 140.899L349.227 143.681ZM350.884 140.447V140.321H347.483V140.447H350.884ZM350.884 140.321C350.884 138.586 350.26 137.06 348.901 135.983L346.789 138.648C347.215 138.985 347.483 139.462 347.483 140.321H350.884ZM348.901 135.983C347.622 134.969 346.006 134.555 344.234 134.555V137.955C345.493 137.955 346.284 138.247 346.789 138.648L348.901 135.983ZM344.234 134.555C342.365 134.555 340.673 134.959 339.308 135.93L341.28 138.7C341.902 138.258 342.836 137.955 344.234 137.955V134.555ZM339.308 135.93C337.953 136.895 337.093 138.246 336.738 139.886L340.062 140.604C340.246 139.752 340.649 139.15 341.28 138.7L339.308 135.93ZM338.46 138.546L327.071 138.142L326.95 141.54L338.34 141.944L338.46 138.546ZM328.694 140.081C328.991 138.001 329.749 136.168 330.969 134.551L328.255 132.503C326.679 134.591 325.704 136.967 325.327 139.6L328.694 140.081ZM330.967 134.553C332.18 132.95 333.867 131.655 336.094 130.694L334.747 127.572C332.058 128.732 329.871 130.367 328.256 132.501L330.967 134.553ZM336.099 130.692C338.308 129.73 341.036 129.217 344.335 129.217V125.817C340.697 125.817 337.482 126.381 334.741 127.574L336.099 130.692ZM344.335 129.217C346.675 129.217 348.799 129.496 350.717 130.037L351.641 126.764C349.383 126.127 346.944 125.817 344.335 125.817V129.217ZM350.729 130.04C352.648 130.567 354.278 131.329 355.643 132.308L357.625 129.545C355.891 128.301 353.884 127.38 351.628 126.761L350.729 130.04ZM355.653 132.315C356.993 133.262 358.004 134.408 358.715 135.759L361.724 134.175C360.751 132.326 359.372 130.779 357.615 129.538L355.653 132.315ZM358.722 135.771C359.431 137.092 359.807 138.636 359.807 140.447H363.208C363.208 138.15 362.726 136.04 361.718 134.163L358.722 135.771ZM359.807 140.447V166.812H363.208V140.447H359.807ZM361.508 165.112H349.891V168.512H361.508V165.112ZM351.591 166.812V161.408H348.191V166.812H351.591ZM349.891 159.708H349.588V163.108H349.891V159.708ZM348.083 160.617C347.489 161.746 346.741 162.682 345.84 163.442L348.032 166.041C349.286 164.983 350.306 163.696 351.093 162.199L348.083 160.617ZM345.83 163.45C344.958 164.197 343.911 164.773 342.664 165.165L343.682 168.409C345.331 167.892 346.793 167.103 348.042 166.032L345.83 163.45ZM342.658 165.167C341.423 165.559 339.985 165.769 338.324 165.769V169.169C340.267 169.169 342.061 168.924 343.688 168.407L342.658 165.167ZM342.138 161.088C343.703 161.088 345.168 160.769 346.494 160.095L344.954 157.063C344.159 157.467 343.232 157.687 342.138 157.687V161.088ZM346.484 160.1C347.807 159.439 348.894 158.509 349.707 157.312L346.893 155.402C346.426 156.09 345.796 156.642 344.963 157.059L346.484 160.1ZM349.714 157.3C350.558 156.035 350.96 154.589 350.96 153.023H347.559C347.559 153.984 347.321 154.76 346.885 155.414L349.714 157.3ZM350.96 153.023V149.336H347.559V153.023H350.96ZM348.47 147.83C348.238 147.952 347.915 148.083 347.483 148.213L348.46 151.47C349.038 151.296 349.574 151.091 350.048 150.842L348.47 147.83ZM347.467 148.218C347.027 148.354 346.531 148.487 345.976 148.613L346.734 151.928C347.358 151.786 347.939 151.632 348.475 151.465L347.467 148.218ZM345.976 148.613C345.424 148.74 344.853 148.851 344.265 148.946L344.809 152.303C345.466 152.196 346.108 152.071 346.734 151.928L345.976 148.613ZM344.265 148.946C343.649 149.046 343.06 149.137 342.496 149.22L342.991 152.584C343.573 152.499 344.179 152.405 344.809 152.303L344.265 148.946ZM342.476 149.223C341.2 149.427 340.045 149.75 339.041 150.222L340.486 153.3C341.132 152.997 341.964 152.748 343.011 152.581L342.476 149.223ZM339.029 150.227C338.005 150.718 337.137 151.398 336.504 152.298L339.286 154.253C339.529 153.908 339.906 153.578 340.499 153.294L339.029 150.227ZM336.499 152.306C335.853 153.236 335.564 154.31 335.564 155.448H338.964C338.964 154.902 339.095 154.528 339.291 154.246L336.499 152.306ZM335.564 155.448C335.564 157.185 336.212 158.704 337.615 159.743L339.639 157.011C339.224 156.704 338.964 156.27 338.964 155.448H335.564ZM337.627 159.752C338.906 160.682 340.45 161.088 342.138 161.088V157.687C340.997 157.687 340.2 157.419 339.627 157.002L337.627 159.752ZM381.408 144.69L379.708 144.67L379.708 144.68V144.69H381.408ZM381.408 166.812V168.512H383.108V166.812H381.408ZM369.059 166.812H367.358V168.512H369.059V166.812ZM369.059 128.022V126.322H367.358V128.022H369.059ZM380.802 128.022H382.502V126.322H380.802V128.022ZM380.802 135.144H379.102V136.844H380.802V135.144ZM381.231 135.144V136.844H382.424L382.83 135.722L381.231 135.144ZM385.625 129.562L386.552 130.988L386.56 130.982L385.625 129.562ZM400.121 129.36L399.232 130.81L399.239 130.814L399.246 130.818L400.121 129.36ZM404.818 134.462L403.302 135.231L403.306 135.238L403.31 135.245L404.818 134.462ZM406.485 142.088L404.785 142.079V142.088H406.485ZM406.485 166.812V168.512H408.185V166.812H406.485ZM394.136 166.812H392.436V168.512H394.136V166.812ZM394.136 144.513L392.436 144.5V144.513H394.136ZM392.494 139.462L391.232 140.601L391.241 140.611L392.494 139.462ZM384.489 138.502L385.33 139.98L385.338 139.975L384.489 138.502ZM382.216 140.901L380.705 140.122L380.7 140.131L380.695 140.141L382.216 140.901ZM379.708 144.69V166.812H383.108V144.69H379.708ZM381.408 165.112H369.059V168.512H381.408V165.112ZM370.759 166.812V128.022H367.358V166.812H370.759ZM369.059 129.722H380.802V126.322H369.059V129.722ZM379.102 128.022V135.144H382.502V128.022H379.102ZM380.802 136.844H381.231V133.443H380.802V136.844ZM382.83 135.722C383.566 133.688 384.799 132.128 386.552 130.988L384.698 128.137C382.31 129.69 380.614 131.852 379.632 134.565L382.83 135.722ZM386.56 130.982C388.313 129.828 390.442 129.217 393.025 129.217V125.817C389.883 125.817 387.079 126.569 384.69 128.142L386.56 130.982ZM393.025 129.217C395.489 129.217 397.537 129.769 399.232 130.81L401.01 127.911C398.699 126.493 396.015 125.817 393.025 125.817V129.217ZM399.246 130.818C400.981 131.859 402.33 133.315 403.302 135.231L406.334 133.692C405.085 131.231 403.302 129.286 400.996 127.902L399.246 130.818ZM403.31 135.245C404.288 137.13 404.801 139.39 404.785 142.079L408.185 142.098C408.203 138.962 407.605 136.137 406.327 133.678L403.31 135.245ZM404.785 142.088V166.812H408.185V142.088H404.785ZM406.485 165.112H394.136V168.512H406.485V165.112ZM395.836 166.812V144.513H392.436V166.812H395.836ZM395.836 144.526C395.855 142.078 395.23 139.931 393.748 138.313L391.241 140.611C391.981 141.418 392.45 142.637 392.436 144.5L395.836 144.526ZM393.756 138.323C392.277 136.684 390.255 135.944 387.923 135.944V139.344C389.498 139.344 390.523 139.816 391.232 140.601L393.756 138.323ZM387.923 135.944C386.369 135.944 384.924 136.289 383.64 137.029L385.338 139.975C386.04 139.57 386.885 139.344 387.923 139.344V135.944ZM383.648 137.025C382.372 137.751 381.388 138.799 380.705 140.122L383.727 141.681C384.122 140.916 384.653 140.365 385.33 139.98L383.648 137.025ZM380.695 140.141C380.031 141.469 379.727 142.999 379.708 144.67L383.108 144.709C383.123 143.417 383.357 142.422 383.737 141.662L380.695 140.141ZM420.495 165.145L419.585 166.582L419.585 166.582L420.495 165.145ZM414.888 158.478L413.351 159.203L413.351 159.203L414.888 158.478ZM414.964 136.179L416.49 136.929L416.49 136.929L414.964 136.179ZM420.646 129.638L419.772 128.18L419.767 128.183L420.646 129.638ZM433.475 128.577L432.729 130.105L432.736 130.109L432.744 130.112L433.475 128.577ZM437.061 131.254L438.35 130.145L438.35 130.145L437.061 131.254ZM439.208 134.664L437.637 135.314L438.072 136.364H439.208V134.664ZM439.461 134.664V136.364H441.161V134.664H439.461ZM439.461 115.092V113.392H437.76V115.092H439.461ZM451.81 115.092H453.51V113.392H451.81V115.092ZM451.81 166.812V168.512H453.51V166.812H451.81ZM439.587 166.812H437.887V168.512H439.587V166.812ZM439.587 160.524H441.287V158.824H439.587V160.524ZM439.208 160.524V158.824H438.095L437.65 159.844L439.208 160.524ZM436.986 163.883L435.734 162.732L435.734 162.732L436.986 163.883ZM433.374 166.408L432.687 164.853L432.68 164.856L433.374 166.408ZM436.43 156.483L437.487 157.815L437.493 157.81L437.5 157.805L436.43 156.483ZM438.88 152.872L440.475 153.461L440.475 153.461L438.88 152.872ZM438.88 141.937L437.281 142.516L437.284 142.524L437.287 142.532L438.88 141.937ZM436.43 138.401L435.386 139.743L435.397 139.751L436.43 138.401ZM426.278 141.987L424.68 141.408L424.677 141.416L424.674 141.423L426.278 141.987ZM428.702 156.483L427.622 157.796L427.634 157.806L427.645 157.815L428.702 156.483ZM428.298 165.668C425.747 165.668 423.463 165.012 421.404 163.709L419.585 166.582C422.207 168.242 425.125 169.068 428.298 169.068V165.668ZM421.404 163.709C419.383 162.429 417.711 160.478 416.426 157.753L413.351 159.203C414.86 162.404 416.926 164.898 419.585 166.582L421.404 163.709ZM416.426 157.753C415.166 155.08 414.492 151.667 414.492 147.442H411.092C411.092 152.006 411.816 155.95 413.351 159.203L416.426 157.753ZM414.492 147.442C414.492 143.044 415.193 139.569 416.49 136.929L413.438 135.429C411.84 138.681 411.092 142.715 411.092 147.442H414.492ZM416.49 136.929C417.823 134.215 419.516 132.308 421.526 131.093L419.767 128.183C417.097 129.797 415.001 132.25 413.438 135.429L416.49 136.929ZM421.521 131.096C423.618 129.838 425.85 129.217 428.248 129.217V125.817C425.225 125.817 422.389 126.61 419.772 128.18L421.521 131.096ZM428.248 129.217C430.093 129.217 431.567 129.537 432.729 130.105L434.221 127.05C432.488 126.203 430.477 125.817 428.248 125.817V129.217ZM432.744 130.112C434.002 130.712 435.001 131.467 435.773 132.364L438.35 130.145C437.237 128.853 435.844 127.823 434.207 127.043L432.744 130.112ZM435.773 132.364C436.614 133.339 437.227 134.323 437.637 135.314L440.779 134.013C440.213 132.647 439.395 131.358 438.35 130.145L435.773 132.364ZM439.208 136.364H439.461V132.964H439.208V136.364ZM441.161 134.664V115.092H437.76V134.664H441.161ZM439.461 116.792H451.81V113.392H439.461V116.792ZM450.11 115.092V166.812H453.51V115.092H450.11ZM451.81 165.112H439.587V168.512H451.81V165.112ZM441.287 166.812V160.524H437.887V166.812H441.287ZM439.587 158.824H439.208V162.224H439.587V158.824ZM437.65 159.844C437.21 160.852 436.577 161.815 435.734 162.732L438.237 165.033C439.313 163.863 440.163 162.587 440.766 161.204L437.65 159.844ZM435.734 162.732C434.95 163.585 433.946 164.297 432.687 164.853L434.062 167.963C435.698 167.24 437.102 166.268 438.237 165.033L435.734 162.732ZM432.68 164.856C431.514 165.377 430.069 165.668 428.298 165.668V169.068C430.433 169.068 432.372 168.718 434.068 167.96L432.68 164.856ZM432.591 159.446C434.43 159.446 436.093 158.921 437.487 157.815L435.373 155.152C434.645 155.729 433.749 156.046 432.591 156.046V159.446ZM437.5 157.805C438.844 156.717 439.818 155.237 440.475 153.461L437.285 152.283C436.796 153.605 436.138 154.532 435.36 155.162L437.5 157.805ZM440.475 153.461C441.132 151.681 441.439 149.655 441.439 147.417H438.038C438.038 149.354 437.772 150.965 437.285 152.283L440.475 153.461ZM441.439 147.417C441.439 145.15 441.134 143.111 440.472 141.342L437.287 142.532C437.771 143.827 438.038 145.442 438.038 147.417H441.439ZM440.478 141.357C439.834 139.582 438.847 138.11 437.464 137.051L435.397 139.751C436.168 140.342 436.814 141.228 437.281 142.516L440.478 141.357ZM437.474 137.059C436.08 135.975 434.422 135.464 432.591 135.464V138.864C433.758 138.864 434.658 139.177 435.386 139.743L437.474 137.059ZM432.591 135.464C430.729 135.464 429.046 135.983 427.645 137.095L429.759 139.758C430.48 139.186 431.39 138.864 432.591 138.864V135.464ZM427.645 137.095C426.292 138.169 425.321 139.64 424.68 141.408L427.876 142.567C428.347 141.27 428.991 140.368 429.759 139.758L427.645 137.095ZM424.674 141.423C424.056 143.18 423.77 145.189 423.77 147.417H427.17C427.17 145.469 427.422 143.859 427.882 142.551L424.674 141.423ZM423.77 147.417C423.77 149.65 424.066 151.671 424.703 153.446L427.904 152.298C427.429 150.975 427.17 149.359 427.17 147.417H423.77ZM424.703 153.446C425.34 155.221 426.295 156.704 427.622 157.796L429.782 155.17C429.022 154.545 428.378 153.621 427.904 152.298L424.703 153.446ZM427.645 157.815C429.046 158.926 430.729 159.446 432.591 159.446V156.046C431.39 156.046 430.48 155.724 429.759 155.152L427.645 157.815ZM484.646 128.022V126.322H482.946V128.022H484.646ZM496.97 128.022H498.671V126.322H496.97V128.022ZM496.97 166.812V168.512H498.671V166.812H496.97ZM485.202 166.812H483.502V168.512H485.202V166.812ZM485.202 159.589H486.902V157.889H485.202V159.589ZM484.798 159.589V157.889H483.605L483.199 159.011L484.798 159.589ZM480.404 165.246L481.352 166.657L481.355 166.656L480.404 165.246ZM465.984 165.499L465.104 166.954L465.104 166.954L465.984 165.499ZM461.312 160.423L459.796 161.193L459.798 161.197L461.312 160.423ZM459.62 152.746H457.919L457.92 152.755L459.62 152.746ZM459.62 128.022V126.322H457.919V128.022H459.62ZM471.969 128.022H473.669V126.322H471.969V128.022ZM471.969 150.321L470.269 150.321L470.269 150.335L471.969 150.321ZM473.636 155.296L474.898 154.157L474.898 154.157L473.636 155.296ZM481.414 156.306L482.235 157.795L482.244 157.79L481.414 156.306ZM483.763 153.907L482.276 153.082L482.272 153.09L483.763 153.907ZM486.347 150.069V128.022H482.946V150.069H486.347ZM484.646 129.722H496.97V126.322H484.646V129.722ZM495.27 128.022V166.812H498.671V128.022H495.27ZM496.97 165.112H485.202V168.512H496.97V165.112ZM486.902 166.812V159.589H483.502V166.812H486.902ZM485.202 157.889H484.798V161.29H485.202V157.889ZM483.199 159.011C482.462 161.05 481.222 162.643 479.453 163.837L481.355 166.656C483.727 165.055 485.417 162.876 486.397 160.168L483.199 159.011ZM479.455 163.835C477.728 164.996 475.59 165.617 472.954 165.617V169.017C476.143 169.017 478.971 168.258 481.352 166.657L479.455 163.835ZM472.954 165.617C470.58 165.617 468.569 165.076 466.864 164.044L465.104 166.954C467.405 168.346 470.041 169.017 472.954 169.017V165.617ZM466.864 164.044C465.142 163.003 463.799 161.551 462.825 159.648L459.798 161.197C461.047 163.638 462.818 165.571 465.104 166.954L466.864 164.044ZM462.828 159.653C461.857 157.741 461.335 155.452 461.32 152.736L457.92 152.755C457.938 155.898 458.544 158.727 459.796 161.193L462.828 159.653ZM461.32 152.746V128.022H457.919V152.746H461.32ZM459.62 129.722H471.969V126.322H459.62V129.722ZM470.269 128.022V150.321H473.669V128.022H470.269ZM470.269 150.335C470.288 152.732 470.928 154.834 472.374 156.436L474.898 154.157C474.155 153.335 473.684 152.119 473.669 150.308L470.269 150.335ZM472.374 156.436C473.841 158.061 475.821 158.815 478.106 158.815V155.414C476.619 155.414 475.619 154.956 474.898 154.157L472.374 156.436ZM478.106 158.815C479.592 158.815 480.982 158.486 482.235 157.795L480.593 154.818C479.893 155.204 479.077 155.414 478.106 155.414V158.815ZM482.244 157.79C483.529 157.072 484.535 156.035 485.253 154.725L482.272 153.09C481.845 153.867 481.286 154.43 480.584 154.823L482.244 157.79ZM485.249 154.733C486.008 153.367 486.347 151.789 486.347 150.069H482.946C482.946 151.345 482.696 152.326 482.276 153.082L485.249 154.733ZM508.19 181.005L508.49 179.332L508.479 179.33L508.469 179.328L508.19 181.005ZM504.806 180.121L503.179 179.626L502.722 181.129L504.184 181.703L504.806 180.121ZM507.533 171.156L508.071 169.543L506.414 168.991L505.906 170.661L507.533 171.156ZM510.816 171.863L510.699 173.559L510.701 173.559L510.816 171.863ZM513.367 171.383L512.592 169.87L512.571 169.88L512.55 169.892L513.367 171.383ZM515.033 169.388L513.462 168.739L513.457 168.752L515.033 169.388ZM515.513 168.226L517.085 168.875L517.33 168.282L517.121 167.675L515.513 168.226ZM501.725 128.022V126.322H499.344L500.116 128.573L501.725 128.022ZM514.655 128.022L516.301 127.597L515.972 126.322H514.655V128.022ZM521.801 155.7L520.155 156.125L520.485 157.401H521.801V155.7ZM522.206 155.7V157.401H523.518L523.85 156.131L522.206 155.7ZM529.453 128.022V126.322H528.141L527.809 127.591L529.453 128.022ZM542.459 128.022L544.067 128.575L544.842 126.322H542.459V128.022ZM527.837 170.524L526.23 169.971L526.227 169.979L526.224 169.987L527.837 170.524ZM524.832 176.131L523.506 175.067L523.5 175.075L523.494 175.082L524.832 176.131ZM519.857 179.97L519.153 178.422L519.149 178.424L519.857 179.97ZM512.382 179.658C510.99 179.658 509.694 179.548 508.49 179.332L507.889 182.678C509.312 182.934 510.81 183.059 512.382 183.059V179.658ZM508.469 179.328C507.239 179.123 506.231 178.855 505.427 178.539L504.184 181.703C505.265 182.128 506.514 182.449 507.91 182.682L508.469 179.328ZM506.432 180.616L509.16 171.651L505.906 170.661L503.179 179.626L506.432 180.616ZM506.995 172.769C508.305 173.205 509.543 173.479 510.699 173.559L510.933 170.167C510.135 170.112 509.186 169.915 508.071 169.543L506.995 172.769ZM510.701 173.559C511.942 173.643 513.131 173.45 514.183 172.874L512.55 169.892C512.188 170.09 511.677 170.217 510.931 170.167L510.701 173.559ZM514.141 172.897C515.32 172.294 516.113 171.257 516.61 170.024L513.457 168.752C513.18 169.438 512.861 169.732 512.592 169.87L514.141 172.897ZM516.605 170.037L517.085 168.875L513.942 167.577L513.462 168.739L516.605 170.037ZM517.121 167.675L503.333 127.47L500.116 128.573L513.905 168.778L517.121 167.675ZM501.725 129.722H514.655V126.322H501.725V129.722ZM513.008 128.447L520.155 156.125L523.448 155.275L516.301 127.597L513.008 128.447ZM521.801 157.401H522.206V154H521.801V157.401ZM523.85 156.131L531.098 128.453L527.809 127.591L520.561 155.27L523.85 156.131ZM529.453 129.722H542.459V126.322H529.453V129.722ZM540.852 127.469L526.23 169.971L529.445 171.078L544.067 128.575L540.852 127.469ZM526.224 169.987C525.576 171.932 524.667 173.62 523.506 175.067L526.158 177.195C527.59 175.409 528.684 173.359 529.45 171.062L526.224 169.987ZM523.494 175.082C522.396 176.484 520.962 177.6 519.153 178.422L520.56 181.517C522.826 180.487 524.709 179.044 526.17 177.179L523.494 175.082ZM519.149 178.424C517.412 179.22 515.178 179.658 512.382 179.658V183.059C515.512 183.059 518.262 182.571 520.565 181.515L519.149 178.424Z" fill="#1B39C2" fill-opacity="0.8" mask="url(#path-6-outside-2_320_14)"/>
</g>
<defs>
<filter id="filter0_d_320_14" x="0.797363" y="11.2125" width="215.063" height="231.964" filterUnits="userSpaceOnUse" color-interpolation-filters="sRGB">
<feFlood flood-opacity="0" result="BackgroundImageFix"/>
<feColorMatrix in="SourceAlpha" type="matrix" values="0 0 0 0 0 0 0 0 0 0 0 0 0 0 0 0 0 0 127 0" result="hardAlpha"/>
<feOffset/>
<feGaussianBlur stdDeviation="12.7512"/>
<feComposite in2="hardAlpha" operator="out"/>
<feColorMatrix type="matrix" values="0 0 0 0 0.14902 0 0 0 0 0.188235 0 0 0 0 0.807843 0 0 0 1 0"/>
<feBlend mode="normal" in2="BackgroundImageFix" result="effect1_dropShadow_320_14"/>
<feBlend mode="normal" in="SourceGraphic" in2="effect1_dropShadow_320_14" result="shape"/>
</filter>
<filter id="filter1_d_320_14" x="55.4952" y="0.497532" width="151.945" height="205.7" filterUnits="userSpaceOnUse" color-interpolation-filters="sRGB">
<feFlood flood-opacity="0" result="BackgroundImageFix"/>
<feColorMatrix in="SourceAlpha" type="matrix" values="0 0 0 0 0 0 0 0 0 0 0 0 0 0 0 0 0 0 127 0" result="hardAlpha"/>
<feOffset/>
<feGaussianBlur stdDeviation="12.7512"/>
<feComposite in2="hardAlpha" operator="out"/>
<feColorMatrix type="matrix" values="0 0 0 0 0.996078 0 0 0 0 0.996078 0 0 0 0 0.227451 0 0 0 1 0"/>
<feBlend mode="normal" in2="BackgroundImageFix" result="effect1_dropShadow_320_14"/>
<feBlend mode="normal" in="SourceGraphic" in2="effect1_dropShadow_320_14" result="shape"/>
</filter>
<filter id="filter2_d_320_14" x="199.381" y="22.5758" width="261.163" height="104.089" filterUnits="userSpaceOnUse" color-interpolation-filters="sRGB">
<feFlood flood-opacity="0" result="BackgroundImageFix"/>
<feColorMatrix in="SourceAlpha" type="matrix" values="0 0 0 0 0 0 0 0 0 0 0 0 0 0 0 0 0 0 127 0" result="hardAlpha"/>
<feOffset/>
<feGaussianBlur stdDeviation="12.7512"/>
<feComposite in2="hardAlpha" operator="out"/>
<feColorMatrix type="matrix" values="0 0 0 0 0.14902 0 0 0 0 0.188235 0 0 0 0 0.807843 0 0 0 1 0"/>
<feBlend mode="normal" in2="BackgroundImageFix" result="effect1_dropShadow_320_14"/>
<feBlend mode="normal" in="SourceGraphic" in2="effect1_dropShadow_320_14" result="shape"/>
</filter>
<filter id="filter3_d_320_14" x="198.825" y="86.2053" width="369.137" height="120.656" filterUnits="userSpaceOnUse" color-interpolation-filters="sRGB">
<feFlood flood-opacity="0" result="BackgroundImageFix"/>
<feColorMatrix in="SourceAlpha" type="matrix" values="0 0 0 0 0 0 0 0 0 0 0 0 0 0 0 0 0 0 127 0" result="hardAlpha"/>
<feOffset/>
<feGaussianBlur stdDeviation="12.7512"/>
<feComposite in2="hardAlpha" operator="out"/>
<feColorMatrix type="matrix" values="0 0 0 0 0.14902 0 0 0 0 0.188235 0 0 0 0 0.807843 0 0 0 1 0"/>
<feBlend mode="normal" in2="BackgroundImageFix" result="effect1_dropShadow_320_14"/>
<feBlend mode="normal" in="SourceGraphic" in2="effect1_dropShadow_320_14" result="shape"/>
</filter>
</defs>
</svg>
