<svg width="82" height="92" viewBox="0 0 82 92" fill="none" xmlns="http://www.w3.org/2000/svg">
<g clip-path="url(#clip0_2443_64172)">
<path d="M82 0H0V92H82V0Z" fill="#FAD605"/>
<path fill-rule="evenodd" clip-rule="evenodd" d="M0 0H82V92H0V0ZM2.55452 2.81111H79.4455V89.1889H2.55452V2.81111Z" fill="#25185A"/>
<path fill-rule="evenodd" clip-rule="evenodd" d="M5.19336 86.5482H9.02514C8.93998 85.8667 8.93998 85.2704 8.93998 84.5889C8.93998 74.7926 16.7738 66.7852 26.481 66.7852C36.1882 66.7852 44.1072 74.7926 44.1072 84.5889C44.1072 85.2704 44.022 85.8667 43.9369 86.5482H76.805V59.8001H72.6326C72.7178 60.3963 72.7178 60.9926 72.7178 61.5889C72.7178 69.5964 66.5018 75.9852 58.8382 75.9852C51.1747 75.9852 44.9587 69.5964 44.9587 61.5889L45.0438 5.4519H16.1778V10.9038C28.6949 10.9038 38.913 21.3815 38.913 34.3297C38.913 47.1926 28.6949 57.7556 16.1778 57.7556H5.19336V86.5482Z" fill="#25185A"/>
</g>
<defs>
<clipPath id="clip0_2443_64172">
<rect width="82" height="92" fill="white"/>
</clipPath>
</defs>
</svg>
