<svg width="24" height="24" viewBox="0 0 24 24" fill="none" xmlns="http://www.w3.org/2000/svg">
<path d="M20.0625 10.5005H13.5C12.9033 10.5005 12.331 10.2634 11.909 9.84148C11.4871 9.41952 11.25 8.84723 11.25 8.25049V1.68799C11.25 1.63826 11.2302 1.59057 11.1951 1.55541C11.1599 1.52024 11.1122 1.50049 11.0625 1.50049H6.75C5.95435 1.50049 5.19129 1.81656 4.62868 2.37917C4.06607 2.94178 3.75 3.70484 3.75 4.50049V19.5005C3.75 20.2961 4.06607 21.0592 4.62868 21.6218C5.19129 22.1844 5.95435 22.5005 6.75 22.5005H17.25C18.0457 22.5005 18.8087 22.1844 19.3713 21.6218C19.9339 21.0592 20.25 20.2961 20.25 19.5005V10.688C20.25 10.6383 20.2303 10.5906 20.1951 10.5554C20.1599 10.5202 20.1122 10.5005 20.0625 10.5005Z" fill="white"/>
<path d="M19.6519 8.84061L12.9099 2.09856C12.8968 2.08552 12.8801 2.07665 12.8619 2.07307C12.8438 2.06948 12.825 2.07134 12.8079 2.0784C12.7908 2.08547 12.7762 2.09743 12.7659 2.11277C12.7556 2.12812 12.7501 2.14617 12.75 2.16466V8.25037C12.75 8.44931 12.829 8.6401 12.9697 8.78078C13.1104 8.92145 13.3012 9.00048 13.5001 9.00048H19.5858C19.6043 9.0004 19.6224 8.99486 19.6377 8.98455C19.6531 8.97424 19.665 8.95963 19.6721 8.94254C19.6791 8.92546 19.681 8.90667 19.6774 8.88853C19.6738 8.8704 19.665 8.85372 19.6519 8.84061V8.84061Z" fill="#FAD605"/>
</svg>
