<svg width="24" height="24" viewBox="0 0 24 24" fill="none" xmlns="http://www.w3.org/2000/svg">
<path d="M20.6286 15.9989C20.5508 15.9052 20.4744 15.8114 20.3994 15.7209C19.3682 14.4736 18.7443 13.7208 18.7443 10.1897C18.7443 8.36157 18.3069 6.86156 17.4449 5.73656C16.8093 4.90547 15.9501 4.275 14.8176 3.80906C14.803 3.80096 14.79 3.79032 14.7791 3.77766C14.3718 2.41359 13.2571 1.5 11.9999 1.5C10.7427 1.5 9.62849 2.41359 9.22115 3.77625C9.21027 3.78845 9.19744 3.79875 9.18318 3.80672C6.54036 4.89469 5.25599 6.98203 5.25599 10.1883C5.25599 13.7208 4.63302 14.4736 3.60083 15.7195C3.52583 15.81 3.44943 15.9019 3.37161 15.9975C3.17061 16.2399 3.04326 16.5348 3.00464 16.8473C2.96601 17.1599 3.01772 17.4769 3.15365 17.7609C3.44286 18.3703 4.05927 18.7486 4.76286 18.7486H19.2421C19.9424 18.7486 20.5546 18.3708 20.8447 17.7642C20.9813 17.4801 21.0335 17.1628 20.9952 16.8499C20.9569 16.5371 20.8297 16.2417 20.6286 15.9989V15.9989Z" fill="#25185A"/>
<path d="M12.0014 22.5008C12.6788 22.5003 13.3435 22.3164 13.9249 21.9686C14.5063 21.6209 14.9828 21.1223 15.3037 20.5257C15.3188 20.4971 15.3263 20.4651 15.3254 20.4327C15.3245 20.4004 15.3152 20.3689 15.2985 20.3412C15.2818 20.3135 15.2582 20.2906 15.2301 20.2747C15.2019 20.2588 15.1701 20.2505 15.1378 20.2505H8.86592C8.83354 20.2504 8.80168 20.2587 8.77344 20.2745C8.7452 20.2904 8.72156 20.3133 8.7048 20.341C8.68804 20.3687 8.67874 20.4003 8.67781 20.4326C8.67688 20.465 8.68435 20.4971 8.69949 20.5257C9.02041 21.1222 9.49678 21.6208 10.0781 21.9685C10.6594 22.3162 11.324 22.5002 12.0014 22.5008Z" fill="#25185A"/>
</svg>
