<svg width="28" height="29" viewBox="0 0 28 29" fill="none" xmlns="http://www.w3.org/2000/svg">
<path d="M18.1913 4.03172C17.1271 2.88273 15.6407 2.25 14.0001 2.25C12.3507 2.25 10.8593 2.87891 9.80005 4.02078C8.72927 5.17523 8.20755 6.74422 8.33005 8.43844C8.57287 11.7809 11.1164 14.5 14.0001 14.5C16.8837 14.5 19.4229 11.7815 19.6695 8.43953C19.7936 6.76062 19.2686 5.19492 18.1913 4.03172Z" fill="#DB6F12"/>
<path d="M23.6253 26.75H4.37531C4.12335 26.7533 3.87382 26.7004 3.64489 26.5951C3.41595 26.4898 3.21337 26.3348 3.05188 26.1413C2.69641 25.7164 2.55313 25.1362 2.65922 24.5494C3.12078 21.9889 4.56125 19.838 6.82531 18.3281C8.83672 16.9877 11.3846 16.25 14.0003 16.25C16.616 16.25 19.1639 16.9883 21.1753 18.3281C23.4394 19.8375 24.8798 21.9884 25.3414 24.5488C25.4475 25.1356 25.3042 25.7159 24.9487 26.1408C24.7873 26.3343 24.5847 26.4894 24.3558 26.5948C24.1269 26.7002 23.8773 26.7532 23.6253 26.75Z" fill="#DB6F12"/>
</svg>
