<svg width="32" height="33" viewBox="0 0 32 33" fill="none" xmlns="http://www.w3.org/2000/svg">
<g clip-path="url(#clip0_2692_56259)">
<path d="M16.0017 18.7528C17.2452 18.7528 18.2533 17.7447 18.2533 16.5012C18.2533 15.2576 17.2452 14.2495 16.0017 14.2495C14.7581 14.2495 13.75 15.2576 13.75 16.5012C13.75 17.7447 14.7581 18.7528 16.0017 18.7528Z" fill="#FE696B"/>
<path d="M11.8892 21.8612C11.6949 21.8614 11.5027 21.8204 11.3253 21.7409C11.148 21.6614 10.9895 21.5451 10.8603 21.3999C9.66068 20.0498 8.99805 18.3065 8.99805 16.5005C8.99805 14.6944 9.66068 12.9511 10.8603 11.601C10.9793 11.4625 11.1247 11.349 11.288 11.2673C11.4513 11.1856 11.6292 11.1372 11.8114 11.1249C11.9936 11.1127 12.1764 11.1368 12.3492 11.196C12.5219 11.2552 12.6812 11.3482 12.8176 11.4695C12.954 11.5909 13.0649 11.7382 13.1438 11.9029C13.2227 12.0676 13.268 12.2463 13.2771 12.4287C13.2861 12.6111 13.2588 12.7935 13.1966 12.9652C13.1345 13.1369 13.0387 13.2945 12.915 13.4288C12.163 14.2754 11.7476 15.3684 11.7476 16.5008C11.7476 17.6331 12.163 18.7262 12.915 19.5728C13.091 19.7709 13.206 20.0156 13.2461 20.2775C13.2863 20.5394 13.25 20.8074 13.1415 21.0491C13.033 21.2908 12.857 21.4961 12.6346 21.6402C12.4122 21.7842 12.153 21.861 11.888 21.8612H11.8892Z" fill="#FE696B"/>
<path d="M20.1095 21.8612C19.8446 21.861 19.5853 21.7842 19.3629 21.6402C19.1405 21.4961 18.9645 21.2908 18.856 21.0491C18.7475 20.8074 18.7112 20.5394 18.7514 20.2775C18.7916 20.0156 18.9065 19.7709 19.0825 19.5728C19.8345 18.7262 20.2499 17.6331 20.2499 16.5008C20.2499 15.3684 19.8345 14.2754 19.0825 13.4288C18.9588 13.2945 18.863 13.1369 18.8009 12.9652C18.7387 12.7935 18.7114 12.6111 18.7204 12.4287C18.7295 12.2463 18.7748 12.0676 18.8537 11.9029C18.9326 11.7382 19.0435 11.5909 19.1799 11.4695C19.3164 11.3482 19.4756 11.2552 19.6484 11.196C19.8211 11.1368 20.0039 11.1127 20.1861 11.1249C20.3683 11.1372 20.5462 11.1856 20.7095 11.2673C20.8728 11.349 21.0182 11.4625 21.1372 11.601C22.3368 12.9511 22.9995 14.6944 22.9995 16.5005C22.9995 18.3065 22.3368 20.0498 21.1372 21.3999C21.0082 21.545 20.8499 21.6611 20.6728 21.7406C20.4956 21.8201 20.3037 21.8612 20.1095 21.8612Z" fill="#FE696B"/>
<path d="M8.70287 25.0458C8.51426 25.046 8.32764 25.0072 8.15471 24.9319C7.98177 24.8566 7.82625 24.7465 7.69787 24.6083C5.6418 22.4087 4.49805 19.5102 4.49805 16.4992C4.49805 13.4883 5.6418 10.5898 7.69787 8.39017C7.82093 8.25716 7.96908 8.14978 8.13378 8.07422C8.29848 7.99866 8.4765 7.9564 8.65759 7.94987C8.83868 7.94334 9.01928 7.97267 9.18899 8.03617C9.35871 8.09967 9.5142 8.1961 9.64653 8.3199C9.77885 8.4437 9.8854 8.59243 9.96005 8.75755C10.0347 8.92267 10.076 9.10092 10.0815 9.28204C10.087 9.46317 10.0567 9.6436 9.99225 9.81296C9.92781 9.98232 9.83053 10.1373 9.70599 10.2689C8.12638 11.9591 7.2477 14.1861 7.2477 16.4995C7.2477 18.8129 8.12638 21.04 9.70599 22.7302C9.88849 22.926 10.0099 23.1708 10.0552 23.4345C10.1006 23.6983 10.068 23.9696 9.96146 24.2151C9.85489 24.4607 9.67898 24.6698 9.4553 24.8167C9.23162 24.9637 8.9699 25.0423 8.70224 25.0427L8.70287 25.0458Z" fill="#FE696B"/>
<path d="M23.292 25.0461C23.0243 25.0457 22.7626 24.9672 22.539 24.8202C22.3153 24.6732 22.1394 24.4641 22.0328 24.2186C21.9262 23.973 21.8936 23.7018 21.939 23.438C21.9844 23.1742 22.1058 22.9294 22.2883 22.7336C23.8679 21.0434 24.7466 18.8164 24.7466 16.503C24.7466 14.1896 23.8679 11.9625 22.2883 10.2723C22.1637 10.1407 22.0664 9.98574 22.002 9.81638C21.9376 9.64702 21.9072 9.46659 21.9127 9.28546C21.9183 9.10434 21.9595 8.92609 22.0342 8.76097C22.1088 8.59585 22.2154 8.44712 22.3477 8.32331C22.48 8.19951 22.6355 8.10309 22.8053 8.03959C22.975 7.97608 23.1556 7.94676 23.3367 7.95329C23.5178 7.95982 23.6958 8.00208 23.8605 8.07764C24.0252 8.1532 24.1733 8.26057 24.2964 8.39358C26.3525 10.5932 27.4962 13.4917 27.4962 16.5027C27.4962 19.5136 26.3525 22.4121 24.2964 24.6117C24.1678 24.7492 24.0123 24.8588 23.8394 24.9335C23.6666 25.0083 23.4803 25.0466 23.292 25.0461Z" fill="#FE696B"/>
<path d="M26.8122 27.8752C26.5468 27.8752 26.287 27.7983 26.0643 27.6539C25.8416 27.5094 25.6655 27.3036 25.5572 27.0613C25.4489 26.819 25.413 26.5505 25.4539 26.2882C25.4949 26.026 25.6108 25.7812 25.7878 25.5834C28.0176 23.0832 29.2499 19.8503 29.2499 16.5002C29.2499 13.1502 28.0176 9.91722 25.7878 7.41711C25.5524 7.14428 25.4335 6.78995 25.4567 6.43034C25.4799 6.07073 25.6433 5.73459 25.9118 5.49426C26.1803 5.25393 26.5324 5.12861 26.8924 5.14527C27.2524 5.16193 27.5914 5.31925 27.8366 5.58336C30.5176 8.58771 31.9993 12.4736 31.9993 16.5002C31.9993 20.5269 30.5176 24.4128 27.8366 27.4171C27.7076 27.5612 27.5498 27.6765 27.3732 27.7554C27.1967 27.8344 27.0056 27.8752 26.8122 27.8752Z" fill="#FE696B"/>
<path d="M5.18836 27.8752C4.99475 27.8756 4.80326 27.835 4.62649 27.756C4.44971 27.677 4.29166 27.5615 4.16274 27.4171C1.48173 24.4128 0 20.5269 0 16.5002C0 12.4736 1.48173 8.58771 4.16274 5.58336C4.4079 5.31925 4.74694 5.16193 5.10691 5.14527C5.46688 5.12861 5.81901 5.25393 6.08752 5.49426C6.35603 5.73459 6.51946 6.07073 6.54264 6.43033C6.56583 6.78994 6.44691 7.14428 6.21149 7.41711C3.98166 9.91722 2.74939 13.1502 2.74939 16.5002C2.74939 19.8503 3.98166 23.0832 6.21149 25.5834C6.38841 25.7811 6.50435 26.0258 6.54532 26.2879C6.58629 26.5501 6.55054 26.8185 6.44238 27.0607C6.33422 27.303 6.15828 27.5088 5.93577 27.6534C5.71326 27.7979 5.45369 27.8749 5.18836 27.8752Z" fill="#FE696B"/>
<path d="M27.5338 28.8083L3.53906 4.81348" stroke="#F5F8FD" stroke-width="6" stroke-miterlimit="10" stroke-linecap="round"/>
<path d="M27.9948 28.494L4 6.49878" stroke="#FE696B" stroke-width="2" stroke-miterlimit="10" stroke-linecap="round"/>
</g>
<defs>
<clipPath id="clip0_2692_56259">
<rect width="32" height="32" fill="white" transform="translate(0 0.5)"/>
</clipPath>
</defs>
</svg>
