<svg width="28" height="29" viewBox="0 0 28 29" fill="none" xmlns="http://www.w3.org/2000/svg">
<path d="M18.0654 20.7687C18.1308 20.634 18.2419 20.527 18.379 20.4669C18.5161 20.4068 18.6701 20.3974 18.8135 20.4406C18.9542 20.5024 19.0661 20.6156 19.1262 20.757C19.1864 20.8985 19.1903 21.0575 19.1372 21.2018L18.4329 23.0437C18.3799 23.1781 18.277 23.2868 18.1458 23.3471C18.0145 23.4075 17.865 23.4147 17.7285 23.3674C17.6528 23.3442 17.5826 23.3059 17.5221 23.2549C17.4616 23.2038 17.4121 23.141 17.3765 23.0703C17.3409 22.9996 17.3201 22.9224 17.3151 22.8434C17.3102 22.7643 17.3213 22.6851 17.3479 22.6105L18.0654 20.7687ZM14.1104 20.7687C14.1714 20.6261 14.285 20.5125 14.4275 20.4514C14.5701 20.3903 14.7307 20.3864 14.876 20.4406C15.0168 20.5024 15.129 20.6154 15.1899 20.7566C15.2507 20.8979 15.2558 21.0569 15.2041 21.2018L13.8916 24.6143C13.8666 24.6818 13.8286 24.7437 13.7797 24.7965C13.7307 24.8493 13.6719 24.892 13.6065 24.9221C13.5411 24.9521 13.4704 24.969 13.3984 24.9718C13.3265 24.9745 13.2547 24.963 13.1872 24.9381C13.1197 24.9131 13.0578 24.875 13.005 24.8261C12.9522 24.7772 12.9095 24.7183 12.8795 24.6529C12.8494 24.5875 12.8325 24.5168 12.8298 24.4449C12.827 24.373 12.8385 24.3012 12.8635 24.2337L14.1104 20.7687ZM9.55599 20.7687C9.58098 20.6924 9.62137 20.622 9.67466 20.562C9.72795 20.5019 9.79301 20.4535 9.8658 20.4196C9.93859 20.3857 10.0176 20.3672 10.0978 20.3651C10.1781 20.363 10.2579 20.3774 10.3324 20.4074C10.4068 20.4374 10.4743 20.4824 10.5307 20.5396C10.587 20.5968 10.631 20.665 10.66 20.7398C10.6889 20.8147 10.7022 20.8948 10.6989 20.975C10.6956 21.0552 10.6759 21.1339 10.641 21.2062L9.93661 23.048C9.88363 23.1824 9.78076 23.2912 9.6495 23.3515C9.51824 23.4118 9.36874 23.4191 9.23224 23.3718C9.15619 23.3491 9.08558 23.3112 9.02474 23.2602C8.96391 23.2093 8.91413 23.1464 8.87848 23.0756C8.84283 23.0047 8.82206 22.9272 8.81744 22.848C8.81282 22.7688 8.82445 22.6895 8.85161 22.6149L9.55599 20.7687ZM14.7054 4.77805C15.6793 5.16593 16.5702 5.73613 17.3304 6.45805C18.2257 7.36464 18.8773 8.48281 19.2247 9.70867C19.5566 9.70871 19.8862 9.7634 20.2004 9.87055C20.5404 9.92944 20.8695 10.0401 21.176 10.1987C21.7375 10.45 22.2402 10.8162 22.6516 11.2735C23.063 11.7309 23.3741 12.2694 23.5647 12.8543C23.7697 13.4343 23.856 14.0497 23.8184 14.6637C23.7808 15.2777 23.6202 15.878 23.346 16.4287C23.3155 16.4974 23.2714 16.5592 23.2163 16.6103C23.1612 16.6615 23.0964 16.7009 23.0256 16.7263C22.9548 16.7516 22.8797 16.7624 22.8047 16.7579C22.7296 16.7533 22.6563 16.7336 22.5891 16.6999C22.4574 16.6305 22.3562 16.5146 22.3052 16.3747C22.2543 16.2348 22.2572 16.0809 22.3135 15.943C22.5256 15.5264 22.6494 15.0704 22.6772 14.6037C22.7051 14.137 22.6364 13.6695 22.4754 13.2305C22.1605 12.3563 21.5192 11.6381 20.686 11.2268C20.4419 11.1114 20.1869 11.0205 19.9247 10.9555C19.7833 10.9117 19.635 10.894 19.4872 10.903C19.53 11.2249 19.5446 11.5499 19.531 11.8743C19.5204 12.2555 19.4838 12.6356 19.4216 13.0118C19.3762 13.3957 19.3031 13.7759 19.2029 14.1493C19.1779 14.224 19.1384 14.293 19.0867 14.3525C19.0351 14.4119 18.9722 14.4606 18.9017 14.4957C18.8312 14.5309 18.7545 14.5518 18.6759 14.5573C18.5974 14.5628 18.5185 14.5527 18.4438 14.5277C18.293 14.4773 18.1683 14.3689 18.0974 14.2266C18.0622 14.1561 18.0413 14.0794 18.0358 14.0008C18.0303 13.9222 18.0404 13.8434 18.0654 13.7687C18.1689 13.4705 18.2422 13.1627 18.2841 12.8499C18.3403 12.5276 18.371 12.2014 18.376 11.8743C18.3622 10.1557 17.6887 8.50803 16.4947 7.2718C15.7787 6.55761 14.9073 6.01859 13.9485 5.6968L13.5635 5.58742L12.7497 5.42555C12.4785 5.42555 12.2072 5.37305 11.8747 5.37305C10.2421 5.3921 8.67782 6.03187 7.49974 7.16242C6.28342 8.26572 5.54305 9.79822 5.43474 11.4368V11.9224L4.89661 11.9749C4.06375 11.9811 3.26624 12.3123 2.67411 12.898C2.08206 13.4968 1.75 14.3048 1.75 15.1468C1.75 15.9888 2.08206 16.7968 2.67411 17.3955C2.97324 17.6925 3.3284 17.927 3.71895 18.0855C4.1095 18.2439 4.52766 18.3232 4.94911 18.3187C11.3454 18.3187 17.7941 18.2093 24.1991 18.3187C24.4747 18.314 24.7465 18.2539 24.9983 18.1419C25.2501 18.0299 25.4767 17.8683 25.6647 17.6668C26.0406 17.2766 26.2507 16.756 26.251 16.2143C26.2509 15.8191 26.1579 15.4295 25.9797 15.0768C25.7718 14.7404 25.4667 14.475 25.1047 14.3155L24.6235 14.0618L24.8947 13.5762C25.0435 13.2599 25.1707 12.934 25.2754 12.6005C25.3357 12.2536 25.3693 11.9026 25.376 11.5505C25.3782 10.9658 25.2633 10.3866 25.0378 9.84702C24.8124 9.30749 24.4811 8.81861 24.0635 8.4093C23.231 7.57389 22.1016 7.10201 20.9222 7.0968H20.3447L19.7454 7.20617L19.6885 6.6243C19.5784 5.90568 19.2116 5.25131 18.656 4.78242C18.3992 4.52992 18.0949 4.33073 17.7608 4.19633C17.4267 4.06192 17.0692 3.99496 16.7091 3.9993C16.1956 3.9836 15.6884 4.11571 15.2479 4.37992C15.0541 4.48737 14.8723 4.61495 14.7054 4.76055V4.77805Z" fill="#D7B403"/>
</svg>
