<svg width="24" height="24" viewBox="0 0 24 24" fill="none" xmlns="http://www.w3.org/2000/svg">
<path d="M20.9631 18.6965C20.5648 18.6869 20.173 18.7975 19.8385 19.0138C19.3808 19.2897 18.8566 19.4356 18.3222 19.4356C17.7878 19.4356 17.2636 19.2897 16.806 19.0138C16.4712 18.7981 16.0795 18.6875 15.6813 18.6965C15.2841 18.6854 14.8931 18.7962 14.5607 19.0138C14.1031 19.2897 13.5788 19.4356 13.0444 19.4356C12.5101 19.4356 11.9858 19.2897 11.5282 19.0138C11.1958 18.7962 10.8047 18.6854 10.4076 18.6965C10.0093 18.6869 9.61744 18.7975 9.28294 19.0138C8.83032 19.2995 8.30384 19.4461 7.7687 19.4356C7.3687 19.4469 6.97148 19.3658 6.60791 19.1986L6.70431 20.271H23.2043V19.4115C22.8079 19.3605 22.4271 19.2249 22.0877 19.0138C21.753 18.7981 21.3613 18.6875 20.9631 18.6965ZM20.9631 16.6882C20.5648 16.6786 20.173 16.7892 19.8385 17.0055C19.3808 17.2815 18.8566 17.4273 18.3222 17.4273C17.7878 17.4273 17.2636 17.2815 16.806 17.0055C16.4712 16.7898 16.0795 16.6793 15.6813 16.6882C15.2841 16.6772 14.8931 16.7879 14.5607 17.0055C14.1031 17.2815 13.5788 17.4273 13.0444 17.4273C12.5101 17.4273 11.9858 17.2815 11.5282 17.0055C11.1958 16.7879 10.8047 16.6772 10.4076 16.6882C10.0093 16.6786 9.61744 16.7892 9.28294 17.0055C8.83032 17.2912 8.30384 17.4379 7.7687 17.4273C7.29754 17.4397 6.83162 17.326 6.41914 17.0979L6.52357 18.2507C6.56373 18.2708 6.6039 18.2908 6.64406 18.3149C6.97882 18.5307 7.37054 18.6412 7.7687 18.6322C8.16587 18.6433 8.55692 18.5326 8.88932 18.3149C9.34695 18.039 9.87119 17.8932 10.4056 17.8932C10.9399 17.8932 11.4642 18.039 11.9218 18.3149C12.2563 18.5313 12.6482 18.6418 13.0465 18.6322C13.4436 18.6433 13.8347 18.5326 14.1671 18.3149C14.6247 18.039 15.149 17.8932 15.6833 17.8932C16.2177 17.8932 16.7419 18.039 17.1996 18.3149C17.5343 18.5307 17.926 18.6412 18.3242 18.6322C18.7214 18.6433 19.1124 18.5326 19.4448 18.3149C19.9032 18.039 20.4281 17.8932 20.9631 17.8932C21.4981 17.8932 22.023 18.039 22.4813 18.3149C22.7033 18.4526 22.9482 18.5492 23.2043 18.6001V17.4032C22.8079 17.3522 22.4271 17.2166 22.0877 17.0055C21.753 16.7898 21.3613 16.6793 20.9631 16.6882ZM20.9631 14.68C20.5648 14.6704 20.173 14.7809 19.8385 14.9973C19.3808 15.2732 18.8566 15.419 18.3222 15.419C17.7878 15.419 17.2636 15.2732 16.806 14.9973C16.4712 14.7815 16.0795 14.671 15.6813 14.68C15.2841 14.6689 14.8931 14.7796 14.5607 14.9973C14.1031 15.2732 13.5788 15.419 13.0444 15.419C12.5101 15.419 11.9858 15.2732 11.5282 14.9973C11.1958 14.7796 10.8047 14.6689 10.4076 14.68C10.0093 14.6704 9.61744 14.7809 9.28294 14.9973C8.83032 15.2829 8.30384 15.4296 7.7687 15.419C7.234 15.4306 6.7076 15.2854 6.25446 15.0013C6.24726 14.9982 6.2405 14.9941 6.23438 14.9892L6.33479 16.146C6.44324 16.1982 6.54767 16.2504 6.64406 16.3067C6.97798 16.5243 7.37029 16.635 7.7687 16.624C8.16587 16.6351 8.55692 16.5243 8.88932 16.3067C9.34695 16.0307 9.87119 15.8849 10.4056 15.8849C10.9399 15.8849 11.4642 16.0307 11.9218 16.3067C12.2563 16.523 12.6482 16.6336 13.0465 16.624C13.4436 16.6351 13.8347 16.5243 14.1671 16.3067C14.6247 16.0307 15.149 15.8849 15.6833 15.8849C16.2177 15.8849 16.7419 16.0307 17.1996 16.3067C17.5343 16.5224 17.926 16.6329 18.3242 16.624C18.7214 16.6351 19.1124 16.5243 19.4448 16.3067C19.9032 16.0307 20.4281 15.8849 20.9631 15.8849C21.4981 15.8849 22.023 16.0307 22.4813 16.3067C22.7033 16.4443 22.9482 16.5409 23.2043 16.5918V15.3949C22.8079 15.3439 22.4271 15.2083 22.0877 14.9973C21.753 14.7815 21.3613 14.671 20.9631 14.68Z" fill="#FAD605"/>
<path d="M5.56055 7.41797L5.77342 9.8279H23.2053V7.41797H5.56055Z" fill="white"/>
<path d="M20.9644 12.6717C20.5661 12.6621 20.1742 12.7726 19.8397 12.989C19.3821 13.2649 18.8579 13.4107 18.3235 13.4107C17.7891 13.4107 17.2649 13.2649 16.8072 12.989C16.4725 12.7732 16.0808 12.6627 15.6826 12.6717C15.2854 12.6606 14.8944 12.7713 14.562 12.989C14.1043 13.2649 13.5801 13.4107 13.0457 13.4107C12.5114 13.4107 11.9871 13.2649 11.5295 12.989C11.1971 12.7713 10.806 12.6606 10.4089 12.6717C10.0106 12.6621 9.61872 12.7726 9.28422 12.989C8.8316 13.2746 8.30511 13.4213 7.76998 13.4107C7.23351 13.4218 6.7056 13.2752 6.25172 12.989C6.18344 12.9528 6.11516 12.9126 6.04688 12.8805L6.15131 14.0574C6.32324 14.1248 6.48975 14.2054 6.64936 14.2984C6.9826 14.5142 7.37306 14.6247 7.76998 14.6157C8.16715 14.6268 8.5582 14.516 8.8906 14.2984C9.34823 14.0224 9.87247 13.8766 10.4068 13.8766C10.9412 13.8766 11.4655 14.0224 11.9231 14.2984C12.2576 14.5147 12.6495 14.6253 13.0477 14.6157C13.4449 14.6268 13.836 14.516 14.1684 14.2984C14.626 14.0224 15.1502 13.8766 15.6846 13.8766C16.219 13.8766 16.7432 14.0224 17.2009 14.2984C17.5356 14.5141 17.9273 14.6246 18.3255 14.6157C18.7227 14.6268 19.1137 14.516 19.4461 14.2984C19.9045 14.0224 20.4294 13.8766 20.9644 13.8766C21.4994 13.8766 22.0243 14.0224 22.4826 14.2984C22.7046 14.436 22.9495 14.5326 23.2056 14.5835V13.3866C22.8092 13.3356 22.4284 13.2 22.089 12.989C21.7543 12.7732 21.3625 12.6627 20.9644 12.6717Z" fill="#FAD605"/>
<path d="M1.89299 3L0.740234 20.2712H5.89749L4.35915 3H1.89299Z" fill="white"/>
</svg>
