<svg width="24" height="24" viewBox="0 0 24 24" fill="none" xmlns="http://www.w3.org/2000/svg">
<path d="M20.965 18.6968C20.5668 18.6872 20.1749 18.7977 19.8404 19.0141C19.3828 19.29 18.8585 19.4358 18.3242 19.4358C17.7898 19.4358 17.2655 19.29 16.8079 19.0141C16.4732 18.7983 16.0814 18.6878 15.6833 18.6968C15.2861 18.6857 14.895 18.7964 14.5627 19.0141C14.105 19.29 13.5808 19.4358 13.0464 19.4358C12.512 19.4358 11.9878 19.29 11.5302 19.0141C11.1978 18.7964 10.8067 18.6857 10.4095 18.6968C10.0113 18.6872 9.61939 18.7977 9.28489 19.0141C8.83227 19.2998 8.30579 19.4464 7.77065 19.4358C7.37065 19.4471 6.97343 19.366 6.60987 19.1988L6.70627 20.2712H23.2063V19.4117C22.8099 19.3607 22.4291 19.2251 22.0897 19.0141C21.7549 18.7983 21.3632 18.6878 20.965 18.6968ZM20.965 16.6885C20.5668 16.6789 20.1749 16.7895 19.8404 17.0058C19.3828 17.2817 18.8585 17.4275 18.3242 17.4275C17.7898 17.4275 17.2655 17.2817 16.8079 17.0058C16.4732 16.79 16.0814 16.6795 15.6833 16.6885C15.2861 16.6774 14.895 16.7881 14.5627 17.0058C14.105 17.2817 13.5808 17.4275 13.0464 17.4275C12.512 17.4275 11.9878 17.2817 11.5302 17.0058C11.1978 16.7881 10.8067 16.6774 10.4095 16.6885C10.0113 16.6789 9.61939 16.7895 9.28489 17.0058C8.83227 17.2915 8.30579 17.4381 7.77065 17.4275C7.29949 17.4399 6.83357 17.3262 6.42109 17.0982L6.52552 18.2509C6.56569 18.271 6.60585 18.2911 6.64602 18.3152C6.98077 18.5309 7.37249 18.6415 7.77065 18.6325C8.16782 18.6436 8.55887 18.5329 8.89127 18.3152C9.3489 18.0393 9.87315 17.8934 10.4075 17.8934C10.9419 17.8934 11.4661 18.0393 11.9238 18.3152C12.2583 18.5315 12.6502 18.6421 13.0484 18.6325C13.4456 18.6436 13.8366 18.5329 14.169 18.3152C14.6267 18.0393 15.1509 17.8934 15.6853 17.8934C16.2197 17.8934 16.7439 18.0393 17.2015 18.3152C17.5363 18.5309 17.928 18.6415 18.3262 18.6325C18.7233 18.6436 19.1144 18.5329 19.4468 18.3152C19.9051 18.0393 20.43 17.8934 20.965 17.8934C21.5 17.8934 22.0249 18.0393 22.4833 18.3152C22.7052 18.4528 22.9501 18.5494 23.2063 18.6004V17.4034C22.8099 17.3524 22.4291 17.2168 22.0897 17.0058C21.7549 16.79 21.3632 16.6795 20.965 16.6885ZM20.965 14.6802C20.5668 14.6706 20.1749 14.7812 19.8404 14.9975C19.3828 15.2734 18.8585 15.4192 18.3242 15.4192C17.7898 15.4192 17.2655 15.2734 16.8079 14.9975C16.4732 14.7817 16.0814 14.6712 15.6833 14.6802C15.2861 14.6691 14.895 14.7798 14.5627 14.9975C14.105 15.2734 13.5808 15.4192 13.0464 15.4192C12.512 15.4192 11.9878 15.2734 11.5302 14.9975C11.1978 14.7798 10.8067 14.6691 10.4095 14.6802C10.0113 14.6706 9.61939 14.7812 9.28489 14.9975C8.83227 15.2832 8.30579 15.4298 7.77065 15.4192C7.23595 15.4308 6.70956 15.2856 6.25641 15.0015C6.24921 14.9984 6.24246 14.9944 6.23633 14.9895L6.33674 16.1462C6.44519 16.1985 6.54962 16.2507 6.64602 16.3069C6.97994 16.5245 7.37224 16.6352 7.77065 16.6242C8.16782 16.6353 8.55887 16.5246 8.89127 16.3069C9.3489 16.031 9.87315 15.8852 10.4075 15.8852C10.9419 15.8852 11.4661 16.031 11.9238 16.3069C12.2583 16.5232 12.6502 16.6338 13.0484 16.6242C13.4456 16.6353 13.8366 16.5246 14.169 16.3069C14.6267 16.031 15.1509 15.8852 15.6853 15.8852C16.2197 15.8852 16.7439 16.031 17.2015 16.3069C17.5363 16.5227 17.928 16.6332 18.3262 16.6242C18.7233 16.6353 19.1144 16.5246 19.4468 16.3069C19.9051 16.031 20.43 15.8852 20.965 15.8852C21.5 15.8852 22.0249 16.031 22.4833 16.3069C22.7052 16.4445 22.9501 16.5411 23.2063 16.5921V15.3951C22.8099 15.3441 22.4291 15.2085 22.0897 14.9975C21.7549 14.7817 21.3632 14.6712 20.965 14.6802Z" fill="#D7B403"/>
<path d="M5.56152 7.41821L5.7744 9.82815H23.2063V7.41821H5.56152Z" fill="#25185A"/>
<path d="M20.9644 12.6719C20.5661 12.6623 20.1742 12.7729 19.8397 12.9892C19.3821 13.2651 18.8579 13.4109 18.3235 13.4109C17.7891 13.4109 17.2649 13.2651 16.8072 12.9892C16.4725 12.7734 16.0808 12.6629 15.6826 12.6719C15.2854 12.6608 14.8944 12.7715 14.562 12.9892C14.1043 13.2651 13.5801 13.4109 13.0457 13.4109C12.5114 13.4109 11.9871 13.2651 11.5295 12.9892C11.1971 12.7715 10.806 12.6608 10.4089 12.6719C10.0106 12.6623 9.61872 12.7729 9.28422 12.9892C8.8316 13.2749 8.30511 13.4215 7.76998 13.4109C7.23351 13.4221 6.7056 13.2754 6.25172 12.9892C6.18344 12.9531 6.11516 12.9129 6.04688 12.8808L6.15131 14.0576C6.32324 14.1251 6.48975 14.2057 6.64936 14.2986C6.9826 14.5144 7.37306 14.625 7.76998 14.6159C8.16715 14.627 8.5582 14.5163 8.8906 14.2986C9.34823 14.0227 9.87247 13.8769 10.4068 13.8769C10.9412 13.8769 11.4655 14.0227 11.9231 14.2986C12.2576 14.5149 12.6495 14.6255 13.0477 14.6159C13.4449 14.627 13.836 14.5163 14.1684 14.2986C14.626 14.0227 15.1502 13.8769 15.6846 13.8769C16.219 13.8769 16.7432 14.0227 17.2009 14.2986C17.5356 14.5144 17.9273 14.6249 18.3255 14.6159C18.7227 14.627 19.1137 14.5163 19.4461 14.2986C19.9045 14.0227 20.4294 13.8769 20.9644 13.8769C21.4994 13.8769 22.0243 14.0227 22.4826 14.2986C22.7046 14.4362 22.9495 14.5328 23.2056 14.5838V13.3868C22.8092 13.3358 22.4284 13.2002 22.089 12.9892C21.7543 12.7734 21.3625 12.6629 20.9644 12.6719Z" fill="#D7B403"/>
<path d="M1.89396 3L0.741211 20.2712H5.89847L4.36013 3H1.89396Z" fill="#25185A"/>
</svg>
