<svg width="28" height="28" viewBox="0 0 28 28" fill="none" xmlns="http://www.w3.org/2000/svg">
<path d="M1.74425 18.912L0.875 26.8363L4.02958 27.1823L4.89883 19.2581L1.74425 18.912Z" fill="#FF8F19"/>
<path d="M17.2449 14.9695L17.7455 14.9889V17.4926H18.6067V14.9889L19.0781 14.9696C22.2273 14.8682 24.84 12.3663 24.9122 9.39129L24.9415 8.64615C24.9436 8.58921 24.9333 8.53245 24.9114 8.47946C24.8895 8.42647 24.8563 8.37837 24.814 8.33819C24.7717 8.298 24.7212 8.2666 24.6655 8.24595C24.6099 8.22529 24.5505 8.21583 24.4908 8.21816L23.7223 8.24924C21.5365 8.32038 19.591 9.57335 18.6067 11.3408V9.8674L19.0004 9.4451C21.1523 7.24683 21.1455 3.70906 18.9937 1.55667L18.4618 1.00782C18.4212 0.965938 18.372 0.932515 18.3173 0.909657C18.2625 0.8868 18.2034 0.875 18.1437 0.875C18.0839 0.875 18.0248 0.8868 17.9701 0.909657C17.9153 0.932515 17.8661 0.965938 17.8256 1.00782L17.2959 1.5572C15.1681 3.73267 15.1808 7.27122 17.3063 9.44269L17.7455 9.88532V11.3414C16.6996 9.57306 14.7912 8.32044 12.6077 8.24935L11.8171 8.21816C11.7571 8.21592 11.6973 8.22542 11.6413 8.24607C11.5853 8.26672 11.5343 8.29809 11.4914 8.33824C11.4491 8.37839 11.4159 8.42648 11.394 8.47947C11.3721 8.53246 11.3619 8.58921 11.3641 8.64615L11.4022 9.39129C11.4744 12.3663 14.0992 14.8682 17.2449 14.9695ZM24.4827 22.4528L24.4723 22.4566L20.1092 24.0231C20.1372 24.2515 20.1382 24.4822 20.1121 24.7109C20.106 24.7646 20.0888 24.8166 20.0616 24.8639C20.0343 24.9113 19.9976 24.953 19.9535 24.9868C19.9094 25.0206 19.8587 25.0458 19.8044 25.0609C19.7501 25.076 19.6932 25.0807 19.637 25.0748L13.5266 24.4344C13.4701 24.4289 13.4152 24.4128 13.3652 24.387C13.3152 24.3612 13.2711 24.3261 13.2353 24.2839C13.1996 24.2417 13.1729 24.1932 13.1569 24.1411C13.1409 24.089 13.1358 24.0344 13.142 23.9804C13.1482 23.9264 13.1656 23.8742 13.193 23.8266C13.2205 23.7791 13.2575 23.7372 13.302 23.7034C13.3465 23.6696 13.3976 23.6446 13.4522 23.6297C13.5069 23.6148 13.5641 23.6105 13.6206 23.6168L19.2636 24.2082C19.2217 23.686 18.9903 23.1943 18.6093 22.8177C18.2282 22.4412 17.7215 22.2035 17.1765 22.1457L13.4592 21.7561C12.7602 21.6818 12.086 21.4648 11.4824 21.1198C11.4767 21.1165 11.4709 21.1134 11.4653 21.1099C11.4442 21.0977 11.4229 21.0857 11.402 21.0732L11.039 20.8558C10.1592 20.3266 9.14589 20.0343 8.10637 20.01C7.06686 19.9856 6.03979 20.2301 5.13385 20.7176L4.53516 25.9278L5.2377 25.6364C5.89691 25.3615 6.64221 25.3421 7.3161 25.5824L13.4942 27.7725C14.6975 28.108 15.9811 28.0716 17.1616 27.6687L26.4102 22.9305C26.1857 22.6631 25.8768 22.4722 25.5295 22.3861C25.1822 22.3 24.815 22.3234 24.4827 22.4528Z" fill="#FF8F19"/>
<path d="M22.334 19.8225C21.8002 19.7188 21.2435 19.4784 20.6542 19.2238C19.88 18.8893 19.0024 18.5103 18.0583 18.4045C16.9504 18.2804 15.8922 18.5711 14.8682 18.8521C14.3961 18.9817 13.9086 19.1156 13.4263 19.2053C12.8387 19.3148 12.5162 20.3322 12.4102 20.9946C12.8545 21.2027 13.3363 21.3354 13.8323 21.3863L17.6358 21.7684C18.2245 21.8279 18.7847 22.0318 19.2573 22.3586C19.7299 22.6854 20.0972 23.1229 20.3205 23.625L24.6602 22.1318C24.6403 21.9179 24.5243 21.6454 24.3248 21.3522C23.8303 20.6258 22.9372 19.9396 22.334 19.8225Z" fill="#FF8F19"/>
</svg>
