<svg width="28" height="29" viewBox="0 0 28 29" fill="none" xmlns="http://www.w3.org/2000/svg">
<g clip-path="url(#clip0_1164_44111)">
<path fill-rule="evenodd" clip-rule="evenodd" d="M7.38192 3.90841V1.4591C7.38192 1.15942 7.62532 0.916016 7.92528 0.916016C8.22497 0.916016 8.46837 1.15942 8.46837 1.4591V3.90841H11.4319V1.4591C11.4319 1.15942 11.6753 0.916016 11.9753 0.916016C12.275 0.916016 12.5187 1.15942 12.5187 1.4591V3.90841H15.482V1.4591C15.482 1.15942 15.7254 0.916016 16.0253 0.916016C16.3253 0.916016 16.5687 1.15942 16.5687 1.4591V3.90841H19.532V1.4591C19.532 1.15942 19.7754 0.916016 20.0753 0.916016C20.3753 0.916016 20.6187 1.15942 20.6187 1.4591V3.90841H21.6572C23.2779 3.90841 24.5919 5.22247 24.5919 6.84314V7.88164H27.041C27.3409 7.88164 27.5843 8.12504 27.5843 8.42501C27.5843 8.72469 27.3409 8.96837 27.041 8.96837H24.5919V11.9317H27.041C27.3409 11.9317 27.5843 12.1751 27.5843 12.475C27.5843 12.775 27.3409 13.0184 27.041 13.0184H24.5919V15.9817H27.041C27.3409 15.9817 27.5843 16.2251 27.5843 16.525C27.5843 16.825 27.3409 17.0684 27.041 17.0684H24.5919V20.0317H27.041C27.3409 20.0317 27.5843 20.2754 27.5843 20.5751C27.5843 20.875 27.3409 21.1184 27.041 21.1184H24.5919V22.1569C24.5919 23.7776 23.2779 25.0917 21.6572 25.0917H20.6187V27.541C20.6187 27.8406 20.3753 28.0843 20.0753 28.0843C19.7754 28.0843 19.532 27.8406 19.532 27.541V25.0917H16.5687V27.541C16.5687 27.8406 16.3253 28.0843 16.0253 28.0843C15.7254 28.0843 15.482 27.8406 15.482 27.541V25.0917H12.5187V27.541C12.5187 27.8406 12.275 28.0843 11.9753 28.0843C11.6753 28.0843 11.4319 27.8406 11.4319 27.541V25.0917H8.46837V27.541C8.46837 27.8406 8.22497 28.0843 7.92528 28.0843C7.62532 28.0843 7.38192 27.8406 7.38192 27.541V25.0917H6.34342C4.72247 25.0917 3.40869 23.7776 3.40869 22.1569V21.1184H0.959382C0.659699 21.1184 0.416016 20.875 0.416016 20.5751C0.416016 20.2754 0.659699 20.0317 0.959382 20.0317H3.40869V17.0684H0.959382C0.659699 17.0684 0.416016 16.825 0.416016 16.525C0.416016 16.2251 0.659699 15.9817 0.959382 15.9817H3.40869V13.0184H0.959382C0.659699 13.0184 0.416016 12.775 0.416016 12.475C0.416016 12.1751 0.659699 11.9317 0.959382 11.9317H3.40869V8.96837H0.959382C0.659699 8.96837 0.416016 8.72469 0.416016 8.42501C0.416016 8.12504 0.659699 7.88164 0.959382 7.88164H3.40869V6.84314C3.40869 5.22247 4.72247 3.90841 6.34342 3.90841H7.38192ZM20.6362 10.7986C20.6362 9.17795 19.3224 7.86417 17.7017 7.86417H10.2989C8.67823 7.86417 7.36417 9.17795 7.36417 10.7986V18.2014C7.36417 19.8221 8.67823 21.1359 10.2989 21.1359H17.7014C19.3224 21.1359 20.6362 19.8221 20.6362 18.2014V10.7986ZM19.5494 10.7986C19.5494 9.77815 18.7222 8.95063 17.7014 8.95063H10.2989C9.27843 8.95063 8.45091 9.77815 8.45091 10.7986V18.2014C8.45091 19.2219 9.27843 20.0494 10.2989 20.0494H17.7014C18.7222 20.0494 19.5494 19.2219 19.5494 18.2014V10.7986Z" fill="#2E77D8"/>
</g>
<defs>
<clipPath id="clip0_1164_44111">
<rect width="28" height="28" fill="white" transform="translate(0 0.5)"/>
</clipPath>
</defs>
</svg>
