<svg width="1040" height="28" viewBox="0 0 1040 28" fill="none" xmlns="http://www.w3.org/2000/svg">
<path d="M103.97 19.981C103.831 19.9877 103.748 19.9934 103.667 19.9934C101.604 19.9934 99.5406 19.9934 97.4778 19.9991C97.3858 20.0054 97.2939 19.9867 97.213 19.9452C97.132 19.9037 97.0654 19.8412 97.0211 19.7652C95.7028 17.8881 94.3754 16.0177 93.0571 14.1407C93.0207 14.0757 92.9648 14.0222 92.8964 13.9869C92.8279 13.9515 92.75 13.9359 92.6722 13.9419C91.9933 13.9515 91.3145 13.9553 90.6366 13.9419C90.4093 13.9372 90.3578 14.0038 90.3588 14.2091C90.3669 16.0272 90.3588 17.8444 90.3689 19.6625C90.3689 19.9173 90.3265 20.0067 90.0234 20.0038C88.2717 19.9877 86.519 19.9915 84.7703 20.0038C84.5249 20.0038 84.4521 19.9477 84.4531 19.7091C84.4592 13.2354 84.4592 6.76182 84.4531 0.288194C84.4531 0.0694907 84.5107 0.00292853 84.7471 0.00863384C88.0626 0.01529 91.3791 0.00102734 94.6956 0.0181433C96.3625 0.0276521 98.0051 0.227337 99.5214 0.935747C101.966 2.07681 103.194 3.95861 103.276 6.51839C103.313 7.6024 103.18 8.65598 102.719 9.66107C102.071 11.0731 100.957 12.0611 99.5335 12.7686C99.4921 12.7895 99.4497 12.8085 99.4073 12.8275C98.9476 13.0443 98.9456 13.0453 99.2456 13.4579C100.76 15.5404 102.276 17.6225 103.792 19.7043C103.84 19.7775 103.891 19.8612 103.97 19.981ZM90.3608 7.20493C90.3608 7.91429 90.3709 8.62365 90.3558 9.33301C90.3558 9.55171 90.4295 9.59545 90.6437 9.5926C91.5387 9.58309 92.4338 9.5926 93.3288 9.5869C93.9026 9.5869 94.4774 9.62113 95.0462 9.5327C96.2898 9.34252 97.3101 8.6769 97.3535 7.29526C97.3767 6.54407 97.1646 5.8775 96.4847 5.40395C95.956 5.04268 95.3197 4.84768 94.6663 4.84674C93.3106 4.82106 91.9529 4.83342 90.5972 4.82201C90.4093 4.82201 90.3568 4.87811 90.3588 5.04927C90.3659 5.76434 90.3618 6.48606 90.3608 7.20493Z" fill="#FAD605"/>
<path d="M62.5968 6.08226C62.5968 7.87373 62.618 9.66519 62.5907 11.4567C62.5634 13.2025 62.2402 14.8913 61.3108 16.4364C60.3501 18.0349 58.9156 19.0904 57.0942 19.7037C55.796 20.1411 54.4525 20.3161 53.0776 20.3446C51.5623 20.3769 50.0762 20.2495 48.6246 19.8168C46.1091 19.0647 44.3817 17.5404 43.4877 15.1946C43.0523 14.0219 42.8349 12.7873 42.8452 11.5451C42.831 7.80146 42.8452 4.05878 42.832 0.316094C42.832 0.0498465 42.9149 0.00230233 43.1775 0.0042041C44.9582 0.0156147 46.7388 0.0156147 48.5195 0.0042041C48.7801 0.0042041 48.8226 0.07552 48.8226 0.30088C48.8145 3.94594 48.8145 7.591 48.8226 11.2361C48.8226 12.0472 48.96 12.8392 49.358 13.5781C49.5706 13.9941 49.8814 14.3588 50.2665 14.6446C50.6517 14.9303 51.1011 15.1295 51.5804 15.2269C52.482 15.4447 53.4322 15.4026 54.308 15.1062C55.5071 14.6916 56.1628 13.8301 56.4507 12.6909C56.559 12.259 56.6132 11.8167 56.6123 11.373C56.6123 7.68355 56.6123 3.99412 56.6042 0.304684C56.6042 0.0536504 56.682 0.00420358 56.9315 0.00515446C58.7216 0.0159312 60.5117 0.0159312 62.3018 0.00515446C62.5341 0.00515446 62.6049 0.0565026 62.6049 0.281862C62.5927 2.21501 62.5968 4.14816 62.5968 6.08226Z" fill="white"/>
<path d="M64.76 10.007C64.76 6.77395 64.76 3.5495 64.7539 0.321242C64.7539 0.0616506 64.8297 0.00174574 65.0984 0.00269662C68.0674 0.0112546 71.0354 -0.00681216 74.0034 0.0131564C75.9288 0.0274197 77.7896 0.343114 79.4585 1.31492C81.3779 2.43221 82.3942 4.07248 82.6245 6.17394C82.769 7.4814 82.6387 8.75844 82.0952 9.97748C81.3698 11.6044 80.0808 12.7075 78.3897 13.413C76.931 14.0216 75.3904 14.2688 73.8024 14.2688C72.8406 14.2688 71.883 14.2764 70.9182 14.2641C70.6879 14.2641 70.6364 14.3335 70.6364 14.5379C70.6444 16.259 70.6364 17.9792 70.6465 19.7003C70.6465 19.9323 70.5899 19.9979 70.3363 19.997C68.5745 19.9855 66.8124 19.9855 65.0499 19.997C64.8135 19.997 64.7549 19.937 64.7549 19.7183C64.763 16.4822 64.7647 13.245 64.76 10.007ZM70.6414 7.30359C70.6414 8.10994 70.6414 8.92009 70.6414 9.72264C70.6414 9.8957 70.6929 9.9518 70.8798 9.9499C71.7365 9.94134 72.5972 9.9499 73.4508 9.94324C74.0635 9.9452 74.6706 9.83273 75.2368 9.61234C76.8865 8.94672 77.3492 6.73021 76.0874 5.52353C75.451 4.91592 74.6358 4.72099 73.7751 4.69151C72.8164 4.65918 71.8557 4.6839 70.895 4.67344C70.6929 4.67344 70.6384 4.72384 70.6404 4.91021C70.6475 5.70801 70.6414 6.5058 70.6414 7.30359Z" fill="#FAD605"/>
<path d="M23.9182 9.97919C23.9182 6.75125 23.9162 3.523 23.9121 0.294427C23.9121 0.0586073 23.9737 0.00345566 24.2222 0.00440654C27.1902 0.0129645 30.1582 0.00440712 33.1262 0.013916C34.8264 0.0224739 36.4862 0.271605 38.0197 1.00854C40.428 2.16767 41.6564 4.05137 41.8049 6.57978C41.8847 7.91101 41.6888 9.19566 41.0392 10.3947C40.2229 11.9019 38.9117 12.8908 37.2721 13.5193C35.9398 14.0172 34.5193 14.2728 33.0858 14.2724C32.0756 14.2829 31.0654 14.28 30.0613 14.2724C29.8511 14.2724 29.7935 14.319 29.7946 14.5216C29.8036 16.2598 29.7946 17.998 29.8047 19.7362C29.8047 19.9483 29.743 19.9996 29.5228 19.9977C27.7516 19.9901 25.9803 19.9901 24.2091 19.9977C23.9727 19.9977 23.9131 19.9397 23.9131 19.7191C23.9246 16.4728 23.9263 13.2261 23.9182 9.97919ZM29.7996 7.311C29.7996 8.10024 29.8087 8.89042 29.7935 9.67871C29.7885 9.90692 29.8653 9.95446 30.0966 9.95066C30.8977 9.93735 31.6988 9.95066 32.4999 9.944C32.933 9.94481 33.3647 9.89725 33.7859 9.80232C35.6477 9.35731 36.5044 7.61529 35.6295 6.03777C35.1679 5.20289 34.3546 4.86057 33.4242 4.74266C32.2726 4.59718 31.1098 4.70558 29.9532 4.67515C29.7612 4.67515 29.8036 4.79211 29.8036 4.89005C29.7996 5.69704 29.7983 6.50402 29.7996 7.311Z" fill="white"/>
<rect x="2.00391" y="2" width="17.2231" height="15.9897" stroke="white" stroke-width="4"/>
<path d="M11.7148 0.021151C11.7997 0.021151 11.8835 0.00878906 11.9684 0.00878906C14.9613 0.00878906 17.9549 0.00878906 20.9492 0.00878906C21.1451 0.00878906 21.228 0.037315 21.228 0.250313C21.2206 4.62819 21.2186 9.00606 21.2219 13.3839C21.2219 13.4277 21.2148 13.4714 21.2118 13.5161H20.6744C20.1996 13.5161 20.1996 13.5161 20.1541 13.9507C20.0455 14.9676 19.5256 15.9063 18.702 16.5724C17.8783 17.2384 16.8141 17.5808 15.7297 17.5286C14.6452 17.4765 13.6236 17.0337 12.8764 16.2921C12.1293 15.5504 11.7137 14.5667 11.7159 13.5446C11.7152 9.0349 11.7148 4.52708 11.7148 0.021151Z" fill="#FAD605"/>
<path d="M11.7138 0.0211248C11.7138 4.52768 11.7138 9.03361 11.7138 13.5389C11.7097 14.5624 12.1247 15.5481 12.8723 16.2913C13.62 17.0345 14.6431 17.478 15.7291 17.5299C16.8151 17.5818 17.8806 17.238 18.7044 16.5699C19.5282 15.9018 20.047 14.9607 20.1531 13.9421C20.1985 13.5075 20.1985 13.5075 20.6733 13.5075H21.2108C21.2108 14.0914 21.2219 14.6762 21.2219 15.261C21.2219 16.7586 21.2219 18.2562 21.2219 19.7529C21.2219 19.9089 21.2057 19.9907 20.9996 19.9897C17.9501 19.9827 14.9 19.9808 11.8492 19.984C11.7937 19.9789 11.7389 19.9687 11.6855 19.9536C11.68 19.0478 11.4132 18.1604 10.9137 17.3862C9.85298 15.7307 7.65375 14.757 5.65253 15.0679C3.02599 15.4759 1.2167 17.4451 1.14295 19.965C0.815647 20.0116 0.485309 19.9716 0.158001 19.9869C-0.0329284 19.9964 0.00748023 19.8718 0.00748023 19.7719C0.00748023 18.7704 0.00748023 17.7688 0.00748023 16.7672C0.00748023 15.5082 0.0105105 14.2495 0.0165717 12.9912C1.17528 12.9912 2.33399 12.9855 3.49169 12.9912C4.1516 13.0017 4.80867 12.9075 5.43533 12.7126C7.82852 11.9452 9.34181 10.3886 9.76913 8.05325C10.2076 5.65131 9.32464 3.66016 7.24361 2.18249C6.25299 1.47688 5.0509 1.08385 3.8089 1.05949C3.60685 1.05379 3.49472 1.01765 3.51392 0.79039C3.53513 0.534602 3.51392 0.276912 3.51392 0.0192227C3.85234 0.0192227 4.18975 0.00876338 4.52412 0.0078125H11.4036C11.5047 0.00971427 11.6107 0.0173213 11.7138 0.0211248Z" fill="#25185A"/>
<path d="M3.51425 0.0211227C3.51425 0.278813 3.53748 0.536502 3.51425 0.79229C3.49506 1.01955 3.60618 1.05568 3.80923 1.06139C5.05124 1.08575 6.25333 1.47878 7.24394 2.18439C9.32396 3.66206 10.2069 5.65321 9.76946 8.05515C9.34215 10.3943 7.82885 11.9538 5.43567 12.7145C4.809 12.9094 4.15193 13.0036 3.49202 12.9931C2.33432 12.9855 1.17561 12.9931 0.0169048 12.9931C0.0169048 12.9047 0.0078125 12.8162 0.0078125 12.7278C0.0078125 8.58828 0.0078125 4.44908 0.0078125 0.310191C0.0078125 0.0734208 0.0613542 -0.00455126 0.328049 0.000203163C1.38675 0.0220735 2.45151 0.0173192 3.51425 0.0211227Z" fill="#FAD605"/>
<path d="M1.14453 19.9687C1.21828 17.4469 3.02958 15.4795 5.65411 15.0716C7.65533 14.7607 9.85456 15.7372 10.9153 17.3899C11.4148 18.1641 11.6815 19.0515 11.6871 19.9573C11.6134 19.9677 11.5392 19.9743 11.4648 19.9772H1.28495C1.23747 19.9791 1.191 19.9725 1.14453 19.9687Z" fill="#FAD605"/>
<path d="M28.9838 25.0125C28.6148 25.5399 28.2444 26.0683 27.8726 26.5976C27.6605 26.9029 27.6635 26.9048 27.4423 26.59C27.0766 26.0689 26.7109 25.544 26.2876 25.0334V25.332C26.2876 26.1203 26.2876 26.9095 26.2876 27.6978C26.2876 27.8556 26.2522 27.9251 26.0694 27.9127C25.8535 27.8984 25.6367 27.8984 25.4208 27.9127C25.2188 27.927 25.1673 27.8604 25.1683 27.675C25.1784 26.7089 25.1733 25.7428 25.1733 24.7767C25.1733 24.3336 25.1824 23.8905 25.1683 23.4454C25.1622 23.2553 25.2461 23.2353 25.4269 23.2049C26.134 23.0879 26.5846 23.3285 26.8806 23.9494C27.0745 24.3564 27.3766 24.7177 27.6312 25.099C27.6403 25.1123 27.6605 25.1199 27.6867 25.139C28.0676 24.5608 28.4535 23.9874 28.8252 23.4055C28.8584 23.3388 28.9133 23.2838 28.982 23.2485C29.0507 23.2133 29.1296 23.1997 29.2071 23.2096C29.4611 23.2225 29.7157 23.2225 29.9698 23.2096C30.1203 23.2049 30.1627 23.2572 30.1617 23.3941C30.1577 24.8388 30.1577 26.2835 30.1617 27.7282C30.1617 27.8642 30.1264 27.9184 29.9738 27.9089C29.6708 27.8937 29.2909 27.9973 29.099 27.8585C28.9071 27.7197 29.0485 27.346 29.0455 27.074C29.0384 26.3922 29.0455 25.7114 29.0455 25.0296L28.9838 25.0125Z" fill="white"/>
<path d="M37.164 24.9396C37.164 25.8905 37.1539 26.7691 37.1711 27.6459C37.1711 27.8769 37.1003 27.9311 36.868 27.9131C36.6612 27.8988 36.4535 27.8988 36.2467 27.9131C36.1023 27.9197 36.0517 27.8826 36.0527 27.7371C36.0575 26.2924 36.0575 24.8474 36.0527 23.4021C36.0527 23.2699 36.0861 23.1967 36.2406 23.2119C36.2594 23.2143 36.2784 23.2143 36.2972 23.2119C37.0044 23.0797 37.4701 23.325 37.7671 23.9612C37.961 24.3767 38.2722 24.7428 38.549 25.1574C38.9329 24.5783 39.3137 24.023 39.6703 23.4534C39.7865 23.2689 39.9117 23.1891 40.1401 23.2081C40.3756 23.2215 40.6117 23.2215 40.8472 23.2081C40.9937 23.2033 41.0492 23.2528 41.0492 23.3926C41.0492 24.8373 41.0492 26.2823 41.0492 27.7276C41.0492 27.8722 40.9927 27.9112 40.8472 27.9055C40.6218 27.8912 40.3957 27.8912 40.1704 27.9055C39.939 27.9273 39.9148 27.8322 39.9168 27.6487C39.9259 26.7634 39.9168 25.8782 39.9168 24.9168L38.5318 26.8861L37.164 24.9396Z" fill="white"/>
<path d="M45.5618 25.4617C46.0831 25.6623 46.4175 25.9666 46.4397 26.4944C46.473 27.3064 45.9831 27.8256 45.0194 27.8817C44.1374 27.935 43.2495 27.9007 42.3645 27.9112C42.1625 27.9112 42.2029 27.7838 42.2019 27.6763C42.2019 26.7635 42.2019 25.8503 42.2019 24.9368C42.2019 24.4319 42.2019 23.926 42.2019 23.4211C42.2019 23.3051 42.2019 23.21 42.3736 23.2148C43.2485 23.2376 44.1273 23.152 45.0002 23.2595C45.9174 23.3726 46.4054 24.1419 46.0882 24.9083C45.9871 25.1422 45.7932 25.2924 45.5618 25.4617ZM44.0738 26.9593C44.3354 26.9593 44.6001 27.0107 44.8608 26.9498C45.182 26.8738 45.3396 26.7169 45.3345 26.4744C45.3295 26.2319 45.1618 26.0769 44.8365 26.018C44.4264 25.9428 44.0091 26.0113 43.597 25.978C43.3576 25.959 43.2788 26.0313 43.3091 26.2528C43.3394 26.4744 43.2081 26.8034 43.3656 26.9365C43.503 27.0487 43.8313 26.9593 44.0738 26.9593ZM43.99 24.1694V24.1552C43.8212 24.1552 43.6515 24.1552 43.4848 24.1552C43.3747 24.1552 43.3081 24.1723 43.3121 24.2978C43.3202 24.5194 43.3171 24.7409 43.3121 24.9634C43.3121 25.0585 43.3374 25.1127 43.4535 25.108C43.8374 25.0909 44.2233 25.1413 44.6052 25.0709C44.887 25.0186 45.0547 24.8588 45.0557 24.6392C45.0557 24.3824 44.89 24.2065 44.5819 24.1771C44.3849 24.165 44.1873 24.1624 43.99 24.1694Z" fill="white"/>
<path d="M56.2118 25.946C56.2118 25.1235 56.2199 24.301 56.2118 23.4785C56.2118 23.2664 56.2704 23.1932 56.4957 23.2122C56.7025 23.2265 56.9102 23.2265 57.117 23.2122C57.2897 23.2027 57.3453 23.2617 57.3433 23.4252C57.3342 24.0281 57.3433 24.6309 57.3433 25.2319C57.3433 26.0392 57.3433 26.8484 57.3433 27.6528C57.3433 27.843 57.314 27.9162 57.0867 27.9134C56.3704 27.9067 56.3724 27.9134 55.9421 27.3761C55.3188 26.5993 54.6915 25.8252 54.0641 25.0465C53.9742 25.1007 54.0176 25.1786 54.0176 25.2367C54.0176 26.0516 54.0106 26.8674 54.0176 27.6833C54.0176 27.8497 53.9843 27.9239 53.7893 27.9086C53.5731 27.8929 53.356 27.8929 53.1398 27.9086C52.9377 27.922 52.8852 27.8592 52.8872 27.6719C52.8973 26.7942 52.8872 25.9165 52.8872 25.0389C52.8872 24.5159 52.8993 23.9929 52.8872 23.4699C52.8791 23.2503 52.968 23.2303 53.1751 23.2018C53.7469 23.1238 54.0964 23.3387 54.4157 23.7827C54.9571 24.5349 55.5754 25.2395 56.1613 25.9631L56.2118 25.946Z" fill="white"/>
<path d="M78.2016 25.01C78.2016 25.938 78.1935 26.7872 78.2076 27.6354C78.2076 27.855 78.15 27.9349 77.9126 27.913C77.6964 27.8978 77.4793 27.8978 77.2631 27.913C77.1085 27.9216 77.0752 27.8655 77.0762 27.7295C77.0809 26.2937 77.0809 24.8581 77.0762 23.4229C77.0762 23.2822 77.1065 23.2204 77.2782 23.2128C78.0864 23.1776 78.0864 23.1729 78.5753 23.7767C79.1724 24.5146 79.7694 25.2515 80.4109 26.0417V24.6439C80.4109 24.236 80.419 23.828 80.4109 23.421C80.4109 23.2556 80.4614 23.2042 80.6341 23.2138C80.915 23.2299 81.2807 23.1291 81.4565 23.2603C81.6322 23.3916 81.514 23.7586 81.5151 24.0211C81.5221 25.2344 81.5151 26.4487 81.5231 27.6629C81.5231 27.8531 81.4797 27.8997 81.2665 27.9206C80.7685 27.9691 80.4412 27.8189 80.1553 27.4176C79.6088 26.6664 78.9936 25.959 78.4076 25.2306C78.3521 25.1773 78.3036 25.126 78.2016 25.01Z" fill="white"/>
<path d="M102.03 27.9096C101.589 27.9096 101.214 27.9049 100.839 27.9096C100.71 27.9096 100.659 27.844 100.6 27.7594C100.367 27.4266 100.111 27.1071 99.9017 26.7619C99.738 26.4919 99.542 26.3816 99.2046 26.4091C98.7642 26.4443 98.8167 26.3692 98.8137 26.7847C98.8137 27.1033 98.8076 27.4228 98.8137 27.7413C98.8137 27.8668 98.7803 27.9144 98.6409 27.9096C98.3773 27.9001 98.1136 27.9011 97.8499 27.9096C97.7206 27.9096 97.6934 27.863 97.6934 27.7527C97.6934 26.2998 97.6934 24.8465 97.6934 23.3929C97.6934 23.2807 97.7085 23.2075 97.858 23.2113C98.7137 23.2351 99.5754 23.16 100.425 23.2512C101.183 23.3321 101.732 23.7828 101.832 24.4313C101.933 25.115 101.797 25.7739 100.994 26.1505C100.817 26.2342 100.851 26.2979 100.943 26.4196C101.302 26.8979 101.647 27.3819 102.03 27.9096ZM98.8319 24.8335H98.8127C98.8127 25.0009 98.8127 25.1692 98.8127 25.3365C98.8127 25.405 98.7935 25.4906 98.9137 25.4858C99.3622 25.4687 99.8158 25.541 100.258 25.4288C100.391 25.3968 100.508 25.3234 100.591 25.2207C100.674 25.118 100.717 24.9919 100.714 24.863C100.723 24.5321 100.583 24.3257 100.279 24.2297C100.034 24.1508 99.7744 24.1669 99.5259 24.1745C99.2956 24.1822 98.9884 24.0795 98.8561 24.2211C98.744 24.3419 98.8319 24.6234 98.8319 24.8335Z" fill="white"/>
<path d="M72.7048 26.0517C72.7048 25.1389 72.7129 24.3068 72.6987 23.4748C72.6987 23.259 72.7654 23.1953 72.9846 23.2133C73.2453 23.2333 73.5908 23.1363 73.7483 23.2609C73.9282 23.4063 73.8029 23.743 73.8049 23.9959C73.811 25.2197 73.8049 26.4435 73.813 27.6673C73.813 27.865 73.7574 27.8964 73.5524 27.9192C73.0382 27.9772 72.7179 27.8032 72.4209 27.3972C71.83 26.5899 71.1673 25.8283 70.4833 24.9848V25.5962C70.4833 26.279 70.4712 26.9627 70.4894 27.6444C70.4965 27.8765 70.4177 27.9297 70.1863 27.9126C69.9985 27.896 69.8095 27.896 69.6216 27.9126C69.4257 27.9297 69.3701 27.8717 69.3711 27.6825C69.3802 26.3969 69.3711 25.1151 69.3711 23.8257C69.3711 23.2162 69.3711 23.2333 70.0075 23.2086C70.3106 23.1972 70.4803 23.3037 70.6531 23.5224C71.3147 24.3534 71.9896 25.1702 72.7048 26.0517Z" fill="white"/>
<path d="M63.0274 26.2453C63.0274 26.5305 63.0274 26.8158 63.0274 27.0963C63.0324 27.1396 63.0258 27.1833 63.0081 27.2235C62.9905 27.2637 62.9624 27.2991 62.9264 27.3264C61.8768 28.1214 60.2756 28.2554 59.2341 27.4919C58.3815 26.8662 58.1228 26.0104 58.333 25.0491C58.5431 24.0877 59.2017 23.4421 60.22 23.2148C61.0908 23.0246 61.9374 23.1311 62.687 23.6532C62.8385 23.7587 62.8597 23.8433 62.7163 23.9565C62.7022 23.9683 62.6894 23.9814 62.6779 23.9955C62.5162 24.179 62.39 24.4443 62.1829 24.5242C61.9758 24.604 61.7889 24.3254 61.5697 24.2389C60.9393 23.9926 60.2625 24.1105 59.8362 24.5594C59.4098 25.0082 59.3199 25.7698 59.6422 26.3242C59.9453 26.8443 60.5595 27.1068 61.2222 26.9984C61.3061 26.9884 61.3894 26.9741 61.4717 26.9556C61.9222 26.8348 62.0374 26.638 61.9323 26.2139C61.9061 26.1064 61.8313 26.1245 61.7657 26.1245C61.5212 26.1245 61.2757 26.1169 61.0322 26.1245C60.8868 26.1302 60.8403 26.0855 60.8302 25.9457C60.7928 25.185 60.7878 25.185 61.5939 25.185C61.998 25.185 62.4021 25.1926 62.8062 25.185C62.984 25.1803 63.0325 25.2392 63.0254 25.398C63.0143 25.6776 63.0274 25.9619 63.0274 26.2453Z" fill="white"/>
<path d="M11.7367 26.2586C11.7252 26.4804 11.7269 26.7026 11.7418 26.9242C11.7731 27.1781 11.666 27.3283 11.4498 27.4672C10.3659 28.1642 8.82328 28.1803 7.90702 27.4672C7.08673 26.8301 6.8362 25.98 7.05239 25.031C7.27261 24.0668 7.93127 23.4345 8.95764 23.2139C9.80318 23.0332 10.6215 23.1292 11.3539 23.6208C11.5216 23.7331 11.6044 23.8291 11.4104 23.9784C11.391 23.9977 11.3731 24.0183 11.3569 24.0402C11.2124 24.2037 11.0983 24.4205 10.9134 24.5156C10.6901 24.6278 10.5517 24.3483 10.3578 24.2693C9.70924 24.0021 9.0132 24.0934 8.5879 24.5308C8.3495 24.7791 8.20192 25.0928 8.16683 25.4258C8.13174 25.7589 8.21098 26.0937 8.39293 26.3813C8.73741 26.9166 9.41021 27.142 10.1477 26.9699C10.6245 26.8586 10.7356 26.6846 10.6427 26.2253C10.6215 26.1188 10.5578 26.1302 10.4841 26.1302C10.2386 26.1302 9.9931 26.1226 9.74863 26.1302C9.60114 26.1359 9.54659 26.0893 9.55568 25.9496C9.5668 25.7545 9.5668 25.5589 9.55568 25.3638C9.5476 25.2193 9.61023 25.1851 9.75267 25.186C10.3467 25.1927 10.9397 25.1936 11.5337 25.186C11.6983 25.186 11.7438 25.2374 11.7357 25.3847C11.7297 25.6729 11.7367 25.9667 11.7367 26.2586Z" fill="white"/>
<path d="M91.9535 26.2275C91.9424 26.4579 91.9444 26.6886 91.9596 26.9188C91.9879 27.1727 91.8777 27.321 91.6626 27.4598C90.5645 28.1645 89.0653 28.1901 88.1268 27.4751C87.2722 26.8228 87.0308 25.9422 87.2722 24.9723C87.5066 24.0329 88.1703 23.4224 89.1764 23.2141C90.0422 23.0354 90.8766 23.1381 91.6121 23.6639C91.7484 23.759 91.7878 23.8341 91.6444 23.9492C91.5993 23.9939 91.5581 24.0419 91.5211 24.0928C91.3817 24.2487 91.2706 24.4731 91.0928 24.5387C90.915 24.6043 90.7594 24.3647 90.5786 24.282C89.9856 24.011 89.2724 24.0918 88.8441 24.4826C88.605 24.7166 88.4475 25.0136 88.3924 25.334C88.3373 25.6544 88.3874 25.9831 88.536 26.276C88.8299 26.8275 89.433 27.1109 90.1129 27.0139C90.2152 27.0016 90.3165 26.9825 90.416 26.9568C90.8423 26.838 90.9675 26.6183 90.8574 26.2189C90.8291 26.1153 90.7564 26.1315 90.6867 26.1305C90.4422 26.1305 90.1968 26.1239 89.9523 26.1305C89.8078 26.1305 89.7603 26.0868 89.7502 25.947C89.7068 25.1863 89.7028 25.1863 90.4958 25.1863C90.8999 25.1863 91.3039 25.1929 91.708 25.1863C91.8848 25.1863 91.9646 25.2224 91.9535 25.4078C91.9414 25.6779 91.9535 25.9527 91.9535 26.2275Z" fill="white"/>
<path d="M82.6758 25.5573C82.6758 24.8565 82.6818 24.1557 82.6758 23.4549C82.6758 23.2714 82.7273 23.2105 82.9273 23.2124C84.0204 23.2207 85.1137 23.2207 86.2075 23.2124C86.4024 23.2124 86.4651 23.2619 86.4651 23.4511C86.4651 24.1671 86.4742 24.1662 85.7296 24.1662C85.1548 24.1662 84.58 24.1719 84.0052 24.1662C83.8466 24.1662 83.8032 24.2071 83.8032 24.3564C83.788 25.0686 83.783 25.0686 84.5285 25.0686C84.9993 25.0686 85.471 25.0686 85.9428 25.0686C86.0862 25.0686 86.1357 25.1057 86.1448 25.2483C86.1842 26.0328 86.1893 26.0328 85.374 26.0328C84.9215 26.0328 84.4649 26.0375 84.0173 26.0328C83.8638 26.0328 83.7961 26.0641 83.8082 26.2229C83.8254 26.4597 83.7315 26.7669 83.8567 26.919C83.982 27.0711 84.3295 26.9665 84.579 26.9713C85.1437 26.9799 85.7094 26.9818 86.2752 26.9713C86.455 26.9713 86.5025 27.0207 86.4903 27.1814C86.4711 27.4192 86.5701 27.7368 86.4418 27.8756C86.3135 28.0144 85.963 27.9165 85.7094 27.9174C84.8144 27.9222 83.9193 27.9098 83.0243 27.925C82.7627 27.9298 82.6707 27.8851 82.6798 27.615C82.6919 26.9238 82.6758 26.2401 82.6758 25.5573Z" fill="white"/>
<path d="M31.3264 25.5478C31.3264 24.848 31.3345 24.1472 31.3264 23.4464C31.3264 23.2562 31.384 23.2106 31.579 23.2125C32.672 23.2207 33.7647 23.2207 34.8571 23.2125C35.044 23.2125 35.1096 23.261 35.0955 23.4359C35.0798 23.6128 35.0798 23.7906 35.0955 23.9675C35.1117 24.1396 35.0389 24.1719 34.8712 24.17C34.1459 24.1614 33.4206 24.17 32.6953 24.1633C32.5185 24.1633 32.4387 24.1957 32.4568 24.3792C32.4781 24.5979 32.3861 24.8841 32.5033 25.021C32.6205 25.158 32.9448 25.061 33.1771 25.0657C33.6378 25.0733 34.1005 25.0762 34.5611 25.0657C34.7551 25.06 34.8066 25.1266 34.7935 25.2958C34.7798 25.4728 34.7798 25.6504 34.7935 25.8274C34.8076 25.9966 34.7339 26.0366 34.5662 26.0347C33.9449 26.0271 33.3226 26.0394 32.7013 26.0271C32.4993 26.0223 32.4376 26.0813 32.4568 26.2648C32.4734 26.4229 32.4734 26.5821 32.4568 26.7402C32.4356 26.9352 32.5235 26.9732 32.7124 26.9704C33.4468 26.9608 34.1823 26.9704 34.9167 26.9627C35.0844 26.9627 35.1551 26.9922 35.14 27.1653C35.1198 27.403 35.2208 27.7149 35.0945 27.8604C34.9682 28.0059 34.6187 27.906 34.3671 27.9079C33.4438 27.9136 32.5205 27.9022 31.5982 27.9155C31.3668 27.9155 31.3224 27.8499 31.3264 27.6493C31.3345 26.9494 31.3264 26.2486 31.3264 25.5478Z" fill="white"/>
<path d="M92.9609 25.5535C92.9609 24.8441 92.9609 24.1348 92.9609 23.4254C92.9609 23.2657 93.0003 23.2115 93.1791 23.2124C94.2904 23.22 95.4016 23.22 96.5128 23.2124C96.6977 23.2124 96.7391 23.278 96.726 23.4302C96.7068 23.6679 96.827 23.9731 96.6785 24.1253C96.53 24.2774 96.2148 24.1624 95.9714 24.1652C95.4248 24.17 94.8783 24.1757 94.3318 24.1652C94.1298 24.1595 94.0722 24.2213 94.0883 24.4029C94.1075 24.614 94.0156 24.8955 94.1287 25.02C94.2631 25.1684 94.5712 25.0638 94.8025 25.0676C95.2733 25.0771 95.7451 25.0761 96.2168 25.0676C96.3775 25.0676 96.4189 25.1151 96.427 25.2644C96.4522 26.0327 96.4563 26.0327 95.639 26.0327C95.1864 26.0327 94.7349 26.0375 94.2823 26.0327C94.1368 26.0327 94.0934 26.0679 94.0883 26.2096C94.0611 26.9703 94.057 26.9703 94.848 26.9703C95.4137 26.9703 95.9794 26.9789 96.5442 26.9656C96.7371 26.9608 96.7896 27.0226 96.7704 27.19C96.7452 27.4248 96.8775 27.7396 96.7159 27.8746C96.5755 27.9906 96.2492 27.9126 96.0087 27.9126C95.0763 27.9126 94.1429 27.9079 93.2105 27.9183C93.0145 27.9183 92.9589 27.8708 92.9619 27.6854C92.967 26.9694 92.9609 26.2629 92.9609 25.5535Z" fill="white"/>
<path d="M63.9536 24.7727C63.9536 24.3296 63.9637 23.8865 63.9536 23.4415C63.9465 23.2513 64.0172 23.1961 64.2092 23.2114C64.397 23.2275 64.586 23.2275 64.7739 23.2114C65.0153 23.1885 65.0992 23.2551 65.0941 23.4966C65.077 24.2935 65.086 25.0913 65.0881 25.8891C65.0881 26.2456 65.1568 26.5822 65.4861 26.8105C65.8467 27.0596 66.2498 27.0577 66.6367 26.8989C67.0489 26.7296 67.1721 26.3664 67.1772 25.9775C67.1893 25.1534 67.1893 24.3293 67.1772 23.5052C67.1772 23.2846 67.2115 23.1743 67.4802 23.2104C67.749 23.2465 68.0924 23.103 68.2652 23.2713C68.4379 23.4396 68.3127 23.7467 68.3106 23.9911C68.3046 24.7261 68.3531 25.4621 68.2884 26.1962C68.1692 27.5588 67.0943 28.098 65.8245 27.9639C64.5799 27.8289 63.9698 27.1499 63.9617 25.967C63.9516 25.5705 63.9536 25.1721 63.9536 24.7727Z" fill="white"/>
<path d="M17.6157 27.9096C17.2439 27.9096 16.9156 27.9096 16.5873 27.9096C16.5414 27.9153 16.495 27.9043 16.4575 27.8788C16.4199 27.8534 16.3941 27.8154 16.3853 27.7727C16.3479 27.6643 16.2842 27.5626 16.2408 27.4561C15.9822 26.8675 15.9822 26.8675 15.2973 26.8675C14.9295 26.8675 14.5618 26.8779 14.1951 26.8675C14.0012 26.8599 13.885 26.9027 13.8213 27.0919C13.7426 27.3267 13.6193 27.5502 13.5314 27.7813C13.5206 27.8239 13.4932 27.8611 13.4547 27.8857C13.4162 27.9104 13.3694 27.9206 13.3233 27.9144C13.0051 27.9068 12.6859 27.9144 12.3242 27.9144C12.5485 27.4114 12.7576 26.9359 12.9718 26.4624C13.4344 25.4392 13.9032 24.418 14.3588 23.392C14.3788 23.3262 14.4232 23.2693 14.484 23.2317C14.5449 23.1942 14.618 23.1785 14.6901 23.1875C15.4922 23.1875 15.4892 23.1875 15.8014 23.8807C16.3866 25.1822 16.9742 26.4817 17.5642 27.7794C17.5743 27.8088 17.5864 27.8402 17.6157 27.9096ZM15.572 25.9128C15.37 25.4373 15.168 24.9885 14.9538 24.4865C14.7366 24.9895 14.5406 25.4373 14.3366 25.9128H15.572Z" fill="white"/>
<path d="M51.5623 27.9093C50.9925 27.9093 50.9925 27.9093 50.7773 27.4034C50.55 26.8691 50.55 26.8691 49.9298 26.8691C49.5156 26.8691 49.1014 26.8767 48.6872 26.8691C48.6234 26.8584 48.5577 26.8718 48.5042 26.9063C48.4508 26.9408 48.4138 26.9937 48.4013 27.0535C48.3367 27.237 48.2165 27.4063 48.172 27.5927C48.1023 27.8779 47.9225 27.9483 47.6427 27.916C47.4835 27.9003 47.323 27.9003 47.1638 27.916C46.9294 27.9359 46.8769 27.8893 46.98 27.6659C47.4719 26.6076 47.9467 25.5416 48.4266 24.4785C48.5912 24.1134 48.7589 23.7501 48.9145 23.3822C48.9751 23.2405 49.0549 23.172 49.2277 23.1872C49.4964 23.2119 49.8338 23.0921 50.0217 23.2319C50.2096 23.3717 50.2591 23.6769 50.3652 23.9118L52.0492 27.6345C52.1745 27.9131 52.1745 27.9131 51.8471 27.9131L51.5623 27.9093ZM48.9024 25.9001H50.1288C49.9197 25.4247 49.7247 24.9692 49.5115 24.4852C49.3156 24.934 49.1327 25.3495 48.9519 25.766C48.9347 25.806 48.9216 25.8478 48.9024 25.9001Z" fill="white"/>
<path d="M18.3281 25.5741C18.3281 24.8742 18.3352 24.1734 18.3281 23.4736C18.3281 23.2834 18.3635 23.2026 18.5888 23.2121C19.3212 23.2415 20.0576 23.1636 20.788 23.2511C21.7043 23.3604 22.2781 23.9595 22.2973 24.7934C22.3165 25.6653 21.7639 26.2958 20.8547 26.4622C20.4824 26.5155 20.1052 26.5314 19.7293 26.5097C19.5273 26.505 19.4464 26.5383 19.4616 26.7503C19.4838 27.0765 19.4616 27.4055 19.4707 27.7335C19.4757 27.8771 19.4242 27.918 19.2777 27.9123C19.0334 27.8999 18.7886 27.8999 18.5443 27.9123C18.3615 27.9237 18.3271 27.859 18.3281 27.7002C18.3332 26.9928 18.3281 26.2834 18.3281 25.5741ZM19.4525 24.8504H19.4636C19.4636 25.0359 19.4636 25.2213 19.4636 25.4067C19.4636 25.4932 19.4636 25.5617 19.5929 25.5589C19.9021 25.5503 20.2132 25.5693 20.5203 25.5408C20.6904 25.5282 20.8494 25.4561 20.9659 25.3387C21.0823 25.2213 21.1479 25.0672 21.1497 24.9065C21.1648 24.5262 20.9739 24.2942 20.5718 24.2114C20.4441 24.1852 20.3136 24.173 20.1829 24.1753C19.9505 24.1801 19.6374 24.0802 19.5101 24.2143C19.3828 24.3484 19.4636 24.6317 19.4525 24.8504Z" fill="white"/>
<path d="M1.88616 23.148C2.4974 23.1405 3.09653 23.3086 3.60352 23.6301C3.73787 23.7147 3.78232 23.7861 3.66514 23.9211C3.52847 24.0786 3.4055 24.2461 3.29742 24.4222C3.21762 24.5534 3.157 24.5411 3.0378 24.4669C2.66402 24.2349 2.26398 24.0694 1.79928 24.1027C1.55986 24.1198 1.34469 24.1788 1.29418 24.4355C1.24367 24.6922 1.43965 24.8216 1.66088 24.8929C2.06497 25.0251 2.49027 25.1192 2.89334 25.2609C3.68635 25.5395 3.98942 25.975 3.91668 26.6815C3.84799 27.3471 3.33783 27.8359 2.57007 27.9443C2.13712 28.01 1.69438 27.9902 1.27001 27.886C0.845643 27.7819 0.448947 27.5958 0.105162 27.3395C-0.0281857 27.2444 -0.0322267 27.1874 0.0788963 27.0761C0.252652 26.9031 0.371857 26.6406 0.584001 26.5484C0.82342 26.4419 0.988084 26.75 1.21437 26.8336C1.61845 26.9924 2.0286 27.1027 2.47107 26.9829C2.55449 26.967 2.63059 26.927 2.68885 26.8686C2.74712 26.8102 2.78468 26.7362 2.79636 26.6568C2.8297 26.4599 2.7216 26.3373 2.54684 26.2555C2.20741 26.0967 1.83161 26.0463 1.47703 25.9332C1.27801 25.8776 1.08269 25.8109 0.892115 25.7335C0.332459 25.4815 0.118294 25.0736 0.171835 24.3937C0.211233 23.8973 0.621378 23.4295 1.18204 23.2602C1.40687 23.1804 1.64597 23.1423 1.88616 23.148Z" fill="white"/>
<path d="M6.00773 25.5751C6.00773 26.2845 6.00268 26.9938 6.00773 27.7032C6.00773 27.8658 5.96834 27.9238 5.78953 27.9133C5.53597 27.8991 5.28442 27.9048 5.02682 27.9133C4.90257 27.9133 4.8662 27.8734 4.86721 27.7593C4.86721 26.3044 4.86721 24.8499 4.86721 23.3957C4.86721 23.2492 4.93085 23.2122 5.06925 23.216C5.30463 23.2226 5.54102 23.2283 5.7764 23.216C5.97036 23.2045 6.01077 23.2806 6.00875 23.4489C6.00268 24.1554 6.00773 24.8657 6.00773 25.5751Z" fill="white"/>
<path d="M102.861 25.5628C102.861 24.8715 102.872 24.1792 102.855 23.4879C102.855 23.2578 102.931 23.1922 103.158 23.2131C103.346 23.2284 103.535 23.2284 103.723 23.2131C103.925 23.1979 104.001 23.2493 104 23.4585C103.99 24.8686 103.992 26.2788 104 27.6899C104 27.8592 103.961 27.9257 103.77 27.9134C103.48 27.8943 103.099 27.9999 102.922 27.8639C102.744 27.7279 102.87 27.3504 102.865 27.0794C102.855 26.5745 102.861 26.0686 102.861 25.5628Z" fill="white"/>
</svg>
