<svg width="29" height="29" viewBox="0 0 29 29" fill="none" xmlns="http://www.w3.org/2000/svg">
<path d="M25.5513 8.12135C24.6342 7.20643 23.4092 6.56768 21.9873 6.26197C21.854 6.23329 21.7293 6.17384 21.623 6.08839C21.5168 6.00293 21.432 5.89383 21.3754 5.76978C20.8525 4.62776 20.0609 3.62933 19.0681 2.85986C17.7977 1.88807 16.2528 1.37455 14.5996 1.37455C12.7158 1.36857 10.8957 2.05613 9.48633 3.30611C8.16289 4.48518 7.24906 6.11377 6.83781 7.99994C6.80352 8.1596 6.72536 8.30653 6.61213 8.4242C6.49891 8.54187 6.3551 8.62562 6.19688 8.66603C4.82969 9.01057 4.24398 9.35182 3.5057 10.0092C2.45898 10.941 1.91211 12.2103 1.91211 13.6683C1.91211 15.339 2.52625 16.7111 3.68781 17.6364C4.70555 18.4463 6.0957 18.8745 7.70898 18.8745H20.5059C22.3215 18.8745 24.0119 18.2478 25.2637 17.1092C26.5674 15.9253 27.2871 14.2835 27.2871 12.4871C27.2871 10.7649 26.6855 9.25557 25.5513 8.12135Z" fill="#B39402"/>
<path d="M6.72473 25.0013C6.56625 25.0012 6.41078 24.9581 6.27487 24.8766C6.13897 24.7951 6.02773 24.6782 5.95302 24.5384C5.87831 24.3987 5.84293 24.2413 5.85065 24.083C5.85837 23.9247 5.9089 23.7715 5.99685 23.6397L7.74814 21.0127C7.81196 20.9171 7.89399 20.8349 7.98956 20.771C8.08513 20.707 8.19236 20.6625 8.30513 20.64C8.4179 20.6175 8.53399 20.6174 8.64679 20.6398C8.75959 20.6621 8.86689 20.7065 8.96254 20.7703C9.0582 20.8341 9.14035 20.9161 9.20431 21.0117C9.26826 21.1073 9.31276 21.2145 9.33528 21.3273C9.35779 21.44 9.35787 21.5561 9.33552 21.6689C9.31316 21.7817 9.26881 21.889 9.20499 21.9847L7.4537 24.6116C7.37367 24.7316 7.26526 24.8299 7.13809 24.8979C7.01092 24.9659 6.86893 25.0014 6.72473 25.0013Z" fill="#B39402"/>
<path d="M9.35062 27.6241C9.19228 27.6239 9.03697 27.5807 8.90122 27.4992C8.76548 27.4177 8.65438 27.3009 8.57978 27.1613C8.50518 27.0216 8.46987 26.8643 8.47761 26.7062C8.48534 26.548 8.53584 26.395 8.62372 26.2632L12.1242 21.0125C12.188 20.9169 12.27 20.8348 12.3655 20.7709C12.461 20.707 12.5682 20.6625 12.6809 20.64C12.7936 20.6175 12.9096 20.6174 13.0223 20.6397C13.1351 20.6621 13.2423 20.7064 13.3379 20.7702C13.4335 20.834 13.5156 20.916 13.5795 21.0115C13.6434 21.107 13.6879 21.2142 13.7104 21.3269C13.7329 21.4396 13.733 21.5556 13.7107 21.6683C13.6883 21.7811 13.644 21.8883 13.5802 21.9839L10.0797 27.2346C9.99967 27.3546 9.89123 27.4529 9.76404 27.5208C9.63684 27.5888 9.49482 27.6242 9.35062 27.6241Z" fill="#B39402"/>
<path d="M15.4747 25.0013C15.3163 25.0012 15.1608 24.9581 15.0249 24.8766C14.889 24.7951 14.7777 24.6782 14.703 24.5384C14.6283 24.3987 14.5929 24.2413 14.6006 24.083C14.6084 23.9247 14.6589 23.7715 14.7468 23.6397L16.4981 21.0127C16.627 20.8195 16.8274 20.6855 17.0551 20.64C17.2829 20.5945 17.5194 20.6414 17.7125 20.7703C17.9057 20.8992 18.0398 21.0995 18.0853 21.3273C18.1307 21.555 18.0839 21.7915 17.955 21.9847L16.2037 24.6116C16.1237 24.7316 16.0153 24.8299 15.8881 24.8979C15.7609 24.9659 15.6189 25.0014 15.4747 25.0013Z" fill="#B39402"/>
<path d="M18.1012 27.6241C17.9428 27.624 17.7874 27.5809 17.6516 27.4994C17.5157 27.418 17.4046 27.3012 17.3299 27.1615C17.2552 27.0218 17.2199 26.8645 17.2276 26.7063C17.2353 26.5481 17.2858 26.395 17.3737 26.2632L20.8742 21.0125C21.003 20.8194 21.2033 20.6854 21.4309 20.64C21.6585 20.5945 21.8948 20.6414 22.0879 20.7702C22.281 20.899 22.415 21.0993 22.4604 21.3269C22.5059 21.5545 22.459 21.7908 22.3302 21.9839L18.8297 27.2346C18.7497 27.3545 18.6414 27.4528 18.5143 27.5207C18.3872 27.5887 18.2453 27.6242 18.1012 27.6241Z" fill="#B39402"/>
</svg>
