<svg width="29" height="29" viewBox="0 0 29 29" fill="none" xmlns="http://www.w3.org/2000/svg">
<path d="M19.8494 17.7684L18.3303 21.062L20.6834 21.4561L19.1643 24.7496L23.796 20.2033L21.9136 19.8881L23.1438 18.3201L19.8494 17.7684Z" fill="#B39402"/>
<path d="M25.7505 8.12135C24.8334 7.20643 23.6084 6.56768 22.1866 6.26197C22.0533 6.23329 21.9285 6.17384 21.8223 6.08839C21.716 6.00293 21.6312 5.89383 21.5746 5.76978C21.0517 4.62776 20.2601 3.62933 19.2673 2.85986C17.997 1.88807 16.452 1.37455 14.7988 1.37455C12.915 1.36857 11.0949 2.05613 9.68555 3.30611C8.36211 4.48518 7.44828 6.11377 7.03703 7.99994C7.00274 8.1596 6.92458 8.30653 6.81135 8.4242C6.69812 8.54187 6.55431 8.62562 6.39609 8.66603C5.02891 9.01057 4.4432 9.35182 3.70492 10.0092C2.6582 10.941 2.11133 12.2103 2.11133 13.6683C2.11133 15.339 2.72547 16.7111 3.88703 17.6364C4.90477 18.4463 6.29492 18.8745 7.9082 18.8745H20.7051C22.5207 18.8745 24.2111 18.2478 25.4629 17.1092C26.7666 15.9253 27.4863 14.2835 27.4863 12.4871C27.4863 10.7649 26.8848 9.25557 25.7505 8.12135Z" fill="#B39402"/>
<path d="M5.17395 25.0015C5.01547 25.0014 4.86 24.9583 4.72409 24.8768C4.58819 24.7953 4.47695 24.6784 4.40224 24.5387C4.32753 24.3989 4.29215 24.2415 4.29987 24.0832C4.30759 23.925 4.35811 23.7717 4.44607 23.6399L6.19735 21.013C6.26117 20.9173 6.34321 20.8352 6.43878 20.7712C6.53435 20.7073 6.64158 20.6627 6.75435 20.6402C6.86711 20.6177 6.98321 20.6176 7.09601 20.64C7.20881 20.6624 7.3161 20.7067 7.41176 20.7705C7.50742 20.8343 7.58957 20.9164 7.65353 21.012C7.71748 21.1075 7.76198 21.2148 7.7845 21.3275C7.80701 21.4403 7.80709 21.5564 7.78473 21.6692C7.76238 21.782 7.71803 21.8893 7.65421 21.9849L5.90292 24.6119C5.82289 24.7318 5.71447 24.8301 5.5873 24.8981C5.46013 24.9661 5.31814 25.0016 5.17395 25.0015Z" fill="#B39402"/>
<path d="M7.79983 27.6243C7.6415 27.6241 7.48619 27.581 7.35044 27.4995C7.21469 27.418 7.1036 27.3012 7.029 27.1615C6.9544 27.0218 6.91909 26.8646 6.92683 26.7064C6.93456 26.5483 6.98506 26.3952 7.07293 26.2635L10.5734 21.0127C10.6372 20.9171 10.7192 20.835 10.8147 20.7711C10.9102 20.7072 11.0174 20.6627 11.1301 20.6402C11.2428 20.6177 11.3588 20.6176 11.4716 20.64C11.5843 20.6623 11.6915 20.7067 11.7871 20.7704C11.8827 20.8342 11.9648 20.9162 12.0287 21.0117C12.0927 21.1072 12.1371 21.2144 12.1596 21.3271C12.1821 21.4398 12.1822 21.5558 12.1599 21.6686C12.1375 21.7813 12.0932 21.8885 12.0294 21.9841L8.52892 27.2349C8.44889 27.3548 8.34045 27.4532 8.21325 27.5211C8.08606 27.589 7.94404 27.6245 7.79983 27.6243Z" fill="#B39402"/>
<path d="M13.9239 25.0015C13.7655 25.0014 13.61 24.9583 13.4741 24.8768C13.3382 24.7953 13.2269 24.6785 13.1522 24.5387C13.0775 24.3989 13.0421 24.2415 13.0499 24.0832C13.0576 23.925 13.1081 23.7717 13.1961 23.6399L14.9474 21.013C15.0762 20.8198 15.2766 20.6857 15.5043 20.6402C15.7321 20.5948 15.9686 20.6416 16.1618 20.7705C16.355 20.8994 16.489 21.0998 16.5345 21.3275C16.58 21.5553 16.5331 21.7917 16.4042 21.9849L14.6529 24.6119C14.5729 24.7318 14.4645 24.8302 14.3373 24.8981C14.2101 24.9661 14.0681 25.0016 13.9239 25.0015Z" fill="#B39402"/>
</svg>
