<svg width="21" height="20" viewBox="0 0 21 20" fill="none" xmlns="http://www.w3.org/2000/svg">
<path d="M16.582 16.1667H4.91536C4.16392 16.1667 3.44325 15.8682 2.9119 15.3369C2.38054 14.8055 2.08203 14.0849 2.08203 13.3334V10.0001C2.08203 9.24863 2.38054 8.52797 2.9119 7.99661C3.44325 7.46526 4.16392 7.16675 4.91536 7.16675H16.582C17.3335 7.16675 18.0541 7.46526 18.5855 7.99661C19.1169 8.52797 19.4154 9.24863 19.4154 10.0001V13.3334C19.4154 14.0849 19.1169 14.8055 18.5855 15.3369C18.0541 15.8682 17.3335 16.1667 16.582 16.1667ZM4.91536 7.83341C4.34073 7.83341 3.78963 8.06169 3.3833 8.46802C2.97697 8.87435 2.7487 9.42545 2.7487 10.0001V13.3334C2.7487 13.9081 2.97697 14.4592 3.3833 14.8655C3.78963 15.2718 4.34073 15.5001 4.91536 15.5001H16.582C17.1567 15.5001 17.7078 15.2718 18.1141 14.8655C18.5204 14.4592 18.7487 13.9081 18.7487 13.3334V10.0001C18.7487 9.42545 18.5204 8.87435 18.1141 8.46802C17.7078 8.06169 17.1567 7.83341 16.582 7.83341H4.91536Z" fill="white" stroke="white"/>
<path d="M6.08073 6.66671V7.16671H6.58073H14.9141H15.4141V6.66671C15.4141 5.42903 14.9224 4.24205 14.0472 3.36688C13.1721 2.49171 11.9851 2.00004 10.7474 2.00004C9.50972 2.00004 8.32273 2.49171 7.44756 3.36688C6.57239 4.24205 6.08073 5.42903 6.08073 6.66671ZM5.41406 7.83337V6.66671C5.41406 5.25222 5.97597 3.89566 6.97616 2.89547C7.97635 1.89528 9.33291 1.33337 10.7474 1.33337C12.1619 1.33337 13.5184 1.89528 14.5186 2.89547C15.5188 3.89566 16.0807 5.25222 16.0807 6.66671V7.83337H5.41406Z" fill="white" stroke="white"/>
<path d="M4.91406 8H16.5807C17.1112 8 17.6199 8.21071 17.9949 8.58579C18.37 8.96086 18.5807 9.46957 18.5807 10V13.3333C18.5807 13.8638 18.37 14.3725 17.9949 14.7475C17.6199 15.1226 17.1112 15.3333 16.5807 15.3333H4.91406C4.38363 15.3333 3.87492 15.1226 3.49985 14.7475C3.12478 14.3725 2.91406 13.8638 2.91406 13.3333V10C2.91406 9.46957 3.12478 8.96086 3.49985 8.58579C3.87492 8.21071 4.38363 8 4.91406 8ZM5.00664 12.7753C5.2259 12.9218 5.48369 13 5.7474 13C6.10102 13 6.44016 12.8595 6.6902 12.6095C6.94025 12.3594 7.08073 12.0203 7.08073 11.6667C7.08073 11.403 7.00253 11.1452 6.85602 10.9259C6.70951 10.7066 6.50127 10.5357 6.25764 10.4348C6.01401 10.3339 5.74592 10.3075 5.48728 10.359C5.22863 10.4104 4.99106 10.5374 4.80459 10.7239C4.61812 10.9103 4.49113 11.1479 4.43968 11.4065C4.38824 11.6652 4.41464 11.9333 4.51556 12.1769C4.61647 12.4205 4.78737 12.6288 5.00664 12.7753ZM8.33997 12.7753C8.55923 12.9218 8.81702 13 9.08073 13C9.43435 13 9.77349 12.8595 10.0235 12.6095C10.2736 12.3594 10.4141 12.0203 10.4141 11.6667C10.4141 11.403 10.3359 11.1452 10.1894 10.9259C10.0428 10.7066 9.83461 10.5357 9.59097 10.4348C9.34734 10.3339 9.07925 10.3075 8.82061 10.359C8.56197 10.4104 8.32439 10.5374 8.13792 10.7239C7.95145 10.9103 7.82446 11.1479 7.77302 11.4065C7.72157 11.6652 7.74797 11.9333 7.84889 12.1769C7.94981 12.4205 8.1207 12.6288 8.33997 12.7753ZM11.6733 12.7753C11.8926 12.9218 12.1504 13 12.4141 13C12.7677 13 13.1068 12.8595 13.3569 12.6095C13.6069 12.3594 13.7474 12.0203 13.7474 11.6667C13.7474 11.403 13.6692 11.1452 13.5227 10.9259C13.3762 10.7066 13.1679 10.5357 12.9243 10.4348C12.6807 10.3339 12.4126 10.3075 12.1539 10.359C11.8953 10.4104 11.6577 10.5374 11.4713 10.7239C11.2848 10.9103 11.1578 11.1479 11.1063 11.4065C11.0549 11.6652 11.0813 11.9333 11.1822 12.1769C11.2831 12.4205 11.454 12.6288 11.6733 12.7753ZM15.0066 12.7753C15.2259 12.9218 15.4837 13 15.7474 13C16.101 13 16.4402 12.8595 16.6902 12.6095C16.9403 12.3594 17.0807 12.0203 17.0807 11.6667C17.0807 11.403 17.0025 11.1452 16.856 10.9259C16.7095 10.7066 16.5013 10.5357 16.2576 10.4348C16.014 10.3339 15.7459 10.3075 15.4873 10.359C15.2286 10.4104 14.9911 10.5374 14.8046 10.7239C14.6181 10.9103 14.4911 11.1479 14.4397 11.4065C14.3882 11.6652 14.4146 11.9333 14.5156 12.1769C14.6165 12.4205 14.7874 12.6288 15.0066 12.7753Z" fill="white" stroke="white"/>
</svg>
