<svg width="28" height="28" viewBox="0 0 28 28" fill="none" xmlns="http://www.w3.org/2000/svg">
<path d="M24.1751 20.3164C21.1651 22.2752 17.6313 23.3369 14.0018 23.3369C10.3723 23.3369 6.83844 22.2752 3.82844 20.3164L2.14844 21.9952C5.6251 24.3764 9.76677 25.6702 14.0018 25.6702C18.2368 25.6702 22.3784 24.3764 25.8551 21.9952L24.1751 20.3164Z" fill="#FAD605"/>
<path d="M14.0021 21.0026C17.6106 21.0026 20.5354 18.0789 20.5354 14.4704C20.5354 9.80377 14.0021 2.33594 14.0021 2.33594C14.0021 2.33594 7.46875 9.80377 7.46875 14.4704C7.46875 15.3284 7.63775 16.1779 7.96609 16.9705C8.29444 17.7631 8.7757 18.4832 9.38239 19.0898C9.98908 19.6964 10.7093 20.1775 11.502 20.5057C12.2946 20.8339 13.1442 21.0028 14.0021 21.0026ZM14.0021 16.6276C14.6982 16.6273 15.3657 16.3506 15.8579 15.8584C16.3501 15.3662 16.6268 14.6987 16.6271 14.0026H18.3771C18.3762 15.1626 17.9149 16.2749 17.0947 17.0952C16.2744 17.9154 15.1621 18.3767 14.0021 18.3776V16.6276Z" fill="white"/>
</svg>
