<svg width="28" height="28" viewBox="0 0 28 28" fill="none" xmlns="http://www.w3.org/2000/svg">
<path d="M21.9053 16.3257C24.2745 16.3257 26.1968 14.3334 26.1968 11.8888C26.1968 9.58413 22.7238 5.15798 22.3307 4.6626C22.1261 4.40413 21.6899 4.40413 21.4853 4.6626C21.0922 5.15798 17.6191 9.58413 17.6191 11.8888C17.6191 14.3334 19.5414 16.3257 21.9053 16.3257ZM19.9157 11.1871C20.0585 11.1871 20.1954 11.2439 20.2964 11.3448C20.3974 11.4458 20.4541 11.5828 20.4541 11.7256C20.4541 12.5839 21.0928 13.2564 21.908 13.2564C22.0508 13.2564 22.1878 13.3132 22.2887 13.4142C22.3897 13.5151 22.4464 13.6521 22.4464 13.7949C22.4464 13.9377 22.3897 14.0747 22.2887 14.1757C22.1878 14.2766 22.0508 14.3334 21.908 14.3334C20.5123 14.3334 19.3772 13.1633 19.3772 11.7256C19.3772 11.5828 19.4339 11.4458 19.5349 11.3448C19.6359 11.2439 19.7729 11.1871 19.9157 11.1871Z" fill="#FAD605"/>
<path d="M26.6583 22.8036C26.6583 23.2074 26.3837 23.5305 26.0445 23.5305H16.9014C14.8229 23.5305 12.6745 23.5305 10.8652 22.4105L9.18523 21.172C8.44851 20.6261 7.62342 20.2108 6.746 19.9443V13.682H7.55907C8.82446 13.682 10.0683 13.9243 11.2206 14.3874L19.2329 18.259C19.7983 18.4851 20.0837 19.1851 19.8791 19.8259C19.8683 19.8474 19.8575 19.8689 19.8521 19.8905C19.7822 20.1005 19.6852 20.149 19.6475 20.1651C19.5506 20.2136 19.2437 20.2836 18.5222 19.9982L14.3706 18.3343C14.2307 18.2786 14.0743 18.2808 13.936 18.3404C13.7976 18.4 13.6886 18.5121 13.6329 18.652C13.5772 18.792 13.5794 18.9483 13.639 19.0867C13.6986 19.225 13.8107 19.334 13.9506 19.3897L18.1022 21.0482C18.9475 21.3874 19.6098 21.4359 20.1268 21.1936C20.2668 21.129 20.4337 21.0213 20.5845 20.8543H24.9352C25.8829 20.8543 26.6583 21.7266 26.6583 22.8036ZM5.66907 12.912V20.9028C5.66907 21.8505 4.94754 22.6205 4.05907 22.6205H1.87831C1.57677 22.6205 1.33984 22.3782 1.33984 22.082V11.7328C1.33984 11.4366 1.57677 11.1943 1.87831 11.1943H4.05907C4.94754 11.1943 5.66907 11.9643 5.66907 12.912Z" fill="white"/>
</svg>
