<svg width="12" height="17" viewBox="0 0 12 17" fill="none" xmlns="http://www.w3.org/2000/svg">
<path d="M9.70286 6.54489L6.42677 2.72176C6.37396 2.66017 6.30845 2.61073 6.23474 2.57684C6.16103 2.54294 6.08086 2.52539 5.99973 2.52539C5.91861 2.52539 5.83844 2.54294 5.76473 2.57684C5.69102 2.61073 5.62551 2.66017 5.5727 2.72176L2.29661 6.54489C1.98395 6.90981 2.24317 7.47348 2.72364 7.47348H9.27677C9.75724 7.47348 10.0165 6.90981 9.70286 6.54489Z" fill="#25185A"/>
<path d="M2.29723 11.454L5.57332 15.2771C5.62613 15.3387 5.69163 15.3881 5.76534 15.422C5.83905 15.4559 5.91922 15.4735 6.00035 15.4735C6.08148 15.4735 6.16165 15.4559 6.23536 15.422C6.30907 15.3881 6.37458 15.3387 6.42738 15.2771L9.70348 11.454C10.0161 11.0891 9.75691 10.5254 9.27645 10.5254H2.72332C2.24285 10.5254 1.98363 11.0891 2.29723 11.454Z" fill="#25185A"/>
</svg>
