<svg width="24" height="24" viewBox="0 0 24 24" fill="none" xmlns="http://www.w3.org/2000/svg">
<path d="M22.3125 20.25V10.0781C22.3125 9.4568 21.8088 8.95312 21.1875 8.95312C20.5662 8.95312 20.0625 9.4568 20.0625 10.0781V20.25C20.0625 20.8713 20.5662 21.375 21.1875 21.375C21.8088 21.375 22.3125 20.8713 22.3125 20.25Z" fill="white"/>
<path d="M17.9062 20.25V15.6562C17.9062 15.0349 17.4026 14.5312 16.7812 14.5312C16.1599 14.5312 15.6562 15.0349 15.6562 15.6563V20.25C15.6562 20.8713 16.1599 21.375 16.7812 21.375C17.4026 21.375 17.9062 20.8713 17.9062 20.25Z" fill="white"/>
<path d="M13.5 20.25V13.5469C13.5 12.9256 12.9963 12.4219 12.375 12.4219C11.7537 12.4219 11.25 12.9256 11.25 13.5469V20.25C11.25 20.8713 11.7537 21.375 12.375 21.375C12.9963 21.375 13.5 20.8713 13.5 20.25Z" fill="white"/>
<path d="M9.09375 20.25V17.1562C9.09375 16.5349 8.59007 16.0312 7.96875 16.0312C7.34743 16.0312 6.84375 16.5349 6.84375 17.1562V20.25C6.84375 20.8713 7.34743 21.375 7.96875 21.375C8.59007 21.375 9.09375 20.8713 9.09375 20.25Z" fill="white"/>
<path d="M4.73438 20.5781V15.3281C4.73438 14.7068 4.2307 14.2031 3.60938 14.2031C2.98805 14.2031 2.48438 14.7068 2.48438 15.3281V20.5781C2.48438 21.1994 2.98805 21.7031 3.60938 21.7031C4.2307 21.7031 4.73438 21.1994 4.73438 20.5781Z" fill="white"/>
<path d="M20.7256 2.62036C20.3974 2.62029 20.0746 2.70348 19.7873 2.86216C19.5 3.02083 19.2577 3.24979 19.083 3.52761C18.9083 3.80543 18.807 4.12303 18.7885 4.45069C18.7699 4.77835 18.8349 5.10534 18.9771 5.40108L16.894 6.54183C16.724 6.14746 16.428 5.82064 16.0523 5.6126C15.6766 5.40457 15.2425 5.32709 14.818 5.3923C14.3936 5.45751 14.0027 5.66172 13.7068 5.97294C13.4109 6.28415 13.2266 6.68476 13.1829 7.11197L10.736 7.31536C10.576 6.868 10.2573 6.49492 9.84051 6.2669C9.42369 6.03887 8.93767 5.97176 8.47465 6.07829C8.01163 6.18482 7.60381 6.45758 7.32854 6.84484C7.05328 7.23209 6.92972 7.70691 6.9813 8.17922L4.85585 9.32391C4.57244 8.92588 4.1489 8.64985 3.67032 8.55128C3.19175 8.45271 2.6936 8.53891 2.27597 8.79254C1.85834 9.04618 1.55217 9.44847 1.41897 9.91858C1.28577 10.3887 1.33541 10.8918 1.55793 11.3268C1.78044 11.7618 2.15934 12.0965 2.61849 12.2636C3.07764 12.4308 3.58302 12.4179 4.0331 12.2277C4.48318 12.0375 4.8446 11.684 5.04475 11.2383C5.2449 10.7925 5.26895 10.2876 5.11207 9.82481L7.12928 8.73839C7.30631 9.14804 7.61916 9.48413 8.0151 9.68999C8.41104 9.89585 8.86585 9.9589 9.30286 9.8685C9.73987 9.7781 10.1323 9.53979 10.4141 9.19374C10.6959 8.84768 10.8497 8.41506 10.8497 7.9688C10.8497 7.93599 10.8488 7.90317 10.8472 7.87036L13.2078 7.67414C13.3016 8.16621 13.5822 8.60292 13.9907 8.89283C14.3992 9.18274 14.904 9.30337 15.3994 9.22947C15.8949 9.15556 16.3425 8.89286 16.6487 8.49635C16.9548 8.09985 17.0956 7.60029 17.0418 7.10227L19.2944 5.8688C19.5121 6.10691 19.7858 6.28695 20.0907 6.39261C20.3956 6.49826 20.722 6.5262 21.0403 6.47388C21.3587 6.42157 21.659 6.29066 21.914 6.093C22.169 5.89535 22.3707 5.6372 22.5008 5.34194C22.6309 5.04668 22.6853 4.72363 22.659 4.40205C22.6327 4.08047 22.5267 3.77053 22.3504 3.50029C22.1741 3.23005 21.9332 3.00805 21.6495 2.85441C21.3658 2.70076 21.0482 2.62032 20.7256 2.62036Z" fill="#FAD605"/>
</svg>
