<svg width="24" height="24" viewBox="0 0 24 24" fill="none" xmlns="http://www.w3.org/2000/svg">
<path d="M22.3125 20.25V10.0781C22.3125 9.4568 21.8088 8.95312 21.1875 8.95312C20.5662 8.95312 20.0625 9.4568 20.0625 10.0781V20.25C20.0625 20.8713 20.5662 21.375 21.1875 21.375C21.8088 21.375 22.3125 20.8713 22.3125 20.25Z" fill="#25185A"/>
<path d="M17.9062 20.25V15.6562C17.9062 15.0349 17.4026 14.5312 16.7812 14.5312C16.1599 14.5312 15.6562 15.0349 15.6562 15.6563V20.25C15.6562 20.8713 16.1599 21.375 16.7812 21.375C17.4026 21.375 17.9062 20.8713 17.9062 20.25Z" fill="#25185A"/>
<path d="M13.5 20.25V13.5469C13.5 12.9256 12.9963 12.4219 12.375 12.4219C11.7537 12.4219 11.25 12.9256 11.25 13.5469V20.25C11.25 20.8713 11.7537 21.375 12.375 21.375C12.9963 21.375 13.5 20.8713 13.5 20.25Z" fill="#25185A"/>
<path d="M9.09375 20.25V17.1562C9.09375 16.5349 8.59007 16.0312 7.96875 16.0312C7.34743 16.0312 6.84375 16.5349 6.84375 17.1562V20.25C6.84375 20.8713 7.34743 21.375 7.96875 21.375C8.59007 21.375 9.09375 20.8713 9.09375 20.25Z" fill="#25185A"/>
<path d="M4.73438 20.5781V15.3281C4.73438 14.7068 4.2307 14.2031 3.60938 14.2031C2.98805 14.2031 2.48438 14.7068 2.48438 15.3281V20.5781C2.48438 21.1994 2.98805 21.7031 3.60938 21.7031C4.2307 21.7031 4.73438 21.1994 4.73438 20.5781Z" fill="#25185A"/>
<path d="M20.7256 2.6203C20.3974 2.62023 20.0746 2.70342 19.7873 2.86209C19.5 3.02077 19.2577 3.24973 19.083 3.52755C18.9083 3.80537 18.807 4.12297 18.7885 4.45063C18.7699 4.77829 18.8349 5.10528 18.9771 5.40102L16.894 6.54177C16.724 6.1474 16.428 5.82058 16.0523 5.61254C15.6766 5.40451 15.2425 5.32702 14.818 5.39223C14.3936 5.45744 14.0027 5.66166 13.7068 5.97288C13.4109 6.28409 13.2266 6.6847 13.1829 7.11191L10.736 7.3153C10.576 6.86794 10.2573 6.49486 9.84051 6.26683C9.42369 6.03881 8.93767 5.9717 8.47465 6.07823C8.01163 6.18476 7.60381 6.45752 7.32854 6.84478C7.05328 7.23203 6.92972 7.70685 6.9813 8.17916L4.85585 9.32385C4.57244 8.92582 4.1489 8.64979 3.67032 8.55122C3.19175 8.45265 2.6936 8.53885 2.27597 8.79248C1.85834 9.04612 1.55217 9.44841 1.41897 9.91852C1.28577 10.3886 1.33541 10.8917 1.55793 11.3268C1.78044 11.7618 2.15934 12.0965 2.61849 12.2636C3.07764 12.4307 3.58302 12.4179 4.0331 12.2277C4.48318 12.0374 4.8446 11.684 5.04475 11.2382C5.2449 10.7925 5.26895 10.2875 5.11207 9.82475L7.12928 8.73833C7.3063 9.14798 7.61916 9.48407 8.0151 9.68993C8.41104 9.89579 8.86585 9.95883 9.30286 9.86844C9.73987 9.77804 10.1323 9.53973 10.4141 9.19367C10.6959 8.84762 10.8497 8.415 10.8497 7.96874C10.8497 7.93593 10.8488 7.90311 10.8472 7.8703L13.2078 7.67408C13.3016 8.16615 13.5822 8.60286 13.9907 8.89277C14.3992 9.18268 14.904 9.30331 15.3994 9.22941C15.8949 9.1555 16.3425 8.8928 16.6487 8.49629C16.9548 8.09979 17.0956 7.60023 17.0418 7.10221L19.2944 5.86874C19.5121 6.10685 19.7858 6.28689 20.0907 6.39255C20.3955 6.4982 20.722 6.52614 21.0403 6.47382C21.3587 6.42151 21.659 6.2906 21.914 6.09294C22.169 5.89529 22.3707 5.63714 22.5008 5.34188C22.6309 5.04662 22.6853 4.72357 22.659 4.40199C22.6327 4.08041 22.5267 3.77047 22.3504 3.50023C22.1741 3.22999 21.9332 3.00799 21.6495 2.85435C21.3658 2.7007 21.0482 2.62025 20.7256 2.6203Z" fill="#D7B403"/>
</svg>
