<svg width="16" height="16" viewBox="0 0 16 16" fill="none" xmlns="http://www.w3.org/2000/svg">
<path d="M10 8.97473V2.5316C10 1.4341 9.12844 0.518478 8.03125 0.501915C7.76608 0.498108 7.50279 0.547009 7.25668 0.645782C7.01056 0.744554 6.78651 0.89123 6.59754 1.07729C6.40857 1.26336 6.25843 1.48511 6.15586 1.72966C6.05328 1.97422 6.0003 2.23672 6 2.50192V8.97473C5.99993 9.01333 5.99092 9.05139 5.97368 9.08593C5.95644 9.12046 5.93143 9.15054 5.90063 9.17379C5.46489 9.50491 5.11171 9.93239 4.86872 10.4228C4.62573 10.9131 4.49953 11.4531 4.5 12.0004C4.5 12.9286 4.86875 13.8189 5.52513 14.4752C6.1815 15.1316 7.07174 15.5004 8 15.5004C8.92826 15.5004 9.8185 15.1316 10.4749 14.4752C11.1313 13.8189 11.5 12.9286 11.5 12.0004C11.5005 11.4531 11.3743 10.9131 11.1313 10.4228C10.8883 9.93239 10.5351 9.50491 10.0994 9.17379C10.0686 9.15054 10.0436 9.12046 10.0263 9.08593C10.0091 9.05139 10.0001 9.01333 10 8.97473ZM7.93969 13.5004C7.615 13.487 7.30344 13.3685 7.05189 13.1627C6.80035 12.957 6.62242 12.6751 6.54488 12.3595C6.46734 12.044 6.49439 11.7117 6.62195 11.4128C6.74951 11.114 6.97068 10.8646 7.25219 10.7022C7.32812 10.6584 7.39119 10.5954 7.43507 10.5194C7.47895 10.4435 7.5021 10.3574 7.50219 10.2697V3.51442C7.50219 3.24535 7.70906 3.01442 7.97813 3.00098C8.04555 2.99803 8.11288 3.00875 8.17605 3.03252C8.23921 3.05628 8.29692 3.09258 8.34568 3.13924C8.39444 3.1859 8.43326 3.24195 8.45978 3.30401C8.4863 3.36608 8.49998 3.43286 8.5 3.50035V10.2685C8.50059 10.357 8.52442 10.4439 8.56912 10.5203C8.61381 10.5968 8.67781 10.6602 8.75469 10.7041C9.04473 10.8723 9.27005 11.1329 9.39466 11.4442C9.51928 11.7554 9.53602 12.0995 9.4422 12.4214C9.34837 12.7433 9.14941 13.0245 8.87706 13.22C8.60471 13.4156 8.27469 13.5143 7.93969 13.5004Z" fill="#1C114D"/>
</svg>
