<svg width="28" height="29" viewBox="0 0 28 29" fill="none" xmlns="http://www.w3.org/2000/svg">
<path d="M14 3.12305C7.71805 3.12305 2.625 8.21609 2.625 14.498C2.625 20.78 7.71805 25.8731 14 25.8731C20.282 25.8731 25.375 20.78 25.375 14.498C25.375 8.21609 20.282 3.12305 14 3.12305ZM19.25 16.248H14C13.7679 16.248 13.5454 16.1559 13.3813 15.9918C13.2172 15.8277 13.125 15.6051 13.125 15.373V7.49805C13.125 7.26598 13.2172 7.04342 13.3813 6.87933C13.5454 6.71523 13.7679 6.62305 14 6.62305C14.2321 6.62305 14.4546 6.71523 14.6187 6.87933C14.7828 7.04342 14.875 7.26598 14.875 7.49805V14.498H19.25C19.4821 14.498 19.7046 14.5902 19.8687 14.7543C20.0328 14.9184 20.125 15.141 20.125 15.373C20.125 15.6051 20.0328 15.8277 19.8687 15.9918C19.7046 16.1559 19.4821 16.248 19.25 16.248Z" fill="#3FBC43"/>
</svg>
