<svg width="28" height="29" viewBox="0 0 28 29" fill="none" xmlns="http://www.w3.org/2000/svg">
<path d="M3.17182 9.04963C3.39997 9.11662 3.6193 9.21062 3.82516 9.32963C4.54827 9.76122 5.3747 9.98909 6.21682 9.98909C7.05894 9.98909 7.88537 9.76122 8.60849 9.32963C9.06402 9.07198 9.57847 8.93657 10.1018 8.93657C10.6252 8.93657 11.1396 9.07198 11.5952 9.32963C12.327 9.74811 13.1554 9.96823 13.9985 9.96823C14.8415 9.96823 15.67 9.74811 16.4018 9.32963C16.8574 9.07198 17.3718 8.93657 17.8952 8.93657C18.4185 8.93657 18.933 9.07198 19.3885 9.32963C20.1279 9.75218 20.9636 9.97719 21.8152 9.98296C22.6379 9.98127 23.4445 9.7554 24.1485 9.32963C24.3543 9.21062 24.5737 9.11662 24.8018 9.04963C25.0989 8.96299 25.3493 8.7619 25.4981 8.4906C25.6469 8.2193 25.6818 7.9 25.5952 7.60296C25.5085 7.30592 25.3074 7.05546 25.0361 6.90668C24.7648 6.7579 24.4455 6.72299 24.1485 6.80963C23.7394 6.93586 23.3476 7.1122 22.9818 7.33463C22.6102 7.55197 22.1874 7.66652 21.7568 7.66652C21.3263 7.66652 20.9035 7.55197 20.5318 7.33463C19.7229 6.88088 18.811 6.64258 17.8835 6.64258C16.956 6.64258 16.0441 6.88088 15.2352 7.33463C14.8596 7.55286 14.4329 7.66781 13.9985 7.66781C13.5641 7.66781 13.1374 7.55286 12.7618 7.33463C11.9529 6.88088 11.041 6.64258 10.1135 6.64258C9.186 6.64258 8.27407 6.88088 7.46516 7.33463C7.0935 7.55197 6.6707 7.66652 6.24016 7.66652C5.80961 7.66652 5.38682 7.55197 5.01516 7.33463C4.6494 7.1122 4.25754 6.93586 3.84849 6.80963C3.55145 6.72299 3.23215 6.7579 2.96085 6.90668C2.68955 7.05546 2.48846 7.30592 2.40182 7.60296C2.31519 7.9 2.3501 8.2193 2.49888 8.4906C2.64765 8.7619 2.89811 8.96299 3.19516 9.04963H3.17182ZM24.1718 18.4763C23.7628 18.6025 23.3709 18.7789 23.0052 19.0013C22.6335 19.2186 22.2107 19.3332 21.7802 19.3332C21.3496 19.3332 20.9268 19.2186 20.5552 19.0013C19.7462 18.5475 18.8343 18.3092 17.9068 18.3092C16.9793 18.3092 16.0674 18.5475 15.2585 19.0013C14.8829 19.2195 14.4562 19.3345 14.0218 19.3345C13.5874 19.3345 13.1608 19.2195 12.7852 19.0013C11.9762 18.5475 11.0643 18.3092 10.1368 18.3092C9.20934 18.3092 8.2974 18.5475 7.48849 19.0013C7.11683 19.2186 6.69403 19.3332 6.26349 19.3332C5.83294 19.3332 5.41015 19.2186 5.03849 19.0013C4.67273 18.7789 4.28087 18.6025 3.87182 18.4763C3.72474 18.4334 3.57065 18.4199 3.41835 18.4365C3.26605 18.4532 3.11852 18.4997 2.98418 18.5733C2.84985 18.647 2.73134 18.7464 2.63542 18.8659C2.5395 18.9854 2.46805 19.1226 2.42516 19.2696C2.38226 19.4167 2.36875 19.5708 2.3854 19.7231C2.40205 19.8754 2.44854 20.0229 2.52221 20.1573C2.59588 20.2916 2.69528 20.4101 2.81475 20.506C2.93422 20.6019 3.07141 20.6734 3.21849 20.7163C3.44664 20.7833 3.66597 20.8773 3.87182 20.9963C4.59494 21.4279 5.42137 21.6558 6.26349 21.6558C7.10561 21.6558 7.93204 21.4279 8.65516 20.9963C9.11069 20.7386 9.62514 20.6032 10.1485 20.6032C10.6718 20.6032 11.1863 20.7386 11.6418 20.9963C12.3737 21.4148 13.2021 21.6349 14.0452 21.6349C14.8882 21.6349 15.7166 21.4148 16.4485 20.9963C16.904 20.7386 17.4185 20.6032 17.9418 20.6032C18.4652 20.6032 18.9796 20.7386 19.4352 20.9963C20.1745 21.4188 21.0103 21.6439 21.8618 21.6496C22.6845 21.6479 23.4912 21.4221 24.1952 20.9963C24.401 20.8773 24.6203 20.7833 24.8485 20.7163C25.1455 20.6297 25.396 20.4286 25.5448 20.1573C25.6936 19.886 25.7285 19.5667 25.6418 19.2696C25.5552 18.9726 25.3541 18.7221 25.0828 18.5733C24.8115 18.4246 24.4922 18.3897 24.1952 18.4763H24.1718ZM24.1718 12.643C23.7628 12.7692 23.3709 12.9455 23.0052 13.168C22.6335 13.3853 22.2107 13.4999 21.7802 13.4999C21.3496 13.4999 20.9268 13.3853 20.5552 13.168C19.7462 12.7142 18.8343 12.4759 17.9068 12.4759C16.9793 12.4759 16.0674 12.7142 15.2585 13.168C14.8829 13.3862 14.4562 13.5011 14.0218 13.5011C13.5874 13.5011 13.1608 13.3862 12.7852 13.168C11.9762 12.7142 11.0643 12.4759 10.1368 12.4759C9.20934 12.4759 8.2974 12.7142 7.48849 13.168C7.11683 13.3853 6.69403 13.4999 6.26349 13.4999C5.83294 13.4999 5.41015 13.3853 5.03849 13.168C4.67273 12.9455 4.28087 12.7692 3.87182 12.643C3.71906 12.5853 3.5559 12.5603 3.39288 12.5697C3.22986 12.579 3.07063 12.6225 2.92547 12.6973C2.78031 12.7721 2.65247 12.8765 2.55021 13.0038C2.44795 13.1311 2.37355 13.2784 2.33182 13.4363C2.28892 13.5834 2.27542 13.7375 2.29207 13.8898C2.30872 14.0421 2.35521 14.1896 2.42888 14.3239C2.50254 14.4583 2.60195 14.5768 2.72142 14.6727C2.84089 14.7686 2.97808 14.8401 3.12516 14.883C3.3533 14.95 3.57263 15.044 3.77849 15.163C4.50161 15.5946 5.32804 15.8224 6.17016 15.8224C7.01228 15.8224 7.8387 15.5946 8.56182 15.163C9.01736 14.9053 9.53181 14.7699 10.0552 14.7699C10.5785 14.7699 11.093 14.9053 11.5485 15.163C12.2803 15.5814 13.1088 15.8016 13.9518 15.8016C14.7949 15.8016 15.6233 15.5814 16.3552 15.163C16.8107 14.9053 17.3251 14.7699 17.8485 14.7699C18.3718 14.7699 18.8863 14.9053 19.3418 15.163C20.0812 15.5855 20.9169 15.8105 21.7685 15.8163C22.5912 15.8146 23.3979 15.5887 24.1018 15.163C24.3077 15.044 24.527 14.95 24.7552 14.883C25.0522 14.7963 25.3027 14.5952 25.4514 14.3239C25.6002 14.0526 25.6351 13.7333 25.5485 13.4363C25.4619 13.1393 25.2608 12.8888 24.9895 12.74C24.7182 12.5912 24.3989 12.5563 24.1018 12.643H24.1718Z" fill="#00B7FF"/>
</svg>
