<svg width="20" height="20" viewBox="0 0 20 20" fill="none" xmlns="http://www.w3.org/2000/svg">
<path d="M15.832 16.1665H4.16536C3.41392 16.1665 2.69325 15.868 2.1619 15.3366C1.63054 14.8053 1.33203 14.0846 1.33203 13.3332V9.99984C1.33203 9.24839 1.63054 8.52772 2.1619 7.99637C2.69325 7.46501 3.41392 7.1665 4.16536 7.1665H15.832C16.5835 7.1665 17.3041 7.46501 17.8355 7.99637C18.3669 8.52772 18.6654 9.24839 18.6654 9.99984V13.3332C18.6654 14.0846 18.3669 14.8053 17.8355 15.3366C17.3041 15.868 16.5835 16.1665 15.832 16.1665ZM2.6333 14.8652L2.97148 14.5271L2.6333 14.8652C3.03963 15.2716 3.59073 15.4998 4.16536 15.4998H15.832C16.4067 15.4998 16.9578 15.2716 17.3641 14.8652C17.7704 14.4589 17.9987 13.9078 17.9987 13.3332V9.99984C17.9987 9.4252 17.7704 8.8741 17.3641 8.46777C16.9578 8.06144 16.4067 7.83317 15.832 7.83317H4.16536C3.59073 7.83317 3.03963 8.06144 2.6333 8.46777C2.22697 8.8741 1.9987 9.4252 1.9987 9.99984V13.3332C1.9987 13.9078 2.22697 14.4589 2.6333 14.8652Z" fill="#25185A" stroke="#25185A"/>
<path d="M5.33073 6.66658V7.16658H5.83073H14.1641H14.6641V6.66658C14.6641 5.42891 14.1724 4.24192 13.2972 3.36675C12.4221 2.49158 11.2351 1.99992 9.9974 1.99992C8.75972 1.99992 7.57273 2.49158 6.69756 3.36675C5.82239 4.24192 5.33073 5.42891 5.33073 6.66658ZM4.66406 7.83325V6.66658C4.66406 5.2521 5.22597 3.89554 6.22616 2.89535C7.22635 1.89516 8.58291 1.33325 9.9974 1.33325C11.4119 1.33325 12.7684 1.89516 13.7686 2.89535C14.7688 3.89554 15.3307 5.2521 15.3307 6.66658V7.83325H4.66406Z" fill="#25185A" stroke="#25185A"/>
<path d="M6.10602 10.9259L5.69029 11.2037L6.10602 10.9259C5.95951 10.7066 5.75127 10.5357 5.50764 10.4348C5.26401 10.3339 4.99592 10.3075 4.73728 10.359C4.47863 10.4104 4.24106 10.5374 4.05459 10.7239C3.86812 10.9103 3.74113 11.1479 3.68968 11.4065C3.63824 11.6652 3.66464 11.9333 3.76556 12.1769C3.86647 12.4205 4.03737 12.6288 4.25664 12.7753C4.4759 12.9218 4.73369 13 4.9974 13C5.35102 13 5.69016 12.8595 5.9402 12.6095C6.19025 12.3594 6.33073 12.0203 6.33073 11.6667C6.33073 11.403 6.25253 11.1452 6.10602 10.9259ZM7.09889 12.1769L7.56083 11.9856L7.09889 12.1769C7.19981 12.4205 7.3707 12.6288 7.58997 12.7753C7.80923 12.9218 8.06702 13 8.33073 13C8.68435 13 9.02349 12.8595 9.27354 12.6095C9.52359 12.3594 9.66406 12.0203 9.66406 11.6667C9.66406 11.403 9.58586 11.1452 9.43936 10.9259C9.29285 10.7066 9.08461 10.5357 8.84097 10.4348C8.59734 10.3339 8.32925 10.3075 8.07061 10.359C7.81197 10.4104 7.57439 10.5374 7.38792 10.7239C7.20145 10.9103 7.07446 11.1479 7.02302 11.4065C6.97157 11.6652 6.99797 11.9333 7.09889 12.1769ZM10.7213 10.7239L11.0748 11.0774L10.7213 10.7239C10.5348 10.9103 10.4078 11.1479 10.3563 11.4065C10.3049 11.6652 10.3313 11.9333 10.4322 12.1769C10.5331 12.4205 10.704 12.6288 10.9233 12.7753C11.1426 12.9218 11.4004 13 11.6641 13C12.0177 13 12.3568 12.8595 12.6069 12.6095C12.8569 12.3594 12.9974 12.0203 12.9974 11.6667C12.9974 11.403 12.9192 11.1452 12.7727 10.9259C12.6262 10.7066 12.4179 10.5357 12.1743 10.4348C11.9307 10.3339 11.6626 10.3075 11.4039 10.359C11.1453 10.4104 10.9077 10.5374 10.7213 10.7239ZM14.0546 10.7239L14.4081 11.0774L14.0546 10.7239C13.8681 10.9103 13.7411 11.1479 13.6897 11.4065C13.6382 11.6652 13.6646 11.9333 13.7656 12.1769C13.8665 12.4205 14.0374 12.6288 14.2566 12.7753C14.4759 12.9218 14.7337 13 14.9974 13C15.351 13 15.6902 12.8595 15.9402 12.6095C16.1903 12.3594 16.3307 12.0203 16.3307 11.6667C16.3307 11.403 16.2525 11.1452 16.106 10.9259C15.9595 10.7066 15.7513 10.5357 15.5076 10.4348C15.264 10.3339 14.9959 10.3075 14.7373 10.359C14.4786 10.4104 14.2411 10.5374 14.0546 10.7239ZM4.16406 8H15.8307C16.3612 8 16.8699 8.21071 17.2449 8.58579C17.62 8.96086 17.8307 9.46957 17.8307 10V13.3333C17.8307 13.8638 17.62 14.3725 17.2449 14.7475C16.8699 15.1226 16.3612 15.3333 15.8307 15.3333H4.16406C3.63363 15.3333 3.12492 15.1226 2.74985 14.7475C2.37478 14.3725 2.16406 13.8638 2.16406 13.3333V10C2.16406 9.46957 2.37478 8.96086 2.74985 8.58579C3.12492 8.21071 3.63363 8 4.16406 8Z" fill="#25185A" stroke="#25185A"/>
</svg>
