<svg width="28" height="28" viewBox="0 0 28 28" fill="none" xmlns="http://www.w3.org/2000/svg">
<path d="M14 2.625C7.71805 2.625 2.625 7.71805 2.625 14C2.625 20.282 7.71805 25.375 14 25.375C20.282 25.375 25.375 20.282 25.375 14C25.375 7.71805 20.282 2.625 14 2.625ZM18.9963 14.2543C18.9153 14.3359 18.8191 14.4008 18.7131 14.4452C18.6071 14.4896 18.4934 14.5127 18.3785 14.5131C18.2636 14.5136 18.1497 14.4914 18.0433 14.4478C17.937 14.4043 17.8403 14.3402 17.7587 14.2592L14.875 11.398V18.7031C14.875 18.9352 14.7828 19.1578 14.6187 19.3218C14.4546 19.4859 14.2321 19.5781 14 19.5781C13.7679 19.5781 13.5454 19.4859 13.3813 19.3218C13.2172 19.1578 13.125 18.9352 13.125 18.7031V11.398L10.2413 14.2592C10.1597 14.3402 10.0629 14.4042 9.95646 14.4477C9.85005 14.4913 9.7361 14.5134 9.62113 14.5129C9.50616 14.5124 9.39242 14.4893 9.28639 14.4448C9.18037 14.4003 9.08414 14.3354 9.0032 14.2538C8.92227 14.1721 8.8582 14.0753 8.81468 13.9689C8.77115 13.8625 8.74901 13.7485 8.74951 13.6336C8.75002 13.5186 8.77317 13.4048 8.81764 13.2988C8.8621 13.1928 8.92702 13.0966 9.00867 13.0156L13.3837 8.67399C13.5476 8.51135 13.7691 8.42009 14 8.42009C14.2309 8.42009 14.4524 8.51135 14.6163 8.67399L18.9913 13.0156C19.0731 13.0966 19.1381 13.1929 19.1826 13.299C19.2271 13.4051 19.2502 13.5189 19.2507 13.6339C19.2512 13.749 19.2289 13.863 19.1853 13.9695C19.1416 14.0759 19.0774 14.1727 18.9963 14.2543Z" fill="#3FBC43"/>
</svg>
