<svg width="28" height="29" viewBox="0 0 28 29" fill="none" xmlns="http://www.w3.org/2000/svg">
<path d="M14 3.125C7.71805 3.125 2.625 8.21805 2.625 14.5C2.625 20.782 7.71805 25.875 14 25.875C20.282 25.875 25.375 20.782 25.375 14.5C25.375 8.21805 20.282 3.125 14 3.125ZM18.9963 14.7543C18.9153 14.8359 18.8191 14.9008 18.7131 14.9452C18.6071 14.9896 18.4934 15.0127 18.3785 15.0131C18.2636 15.0136 18.1497 14.9914 18.0433 14.9478C17.937 14.9043 17.8403 14.8402 17.7587 14.7592L14.875 11.898V19.2031C14.875 19.4352 14.7828 19.6578 14.6187 19.8218C14.4546 19.9859 14.2321 20.0781 14 20.0781C13.7679 20.0781 13.5454 19.9859 13.3813 19.8218C13.2172 19.6578 13.125 19.4352 13.125 19.2031V11.898L10.2413 14.7592C10.1597 14.8402 10.0629 14.9042 9.95646 14.9477C9.85005 14.9913 9.7361 15.0134 9.62113 15.0129C9.50616 15.0124 9.39242 14.9893 9.28639 14.9448C9.18037 14.9003 9.08414 14.8354 9.0032 14.7538C8.92227 14.6721 8.8582 14.5753 8.81468 14.4689C8.77115 14.3625 8.74901 14.2485 8.74951 14.1336C8.75002 14.0186 8.77317 13.9048 8.81764 13.7988C8.8621 13.6928 8.92702 13.5966 9.00867 13.5156L13.3837 9.17399C13.5476 9.01135 13.7691 8.92009 14 8.92009C14.2309 8.92009 14.4524 9.01135 14.6163 9.17399L18.9913 13.5156C19.0731 13.5966 19.1381 13.6929 19.1826 13.799C19.2271 13.9051 19.2502 14.0189 19.2507 14.1339C19.2512 14.249 19.2289 14.363 19.1853 14.4695C19.1416 14.5759 19.0774 14.6727 18.9963 14.7543Z" fill="#58469C"/>
</svg>
