<svg width="32" height="33" viewBox="0 0 32 33" fill="none" xmlns="http://www.w3.org/2000/svg">
<path d="M16 3.5C8.82063 3.5 3 9.32063 3 16.5C3 23.6794 8.82063 29.5 16 29.5C23.1794 29.5 29 23.6794 29 16.5C29 9.32063 23.1794 3.5 16 3.5ZM21.71 16.7906C21.6175 16.8839 21.5076 16.958 21.3864 17.0088C21.2653 17.0595 21.1353 17.0859 21.004 17.0864C20.8726 17.0869 20.7425 17.0616 20.6209 17.0118C20.4994 16.962 20.3889 16.8888 20.2956 16.7963L17 13.5263V21.875C17 22.1402 16.8946 22.3946 16.7071 22.5821C16.5196 22.7696 16.2652 22.875 16 22.875C15.7348 22.875 15.4804 22.7696 15.2929 22.5821C15.1054 22.3946 15 22.1402 15 21.875V13.5263L11.7044 16.7963C11.6111 16.8888 11.5004 16.962 11.3788 17.0117C11.2572 17.0615 11.127 17.0868 10.9956 17.0862C10.8642 17.0856 10.7342 17.0591 10.613 17.0083C10.4919 16.9575 10.3819 16.8833 10.2894 16.79C10.1969 16.6967 10.1237 16.5861 10.0739 16.4644C10.0242 16.3428 9.99887 16.2126 9.99945 16.0812C10 15.9498 10.0265 15.8198 10.0773 15.6986C10.1281 15.5775 10.2023 15.4675 10.2956 15.375L15.2956 10.4131C15.4829 10.2273 15.7361 10.123 16 10.123C16.2639 10.123 16.5171 10.2273 16.7044 10.4131L21.7044 15.375C21.7978 15.4675 21.8721 15.5776 21.923 15.6988C21.9738 15.8201 22.0003 15.9502 22.0008 16.0816C22.0013 16.2131 21.9759 16.3434 21.926 16.4651C21.8761 16.5868 21.8027 16.6974 21.71 16.7906Z" fill="#3F9AFC"/>
</svg>
