<svg width="32" height="32" viewBox="0 0 32 32" fill="none" xmlns="http://www.w3.org/2000/svg">
<path d="M19.1155 5.40052C18.8024 4.82338 18.3492 4.34349 17.802 4.00967C17.2548 3.67585 16.633 3.5 16 3.5C15.367 3.5 14.7452 3.67585 14.198 4.00967C13.6508 4.34349 13.1976 4.82338 12.8845 5.40052L3.44913 23.0341C3.14952 23.5875 2.99463 24.2141 3.00014 24.8504C3.00566 25.4868 3.17139 26.1103 3.48055 26.6579C3.79425 27.2228 4.24472 27.6907 4.78633 28.0142C5.32793 28.3376 5.94142 28.5052 6.56464 28.4999H25.4354C26.0586 28.5052 26.6721 28.3376 27.2137 28.0142C27.7553 27.6907 28.2057 27.2228 28.5194 26.6579C28.8286 26.1103 28.9943 25.4868 28.9999 24.8504C29.0054 24.2141 28.8505 23.5875 28.5509 23.0341L19.1155 5.40052ZM16 23.9545C15.7857 23.9545 15.5763 23.8879 15.3982 23.763C15.22 23.6382 15.0812 23.4607 14.9992 23.2531C14.9172 23.0454 14.8957 22.817 14.9375 22.5965C14.9793 22.3761 15.0825 22.1736 15.234 22.0147C15.3855 21.8558 15.5785 21.7476 15.7887 21.7037C15.9988 21.6599 16.2166 21.6824 16.4146 21.7684C16.6125 21.8544 16.7817 22 16.9007 22.1869C17.0197 22.3738 17.0833 22.5935 17.0833 22.8182C17.0833 23.1196 16.9691 23.4086 16.766 23.6217C16.5628 23.8348 16.2873 23.9545 16 23.9545ZM17.0833 18.2729C17.0833 18.5743 16.9691 18.8633 16.766 19.0764C16.5628 19.2895 16.2873 19.4092 16 19.4092C15.7127 19.4092 15.4372 19.2895 15.234 19.0764C15.0309 18.8633 14.9167 18.5743 14.9167 18.2729V11.4549C14.9167 11.1535 15.0309 10.8645 15.234 10.6514C15.4372 10.4383 15.7127 10.3186 16 10.3186C16.2873 10.3186 16.5628 10.4383 16.766 10.6514C16.9691 10.8645 17.0833 11.1535 17.0833 11.4549V18.2729Z" fill="#DB6F12"/>
</svg>
