<svg width="33" height="33" viewBox="0 0 33 33" fill="none" xmlns="http://www.w3.org/2000/svg">
<path d="M19.4475 5.90052C19.1345 5.32338 18.6813 4.84349 18.134 4.50967C17.5868 4.17585 16.9651 4 16.332 4C15.699 4 15.0772 4.17585 14.53 4.50967C13.9828 4.84349 13.5296 5.32338 13.2165 5.90052L3.78117 23.5341C3.48155 24.0875 3.32666 24.7141 3.33217 25.3504C3.33769 25.9868 3.50342 26.6103 3.81258 27.1579C4.12628 27.7228 4.57675 28.1907 5.11836 28.5142C5.65996 28.8376 6.27345 29.0052 6.89667 28.9999H25.7674C26.3906 29.0052 27.0041 28.8376 27.5457 28.5142C28.0873 28.1907 28.5378 27.7228 28.8515 27.1579C29.1606 26.6103 29.3264 25.9868 29.3319 25.3504C29.3374 24.7141 29.1825 24.0875 28.8829 23.5341L19.4475 5.90052ZM16.332 24.4545C16.1178 24.4545 15.9083 24.3879 15.7302 24.263C15.552 24.1382 15.4132 23.9607 15.3312 23.7531C15.2492 23.5454 15.2278 23.317 15.2696 23.0965C15.3114 22.8761 15.4145 22.6736 15.566 22.5147C15.7175 22.3558 15.9106 22.2476 16.1207 22.2037C16.3308 22.1599 16.5486 22.1824 16.7466 22.2684C16.9445 22.3544 17.1137 22.5 17.2327 22.6869C17.3518 22.8738 17.4153 23.0935 17.4153 23.3182C17.4153 23.6196 17.3012 23.9086 17.098 24.1217C16.8949 24.3348 16.6193 24.4545 16.332 24.4545ZM17.4153 18.7729C17.4153 19.0743 17.3012 19.3633 17.098 19.5764C16.8949 19.7895 16.6193 19.9092 16.332 19.9092C16.0447 19.9092 15.7692 19.7895 15.566 19.5764C15.3629 19.3633 15.2488 19.0743 15.2488 18.7729V11.9549C15.2488 11.6535 15.3629 11.3645 15.566 11.1514C15.7692 10.9383 16.0447 10.8186 16.332 10.8186C16.6193 10.8186 16.8949 10.9383 17.098 11.1514C17.3012 11.3645 17.4153 11.6535 17.4153 11.9549V18.7729Z" fill="white"/>
</svg>
