<svg width="28" height="28" viewBox="0 0 28 28" fill="none" xmlns="http://www.w3.org/2000/svg">
<g clip-path="url(#clip0_389_23689)">
<path d="M13.8344 12.7302C13.119 18.4912 9.46501 19.5161 9.46501 23.5215C9.46501 25.9938 11.5412 28 13.9996 28C16.458 28 18.5328 25.9924 18.5328 23.5215C18.5328 19.5161 14.8788 18.4912 14.1634 12.7302C14.141 12.558 13.8568 12.558 13.8344 12.7302ZM5.43581 0.130249C4.72041 5.89125 1.06641 6.91465 1.06641 10.9214C1.06641 13.3924 3.14121 15.4 5.59961 15.4C8.05801 15.4 10.1328 13.3924 10.1328 10.9214C10.1328 6.91605 6.47881 5.89125 5.76341 0.130249C5.74241 -0.0419514 5.45681 -0.0419514 5.43581 0.130249ZM22.2358 0.130249C21.5204 5.89125 17.8664 6.91605 17.8664 10.9214C17.8664 13.3924 19.9412 15.4 22.3996 15.4C24.858 15.4 26.9328 13.3924 26.9328 10.9214C26.9328 6.91605 23.2788 5.89125 22.5634 0.130249C22.541 -0.0419514 22.2568 -0.0419514 22.2358 0.130249Z" fill="#2E77D8"/>
</g>
<defs>
<clipPath id="clip0_389_23689">
<rect width="28" height="28" fill="white"/>
</clipPath>
</defs>
</svg>
