<svg width="16" height="16" viewBox="0 0 16 16" fill="none" xmlns="http://www.w3.org/2000/svg">
<g clip-path="url(#clip0_389_23565)">
<path d="M6.38196 3.25C6.54877 3.0635 6.75958 2.9217 6.99519 2.83749C7.23081 2.75329 7.48375 2.72936 7.73097 2.76789C7.9782 2.80642 8.21186 2.90618 8.41068 3.05809C8.6095 3.20999 8.76716 3.40922 8.86931 3.63763C8.97146 3.86604 9.01484 4.11638 8.99552 4.36584C8.9762 4.6153 8.89478 4.85597 8.75868 5.06593C8.62258 5.27588 8.43612 5.44846 8.21628 5.56794C7.99645 5.68742 7.75021 5.75001 7.5 5.75001H1.5M11.882 5.75C12.0488 5.56351 12.2596 5.4217 12.4952 5.3375C12.7308 5.25329 12.9837 5.22936 13.231 5.26789C13.4782 5.30642 13.7119 5.40618 13.9107 5.55808C14.1095 5.70999 14.2672 5.90922 14.3693 6.13763C14.4715 6.36604 14.5148 6.61637 14.4955 6.86584C14.4762 7.1153 14.3948 7.35597 14.2587 7.56592C14.1226 7.77588 13.9361 7.94846 13.7163 8.06794C13.4964 8.18742 13.2502 8.25001 13 8.25001H2M8.38195 13.25C8.54876 13.4365 8.75957 13.5783 8.99518 13.6625C9.2308 13.7467 9.48373 13.7707 9.73096 13.7321C9.97819 13.6936 10.2118 13.5939 10.4107 13.4419C10.6095 13.29 10.7672 13.0908 10.8693 12.8624C10.9715 12.634 11.0148 12.3837 10.9955 12.1342C10.9762 11.8847 10.8948 11.6441 10.7587 11.4341C10.6226 11.2241 10.4361 11.0516 10.2163 10.9321C9.99645 10.8126 9.75021 10.75 9.5 10.75H2.5" stroke="#1C114D" stroke-width="1.5" stroke-linecap="round" stroke-linejoin="round"/>
</g>
<defs>
<clipPath id="clip0_389_23565">
<rect width="16" height="16" fill="white"/>
</clipPath>
</defs>
</svg>
